%TF.GenerationSoftware,KiCad,Pcbnew,7.0.9-7.0.9~ubuntu22.04.1*%
%TF.CreationDate,2023-11-09T12:16:25-08:00*%
%TF.ProjectId,SST60,53535436-302e-46b6-9963-61645f706362,0.1*%
%TF.SameCoordinates,Original*%
%TF.FileFunction,Legend,Bot*%
%TF.FilePolarity,Positive*%
%FSLAX46Y46*%
G04 Gerber Fmt 4.6, Leading zero omitted, Abs format (unit mm)*
G04 Created by KiCad (PCBNEW 7.0.9-7.0.9~ubuntu22.04.1) date 2023-11-09 12:16:25*
%MOMM*%
%LPD*%
G01*
G04 APERTURE LIST*
G04 Aperture macros list*
%AMRoundRect*
0 Rectangle with rounded corners*
0 $1 Rounding radius*
0 $2 $3 $4 $5 $6 $7 $8 $9 X,Y pos of 4 corners*
0 Add a 4 corners polygon primitive as box body*
4,1,4,$2,$3,$4,$5,$6,$7,$8,$9,$2,$3,0*
0 Add four circle primitives for the rounded corners*
1,1,$1+$1,$2,$3*
1,1,$1+$1,$4,$5*
1,1,$1+$1,$6,$7*
1,1,$1+$1,$8,$9*
0 Add four rect primitives between the rounded corners*
20,1,$1+$1,$2,$3,$4,$5,0*
20,1,$1+$1,$4,$5,$6,$7,0*
20,1,$1+$1,$6,$7,$8,$9,0*
20,1,$1+$1,$8,$9,$2,$3,0*%
%AMHorizOval*
0 Thick line with rounded ends*
0 $1 width*
0 $2 $3 position (X,Y) of the first rounded end (center of the circle)*
0 $4 $5 position (X,Y) of the second rounded end (center of the circle)*
0 Add line between two ends*
20,1,$1,$2,$3,$4,$5,0*
0 Add two circle primitives to create the rounded ends*
1,1,$1,$2,$3*
1,1,$1,$4,$5*%
G04 Aperture macros list end*
%ADD10C,0.150000*%
%ADD11C,0.120000*%
%ADD12C,0.100000*%
%ADD13C,1.750000*%
%ADD14C,3.987800*%
%ADD15HorizOval,2.250000X0.655008X0.729993X-0.655008X-0.729993X0*%
%ADD16C,2.250000*%
%ADD17HorizOval,2.250000X0.020004X0.290000X-0.020004X-0.290000X0*%
%ADD18HorizOval,2.250000X0.655001X0.730000X-0.655001X-0.730000X0*%
%ADD19HorizOval,2.250000X0.020000X0.290000X-0.020000X-0.290000X0*%
%ADD20C,4.000000*%
%ADD21C,3.050000*%
%ADD22C,1.700000*%
%ADD23C,2.200000*%
%ADD24C,1.000000*%
%ADD25C,7.001300*%
%ADD26C,7.000240*%
%ADD27C,3.048000*%
%ADD28C,1.905000*%
%ADD29R,1.905000X1.905000*%
%ADD30R,0.700000X1.000000*%
%ADD31R,0.700000X0.600000*%
%ADD32R,1.000000X1.700000*%
%ADD33R,1.200000X0.900000*%
%ADD34RoundRect,0.140000X-0.170000X0.140000X-0.170000X-0.140000X0.170000X-0.140000X0.170000X0.140000X0*%
%ADD35RoundRect,0.175000X0.175000X0.175000X-0.175000X0.175000X-0.175000X-0.175000X0.175000X-0.175000X0*%
%ADD36R,0.700000X0.700000*%
%ADD37R,0.900000X1.200000*%
%ADD38RoundRect,0.175000X-0.175000X-0.175000X0.175000X-0.175000X0.175000X0.175000X-0.175000X0.175000X0*%
%ADD39RoundRect,0.140000X0.170000X-0.140000X0.170000X0.140000X-0.170000X0.140000X-0.170000X-0.140000X0*%
%ADD40RoundRect,0.140000X0.140000X0.170000X-0.140000X0.170000X-0.140000X-0.170000X0.140000X-0.170000X0*%
%ADD41RoundRect,0.150000X0.150000X-0.587500X0.150000X0.587500X-0.150000X0.587500X-0.150000X-0.587500X0*%
%ADD42RoundRect,0.175000X-0.175000X0.175000X-0.175000X-0.175000X0.175000X-0.175000X0.175000X0.175000X0*%
%ADD43RoundRect,0.135000X0.185000X-0.135000X0.185000X0.135000X-0.185000X0.135000X-0.185000X-0.135000X0*%
%ADD44RoundRect,0.135000X0.135000X0.185000X-0.135000X0.185000X-0.135000X-0.185000X0.135000X-0.185000X0*%
%ADD45C,0.750000*%
%ADD46RoundRect,0.050000X-0.300000X-0.725000X0.300000X-0.725000X0.300000X0.725000X-0.300000X0.725000X0*%
%ADD47RoundRect,0.050000X-0.150000X-0.725000X0.150000X-0.725000X0.150000X0.725000X-0.150000X0.725000X0*%
%ADD48O,1.100000X1.700000*%
%ADD49O,1.100000X2.200000*%
%ADD50RoundRect,0.050000X0.387500X0.050000X-0.387500X0.050000X-0.387500X-0.050000X0.387500X-0.050000X0*%
%ADD51RoundRect,0.050000X0.050000X0.387500X-0.050000X0.387500X-0.050000X-0.387500X0.050000X-0.387500X0*%
%ADD52RoundRect,0.144000X1.456000X1.456000X-1.456000X1.456000X-1.456000X-1.456000X1.456000X-1.456000X0*%
%ADD53R,1.700000X1.700000*%
%ADD54O,1.700000X1.700000*%
%ADD55RoundRect,0.135000X-0.185000X0.135000X-0.185000X-0.135000X0.185000X-0.135000X0.185000X0.135000X0*%
%ADD56R,1.700000X1.000000*%
%ADD57RoundRect,0.150000X-0.625000X0.150000X-0.625000X-0.150000X0.625000X-0.150000X0.625000X0.150000X0*%
%ADD58RoundRect,0.250000X-0.650000X0.350000X-0.650000X-0.350000X0.650000X-0.350000X0.650000X0.350000X0*%
%ADD59RoundRect,0.135000X-0.135000X-0.185000X0.135000X-0.185000X0.135000X0.185000X-0.135000X0.185000X0*%
%ADD60RoundRect,0.175000X0.175000X-0.175000X0.175000X0.175000X-0.175000X0.175000X-0.175000X-0.175000X0*%
%ADD61R,1.400000X1.200000*%
%ADD62RoundRect,0.150000X-0.512500X-0.150000X0.512500X-0.150000X0.512500X0.150000X-0.512500X0.150000X0*%
%ADD63RoundRect,0.150000X-0.150000X0.650000X-0.150000X-0.650000X0.150000X-0.650000X0.150000X0.650000X0*%
%ADD64RoundRect,0.243750X-0.456250X0.243750X-0.456250X-0.243750X0.456250X-0.243750X0.456250X0.243750X0*%
%ADD65RoundRect,0.140000X-0.219203X-0.021213X-0.021213X-0.219203X0.219203X0.021213X0.021213X0.219203X0*%
G04 APERTURE END LIST*
D10*
X241892857Y-130454819D02*
X242464285Y-130454819D01*
X242178571Y-130454819D02*
X242178571Y-129454819D01*
X242178571Y-129454819D02*
X242273809Y-129597676D01*
X242273809Y-129597676D02*
X242369047Y-129692914D01*
X242369047Y-129692914D02*
X242464285Y-129740533D01*
X241273809Y-129454819D02*
X241178571Y-129454819D01*
X241178571Y-129454819D02*
X241083333Y-129502438D01*
X241083333Y-129502438D02*
X241035714Y-129550057D01*
X241035714Y-129550057D02*
X240988095Y-129645295D01*
X240988095Y-129645295D02*
X240940476Y-129835771D01*
X240940476Y-129835771D02*
X240940476Y-130073866D01*
X240940476Y-130073866D02*
X240988095Y-130264342D01*
X240988095Y-130264342D02*
X241035714Y-130359580D01*
X241035714Y-130359580D02*
X241083333Y-130407200D01*
X241083333Y-130407200D02*
X241178571Y-130454819D01*
X241178571Y-130454819D02*
X241273809Y-130454819D01*
X241273809Y-130454819D02*
X241369047Y-130407200D01*
X241369047Y-130407200D02*
X241416666Y-130359580D01*
X241416666Y-130359580D02*
X241464285Y-130264342D01*
X241464285Y-130264342D02*
X241511904Y-130073866D01*
X241511904Y-130073866D02*
X241511904Y-129835771D01*
X241511904Y-129835771D02*
X241464285Y-129645295D01*
X241464285Y-129645295D02*
X241416666Y-129550057D01*
X241416666Y-129550057D02*
X241369047Y-129502438D01*
X241369047Y-129502438D02*
X241273809Y-129454819D01*
X240083333Y-129788152D02*
X240083333Y-130454819D01*
X240511904Y-129788152D02*
X240511904Y-130311961D01*
X240511904Y-130311961D02*
X240464285Y-130407200D01*
X240464285Y-130407200D02*
X240369047Y-130454819D01*
X240369047Y-130454819D02*
X240226190Y-130454819D01*
X240226190Y-130454819D02*
X240130952Y-130407200D01*
X240130952Y-130407200D02*
X240083333Y-130359580D01*
X108642857Y-130454819D02*
X109214285Y-130454819D01*
X108928571Y-130454819D02*
X108928571Y-129454819D01*
X108928571Y-129454819D02*
X109023809Y-129597676D01*
X109023809Y-129597676D02*
X109119047Y-129692914D01*
X109119047Y-129692914D02*
X109214285Y-129740533D01*
X108023809Y-129454819D02*
X107928571Y-129454819D01*
X107928571Y-129454819D02*
X107833333Y-129502438D01*
X107833333Y-129502438D02*
X107785714Y-129550057D01*
X107785714Y-129550057D02*
X107738095Y-129645295D01*
X107738095Y-129645295D02*
X107690476Y-129835771D01*
X107690476Y-129835771D02*
X107690476Y-130073866D01*
X107690476Y-130073866D02*
X107738095Y-130264342D01*
X107738095Y-130264342D02*
X107785714Y-130359580D01*
X107785714Y-130359580D02*
X107833333Y-130407200D01*
X107833333Y-130407200D02*
X107928571Y-130454819D01*
X107928571Y-130454819D02*
X108023809Y-130454819D01*
X108023809Y-130454819D02*
X108119047Y-130407200D01*
X108119047Y-130407200D02*
X108166666Y-130359580D01*
X108166666Y-130359580D02*
X108214285Y-130264342D01*
X108214285Y-130264342D02*
X108261904Y-130073866D01*
X108261904Y-130073866D02*
X108261904Y-129835771D01*
X108261904Y-129835771D02*
X108214285Y-129645295D01*
X108214285Y-129645295D02*
X108166666Y-129550057D01*
X108166666Y-129550057D02*
X108119047Y-129502438D01*
X108119047Y-129502438D02*
X108023809Y-129454819D01*
X106833333Y-129788152D02*
X106833333Y-130454819D01*
X107261904Y-129788152D02*
X107261904Y-130311961D01*
X107261904Y-130311961D02*
X107214285Y-130407200D01*
X107214285Y-130407200D02*
X107119047Y-130454819D01*
X107119047Y-130454819D02*
X106976190Y-130454819D01*
X106976190Y-130454819D02*
X106880952Y-130407200D01*
X106880952Y-130407200D02*
X106833333Y-130359580D01*
X307128571Y-129059819D02*
X307699999Y-129059819D01*
X307414285Y-129059819D02*
X307414285Y-128059819D01*
X307414285Y-128059819D02*
X307509523Y-128202676D01*
X307509523Y-128202676D02*
X307604761Y-128297914D01*
X307604761Y-128297914D02*
X307699999Y-128345533D01*
X306699999Y-128964580D02*
X306652380Y-129012200D01*
X306652380Y-129012200D02*
X306699999Y-129059819D01*
X306699999Y-129059819D02*
X306747618Y-129012200D01*
X306747618Y-129012200D02*
X306699999Y-128964580D01*
X306699999Y-128964580D02*
X306699999Y-129059819D01*
X306271428Y-128155057D02*
X306223809Y-128107438D01*
X306223809Y-128107438D02*
X306128571Y-128059819D01*
X306128571Y-128059819D02*
X305890476Y-128059819D01*
X305890476Y-128059819D02*
X305795238Y-128107438D01*
X305795238Y-128107438D02*
X305747619Y-128155057D01*
X305747619Y-128155057D02*
X305700000Y-128250295D01*
X305700000Y-128250295D02*
X305700000Y-128345533D01*
X305700000Y-128345533D02*
X305747619Y-128488390D01*
X305747619Y-128488390D02*
X306319047Y-129059819D01*
X306319047Y-129059819D02*
X305700000Y-129059819D01*
X304795238Y-128059819D02*
X305271428Y-128059819D01*
X305271428Y-128059819D02*
X305319047Y-128536009D01*
X305319047Y-128536009D02*
X305271428Y-128488390D01*
X305271428Y-128488390D02*
X305176190Y-128440771D01*
X305176190Y-128440771D02*
X304938095Y-128440771D01*
X304938095Y-128440771D02*
X304842857Y-128488390D01*
X304842857Y-128488390D02*
X304795238Y-128536009D01*
X304795238Y-128536009D02*
X304747619Y-128631247D01*
X304747619Y-128631247D02*
X304747619Y-128869342D01*
X304747619Y-128869342D02*
X304795238Y-128964580D01*
X304795238Y-128964580D02*
X304842857Y-129012200D01*
X304842857Y-129012200D02*
X304938095Y-129059819D01*
X304938095Y-129059819D02*
X305176190Y-129059819D01*
X305176190Y-129059819D02*
X305271428Y-129012200D01*
X305271428Y-129012200D02*
X305319047Y-128964580D01*
X304319047Y-128059819D02*
X304319047Y-128869342D01*
X304319047Y-128869342D02*
X304271428Y-128964580D01*
X304271428Y-128964580D02*
X304223809Y-129012200D01*
X304223809Y-129012200D02*
X304128571Y-129059819D01*
X304128571Y-129059819D02*
X303938095Y-129059819D01*
X303938095Y-129059819D02*
X303842857Y-129012200D01*
X303842857Y-129012200D02*
X303795238Y-128964580D01*
X303795238Y-128964580D02*
X303747619Y-128869342D01*
X303747619Y-128869342D02*
X303747619Y-128059819D01*
X283228571Y-129059819D02*
X283799999Y-129059819D01*
X283514285Y-129059819D02*
X283514285Y-128059819D01*
X283514285Y-128059819D02*
X283609523Y-128202676D01*
X283609523Y-128202676D02*
X283704761Y-128297914D01*
X283704761Y-128297914D02*
X283799999Y-128345533D01*
X282799999Y-128964580D02*
X282752380Y-129012200D01*
X282752380Y-129012200D02*
X282799999Y-129059819D01*
X282799999Y-129059819D02*
X282847618Y-129012200D01*
X282847618Y-129012200D02*
X282799999Y-128964580D01*
X282799999Y-128964580D02*
X282799999Y-129059819D01*
X282371428Y-128155057D02*
X282323809Y-128107438D01*
X282323809Y-128107438D02*
X282228571Y-128059819D01*
X282228571Y-128059819D02*
X281990476Y-128059819D01*
X281990476Y-128059819D02*
X281895238Y-128107438D01*
X281895238Y-128107438D02*
X281847619Y-128155057D01*
X281847619Y-128155057D02*
X281800000Y-128250295D01*
X281800000Y-128250295D02*
X281800000Y-128345533D01*
X281800000Y-128345533D02*
X281847619Y-128488390D01*
X281847619Y-128488390D02*
X282419047Y-129059819D01*
X282419047Y-129059819D02*
X281800000Y-129059819D01*
X280895238Y-128059819D02*
X281371428Y-128059819D01*
X281371428Y-128059819D02*
X281419047Y-128536009D01*
X281419047Y-128536009D02*
X281371428Y-128488390D01*
X281371428Y-128488390D02*
X281276190Y-128440771D01*
X281276190Y-128440771D02*
X281038095Y-128440771D01*
X281038095Y-128440771D02*
X280942857Y-128488390D01*
X280942857Y-128488390D02*
X280895238Y-128536009D01*
X280895238Y-128536009D02*
X280847619Y-128631247D01*
X280847619Y-128631247D02*
X280847619Y-128869342D01*
X280847619Y-128869342D02*
X280895238Y-128964580D01*
X280895238Y-128964580D02*
X280942857Y-129012200D01*
X280942857Y-129012200D02*
X281038095Y-129059819D01*
X281038095Y-129059819D02*
X281276190Y-129059819D01*
X281276190Y-129059819D02*
X281371428Y-129012200D01*
X281371428Y-129012200D02*
X281419047Y-128964580D01*
X280419047Y-128059819D02*
X280419047Y-128869342D01*
X280419047Y-128869342D02*
X280371428Y-128964580D01*
X280371428Y-128964580D02*
X280323809Y-129012200D01*
X280323809Y-129012200D02*
X280228571Y-129059819D01*
X280228571Y-129059819D02*
X280038095Y-129059819D01*
X280038095Y-129059819D02*
X279942857Y-129012200D01*
X279942857Y-129012200D02*
X279895238Y-128964580D01*
X279895238Y-128964580D02*
X279847619Y-128869342D01*
X279847619Y-128869342D02*
X279847619Y-128059819D01*
X259388571Y-129119819D02*
X259959999Y-129119819D01*
X259674285Y-129119819D02*
X259674285Y-128119819D01*
X259674285Y-128119819D02*
X259769523Y-128262676D01*
X259769523Y-128262676D02*
X259864761Y-128357914D01*
X259864761Y-128357914D02*
X259959999Y-128405533D01*
X258959999Y-129024580D02*
X258912380Y-129072200D01*
X258912380Y-129072200D02*
X258959999Y-129119819D01*
X258959999Y-129119819D02*
X259007618Y-129072200D01*
X259007618Y-129072200D02*
X258959999Y-129024580D01*
X258959999Y-129024580D02*
X258959999Y-129119819D01*
X258531428Y-128215057D02*
X258483809Y-128167438D01*
X258483809Y-128167438D02*
X258388571Y-128119819D01*
X258388571Y-128119819D02*
X258150476Y-128119819D01*
X258150476Y-128119819D02*
X258055238Y-128167438D01*
X258055238Y-128167438D02*
X258007619Y-128215057D01*
X258007619Y-128215057D02*
X257960000Y-128310295D01*
X257960000Y-128310295D02*
X257960000Y-128405533D01*
X257960000Y-128405533D02*
X258007619Y-128548390D01*
X258007619Y-128548390D02*
X258579047Y-129119819D01*
X258579047Y-129119819D02*
X257960000Y-129119819D01*
X257055238Y-128119819D02*
X257531428Y-128119819D01*
X257531428Y-128119819D02*
X257579047Y-128596009D01*
X257579047Y-128596009D02*
X257531428Y-128548390D01*
X257531428Y-128548390D02*
X257436190Y-128500771D01*
X257436190Y-128500771D02*
X257198095Y-128500771D01*
X257198095Y-128500771D02*
X257102857Y-128548390D01*
X257102857Y-128548390D02*
X257055238Y-128596009D01*
X257055238Y-128596009D02*
X257007619Y-128691247D01*
X257007619Y-128691247D02*
X257007619Y-128929342D01*
X257007619Y-128929342D02*
X257055238Y-129024580D01*
X257055238Y-129024580D02*
X257102857Y-129072200D01*
X257102857Y-129072200D02*
X257198095Y-129119819D01*
X257198095Y-129119819D02*
X257436190Y-129119819D01*
X257436190Y-129119819D02*
X257531428Y-129072200D01*
X257531428Y-129072200D02*
X257579047Y-129024580D01*
X256579047Y-128119819D02*
X256579047Y-128929342D01*
X256579047Y-128929342D02*
X256531428Y-129024580D01*
X256531428Y-129024580D02*
X256483809Y-129072200D01*
X256483809Y-129072200D02*
X256388571Y-129119819D01*
X256388571Y-129119819D02*
X256198095Y-129119819D01*
X256198095Y-129119819D02*
X256102857Y-129072200D01*
X256102857Y-129072200D02*
X256055238Y-129024580D01*
X256055238Y-129024580D02*
X256007619Y-128929342D01*
X256007619Y-128929342D02*
X256007619Y-128119819D01*
X235668571Y-129059819D02*
X236239999Y-129059819D01*
X235954285Y-129059819D02*
X235954285Y-128059819D01*
X235954285Y-128059819D02*
X236049523Y-128202676D01*
X236049523Y-128202676D02*
X236144761Y-128297914D01*
X236144761Y-128297914D02*
X236239999Y-128345533D01*
X235239999Y-128964580D02*
X235192380Y-129012200D01*
X235192380Y-129012200D02*
X235239999Y-129059819D01*
X235239999Y-129059819D02*
X235287618Y-129012200D01*
X235287618Y-129012200D02*
X235239999Y-128964580D01*
X235239999Y-128964580D02*
X235239999Y-129059819D01*
X234811428Y-128155057D02*
X234763809Y-128107438D01*
X234763809Y-128107438D02*
X234668571Y-128059819D01*
X234668571Y-128059819D02*
X234430476Y-128059819D01*
X234430476Y-128059819D02*
X234335238Y-128107438D01*
X234335238Y-128107438D02*
X234287619Y-128155057D01*
X234287619Y-128155057D02*
X234240000Y-128250295D01*
X234240000Y-128250295D02*
X234240000Y-128345533D01*
X234240000Y-128345533D02*
X234287619Y-128488390D01*
X234287619Y-128488390D02*
X234859047Y-129059819D01*
X234859047Y-129059819D02*
X234240000Y-129059819D01*
X233335238Y-128059819D02*
X233811428Y-128059819D01*
X233811428Y-128059819D02*
X233859047Y-128536009D01*
X233859047Y-128536009D02*
X233811428Y-128488390D01*
X233811428Y-128488390D02*
X233716190Y-128440771D01*
X233716190Y-128440771D02*
X233478095Y-128440771D01*
X233478095Y-128440771D02*
X233382857Y-128488390D01*
X233382857Y-128488390D02*
X233335238Y-128536009D01*
X233335238Y-128536009D02*
X233287619Y-128631247D01*
X233287619Y-128631247D02*
X233287619Y-128869342D01*
X233287619Y-128869342D02*
X233335238Y-128964580D01*
X233335238Y-128964580D02*
X233382857Y-129012200D01*
X233382857Y-129012200D02*
X233478095Y-129059819D01*
X233478095Y-129059819D02*
X233716190Y-129059819D01*
X233716190Y-129059819D02*
X233811428Y-129012200D01*
X233811428Y-129012200D02*
X233859047Y-128964580D01*
X232859047Y-128059819D02*
X232859047Y-128869342D01*
X232859047Y-128869342D02*
X232811428Y-128964580D01*
X232811428Y-128964580D02*
X232763809Y-129012200D01*
X232763809Y-129012200D02*
X232668571Y-129059819D01*
X232668571Y-129059819D02*
X232478095Y-129059819D01*
X232478095Y-129059819D02*
X232382857Y-129012200D01*
X232382857Y-129012200D02*
X232335238Y-128964580D01*
X232335238Y-128964580D02*
X232287619Y-128869342D01*
X232287619Y-128869342D02*
X232287619Y-128059819D01*
X235798809Y-128994700D02*
X235655952Y-129042319D01*
X235655952Y-129042319D02*
X235417857Y-129042319D01*
X235417857Y-129042319D02*
X235322619Y-128994700D01*
X235322619Y-128994700D02*
X235275000Y-128947080D01*
X235275000Y-128947080D02*
X235227381Y-128851842D01*
X235227381Y-128851842D02*
X235227381Y-128756604D01*
X235227381Y-128756604D02*
X235275000Y-128661366D01*
X235275000Y-128661366D02*
X235322619Y-128613747D01*
X235322619Y-128613747D02*
X235417857Y-128566128D01*
X235417857Y-128566128D02*
X235608333Y-128518509D01*
X235608333Y-128518509D02*
X235703571Y-128470890D01*
X235703571Y-128470890D02*
X235751190Y-128423271D01*
X235751190Y-128423271D02*
X235798809Y-128328033D01*
X235798809Y-128328033D02*
X235798809Y-128232795D01*
X235798809Y-128232795D02*
X235751190Y-128137557D01*
X235751190Y-128137557D02*
X235703571Y-128089938D01*
X235703571Y-128089938D02*
X235608333Y-128042319D01*
X235608333Y-128042319D02*
X235370238Y-128042319D01*
X235370238Y-128042319D02*
X235227381Y-128089938D01*
X234798809Y-129042319D02*
X234798809Y-128375652D01*
X234798809Y-128470890D02*
X234751190Y-128423271D01*
X234751190Y-128423271D02*
X234655952Y-128375652D01*
X234655952Y-128375652D02*
X234513095Y-128375652D01*
X234513095Y-128375652D02*
X234417857Y-128423271D01*
X234417857Y-128423271D02*
X234370238Y-128518509D01*
X234370238Y-128518509D02*
X234370238Y-129042319D01*
X234370238Y-128518509D02*
X234322619Y-128423271D01*
X234322619Y-128423271D02*
X234227381Y-128375652D01*
X234227381Y-128375652D02*
X234084524Y-128375652D01*
X234084524Y-128375652D02*
X233989285Y-128423271D01*
X233989285Y-128423271D02*
X233941666Y-128518509D01*
X233941666Y-128518509D02*
X233941666Y-129042319D01*
X233036905Y-129042319D02*
X233036905Y-128518509D01*
X233036905Y-128518509D02*
X233084524Y-128423271D01*
X233084524Y-128423271D02*
X233179762Y-128375652D01*
X233179762Y-128375652D02*
X233370238Y-128375652D01*
X233370238Y-128375652D02*
X233465476Y-128423271D01*
X233036905Y-128994700D02*
X233132143Y-129042319D01*
X233132143Y-129042319D02*
X233370238Y-129042319D01*
X233370238Y-129042319D02*
X233465476Y-128994700D01*
X233465476Y-128994700D02*
X233513095Y-128899461D01*
X233513095Y-128899461D02*
X233513095Y-128804223D01*
X233513095Y-128804223D02*
X233465476Y-128708985D01*
X233465476Y-128708985D02*
X233370238Y-128661366D01*
X233370238Y-128661366D02*
X233132143Y-128661366D01*
X233132143Y-128661366D02*
X233036905Y-128613747D01*
X232417857Y-129042319D02*
X232513095Y-128994700D01*
X232513095Y-128994700D02*
X232560714Y-128899461D01*
X232560714Y-128899461D02*
X232560714Y-128042319D01*
X231894047Y-129042319D02*
X231989285Y-128994700D01*
X231989285Y-128994700D02*
X232036904Y-128899461D01*
X232036904Y-128899461D02*
X232036904Y-128042319D01*
X230798808Y-128994700D02*
X230655951Y-129042319D01*
X230655951Y-129042319D02*
X230417856Y-129042319D01*
X230417856Y-129042319D02*
X230322618Y-128994700D01*
X230322618Y-128994700D02*
X230274999Y-128947080D01*
X230274999Y-128947080D02*
X230227380Y-128851842D01*
X230227380Y-128851842D02*
X230227380Y-128756604D01*
X230227380Y-128756604D02*
X230274999Y-128661366D01*
X230274999Y-128661366D02*
X230322618Y-128613747D01*
X230322618Y-128613747D02*
X230417856Y-128566128D01*
X230417856Y-128566128D02*
X230608332Y-128518509D01*
X230608332Y-128518509D02*
X230703570Y-128470890D01*
X230703570Y-128470890D02*
X230751189Y-128423271D01*
X230751189Y-128423271D02*
X230798808Y-128328033D01*
X230798808Y-128328033D02*
X230798808Y-128232795D01*
X230798808Y-128232795D02*
X230751189Y-128137557D01*
X230751189Y-128137557D02*
X230703570Y-128089938D01*
X230703570Y-128089938D02*
X230608332Y-128042319D01*
X230608332Y-128042319D02*
X230370237Y-128042319D01*
X230370237Y-128042319D02*
X230227380Y-128089938D01*
X229798808Y-128375652D02*
X229798808Y-129375652D01*
X229798808Y-128423271D02*
X229703570Y-128375652D01*
X229703570Y-128375652D02*
X229513094Y-128375652D01*
X229513094Y-128375652D02*
X229417856Y-128423271D01*
X229417856Y-128423271D02*
X229370237Y-128470890D01*
X229370237Y-128470890D02*
X229322618Y-128566128D01*
X229322618Y-128566128D02*
X229322618Y-128851842D01*
X229322618Y-128851842D02*
X229370237Y-128947080D01*
X229370237Y-128947080D02*
X229417856Y-128994700D01*
X229417856Y-128994700D02*
X229513094Y-129042319D01*
X229513094Y-129042319D02*
X229703570Y-129042319D01*
X229703570Y-129042319D02*
X229798808Y-128994700D01*
X228751189Y-129042319D02*
X228846427Y-128994700D01*
X228846427Y-128994700D02*
X228894046Y-128899461D01*
X228894046Y-128899461D02*
X228894046Y-128042319D01*
X228370236Y-129042319D02*
X228370236Y-128375652D01*
X228370236Y-128042319D02*
X228417855Y-128089938D01*
X228417855Y-128089938D02*
X228370236Y-128137557D01*
X228370236Y-128137557D02*
X228322617Y-128089938D01*
X228322617Y-128089938D02*
X228370236Y-128042319D01*
X228370236Y-128042319D02*
X228370236Y-128137557D01*
X228036903Y-128375652D02*
X227655951Y-128375652D01*
X227894046Y-128042319D02*
X227894046Y-128899461D01*
X227894046Y-128899461D02*
X227846427Y-128994700D01*
X227846427Y-128994700D02*
X227751189Y-129042319D01*
X227751189Y-129042319D02*
X227655951Y-129042319D01*
X179673213Y-109992319D02*
X179673213Y-108992319D01*
X179673213Y-108992319D02*
X179101785Y-109992319D01*
X179101785Y-109992319D02*
X179101785Y-108992319D01*
X92938571Y-129079819D02*
X93509999Y-129079819D01*
X93224285Y-129079819D02*
X93224285Y-128079819D01*
X93224285Y-128079819D02*
X93319523Y-128222676D01*
X93319523Y-128222676D02*
X93414761Y-128317914D01*
X93414761Y-128317914D02*
X93509999Y-128365533D01*
X92509999Y-128984580D02*
X92462380Y-129032200D01*
X92462380Y-129032200D02*
X92509999Y-129079819D01*
X92509999Y-129079819D02*
X92557618Y-129032200D01*
X92557618Y-129032200D02*
X92509999Y-128984580D01*
X92509999Y-128984580D02*
X92509999Y-129079819D01*
X92081428Y-128175057D02*
X92033809Y-128127438D01*
X92033809Y-128127438D02*
X91938571Y-128079819D01*
X91938571Y-128079819D02*
X91700476Y-128079819D01*
X91700476Y-128079819D02*
X91605238Y-128127438D01*
X91605238Y-128127438D02*
X91557619Y-128175057D01*
X91557619Y-128175057D02*
X91510000Y-128270295D01*
X91510000Y-128270295D02*
X91510000Y-128365533D01*
X91510000Y-128365533D02*
X91557619Y-128508390D01*
X91557619Y-128508390D02*
X92129047Y-129079819D01*
X92129047Y-129079819D02*
X91510000Y-129079819D01*
X90605238Y-128079819D02*
X91081428Y-128079819D01*
X91081428Y-128079819D02*
X91129047Y-128556009D01*
X91129047Y-128556009D02*
X91081428Y-128508390D01*
X91081428Y-128508390D02*
X90986190Y-128460771D01*
X90986190Y-128460771D02*
X90748095Y-128460771D01*
X90748095Y-128460771D02*
X90652857Y-128508390D01*
X90652857Y-128508390D02*
X90605238Y-128556009D01*
X90605238Y-128556009D02*
X90557619Y-128651247D01*
X90557619Y-128651247D02*
X90557619Y-128889342D01*
X90557619Y-128889342D02*
X90605238Y-128984580D01*
X90605238Y-128984580D02*
X90652857Y-129032200D01*
X90652857Y-129032200D02*
X90748095Y-129079819D01*
X90748095Y-129079819D02*
X90986190Y-129079819D01*
X90986190Y-129079819D02*
X91081428Y-129032200D01*
X91081428Y-129032200D02*
X91129047Y-128984580D01*
X90129047Y-128079819D02*
X90129047Y-128889342D01*
X90129047Y-128889342D02*
X90081428Y-128984580D01*
X90081428Y-128984580D02*
X90033809Y-129032200D01*
X90033809Y-129032200D02*
X89938571Y-129079819D01*
X89938571Y-129079819D02*
X89748095Y-129079819D01*
X89748095Y-129079819D02*
X89652857Y-129032200D01*
X89652857Y-129032200D02*
X89605238Y-128984580D01*
X89605238Y-128984580D02*
X89557619Y-128889342D01*
X89557619Y-128889342D02*
X89557619Y-128079819D01*
X69018571Y-129079819D02*
X69589999Y-129079819D01*
X69304285Y-129079819D02*
X69304285Y-128079819D01*
X69304285Y-128079819D02*
X69399523Y-128222676D01*
X69399523Y-128222676D02*
X69494761Y-128317914D01*
X69494761Y-128317914D02*
X69589999Y-128365533D01*
X68589999Y-128984580D02*
X68542380Y-129032200D01*
X68542380Y-129032200D02*
X68589999Y-129079819D01*
X68589999Y-129079819D02*
X68637618Y-129032200D01*
X68637618Y-129032200D02*
X68589999Y-128984580D01*
X68589999Y-128984580D02*
X68589999Y-129079819D01*
X68161428Y-128175057D02*
X68113809Y-128127438D01*
X68113809Y-128127438D02*
X68018571Y-128079819D01*
X68018571Y-128079819D02*
X67780476Y-128079819D01*
X67780476Y-128079819D02*
X67685238Y-128127438D01*
X67685238Y-128127438D02*
X67637619Y-128175057D01*
X67637619Y-128175057D02*
X67590000Y-128270295D01*
X67590000Y-128270295D02*
X67590000Y-128365533D01*
X67590000Y-128365533D02*
X67637619Y-128508390D01*
X67637619Y-128508390D02*
X68209047Y-129079819D01*
X68209047Y-129079819D02*
X67590000Y-129079819D01*
X66685238Y-128079819D02*
X67161428Y-128079819D01*
X67161428Y-128079819D02*
X67209047Y-128556009D01*
X67209047Y-128556009D02*
X67161428Y-128508390D01*
X67161428Y-128508390D02*
X67066190Y-128460771D01*
X67066190Y-128460771D02*
X66828095Y-128460771D01*
X66828095Y-128460771D02*
X66732857Y-128508390D01*
X66732857Y-128508390D02*
X66685238Y-128556009D01*
X66685238Y-128556009D02*
X66637619Y-128651247D01*
X66637619Y-128651247D02*
X66637619Y-128889342D01*
X66637619Y-128889342D02*
X66685238Y-128984580D01*
X66685238Y-128984580D02*
X66732857Y-129032200D01*
X66732857Y-129032200D02*
X66828095Y-129079819D01*
X66828095Y-129079819D02*
X67066190Y-129079819D01*
X67066190Y-129079819D02*
X67161428Y-129032200D01*
X67161428Y-129032200D02*
X67209047Y-128984580D01*
X66209047Y-128079819D02*
X66209047Y-128889342D01*
X66209047Y-128889342D02*
X66161428Y-128984580D01*
X66161428Y-128984580D02*
X66113809Y-129032200D01*
X66113809Y-129032200D02*
X66018571Y-129079819D01*
X66018571Y-129079819D02*
X65828095Y-129079819D01*
X65828095Y-129079819D02*
X65732857Y-129032200D01*
X65732857Y-129032200D02*
X65685238Y-128984580D01*
X65685238Y-128984580D02*
X65637619Y-128889342D01*
X65637619Y-128889342D02*
X65637619Y-128079819D01*
X45178571Y-128959819D02*
X45749999Y-128959819D01*
X45464285Y-128959819D02*
X45464285Y-127959819D01*
X45464285Y-127959819D02*
X45559523Y-128102676D01*
X45559523Y-128102676D02*
X45654761Y-128197914D01*
X45654761Y-128197914D02*
X45749999Y-128245533D01*
X44749999Y-128864580D02*
X44702380Y-128912200D01*
X44702380Y-128912200D02*
X44749999Y-128959819D01*
X44749999Y-128959819D02*
X44797618Y-128912200D01*
X44797618Y-128912200D02*
X44749999Y-128864580D01*
X44749999Y-128864580D02*
X44749999Y-128959819D01*
X44321428Y-128055057D02*
X44273809Y-128007438D01*
X44273809Y-128007438D02*
X44178571Y-127959819D01*
X44178571Y-127959819D02*
X43940476Y-127959819D01*
X43940476Y-127959819D02*
X43845238Y-128007438D01*
X43845238Y-128007438D02*
X43797619Y-128055057D01*
X43797619Y-128055057D02*
X43750000Y-128150295D01*
X43750000Y-128150295D02*
X43750000Y-128245533D01*
X43750000Y-128245533D02*
X43797619Y-128388390D01*
X43797619Y-128388390D02*
X44369047Y-128959819D01*
X44369047Y-128959819D02*
X43750000Y-128959819D01*
X42845238Y-127959819D02*
X43321428Y-127959819D01*
X43321428Y-127959819D02*
X43369047Y-128436009D01*
X43369047Y-128436009D02*
X43321428Y-128388390D01*
X43321428Y-128388390D02*
X43226190Y-128340771D01*
X43226190Y-128340771D02*
X42988095Y-128340771D01*
X42988095Y-128340771D02*
X42892857Y-128388390D01*
X42892857Y-128388390D02*
X42845238Y-128436009D01*
X42845238Y-128436009D02*
X42797619Y-128531247D01*
X42797619Y-128531247D02*
X42797619Y-128769342D01*
X42797619Y-128769342D02*
X42845238Y-128864580D01*
X42845238Y-128864580D02*
X42892857Y-128912200D01*
X42892857Y-128912200D02*
X42988095Y-128959819D01*
X42988095Y-128959819D02*
X43226190Y-128959819D01*
X43226190Y-128959819D02*
X43321428Y-128912200D01*
X43321428Y-128912200D02*
X43369047Y-128864580D01*
X42369047Y-127959819D02*
X42369047Y-128769342D01*
X42369047Y-128769342D02*
X42321428Y-128864580D01*
X42321428Y-128864580D02*
X42273809Y-128912200D01*
X42273809Y-128912200D02*
X42178571Y-128959819D01*
X42178571Y-128959819D02*
X41988095Y-128959819D01*
X41988095Y-128959819D02*
X41892857Y-128912200D01*
X41892857Y-128912200D02*
X41845238Y-128864580D01*
X41845238Y-128864580D02*
X41797619Y-128769342D01*
X41797619Y-128769342D02*
X41797619Y-127959819D01*
X160605713Y-109105057D02*
X160558094Y-109057438D01*
X160558094Y-109057438D02*
X160462856Y-109009819D01*
X160462856Y-109009819D02*
X160224761Y-109009819D01*
X160224761Y-109009819D02*
X160129523Y-109057438D01*
X160129523Y-109057438D02*
X160081904Y-109105057D01*
X160081904Y-109105057D02*
X160034285Y-109200295D01*
X160034285Y-109200295D02*
X160034285Y-109295533D01*
X160034285Y-109295533D02*
X160081904Y-109438390D01*
X160081904Y-109438390D02*
X160653332Y-110009819D01*
X160653332Y-110009819D02*
X160034285Y-110009819D01*
X60635713Y-51915057D02*
X60588094Y-51867438D01*
X60588094Y-51867438D02*
X60492856Y-51819819D01*
X60492856Y-51819819D02*
X60254761Y-51819819D01*
X60254761Y-51819819D02*
X60159523Y-51867438D01*
X60159523Y-51867438D02*
X60111904Y-51915057D01*
X60111904Y-51915057D02*
X60064285Y-52010295D01*
X60064285Y-52010295D02*
X60064285Y-52105533D01*
X60064285Y-52105533D02*
X60111904Y-52248390D01*
X60111904Y-52248390D02*
X60683332Y-52819819D01*
X60683332Y-52819819D02*
X60064285Y-52819819D01*
X47394642Y-129042319D02*
X47966070Y-129042319D01*
X47680356Y-129042319D02*
X47680356Y-128042319D01*
X47680356Y-128042319D02*
X47775594Y-128185176D01*
X47775594Y-128185176D02*
X47870832Y-128280414D01*
X47870832Y-128280414D02*
X47966070Y-128328033D01*
X46966070Y-128947080D02*
X46918451Y-128994700D01*
X46918451Y-128994700D02*
X46966070Y-129042319D01*
X46966070Y-129042319D02*
X47013689Y-128994700D01*
X47013689Y-128994700D02*
X46966070Y-128947080D01*
X46966070Y-128947080D02*
X46966070Y-129042319D01*
X46013690Y-128042319D02*
X46489880Y-128042319D01*
X46489880Y-128042319D02*
X46537499Y-128518509D01*
X46537499Y-128518509D02*
X46489880Y-128470890D01*
X46489880Y-128470890D02*
X46394642Y-128423271D01*
X46394642Y-128423271D02*
X46156547Y-128423271D01*
X46156547Y-128423271D02*
X46061309Y-128470890D01*
X46061309Y-128470890D02*
X46013690Y-128518509D01*
X46013690Y-128518509D02*
X45966071Y-128613747D01*
X45966071Y-128613747D02*
X45966071Y-128851842D01*
X45966071Y-128851842D02*
X46013690Y-128947080D01*
X46013690Y-128947080D02*
X46061309Y-128994700D01*
X46061309Y-128994700D02*
X46156547Y-129042319D01*
X46156547Y-129042319D02*
X46394642Y-129042319D01*
X46394642Y-129042319D02*
X46489880Y-128994700D01*
X46489880Y-128994700D02*
X46537499Y-128947080D01*
X45347023Y-128042319D02*
X45251785Y-128042319D01*
X45251785Y-128042319D02*
X45156547Y-128089938D01*
X45156547Y-128089938D02*
X45108928Y-128137557D01*
X45108928Y-128137557D02*
X45061309Y-128232795D01*
X45061309Y-128232795D02*
X45013690Y-128423271D01*
X45013690Y-128423271D02*
X45013690Y-128661366D01*
X45013690Y-128661366D02*
X45061309Y-128851842D01*
X45061309Y-128851842D02*
X45108928Y-128947080D01*
X45108928Y-128947080D02*
X45156547Y-128994700D01*
X45156547Y-128994700D02*
X45251785Y-129042319D01*
X45251785Y-129042319D02*
X45347023Y-129042319D01*
X45347023Y-129042319D02*
X45442261Y-128994700D01*
X45442261Y-128994700D02*
X45489880Y-128947080D01*
X45489880Y-128947080D02*
X45537499Y-128851842D01*
X45537499Y-128851842D02*
X45585118Y-128661366D01*
X45585118Y-128661366D02*
X45585118Y-128423271D01*
X45585118Y-128423271D02*
X45537499Y-128232795D01*
X45537499Y-128232795D02*
X45489880Y-128137557D01*
X45489880Y-128137557D02*
X45442261Y-128089938D01*
X45442261Y-128089938D02*
X45347023Y-128042319D01*
X44156547Y-128375652D02*
X44156547Y-129042319D01*
X44585118Y-128375652D02*
X44585118Y-128899461D01*
X44585118Y-128899461D02*
X44537499Y-128994700D01*
X44537499Y-128994700D02*
X44442261Y-129042319D01*
X44442261Y-129042319D02*
X44299404Y-129042319D01*
X44299404Y-129042319D02*
X44204166Y-128994700D01*
X44204166Y-128994700D02*
X44156547Y-128947080D01*
X146335713Y-70892319D02*
X145764285Y-70892319D01*
X146049999Y-71892319D02*
X146049999Y-70892319D01*
X47227975Y-70892319D02*
X46656547Y-70892319D01*
X46942261Y-71892319D02*
X46942261Y-70892319D01*
X45894642Y-71892319D02*
X45894642Y-71368509D01*
X45894642Y-71368509D02*
X45942261Y-71273271D01*
X45942261Y-71273271D02*
X46037499Y-71225652D01*
X46037499Y-71225652D02*
X46227975Y-71225652D01*
X46227975Y-71225652D02*
X46323213Y-71273271D01*
X45894642Y-71844700D02*
X45989880Y-71892319D01*
X45989880Y-71892319D02*
X46227975Y-71892319D01*
X46227975Y-71892319D02*
X46323213Y-71844700D01*
X46323213Y-71844700D02*
X46370832Y-71749461D01*
X46370832Y-71749461D02*
X46370832Y-71654223D01*
X46370832Y-71654223D02*
X46323213Y-71558985D01*
X46323213Y-71558985D02*
X46227975Y-71511366D01*
X46227975Y-71511366D02*
X45989880Y-71511366D01*
X45989880Y-71511366D02*
X45894642Y-71463747D01*
X45418451Y-71892319D02*
X45418451Y-70892319D01*
X45418451Y-71273271D02*
X45323213Y-71225652D01*
X45323213Y-71225652D02*
X45132737Y-71225652D01*
X45132737Y-71225652D02*
X45037499Y-71273271D01*
X45037499Y-71273271D02*
X44989880Y-71320890D01*
X44989880Y-71320890D02*
X44942261Y-71416128D01*
X44942261Y-71416128D02*
X44942261Y-71701842D01*
X44942261Y-71701842D02*
X44989880Y-71797080D01*
X44989880Y-71797080D02*
X45037499Y-71844700D01*
X45037499Y-71844700D02*
X45132737Y-71892319D01*
X45132737Y-71892319D02*
X45323213Y-71892319D01*
X45323213Y-71892319D02*
X45418451Y-71844700D01*
X260159523Y-72225652D02*
X260397618Y-72225652D01*
X260397618Y-72225652D02*
X260397618Y-70797080D01*
X260397618Y-70797080D02*
X260159523Y-70797080D01*
X256944642Y-129042319D02*
X257516070Y-129042319D01*
X257230356Y-129042319D02*
X257230356Y-128042319D01*
X257230356Y-128042319D02*
X257325594Y-128185176D01*
X257325594Y-128185176D02*
X257420832Y-128280414D01*
X257420832Y-128280414D02*
X257516070Y-128328033D01*
X256516070Y-128947080D02*
X256468451Y-128994700D01*
X256468451Y-128994700D02*
X256516070Y-129042319D01*
X256516070Y-129042319D02*
X256563689Y-128994700D01*
X256563689Y-128994700D02*
X256516070Y-128947080D01*
X256516070Y-128947080D02*
X256516070Y-129042319D01*
X255563690Y-128042319D02*
X256039880Y-128042319D01*
X256039880Y-128042319D02*
X256087499Y-128518509D01*
X256087499Y-128518509D02*
X256039880Y-128470890D01*
X256039880Y-128470890D02*
X255944642Y-128423271D01*
X255944642Y-128423271D02*
X255706547Y-128423271D01*
X255706547Y-128423271D02*
X255611309Y-128470890D01*
X255611309Y-128470890D02*
X255563690Y-128518509D01*
X255563690Y-128518509D02*
X255516071Y-128613747D01*
X255516071Y-128613747D02*
X255516071Y-128851842D01*
X255516071Y-128851842D02*
X255563690Y-128947080D01*
X255563690Y-128947080D02*
X255611309Y-128994700D01*
X255611309Y-128994700D02*
X255706547Y-129042319D01*
X255706547Y-129042319D02*
X255944642Y-129042319D01*
X255944642Y-129042319D02*
X256039880Y-128994700D01*
X256039880Y-128994700D02*
X256087499Y-128947080D01*
X254897023Y-128042319D02*
X254801785Y-128042319D01*
X254801785Y-128042319D02*
X254706547Y-128089938D01*
X254706547Y-128089938D02*
X254658928Y-128137557D01*
X254658928Y-128137557D02*
X254611309Y-128232795D01*
X254611309Y-128232795D02*
X254563690Y-128423271D01*
X254563690Y-128423271D02*
X254563690Y-128661366D01*
X254563690Y-128661366D02*
X254611309Y-128851842D01*
X254611309Y-128851842D02*
X254658928Y-128947080D01*
X254658928Y-128947080D02*
X254706547Y-128994700D01*
X254706547Y-128994700D02*
X254801785Y-129042319D01*
X254801785Y-129042319D02*
X254897023Y-129042319D01*
X254897023Y-129042319D02*
X254992261Y-128994700D01*
X254992261Y-128994700D02*
X255039880Y-128947080D01*
X255039880Y-128947080D02*
X255087499Y-128851842D01*
X255087499Y-128851842D02*
X255135118Y-128661366D01*
X255135118Y-128661366D02*
X255135118Y-128423271D01*
X255135118Y-128423271D02*
X255087499Y-128232795D01*
X255087499Y-128232795D02*
X255039880Y-128137557D01*
X255039880Y-128137557D02*
X254992261Y-128089938D01*
X254992261Y-128089938D02*
X254897023Y-128042319D01*
X253706547Y-128375652D02*
X253706547Y-129042319D01*
X254135118Y-128375652D02*
X254135118Y-128899461D01*
X254135118Y-128899461D02*
X254087499Y-128994700D01*
X254087499Y-128994700D02*
X253992261Y-129042319D01*
X253992261Y-129042319D02*
X253849404Y-129042319D01*
X253849404Y-129042319D02*
X253754166Y-128994700D01*
X253754166Y-128994700D02*
X253706547Y-128947080D01*
X126690476Y-71892319D02*
X127023809Y-71416128D01*
X127261904Y-71892319D02*
X127261904Y-70892319D01*
X127261904Y-70892319D02*
X126880952Y-70892319D01*
X126880952Y-70892319D02*
X126785714Y-70939938D01*
X126785714Y-70939938D02*
X126738095Y-70987557D01*
X126738095Y-70987557D02*
X126690476Y-71082795D01*
X126690476Y-71082795D02*
X126690476Y-71225652D01*
X126690476Y-71225652D02*
X126738095Y-71320890D01*
X126738095Y-71320890D02*
X126785714Y-71368509D01*
X126785714Y-71368509D02*
X126880952Y-71416128D01*
X126880952Y-71416128D02*
X127261904Y-71416128D01*
X217106547Y-109325652D02*
X217868451Y-109611366D01*
X217868451Y-109611366D02*
X217106547Y-109897080D01*
X217439880Y-111407200D02*
X217439880Y-111454819D01*
X217439880Y-111454819D02*
X217487499Y-111550057D01*
X217487499Y-111550057D02*
X217535118Y-111597676D01*
X93948213Y-90894700D02*
X93805356Y-90942319D01*
X93805356Y-90942319D02*
X93567261Y-90942319D01*
X93567261Y-90942319D02*
X93472023Y-90894700D01*
X93472023Y-90894700D02*
X93424404Y-90847080D01*
X93424404Y-90847080D02*
X93376785Y-90751842D01*
X93376785Y-90751842D02*
X93376785Y-90656604D01*
X93376785Y-90656604D02*
X93424404Y-90561366D01*
X93424404Y-90561366D02*
X93472023Y-90513747D01*
X93472023Y-90513747D02*
X93567261Y-90466128D01*
X93567261Y-90466128D02*
X93757737Y-90418509D01*
X93757737Y-90418509D02*
X93852975Y-90370890D01*
X93852975Y-90370890D02*
X93900594Y-90323271D01*
X93900594Y-90323271D02*
X93948213Y-90228033D01*
X93948213Y-90228033D02*
X93948213Y-90132795D01*
X93948213Y-90132795D02*
X93900594Y-90037557D01*
X93900594Y-90037557D02*
X93852975Y-89989938D01*
X93852975Y-89989938D02*
X93757737Y-89942319D01*
X93757737Y-89942319D02*
X93519642Y-89942319D01*
X93519642Y-89942319D02*
X93376785Y-89989938D01*
X170148213Y-90942319D02*
X170148213Y-89942319D01*
X170148213Y-90418509D02*
X169576785Y-90418509D01*
X169576785Y-90942319D02*
X169576785Y-89942319D01*
X112974404Y-90942319D02*
X112974404Y-89942319D01*
X112974404Y-89942319D02*
X112736309Y-89942319D01*
X112736309Y-89942319D02*
X112593452Y-89989938D01*
X112593452Y-89989938D02*
X112498214Y-90085176D01*
X112498214Y-90085176D02*
X112450595Y-90180414D01*
X112450595Y-90180414D02*
X112402976Y-90370890D01*
X112402976Y-90370890D02*
X112402976Y-90513747D01*
X112402976Y-90513747D02*
X112450595Y-90704223D01*
X112450595Y-90704223D02*
X112498214Y-90799461D01*
X112498214Y-90799461D02*
X112593452Y-90894700D01*
X112593452Y-90894700D02*
X112736309Y-90942319D01*
X112736309Y-90942319D02*
X112974404Y-90942319D01*
X188769642Y-89942319D02*
X188769642Y-90656604D01*
X188769642Y-90656604D02*
X188817261Y-90799461D01*
X188817261Y-90799461D02*
X188912499Y-90894700D01*
X188912499Y-90894700D02*
X189055356Y-90942319D01*
X189055356Y-90942319D02*
X189150594Y-90942319D01*
X84470832Y-108992319D02*
X83804166Y-108992319D01*
X83804166Y-108992319D02*
X84470832Y-109992319D01*
X84470832Y-109992319D02*
X83804166Y-109992319D01*
X309498809Y-109944700D02*
X309355952Y-109992319D01*
X309355952Y-109992319D02*
X309117857Y-109992319D01*
X309117857Y-109992319D02*
X309022619Y-109944700D01*
X309022619Y-109944700D02*
X308975000Y-109897080D01*
X308975000Y-109897080D02*
X308927381Y-109801842D01*
X308927381Y-109801842D02*
X308927381Y-109706604D01*
X308927381Y-109706604D02*
X308975000Y-109611366D01*
X308975000Y-109611366D02*
X309022619Y-109563747D01*
X309022619Y-109563747D02*
X309117857Y-109516128D01*
X309117857Y-109516128D02*
X309308333Y-109468509D01*
X309308333Y-109468509D02*
X309403571Y-109420890D01*
X309403571Y-109420890D02*
X309451190Y-109373271D01*
X309451190Y-109373271D02*
X309498809Y-109278033D01*
X309498809Y-109278033D02*
X309498809Y-109182795D01*
X309498809Y-109182795D02*
X309451190Y-109087557D01*
X309451190Y-109087557D02*
X309403571Y-109039938D01*
X309403571Y-109039938D02*
X309308333Y-108992319D01*
X309308333Y-108992319D02*
X309070238Y-108992319D01*
X309070238Y-108992319D02*
X308927381Y-109039938D01*
X308498809Y-109325652D02*
X308498809Y-110325652D01*
X308498809Y-109373271D02*
X308403571Y-109325652D01*
X308403571Y-109325652D02*
X308213095Y-109325652D01*
X308213095Y-109325652D02*
X308117857Y-109373271D01*
X308117857Y-109373271D02*
X308070238Y-109420890D01*
X308070238Y-109420890D02*
X308022619Y-109516128D01*
X308022619Y-109516128D02*
X308022619Y-109801842D01*
X308022619Y-109801842D02*
X308070238Y-109897080D01*
X308070238Y-109897080D02*
X308117857Y-109944700D01*
X308117857Y-109944700D02*
X308213095Y-109992319D01*
X308213095Y-109992319D02*
X308403571Y-109992319D01*
X308403571Y-109992319D02*
X308498809Y-109944700D01*
X307451190Y-109992319D02*
X307546428Y-109944700D01*
X307546428Y-109944700D02*
X307594047Y-109849461D01*
X307594047Y-109849461D02*
X307594047Y-108992319D01*
X307070237Y-109992319D02*
X307070237Y-109325652D01*
X307070237Y-108992319D02*
X307117856Y-109039938D01*
X307117856Y-109039938D02*
X307070237Y-109087557D01*
X307070237Y-109087557D02*
X307022618Y-109039938D01*
X307022618Y-109039938D02*
X307070237Y-108992319D01*
X307070237Y-108992319D02*
X307070237Y-109087557D01*
X306736904Y-109325652D02*
X306355952Y-109325652D01*
X306594047Y-108992319D02*
X306594047Y-109849461D01*
X306594047Y-109849461D02*
X306546428Y-109944700D01*
X306546428Y-109944700D02*
X306451190Y-109992319D01*
X306451190Y-109992319D02*
X306355952Y-109992319D01*
X89328570Y-70892319D02*
X89090475Y-71892319D01*
X89090475Y-71892319D02*
X88899999Y-71178033D01*
X88899999Y-71178033D02*
X88709523Y-71892319D01*
X88709523Y-71892319D02*
X88471428Y-70892319D01*
X251205951Y-52461366D02*
X250444047Y-52461366D01*
X283305059Y-109944700D02*
X283162202Y-109992319D01*
X283162202Y-109992319D02*
X282924107Y-109992319D01*
X282924107Y-109992319D02*
X282828869Y-109944700D01*
X282828869Y-109944700D02*
X282781250Y-109897080D01*
X282781250Y-109897080D02*
X282733631Y-109801842D01*
X282733631Y-109801842D02*
X282733631Y-109706604D01*
X282733631Y-109706604D02*
X282781250Y-109611366D01*
X282781250Y-109611366D02*
X282828869Y-109563747D01*
X282828869Y-109563747D02*
X282924107Y-109516128D01*
X282924107Y-109516128D02*
X283114583Y-109468509D01*
X283114583Y-109468509D02*
X283209821Y-109420890D01*
X283209821Y-109420890D02*
X283257440Y-109373271D01*
X283257440Y-109373271D02*
X283305059Y-109278033D01*
X283305059Y-109278033D02*
X283305059Y-109182795D01*
X283305059Y-109182795D02*
X283257440Y-109087557D01*
X283257440Y-109087557D02*
X283209821Y-109039938D01*
X283209821Y-109039938D02*
X283114583Y-108992319D01*
X283114583Y-108992319D02*
X282876488Y-108992319D01*
X282876488Y-108992319D02*
X282733631Y-109039938D01*
X282305059Y-109325652D02*
X282305059Y-110325652D01*
X282305059Y-109373271D02*
X282209821Y-109325652D01*
X282209821Y-109325652D02*
X282019345Y-109325652D01*
X282019345Y-109325652D02*
X281924107Y-109373271D01*
X281924107Y-109373271D02*
X281876488Y-109420890D01*
X281876488Y-109420890D02*
X281828869Y-109516128D01*
X281828869Y-109516128D02*
X281828869Y-109801842D01*
X281828869Y-109801842D02*
X281876488Y-109897080D01*
X281876488Y-109897080D02*
X281924107Y-109944700D01*
X281924107Y-109944700D02*
X282019345Y-109992319D01*
X282019345Y-109992319D02*
X282209821Y-109992319D01*
X282209821Y-109992319D02*
X282305059Y-109944700D01*
X281257440Y-109992319D02*
X281352678Y-109944700D01*
X281352678Y-109944700D02*
X281400297Y-109849461D01*
X281400297Y-109849461D02*
X281400297Y-108992319D01*
X280876487Y-109992319D02*
X280876487Y-109325652D01*
X280876487Y-108992319D02*
X280924106Y-109039938D01*
X280924106Y-109039938D02*
X280876487Y-109087557D01*
X280876487Y-109087557D02*
X280828868Y-109039938D01*
X280828868Y-109039938D02*
X280876487Y-108992319D01*
X280876487Y-108992319D02*
X280876487Y-109087557D01*
X280543154Y-109325652D02*
X280162202Y-109325652D01*
X280400297Y-108992319D02*
X280400297Y-109849461D01*
X280400297Y-109849461D02*
X280352678Y-109944700D01*
X280352678Y-109944700D02*
X280257440Y-109992319D01*
X280257440Y-109992319D02*
X280162202Y-109992319D01*
X141620832Y-108992319D02*
X141287499Y-109992319D01*
X141287499Y-109992319D02*
X140954166Y-108992319D01*
X103520832Y-108992319D02*
X102854166Y-109992319D01*
X102854166Y-108992319D02*
X103520832Y-109992319D01*
X279566666Y-129042319D02*
X280138094Y-129042319D01*
X279852380Y-129042319D02*
X279852380Y-128042319D01*
X279852380Y-128042319D02*
X279947618Y-128185176D01*
X279947618Y-128185176D02*
X280042856Y-128280414D01*
X280042856Y-128280414D02*
X280138094Y-128328033D01*
X278709523Y-128375652D02*
X278709523Y-129042319D01*
X279138094Y-128375652D02*
X279138094Y-128899461D01*
X279138094Y-128899461D02*
X279090475Y-128994700D01*
X279090475Y-128994700D02*
X278995237Y-129042319D01*
X278995237Y-129042319D02*
X278852380Y-129042319D01*
X278852380Y-129042319D02*
X278757142Y-128994700D01*
X278757142Y-128994700D02*
X278709523Y-128947080D01*
X136286904Y-51842319D02*
X136763094Y-51842319D01*
X136763094Y-51842319D02*
X136810713Y-52318509D01*
X136810713Y-52318509D02*
X136763094Y-52270890D01*
X136763094Y-52270890D02*
X136667856Y-52223271D01*
X136667856Y-52223271D02*
X136429761Y-52223271D01*
X136429761Y-52223271D02*
X136334523Y-52270890D01*
X136334523Y-52270890D02*
X136286904Y-52318509D01*
X136286904Y-52318509D02*
X136239285Y-52413747D01*
X136239285Y-52413747D02*
X136239285Y-52651842D01*
X136239285Y-52651842D02*
X136286904Y-52747080D01*
X136286904Y-52747080D02*
X136334523Y-52794700D01*
X136334523Y-52794700D02*
X136429761Y-52842319D01*
X136429761Y-52842319D02*
X136667856Y-52842319D01*
X136667856Y-52842319D02*
X136763094Y-52794700D01*
X136763094Y-52794700D02*
X136810713Y-52747080D01*
X150550595Y-89989938D02*
X150645833Y-89942319D01*
X150645833Y-89942319D02*
X150788690Y-89942319D01*
X150788690Y-89942319D02*
X150931547Y-89989938D01*
X150931547Y-89989938D02*
X151026785Y-90085176D01*
X151026785Y-90085176D02*
X151074404Y-90180414D01*
X151074404Y-90180414D02*
X151122023Y-90370890D01*
X151122023Y-90370890D02*
X151122023Y-90513747D01*
X151122023Y-90513747D02*
X151074404Y-90704223D01*
X151074404Y-90704223D02*
X151026785Y-90799461D01*
X151026785Y-90799461D02*
X150931547Y-90894700D01*
X150931547Y-90894700D02*
X150788690Y-90942319D01*
X150788690Y-90942319D02*
X150693452Y-90942319D01*
X150693452Y-90942319D02*
X150550595Y-90894700D01*
X150550595Y-90894700D02*
X150502976Y-90847080D01*
X150502976Y-90847080D02*
X150502976Y-90513747D01*
X150502976Y-90513747D02*
X150693452Y-90513747D01*
X246062499Y-90847080D02*
X246014880Y-90894700D01*
X246014880Y-90894700D02*
X246062499Y-90942319D01*
X246062499Y-90942319D02*
X246110118Y-90894700D01*
X246110118Y-90894700D02*
X246062499Y-90847080D01*
X246062499Y-90847080D02*
X246062499Y-90942319D01*
X246062499Y-90323271D02*
X246014880Y-90370890D01*
X246014880Y-90370890D02*
X246062499Y-90418509D01*
X246062499Y-90418509D02*
X246110118Y-90370890D01*
X246110118Y-90370890D02*
X246062499Y-90323271D01*
X246062499Y-90323271D02*
X246062499Y-90418509D01*
X246014880Y-92407200D02*
X246014880Y-92454819D01*
X246014880Y-92454819D02*
X246062499Y-92550057D01*
X246062499Y-92550057D02*
X246110118Y-92597676D01*
X246062499Y-91835771D02*
X246014880Y-91883390D01*
X246014880Y-91883390D02*
X246062499Y-91931009D01*
X246062499Y-91931009D02*
X246110118Y-91883390D01*
X246110118Y-91883390D02*
X246062499Y-91835771D01*
X246062499Y-91835771D02*
X246062499Y-91931009D01*
X193770237Y-52270890D02*
X193865475Y-52223271D01*
X193865475Y-52223271D02*
X193913094Y-52175652D01*
X193913094Y-52175652D02*
X193960713Y-52080414D01*
X193960713Y-52080414D02*
X193960713Y-52032795D01*
X193960713Y-52032795D02*
X193913094Y-51937557D01*
X193913094Y-51937557D02*
X193865475Y-51889938D01*
X193865475Y-51889938D02*
X193770237Y-51842319D01*
X193770237Y-51842319D02*
X193579761Y-51842319D01*
X193579761Y-51842319D02*
X193484523Y-51889938D01*
X193484523Y-51889938D02*
X193436904Y-51937557D01*
X193436904Y-51937557D02*
X193389285Y-52032795D01*
X193389285Y-52032795D02*
X193389285Y-52080414D01*
X193389285Y-52080414D02*
X193436904Y-52175652D01*
X193436904Y-52175652D02*
X193484523Y-52223271D01*
X193484523Y-52223271D02*
X193579761Y-52270890D01*
X193579761Y-52270890D02*
X193770237Y-52270890D01*
X193770237Y-52270890D02*
X193865475Y-52318509D01*
X193865475Y-52318509D02*
X193913094Y-52366128D01*
X193913094Y-52366128D02*
X193960713Y-52461366D01*
X193960713Y-52461366D02*
X193960713Y-52651842D01*
X193960713Y-52651842D02*
X193913094Y-52747080D01*
X193913094Y-52747080D02*
X193865475Y-52794700D01*
X193865475Y-52794700D02*
X193770237Y-52842319D01*
X193770237Y-52842319D02*
X193579761Y-52842319D01*
X193579761Y-52842319D02*
X193484523Y-52794700D01*
X193484523Y-52794700D02*
X193436904Y-52747080D01*
X193436904Y-52747080D02*
X193389285Y-52651842D01*
X193389285Y-52651842D02*
X193389285Y-52461366D01*
X193389285Y-52461366D02*
X193436904Y-52366128D01*
X193436904Y-52366128D02*
X193484523Y-52318509D01*
X193484523Y-52318509D02*
X193579761Y-52270890D01*
X241561904Y-71892319D02*
X241561904Y-70892319D01*
X241561904Y-70892319D02*
X241180952Y-70892319D01*
X241180952Y-70892319D02*
X241085714Y-70939938D01*
X241085714Y-70939938D02*
X241038095Y-70987557D01*
X241038095Y-70987557D02*
X240990476Y-71082795D01*
X240990476Y-71082795D02*
X240990476Y-71225652D01*
X240990476Y-71225652D02*
X241038095Y-71320890D01*
X241038095Y-71320890D02*
X241085714Y-71368509D01*
X241085714Y-71368509D02*
X241180952Y-71416128D01*
X241180952Y-71416128D02*
X241561904Y-71416128D01*
X69469047Y-71987557D02*
X69564285Y-71939938D01*
X69564285Y-71939938D02*
X69659523Y-71844700D01*
X69659523Y-71844700D02*
X69802380Y-71701842D01*
X69802380Y-71701842D02*
X69897618Y-71654223D01*
X69897618Y-71654223D02*
X69992856Y-71654223D01*
X69945237Y-71892319D02*
X70040475Y-71844700D01*
X70040475Y-71844700D02*
X70135713Y-71749461D01*
X70135713Y-71749461D02*
X70183332Y-71558985D01*
X70183332Y-71558985D02*
X70183332Y-71225652D01*
X70183332Y-71225652D02*
X70135713Y-71035176D01*
X70135713Y-71035176D02*
X70040475Y-70939938D01*
X70040475Y-70939938D02*
X69945237Y-70892319D01*
X69945237Y-70892319D02*
X69754761Y-70892319D01*
X69754761Y-70892319D02*
X69659523Y-70939938D01*
X69659523Y-70939938D02*
X69564285Y-71035176D01*
X69564285Y-71035176D02*
X69516666Y-71225652D01*
X69516666Y-71225652D02*
X69516666Y-71558985D01*
X69516666Y-71558985D02*
X69564285Y-71749461D01*
X69564285Y-71749461D02*
X69659523Y-71844700D01*
X69659523Y-71844700D02*
X69754761Y-71892319D01*
X69754761Y-71892319D02*
X69945237Y-71892319D01*
X165099999Y-71416128D02*
X165099999Y-71892319D01*
X165433332Y-70892319D02*
X165099999Y-71416128D01*
X165099999Y-71416128D02*
X164766666Y-70892319D01*
X279590475Y-72225652D02*
X279352380Y-72225652D01*
X279352380Y-72225652D02*
X279352380Y-70797080D01*
X279352380Y-70797080D02*
X279590475Y-70797080D01*
X178157619Y-130784819D02*
X178729047Y-130784819D01*
X178443333Y-130784819D02*
X178443333Y-129784819D01*
X178443333Y-129784819D02*
X178538571Y-129927676D01*
X178538571Y-129927676D02*
X178633809Y-130022914D01*
X178633809Y-130022914D02*
X178729047Y-130070533D01*
X177300476Y-130118152D02*
X177300476Y-130784819D01*
X177729047Y-130118152D02*
X177729047Y-130641961D01*
X177729047Y-130641961D02*
X177681428Y-130737200D01*
X177681428Y-130737200D02*
X177586190Y-130784819D01*
X177586190Y-130784819D02*
X177443333Y-130784819D01*
X177443333Y-130784819D02*
X177348095Y-130737200D01*
X177348095Y-130737200D02*
X177300476Y-130689580D01*
X176110000Y-129737200D02*
X176967142Y-131022914D01*
X175871904Y-129784819D02*
X175205238Y-129784819D01*
X175205238Y-129784819D02*
X175633809Y-130784819D01*
X174395714Y-130118152D02*
X174395714Y-130784819D01*
X174824285Y-130118152D02*
X174824285Y-130641961D01*
X174824285Y-130641961D02*
X174776666Y-130737200D01*
X174776666Y-130737200D02*
X174681428Y-130784819D01*
X174681428Y-130784819D02*
X174538571Y-130784819D01*
X174538571Y-130784819D02*
X174443333Y-130737200D01*
X174443333Y-130737200D02*
X174395714Y-130689580D01*
X173205238Y-129737200D02*
X174062380Y-131022914D01*
X172348095Y-130784819D02*
X172919523Y-130784819D01*
X172633809Y-130784819D02*
X172633809Y-129784819D01*
X172633809Y-129784819D02*
X172729047Y-129927676D01*
X172729047Y-129927676D02*
X172824285Y-130022914D01*
X172824285Y-130022914D02*
X172919523Y-130070533D01*
X171729047Y-129784819D02*
X171633809Y-129784819D01*
X171633809Y-129784819D02*
X171538571Y-129832438D01*
X171538571Y-129832438D02*
X171490952Y-129880057D01*
X171490952Y-129880057D02*
X171443333Y-129975295D01*
X171443333Y-129975295D02*
X171395714Y-130165771D01*
X171395714Y-130165771D02*
X171395714Y-130403866D01*
X171395714Y-130403866D02*
X171443333Y-130594342D01*
X171443333Y-130594342D02*
X171490952Y-130689580D01*
X171490952Y-130689580D02*
X171538571Y-130737200D01*
X171538571Y-130737200D02*
X171633809Y-130784819D01*
X171633809Y-130784819D02*
X171729047Y-130784819D01*
X171729047Y-130784819D02*
X171824285Y-130737200D01*
X171824285Y-130737200D02*
X171871904Y-130689580D01*
X171871904Y-130689580D02*
X171919523Y-130594342D01*
X171919523Y-130594342D02*
X171967142Y-130403866D01*
X171967142Y-130403866D02*
X171967142Y-130165771D01*
X171967142Y-130165771D02*
X171919523Y-129975295D01*
X171919523Y-129975295D02*
X171871904Y-129880057D01*
X171871904Y-129880057D02*
X171824285Y-129832438D01*
X171824285Y-129832438D02*
X171729047Y-129784819D01*
X170538571Y-130118152D02*
X170538571Y-130784819D01*
X170967142Y-130118152D02*
X170967142Y-130641961D01*
X170967142Y-130641961D02*
X170919523Y-130737200D01*
X170919523Y-130737200D02*
X170824285Y-130784819D01*
X170824285Y-130784819D02*
X170681428Y-130784819D01*
X170681428Y-130784819D02*
X170586190Y-130737200D01*
X170586190Y-130737200D02*
X170538571Y-130689580D01*
X212915475Y-52842319D02*
X212724999Y-52842319D01*
X212724999Y-52842319D02*
X212629761Y-52794700D01*
X212629761Y-52794700D02*
X212582142Y-52747080D01*
X212582142Y-52747080D02*
X212486904Y-52604223D01*
X212486904Y-52604223D02*
X212439285Y-52413747D01*
X212439285Y-52413747D02*
X212439285Y-52032795D01*
X212439285Y-52032795D02*
X212486904Y-51937557D01*
X212486904Y-51937557D02*
X212534523Y-51889938D01*
X212534523Y-51889938D02*
X212629761Y-51842319D01*
X212629761Y-51842319D02*
X212820237Y-51842319D01*
X212820237Y-51842319D02*
X212915475Y-51889938D01*
X212915475Y-51889938D02*
X212963094Y-51937557D01*
X212963094Y-51937557D02*
X213010713Y-52032795D01*
X213010713Y-52032795D02*
X213010713Y-52270890D01*
X213010713Y-52270890D02*
X212963094Y-52366128D01*
X212963094Y-52366128D02*
X212915475Y-52413747D01*
X212915475Y-52413747D02*
X212820237Y-52461366D01*
X212820237Y-52461366D02*
X212629761Y-52461366D01*
X212629761Y-52461366D02*
X212534523Y-52413747D01*
X212534523Y-52413747D02*
X212486904Y-52366128D01*
X212486904Y-52366128D02*
X212439285Y-52270890D01*
X66087499Y-109992319D02*
X66087499Y-108992319D01*
X65658928Y-109944700D02*
X65516071Y-109992319D01*
X65516071Y-109992319D02*
X65277976Y-109992319D01*
X65277976Y-109992319D02*
X65182738Y-109944700D01*
X65182738Y-109944700D02*
X65135119Y-109897080D01*
X65135119Y-109897080D02*
X65087500Y-109801842D01*
X65087500Y-109801842D02*
X65087500Y-109706604D01*
X65087500Y-109706604D02*
X65135119Y-109611366D01*
X65135119Y-109611366D02*
X65182738Y-109563747D01*
X65182738Y-109563747D02*
X65277976Y-109516128D01*
X65277976Y-109516128D02*
X65468452Y-109468509D01*
X65468452Y-109468509D02*
X65563690Y-109420890D01*
X65563690Y-109420890D02*
X65611309Y-109373271D01*
X65611309Y-109373271D02*
X65658928Y-109278033D01*
X65658928Y-109278033D02*
X65658928Y-109182795D01*
X65658928Y-109182795D02*
X65611309Y-109087557D01*
X65611309Y-109087557D02*
X65563690Y-109039938D01*
X65563690Y-109039938D02*
X65468452Y-108992319D01*
X65468452Y-108992319D02*
X65230357Y-108992319D01*
X65230357Y-108992319D02*
X65087500Y-109039938D01*
X64468452Y-108992319D02*
X64277976Y-108992319D01*
X64277976Y-108992319D02*
X64182738Y-109039938D01*
X64182738Y-109039938D02*
X64087500Y-109135176D01*
X64087500Y-109135176D02*
X64039881Y-109325652D01*
X64039881Y-109325652D02*
X64039881Y-109658985D01*
X64039881Y-109658985D02*
X64087500Y-109849461D01*
X64087500Y-109849461D02*
X64182738Y-109944700D01*
X64182738Y-109944700D02*
X64277976Y-109992319D01*
X64277976Y-109992319D02*
X64468452Y-109992319D01*
X64468452Y-109992319D02*
X64563690Y-109944700D01*
X64563690Y-109944700D02*
X64658928Y-109849461D01*
X64658928Y-109849461D02*
X64706547Y-109658985D01*
X64706547Y-109658985D02*
X64706547Y-109325652D01*
X64706547Y-109325652D02*
X64658928Y-109135176D01*
X64658928Y-109135176D02*
X64563690Y-109039938D01*
X64563690Y-109039938D02*
X64468452Y-108992319D01*
X236918451Y-109325652D02*
X236156547Y-109611366D01*
X236156547Y-109611366D02*
X236918451Y-109897080D01*
X236537499Y-111359580D02*
X236489880Y-111407200D01*
X236489880Y-111407200D02*
X236537499Y-111454819D01*
X236537499Y-111454819D02*
X236585118Y-111407200D01*
X236585118Y-111407200D02*
X236537499Y-111359580D01*
X236537499Y-111359580D02*
X236537499Y-111454819D01*
X291873333Y-109468509D02*
X292206666Y-109468509D01*
X292206666Y-109992319D02*
X292206666Y-108992319D01*
X292206666Y-108992319D02*
X291730476Y-108992319D01*
X290920952Y-109325652D02*
X290920952Y-109992319D01*
X291349523Y-109325652D02*
X291349523Y-109849461D01*
X291349523Y-109849461D02*
X291301904Y-109944700D01*
X291301904Y-109944700D02*
X291206666Y-109992319D01*
X291206666Y-109992319D02*
X291063809Y-109992319D01*
X291063809Y-109992319D02*
X290968571Y-109944700D01*
X290968571Y-109944700D02*
X290920952Y-109897080D01*
X290301904Y-109992319D02*
X290397142Y-109944700D01*
X290397142Y-109944700D02*
X290444761Y-109849461D01*
X290444761Y-109849461D02*
X290444761Y-108992319D01*
X289778094Y-109992319D02*
X289873332Y-109944700D01*
X289873332Y-109944700D02*
X289920951Y-109849461D01*
X289920951Y-109849461D02*
X289920951Y-108992319D01*
X121927976Y-109897080D02*
X121975595Y-109944700D01*
X121975595Y-109944700D02*
X122118452Y-109992319D01*
X122118452Y-109992319D02*
X122213690Y-109992319D01*
X122213690Y-109992319D02*
X122356547Y-109944700D01*
X122356547Y-109944700D02*
X122451785Y-109849461D01*
X122451785Y-109849461D02*
X122499404Y-109754223D01*
X122499404Y-109754223D02*
X122547023Y-109563747D01*
X122547023Y-109563747D02*
X122547023Y-109420890D01*
X122547023Y-109420890D02*
X122499404Y-109230414D01*
X122499404Y-109230414D02*
X122451785Y-109135176D01*
X122451785Y-109135176D02*
X122356547Y-109039938D01*
X122356547Y-109039938D02*
X122213690Y-108992319D01*
X122213690Y-108992319D02*
X122118452Y-108992319D01*
X122118452Y-108992319D02*
X121975595Y-109039938D01*
X121975595Y-109039938D02*
X121927976Y-109087557D01*
X108164285Y-71368509D02*
X107830952Y-71368509D01*
X107688095Y-71892319D02*
X108164285Y-71892319D01*
X108164285Y-71892319D02*
X108164285Y-70892319D01*
X108164285Y-70892319D02*
X107688095Y-70892319D01*
X295226189Y-90419104D02*
X294749999Y-90419104D01*
X295321427Y-90704819D02*
X294988094Y-89704819D01*
X294988094Y-89704819D02*
X294654761Y-90704819D01*
X294321427Y-90704819D02*
X294321427Y-89704819D01*
X294321427Y-89704819D02*
X293749999Y-90704819D01*
X293749999Y-90704819D02*
X293749999Y-89704819D01*
X293321427Y-90657200D02*
X293178570Y-90704819D01*
X293178570Y-90704819D02*
X292940475Y-90704819D01*
X292940475Y-90704819D02*
X292845237Y-90657200D01*
X292845237Y-90657200D02*
X292797618Y-90609580D01*
X292797618Y-90609580D02*
X292749999Y-90514342D01*
X292749999Y-90514342D02*
X292749999Y-90419104D01*
X292749999Y-90419104D02*
X292797618Y-90323866D01*
X292797618Y-90323866D02*
X292845237Y-90276247D01*
X292845237Y-90276247D02*
X292940475Y-90228628D01*
X292940475Y-90228628D02*
X293130951Y-90181009D01*
X293130951Y-90181009D02*
X293226189Y-90133390D01*
X293226189Y-90133390D02*
X293273808Y-90085771D01*
X293273808Y-90085771D02*
X293321427Y-89990533D01*
X293321427Y-89990533D02*
X293321427Y-89895295D01*
X293321427Y-89895295D02*
X293273808Y-89800057D01*
X293273808Y-89800057D02*
X293226189Y-89752438D01*
X293226189Y-89752438D02*
X293130951Y-89704819D01*
X293130951Y-89704819D02*
X292892856Y-89704819D01*
X292892856Y-89704819D02*
X292749999Y-89752438D01*
X292321427Y-90704819D02*
X292321427Y-89704819D01*
X309498809Y-52794700D02*
X309355952Y-52842319D01*
X309355952Y-52842319D02*
X309117857Y-52842319D01*
X309117857Y-52842319D02*
X309022619Y-52794700D01*
X309022619Y-52794700D02*
X308975000Y-52747080D01*
X308975000Y-52747080D02*
X308927381Y-52651842D01*
X308927381Y-52651842D02*
X308927381Y-52556604D01*
X308927381Y-52556604D02*
X308975000Y-52461366D01*
X308975000Y-52461366D02*
X309022619Y-52413747D01*
X309022619Y-52413747D02*
X309117857Y-52366128D01*
X309117857Y-52366128D02*
X309308333Y-52318509D01*
X309308333Y-52318509D02*
X309403571Y-52270890D01*
X309403571Y-52270890D02*
X309451190Y-52223271D01*
X309451190Y-52223271D02*
X309498809Y-52128033D01*
X309498809Y-52128033D02*
X309498809Y-52032795D01*
X309498809Y-52032795D02*
X309451190Y-51937557D01*
X309451190Y-51937557D02*
X309403571Y-51889938D01*
X309403571Y-51889938D02*
X309308333Y-51842319D01*
X309308333Y-51842319D02*
X309070238Y-51842319D01*
X309070238Y-51842319D02*
X308927381Y-51889938D01*
X308498809Y-52175652D02*
X308498809Y-53175652D01*
X308498809Y-52223271D02*
X308403571Y-52175652D01*
X308403571Y-52175652D02*
X308213095Y-52175652D01*
X308213095Y-52175652D02*
X308117857Y-52223271D01*
X308117857Y-52223271D02*
X308070238Y-52270890D01*
X308070238Y-52270890D02*
X308022619Y-52366128D01*
X308022619Y-52366128D02*
X308022619Y-52651842D01*
X308022619Y-52651842D02*
X308070238Y-52747080D01*
X308070238Y-52747080D02*
X308117857Y-52794700D01*
X308117857Y-52794700D02*
X308213095Y-52842319D01*
X308213095Y-52842319D02*
X308403571Y-52842319D01*
X308403571Y-52842319D02*
X308498809Y-52794700D01*
X307451190Y-52842319D02*
X307546428Y-52794700D01*
X307546428Y-52794700D02*
X307594047Y-52699461D01*
X307594047Y-52699461D02*
X307594047Y-51842319D01*
X307070237Y-52842319D02*
X307070237Y-52175652D01*
X307070237Y-51842319D02*
X307117856Y-51889938D01*
X307117856Y-51889938D02*
X307070237Y-51937557D01*
X307070237Y-51937557D02*
X307022618Y-51889938D01*
X307022618Y-51889938D02*
X307070237Y-51842319D01*
X307070237Y-51842319D02*
X307070237Y-51937557D01*
X306736904Y-52175652D02*
X306355952Y-52175652D01*
X306594047Y-51842319D02*
X306594047Y-52699461D01*
X306594047Y-52699461D02*
X306546428Y-52794700D01*
X306546428Y-52794700D02*
X306451190Y-52842319D01*
X306451190Y-52842319D02*
X306355952Y-52842319D01*
X231822618Y-51842319D02*
X231727380Y-51842319D01*
X231727380Y-51842319D02*
X231632142Y-51889938D01*
X231632142Y-51889938D02*
X231584523Y-51937557D01*
X231584523Y-51937557D02*
X231536904Y-52032795D01*
X231536904Y-52032795D02*
X231489285Y-52223271D01*
X231489285Y-52223271D02*
X231489285Y-52461366D01*
X231489285Y-52461366D02*
X231536904Y-52651842D01*
X231536904Y-52651842D02*
X231584523Y-52747080D01*
X231584523Y-52747080D02*
X231632142Y-52794700D01*
X231632142Y-52794700D02*
X231727380Y-52842319D01*
X231727380Y-52842319D02*
X231822618Y-52842319D01*
X231822618Y-52842319D02*
X231917856Y-52794700D01*
X231917856Y-52794700D02*
X231965475Y-52747080D01*
X231965475Y-52747080D02*
X232013094Y-52651842D01*
X232013094Y-52651842D02*
X232060713Y-52461366D01*
X232060713Y-52461366D02*
X232060713Y-52223271D01*
X232060713Y-52223271D02*
X232013094Y-52032795D01*
X232013094Y-52032795D02*
X231965475Y-51937557D01*
X231965475Y-51937557D02*
X231917856Y-51889938D01*
X231917856Y-51889938D02*
X231822618Y-51842319D01*
X226702976Y-90942319D02*
X227179166Y-90942319D01*
X227179166Y-90942319D02*
X227179166Y-89942319D01*
X203199999Y-71892319D02*
X203199999Y-70892319D01*
X198770832Y-109992319D02*
X198770832Y-108992319D01*
X198770832Y-108992319D02*
X198437499Y-109706604D01*
X198437499Y-109706604D02*
X198104166Y-108992319D01*
X198104166Y-108992319D02*
X198104166Y-109992319D01*
X299283333Y-52318509D02*
X299616666Y-52318509D01*
X299616666Y-52842319D02*
X299616666Y-51842319D01*
X299616666Y-51842319D02*
X299140476Y-51842319D01*
X298330952Y-52175652D02*
X298330952Y-52842319D01*
X298759523Y-52175652D02*
X298759523Y-52699461D01*
X298759523Y-52699461D02*
X298711904Y-52794700D01*
X298711904Y-52794700D02*
X298616666Y-52842319D01*
X298616666Y-52842319D02*
X298473809Y-52842319D01*
X298473809Y-52842319D02*
X298378571Y-52794700D01*
X298378571Y-52794700D02*
X298330952Y-52747080D01*
X297711904Y-52842319D02*
X297807142Y-52794700D01*
X297807142Y-52794700D02*
X297854761Y-52699461D01*
X297854761Y-52699461D02*
X297854761Y-51842319D01*
X297188094Y-52842319D02*
X297283332Y-52794700D01*
X297283332Y-52794700D02*
X297330951Y-52699461D01*
X297330951Y-52699461D02*
X297330951Y-51842319D01*
X255635118Y-109897080D02*
X255587499Y-109944700D01*
X255587499Y-109944700D02*
X255635118Y-109992319D01*
X255635118Y-109992319D02*
X255682737Y-109944700D01*
X255682737Y-109944700D02*
X255635118Y-109897080D01*
X255635118Y-109897080D02*
X255635118Y-109992319D01*
X255825594Y-109039938D02*
X255730356Y-108992319D01*
X255730356Y-108992319D02*
X255492261Y-108992319D01*
X255492261Y-108992319D02*
X255397023Y-109039938D01*
X255397023Y-109039938D02*
X255349404Y-109135176D01*
X255349404Y-109135176D02*
X255349404Y-109230414D01*
X255349404Y-109230414D02*
X255397023Y-109325652D01*
X255397023Y-109325652D02*
X255444642Y-109373271D01*
X255444642Y-109373271D02*
X255539880Y-109420890D01*
X255539880Y-109420890D02*
X255587499Y-109468509D01*
X255587499Y-109468509D02*
X255635118Y-109563747D01*
X255635118Y-109563747D02*
X255635118Y-109611366D01*
X255158928Y-110657200D02*
X256016070Y-111942914D01*
X131619642Y-90418509D02*
X131952975Y-90418509D01*
X131952975Y-90942319D02*
X131952975Y-89942319D01*
X131952975Y-89942319D02*
X131476785Y-89942319D01*
X70016666Y-129042319D02*
X70588094Y-129042319D01*
X70302380Y-129042319D02*
X70302380Y-128042319D01*
X70302380Y-128042319D02*
X70397618Y-128185176D01*
X70397618Y-128185176D02*
X70492856Y-128280414D01*
X70492856Y-128280414D02*
X70588094Y-128328033D01*
X69159523Y-128375652D02*
X69159523Y-129042319D01*
X69588094Y-128375652D02*
X69588094Y-128899461D01*
X69588094Y-128899461D02*
X69540475Y-128994700D01*
X69540475Y-128994700D02*
X69445237Y-129042319D01*
X69445237Y-129042319D02*
X69302380Y-129042319D01*
X69302380Y-129042319D02*
X69207142Y-128994700D01*
X69207142Y-128994700D02*
X69159523Y-128947080D01*
X98758332Y-51842319D02*
X98139285Y-51842319D01*
X98139285Y-51842319D02*
X98472618Y-52223271D01*
X98472618Y-52223271D02*
X98329761Y-52223271D01*
X98329761Y-52223271D02*
X98234523Y-52270890D01*
X98234523Y-52270890D02*
X98186904Y-52318509D01*
X98186904Y-52318509D02*
X98139285Y-52413747D01*
X98139285Y-52413747D02*
X98139285Y-52651842D01*
X98139285Y-52651842D02*
X98186904Y-52747080D01*
X98186904Y-52747080D02*
X98234523Y-52794700D01*
X98234523Y-52794700D02*
X98329761Y-52842319D01*
X98329761Y-52842319D02*
X98615475Y-52842319D01*
X98615475Y-52842319D02*
X98710713Y-52794700D01*
X98710713Y-52794700D02*
X98758332Y-52747080D01*
X155384523Y-51842319D02*
X155574999Y-51842319D01*
X155574999Y-51842319D02*
X155670237Y-51889938D01*
X155670237Y-51889938D02*
X155717856Y-51937557D01*
X155717856Y-51937557D02*
X155813094Y-52080414D01*
X155813094Y-52080414D02*
X155860713Y-52270890D01*
X155860713Y-52270890D02*
X155860713Y-52651842D01*
X155860713Y-52651842D02*
X155813094Y-52747080D01*
X155813094Y-52747080D02*
X155765475Y-52794700D01*
X155765475Y-52794700D02*
X155670237Y-52842319D01*
X155670237Y-52842319D02*
X155479761Y-52842319D01*
X155479761Y-52842319D02*
X155384523Y-52794700D01*
X155384523Y-52794700D02*
X155336904Y-52747080D01*
X155336904Y-52747080D02*
X155289285Y-52651842D01*
X155289285Y-52651842D02*
X155289285Y-52413747D01*
X155289285Y-52413747D02*
X155336904Y-52318509D01*
X155336904Y-52318509D02*
X155384523Y-52270890D01*
X155384523Y-52270890D02*
X155479761Y-52223271D01*
X155479761Y-52223271D02*
X155670237Y-52223271D01*
X155670237Y-52223271D02*
X155765475Y-52270890D01*
X155765475Y-52270890D02*
X155813094Y-52318509D01*
X155813094Y-52318509D02*
X155860713Y-52413747D01*
X265302975Y-90192319D02*
X265302975Y-90382795D01*
X264922023Y-90192319D02*
X264922023Y-90382795D01*
X265064880Y-91704819D02*
X265160118Y-91895295D01*
X42322618Y-52318509D02*
X41989285Y-52318509D01*
X41846428Y-52842319D02*
X42322618Y-52842319D01*
X42322618Y-52842319D02*
X42322618Y-51842319D01*
X42322618Y-51842319D02*
X41846428Y-51842319D01*
X41465475Y-52794700D02*
X41370237Y-52842319D01*
X41370237Y-52842319D02*
X41179761Y-52842319D01*
X41179761Y-52842319D02*
X41084523Y-52794700D01*
X41084523Y-52794700D02*
X41036904Y-52699461D01*
X41036904Y-52699461D02*
X41036904Y-52651842D01*
X41036904Y-52651842D02*
X41084523Y-52556604D01*
X41084523Y-52556604D02*
X41179761Y-52508985D01*
X41179761Y-52508985D02*
X41322618Y-52508985D01*
X41322618Y-52508985D02*
X41417856Y-52461366D01*
X41417856Y-52461366D02*
X41465475Y-52366128D01*
X41465475Y-52366128D02*
X41465475Y-52318509D01*
X41465475Y-52318509D02*
X41417856Y-52223271D01*
X41417856Y-52223271D02*
X41322618Y-52175652D01*
X41322618Y-52175652D02*
X41179761Y-52175652D01*
X41179761Y-52175652D02*
X41084523Y-52223271D01*
X40179761Y-52794700D02*
X40274999Y-52842319D01*
X40274999Y-52842319D02*
X40465475Y-52842319D01*
X40465475Y-52842319D02*
X40560713Y-52794700D01*
X40560713Y-52794700D02*
X40608332Y-52747080D01*
X40608332Y-52747080D02*
X40655951Y-52651842D01*
X40655951Y-52651842D02*
X40655951Y-52366128D01*
X40655951Y-52366128D02*
X40608332Y-52270890D01*
X40608332Y-52270890D02*
X40560713Y-52223271D01*
X40560713Y-52223271D02*
X40465475Y-52175652D01*
X40465475Y-52175652D02*
X40274999Y-52175652D01*
X40274999Y-52175652D02*
X40179761Y-52223271D01*
X95019642Y-129042319D02*
X95591070Y-129042319D01*
X95305356Y-129042319D02*
X95305356Y-128042319D01*
X95305356Y-128042319D02*
X95400594Y-128185176D01*
X95400594Y-128185176D02*
X95495832Y-128280414D01*
X95495832Y-128280414D02*
X95591070Y-128328033D01*
X94591070Y-128947080D02*
X94543451Y-128994700D01*
X94543451Y-128994700D02*
X94591070Y-129042319D01*
X94591070Y-129042319D02*
X94638689Y-128994700D01*
X94638689Y-128994700D02*
X94591070Y-128947080D01*
X94591070Y-128947080D02*
X94591070Y-129042319D01*
X93638690Y-128042319D02*
X94114880Y-128042319D01*
X94114880Y-128042319D02*
X94162499Y-128518509D01*
X94162499Y-128518509D02*
X94114880Y-128470890D01*
X94114880Y-128470890D02*
X94019642Y-128423271D01*
X94019642Y-128423271D02*
X93781547Y-128423271D01*
X93781547Y-128423271D02*
X93686309Y-128470890D01*
X93686309Y-128470890D02*
X93638690Y-128518509D01*
X93638690Y-128518509D02*
X93591071Y-128613747D01*
X93591071Y-128613747D02*
X93591071Y-128851842D01*
X93591071Y-128851842D02*
X93638690Y-128947080D01*
X93638690Y-128947080D02*
X93686309Y-128994700D01*
X93686309Y-128994700D02*
X93781547Y-129042319D01*
X93781547Y-129042319D02*
X94019642Y-129042319D01*
X94019642Y-129042319D02*
X94114880Y-128994700D01*
X94114880Y-128994700D02*
X94162499Y-128947080D01*
X92972023Y-128042319D02*
X92876785Y-128042319D01*
X92876785Y-128042319D02*
X92781547Y-128089938D01*
X92781547Y-128089938D02*
X92733928Y-128137557D01*
X92733928Y-128137557D02*
X92686309Y-128232795D01*
X92686309Y-128232795D02*
X92638690Y-128423271D01*
X92638690Y-128423271D02*
X92638690Y-128661366D01*
X92638690Y-128661366D02*
X92686309Y-128851842D01*
X92686309Y-128851842D02*
X92733928Y-128947080D01*
X92733928Y-128947080D02*
X92781547Y-128994700D01*
X92781547Y-128994700D02*
X92876785Y-129042319D01*
X92876785Y-129042319D02*
X92972023Y-129042319D01*
X92972023Y-129042319D02*
X93067261Y-128994700D01*
X93067261Y-128994700D02*
X93114880Y-128947080D01*
X93114880Y-128947080D02*
X93162499Y-128851842D01*
X93162499Y-128851842D02*
X93210118Y-128661366D01*
X93210118Y-128661366D02*
X93210118Y-128423271D01*
X93210118Y-128423271D02*
X93162499Y-128232795D01*
X93162499Y-128232795D02*
X93114880Y-128137557D01*
X93114880Y-128137557D02*
X93067261Y-128089938D01*
X93067261Y-128089938D02*
X92972023Y-128042319D01*
X91781547Y-128375652D02*
X91781547Y-129042319D01*
X92210118Y-128375652D02*
X92210118Y-128899461D01*
X92210118Y-128899461D02*
X92162499Y-128994700D01*
X92162499Y-128994700D02*
X92067261Y-129042319D01*
X92067261Y-129042319D02*
X91924404Y-129042319D01*
X91924404Y-129042319D02*
X91829166Y-128994700D01*
X91829166Y-128994700D02*
X91781547Y-128947080D01*
X270255951Y-52318509D02*
X269494047Y-52318509D01*
X269494047Y-52604223D02*
X270255951Y-52604223D01*
X290448809Y-52794700D02*
X290305952Y-52842319D01*
X290305952Y-52842319D02*
X290067857Y-52842319D01*
X290067857Y-52842319D02*
X289972619Y-52794700D01*
X289972619Y-52794700D02*
X289925000Y-52747080D01*
X289925000Y-52747080D02*
X289877381Y-52651842D01*
X289877381Y-52651842D02*
X289877381Y-52556604D01*
X289877381Y-52556604D02*
X289925000Y-52461366D01*
X289925000Y-52461366D02*
X289972619Y-52413747D01*
X289972619Y-52413747D02*
X290067857Y-52366128D01*
X290067857Y-52366128D02*
X290258333Y-52318509D01*
X290258333Y-52318509D02*
X290353571Y-52270890D01*
X290353571Y-52270890D02*
X290401190Y-52223271D01*
X290401190Y-52223271D02*
X290448809Y-52128033D01*
X290448809Y-52128033D02*
X290448809Y-52032795D01*
X290448809Y-52032795D02*
X290401190Y-51937557D01*
X290401190Y-51937557D02*
X290353571Y-51889938D01*
X290353571Y-51889938D02*
X290258333Y-51842319D01*
X290258333Y-51842319D02*
X290020238Y-51842319D01*
X290020238Y-51842319D02*
X289877381Y-51889938D01*
X289448809Y-52175652D02*
X289448809Y-53175652D01*
X289448809Y-52223271D02*
X289353571Y-52175652D01*
X289353571Y-52175652D02*
X289163095Y-52175652D01*
X289163095Y-52175652D02*
X289067857Y-52223271D01*
X289067857Y-52223271D02*
X289020238Y-52270890D01*
X289020238Y-52270890D02*
X288972619Y-52366128D01*
X288972619Y-52366128D02*
X288972619Y-52651842D01*
X288972619Y-52651842D02*
X289020238Y-52747080D01*
X289020238Y-52747080D02*
X289067857Y-52794700D01*
X289067857Y-52794700D02*
X289163095Y-52842319D01*
X289163095Y-52842319D02*
X289353571Y-52842319D01*
X289353571Y-52842319D02*
X289448809Y-52794700D01*
X288401190Y-52842319D02*
X288496428Y-52794700D01*
X288496428Y-52794700D02*
X288544047Y-52699461D01*
X288544047Y-52699461D02*
X288544047Y-51842319D01*
X288020237Y-52842319D02*
X288020237Y-52175652D01*
X288020237Y-51842319D02*
X288067856Y-51889938D01*
X288067856Y-51889938D02*
X288020237Y-51937557D01*
X288020237Y-51937557D02*
X287972618Y-51889938D01*
X287972618Y-51889938D02*
X288020237Y-51842319D01*
X288020237Y-51842319D02*
X288020237Y-51937557D01*
X287686904Y-52175652D02*
X287305952Y-52175652D01*
X287544047Y-51842319D02*
X287544047Y-52699461D01*
X287544047Y-52699461D02*
X287496428Y-52794700D01*
X287496428Y-52794700D02*
X287401190Y-52842319D01*
X287401190Y-52842319D02*
X287305952Y-52842319D01*
X208224404Y-90942319D02*
X208224404Y-89942319D01*
X207652976Y-90942319D02*
X208081547Y-90370890D01*
X207652976Y-89942319D02*
X208224404Y-90513747D01*
X44656249Y-109992319D02*
X44656249Y-108992319D01*
X44227678Y-109944700D02*
X44084821Y-109992319D01*
X44084821Y-109992319D02*
X43846726Y-109992319D01*
X43846726Y-109992319D02*
X43751488Y-109944700D01*
X43751488Y-109944700D02*
X43703869Y-109897080D01*
X43703869Y-109897080D02*
X43656250Y-109801842D01*
X43656250Y-109801842D02*
X43656250Y-109706604D01*
X43656250Y-109706604D02*
X43703869Y-109611366D01*
X43703869Y-109611366D02*
X43751488Y-109563747D01*
X43751488Y-109563747D02*
X43846726Y-109516128D01*
X43846726Y-109516128D02*
X44037202Y-109468509D01*
X44037202Y-109468509D02*
X44132440Y-109420890D01*
X44132440Y-109420890D02*
X44180059Y-109373271D01*
X44180059Y-109373271D02*
X44227678Y-109278033D01*
X44227678Y-109278033D02*
X44227678Y-109182795D01*
X44227678Y-109182795D02*
X44180059Y-109087557D01*
X44180059Y-109087557D02*
X44132440Y-109039938D01*
X44132440Y-109039938D02*
X44037202Y-108992319D01*
X44037202Y-108992319D02*
X43799107Y-108992319D01*
X43799107Y-108992319D02*
X43656250Y-109039938D01*
X43037202Y-108992319D02*
X42846726Y-108992319D01*
X42846726Y-108992319D02*
X42751488Y-109039938D01*
X42751488Y-109039938D02*
X42656250Y-109135176D01*
X42656250Y-109135176D02*
X42608631Y-109325652D01*
X42608631Y-109325652D02*
X42608631Y-109658985D01*
X42608631Y-109658985D02*
X42656250Y-109849461D01*
X42656250Y-109849461D02*
X42751488Y-109944700D01*
X42751488Y-109944700D02*
X42846726Y-109992319D01*
X42846726Y-109992319D02*
X43037202Y-109992319D01*
X43037202Y-109992319D02*
X43132440Y-109944700D01*
X43132440Y-109944700D02*
X43227678Y-109849461D01*
X43227678Y-109849461D02*
X43275297Y-109658985D01*
X43275297Y-109658985D02*
X43275297Y-109325652D01*
X43275297Y-109325652D02*
X43227678Y-109135176D01*
X43227678Y-109135176D02*
X43132440Y-109039938D01*
X43132440Y-109039938D02*
X43037202Y-108992319D01*
X79660713Y-51937557D02*
X79613094Y-51889938D01*
X79613094Y-51889938D02*
X79517856Y-51842319D01*
X79517856Y-51842319D02*
X79279761Y-51842319D01*
X79279761Y-51842319D02*
X79184523Y-51889938D01*
X79184523Y-51889938D02*
X79136904Y-51937557D01*
X79136904Y-51937557D02*
X79089285Y-52032795D01*
X79089285Y-52032795D02*
X79089285Y-52128033D01*
X79089285Y-52128033D02*
X79136904Y-52270890D01*
X79136904Y-52270890D02*
X79708332Y-52842319D01*
X79708332Y-52842319D02*
X79089285Y-52842319D01*
X304688689Y-71379104D02*
X304212499Y-71379104D01*
X304783927Y-71664819D02*
X304450594Y-70664819D01*
X304450594Y-70664819D02*
X304117261Y-71664819D01*
X303783927Y-71664819D02*
X303783927Y-70664819D01*
X303783927Y-70664819D02*
X303212499Y-71664819D01*
X303212499Y-71664819D02*
X303212499Y-70664819D01*
X302783927Y-71617200D02*
X302641070Y-71664819D01*
X302641070Y-71664819D02*
X302402975Y-71664819D01*
X302402975Y-71664819D02*
X302307737Y-71617200D01*
X302307737Y-71617200D02*
X302260118Y-71569580D01*
X302260118Y-71569580D02*
X302212499Y-71474342D01*
X302212499Y-71474342D02*
X302212499Y-71379104D01*
X302212499Y-71379104D02*
X302260118Y-71283866D01*
X302260118Y-71283866D02*
X302307737Y-71236247D01*
X302307737Y-71236247D02*
X302402975Y-71188628D01*
X302402975Y-71188628D02*
X302593451Y-71141009D01*
X302593451Y-71141009D02*
X302688689Y-71093390D01*
X302688689Y-71093390D02*
X302736308Y-71045771D01*
X302736308Y-71045771D02*
X302783927Y-70950533D01*
X302783927Y-70950533D02*
X302783927Y-70855295D01*
X302783927Y-70855295D02*
X302736308Y-70760057D01*
X302736308Y-70760057D02*
X302688689Y-70712438D01*
X302688689Y-70712438D02*
X302593451Y-70664819D01*
X302593451Y-70664819D02*
X302355356Y-70664819D01*
X302355356Y-70664819D02*
X302212499Y-70712438D01*
X301783927Y-71664819D02*
X301783927Y-70664819D01*
X174958332Y-51842319D02*
X174291666Y-51842319D01*
X174291666Y-51842319D02*
X174720237Y-52842319D01*
X222345237Y-70892319D02*
X222154761Y-70892319D01*
X222154761Y-70892319D02*
X222059523Y-70939938D01*
X222059523Y-70939938D02*
X221964285Y-71035176D01*
X221964285Y-71035176D02*
X221916666Y-71225652D01*
X221916666Y-71225652D02*
X221916666Y-71558985D01*
X221916666Y-71558985D02*
X221964285Y-71749461D01*
X221964285Y-71749461D02*
X222059523Y-71844700D01*
X222059523Y-71844700D02*
X222154761Y-71892319D01*
X222154761Y-71892319D02*
X222345237Y-71892319D01*
X222345237Y-71892319D02*
X222440475Y-71844700D01*
X222440475Y-71844700D02*
X222535713Y-71749461D01*
X222535713Y-71749461D02*
X222583332Y-71558985D01*
X222583332Y-71558985D02*
X222583332Y-71225652D01*
X222583332Y-71225652D02*
X222535713Y-71035176D01*
X222535713Y-71035176D02*
X222440475Y-70939938D01*
X222440475Y-70939938D02*
X222345237Y-70892319D01*
X304569642Y-129042319D02*
X305141070Y-129042319D01*
X304855356Y-129042319D02*
X304855356Y-128042319D01*
X304855356Y-128042319D02*
X304950594Y-128185176D01*
X304950594Y-128185176D02*
X305045832Y-128280414D01*
X305045832Y-128280414D02*
X305141070Y-128328033D01*
X304141070Y-128947080D02*
X304093451Y-128994700D01*
X304093451Y-128994700D02*
X304141070Y-129042319D01*
X304141070Y-129042319D02*
X304188689Y-128994700D01*
X304188689Y-128994700D02*
X304141070Y-128947080D01*
X304141070Y-128947080D02*
X304141070Y-129042319D01*
X303188690Y-128042319D02*
X303664880Y-128042319D01*
X303664880Y-128042319D02*
X303712499Y-128518509D01*
X303712499Y-128518509D02*
X303664880Y-128470890D01*
X303664880Y-128470890D02*
X303569642Y-128423271D01*
X303569642Y-128423271D02*
X303331547Y-128423271D01*
X303331547Y-128423271D02*
X303236309Y-128470890D01*
X303236309Y-128470890D02*
X303188690Y-128518509D01*
X303188690Y-128518509D02*
X303141071Y-128613747D01*
X303141071Y-128613747D02*
X303141071Y-128851842D01*
X303141071Y-128851842D02*
X303188690Y-128947080D01*
X303188690Y-128947080D02*
X303236309Y-128994700D01*
X303236309Y-128994700D02*
X303331547Y-129042319D01*
X303331547Y-129042319D02*
X303569642Y-129042319D01*
X303569642Y-129042319D02*
X303664880Y-128994700D01*
X303664880Y-128994700D02*
X303712499Y-128947080D01*
X302522023Y-128042319D02*
X302426785Y-128042319D01*
X302426785Y-128042319D02*
X302331547Y-128089938D01*
X302331547Y-128089938D02*
X302283928Y-128137557D01*
X302283928Y-128137557D02*
X302236309Y-128232795D01*
X302236309Y-128232795D02*
X302188690Y-128423271D01*
X302188690Y-128423271D02*
X302188690Y-128661366D01*
X302188690Y-128661366D02*
X302236309Y-128851842D01*
X302236309Y-128851842D02*
X302283928Y-128947080D01*
X302283928Y-128947080D02*
X302331547Y-128994700D01*
X302331547Y-128994700D02*
X302426785Y-129042319D01*
X302426785Y-129042319D02*
X302522023Y-129042319D01*
X302522023Y-129042319D02*
X302617261Y-128994700D01*
X302617261Y-128994700D02*
X302664880Y-128947080D01*
X302664880Y-128947080D02*
X302712499Y-128851842D01*
X302712499Y-128851842D02*
X302760118Y-128661366D01*
X302760118Y-128661366D02*
X302760118Y-128423271D01*
X302760118Y-128423271D02*
X302712499Y-128232795D01*
X302712499Y-128232795D02*
X302664880Y-128137557D01*
X302664880Y-128137557D02*
X302617261Y-128089938D01*
X302617261Y-128089938D02*
X302522023Y-128042319D01*
X301331547Y-128375652D02*
X301331547Y-129042319D01*
X301760118Y-128375652D02*
X301760118Y-128899461D01*
X301760118Y-128899461D02*
X301712499Y-128994700D01*
X301712499Y-128994700D02*
X301617261Y-129042319D01*
X301617261Y-129042319D02*
X301474404Y-129042319D01*
X301474404Y-129042319D02*
X301379166Y-128994700D01*
X301379166Y-128994700D02*
X301331547Y-128947080D01*
X54657439Y-109706604D02*
X54181249Y-109706604D01*
X54752677Y-109992319D02*
X54419344Y-108992319D01*
X54419344Y-108992319D02*
X54086011Y-109992319D01*
X53752677Y-109992319D02*
X53752677Y-108992319D01*
X53752677Y-108992319D02*
X53181249Y-109992319D01*
X53181249Y-109992319D02*
X53181249Y-108992319D01*
X52752677Y-109944700D02*
X52609820Y-109992319D01*
X52609820Y-109992319D02*
X52371725Y-109992319D01*
X52371725Y-109992319D02*
X52276487Y-109944700D01*
X52276487Y-109944700D02*
X52228868Y-109897080D01*
X52228868Y-109897080D02*
X52181249Y-109801842D01*
X52181249Y-109801842D02*
X52181249Y-109706604D01*
X52181249Y-109706604D02*
X52228868Y-109611366D01*
X52228868Y-109611366D02*
X52276487Y-109563747D01*
X52276487Y-109563747D02*
X52371725Y-109516128D01*
X52371725Y-109516128D02*
X52562201Y-109468509D01*
X52562201Y-109468509D02*
X52657439Y-109420890D01*
X52657439Y-109420890D02*
X52705058Y-109373271D01*
X52705058Y-109373271D02*
X52752677Y-109278033D01*
X52752677Y-109278033D02*
X52752677Y-109182795D01*
X52752677Y-109182795D02*
X52705058Y-109087557D01*
X52705058Y-109087557D02*
X52657439Y-109039938D01*
X52657439Y-109039938D02*
X52562201Y-108992319D01*
X52562201Y-108992319D02*
X52324106Y-108992319D01*
X52324106Y-108992319D02*
X52181249Y-109039938D01*
X51752677Y-109992319D02*
X51752677Y-108992319D01*
X117284523Y-52175652D02*
X117284523Y-52842319D01*
X117522618Y-51794700D02*
X117760713Y-52508985D01*
X117760713Y-52508985D02*
X117141666Y-52508985D01*
X184435713Y-70892319D02*
X184435713Y-71701842D01*
X184435713Y-71701842D02*
X184388094Y-71797080D01*
X184388094Y-71797080D02*
X184340475Y-71844700D01*
X184340475Y-71844700D02*
X184245237Y-71892319D01*
X184245237Y-71892319D02*
X184054761Y-71892319D01*
X184054761Y-71892319D02*
X183959523Y-71844700D01*
X183959523Y-71844700D02*
X183911904Y-71797080D01*
X183911904Y-71797080D02*
X183864285Y-71701842D01*
X183864285Y-71701842D02*
X183864285Y-70892319D01*
X37588095Y-68734819D02*
X37921428Y-68258628D01*
X38159523Y-68734819D02*
X38159523Y-67734819D01*
X38159523Y-67734819D02*
X37778571Y-67734819D01*
X37778571Y-67734819D02*
X37683333Y-67782438D01*
X37683333Y-67782438D02*
X37635714Y-67830057D01*
X37635714Y-67830057D02*
X37588095Y-67925295D01*
X37588095Y-67925295D02*
X37588095Y-68068152D01*
X37588095Y-68068152D02*
X37635714Y-68163390D01*
X37635714Y-68163390D02*
X37683333Y-68211009D01*
X37683333Y-68211009D02*
X37778571Y-68258628D01*
X37778571Y-68258628D02*
X38159523Y-68258628D01*
X36778571Y-68687200D02*
X36873809Y-68734819D01*
X36873809Y-68734819D02*
X37064285Y-68734819D01*
X37064285Y-68734819D02*
X37159523Y-68687200D01*
X37159523Y-68687200D02*
X37207142Y-68591961D01*
X37207142Y-68591961D02*
X37207142Y-68211009D01*
X37207142Y-68211009D02*
X37159523Y-68115771D01*
X37159523Y-68115771D02*
X37064285Y-68068152D01*
X37064285Y-68068152D02*
X36873809Y-68068152D01*
X36873809Y-68068152D02*
X36778571Y-68115771D01*
X36778571Y-68115771D02*
X36730952Y-68211009D01*
X36730952Y-68211009D02*
X36730952Y-68306247D01*
X36730952Y-68306247D02*
X37207142Y-68401485D01*
X36349999Y-68687200D02*
X36254761Y-68734819D01*
X36254761Y-68734819D02*
X36064285Y-68734819D01*
X36064285Y-68734819D02*
X35969047Y-68687200D01*
X35969047Y-68687200D02*
X35921428Y-68591961D01*
X35921428Y-68591961D02*
X35921428Y-68544342D01*
X35921428Y-68544342D02*
X35969047Y-68449104D01*
X35969047Y-68449104D02*
X36064285Y-68401485D01*
X36064285Y-68401485D02*
X36207142Y-68401485D01*
X36207142Y-68401485D02*
X36302380Y-68353866D01*
X36302380Y-68353866D02*
X36349999Y-68258628D01*
X36349999Y-68258628D02*
X36349999Y-68211009D01*
X36349999Y-68211009D02*
X36302380Y-68115771D01*
X36302380Y-68115771D02*
X36207142Y-68068152D01*
X36207142Y-68068152D02*
X36064285Y-68068152D01*
X36064285Y-68068152D02*
X35969047Y-68115771D01*
X35111904Y-68687200D02*
X35207142Y-68734819D01*
X35207142Y-68734819D02*
X35397618Y-68734819D01*
X35397618Y-68734819D02*
X35492856Y-68687200D01*
X35492856Y-68687200D02*
X35540475Y-68591961D01*
X35540475Y-68591961D02*
X35540475Y-68211009D01*
X35540475Y-68211009D02*
X35492856Y-68115771D01*
X35492856Y-68115771D02*
X35397618Y-68068152D01*
X35397618Y-68068152D02*
X35207142Y-68068152D01*
X35207142Y-68068152D02*
X35111904Y-68115771D01*
X35111904Y-68115771D02*
X35064285Y-68211009D01*
X35064285Y-68211009D02*
X35064285Y-68306247D01*
X35064285Y-68306247D02*
X35540475Y-68401485D01*
X34778570Y-68068152D02*
X34397618Y-68068152D01*
X34635713Y-67734819D02*
X34635713Y-68591961D01*
X34635713Y-68591961D02*
X34588094Y-68687200D01*
X34588094Y-68687200D02*
X34492856Y-68734819D01*
X34492856Y-68734819D02*
X34397618Y-68734819D01*
X77259104Y-86921905D02*
X77259104Y-87398095D01*
X77544819Y-86826667D02*
X76544819Y-87160000D01*
X76544819Y-87160000D02*
X77544819Y-87493333D01*
X90544819Y-67591429D02*
X91544819Y-67829524D01*
X91544819Y-67829524D02*
X90830533Y-68020000D01*
X90830533Y-68020000D02*
X91544819Y-68210476D01*
X91544819Y-68210476D02*
X90544819Y-68448572D01*
X51840475Y-47199795D02*
X51840475Y-47847414D01*
X51840475Y-47847414D02*
X51802380Y-47923604D01*
X51802380Y-47923604D02*
X51764285Y-47961700D01*
X51764285Y-47961700D02*
X51688094Y-47999795D01*
X51688094Y-47999795D02*
X51535713Y-47999795D01*
X51535713Y-47999795D02*
X51459523Y-47961700D01*
X51459523Y-47961700D02*
X51421428Y-47923604D01*
X51421428Y-47923604D02*
X51383332Y-47847414D01*
X51383332Y-47847414D02*
X51383332Y-47199795D01*
X51040476Y-47961700D02*
X50926190Y-47999795D01*
X50926190Y-47999795D02*
X50735714Y-47999795D01*
X50735714Y-47999795D02*
X50659523Y-47961700D01*
X50659523Y-47961700D02*
X50621428Y-47923604D01*
X50621428Y-47923604D02*
X50583333Y-47847414D01*
X50583333Y-47847414D02*
X50583333Y-47771223D01*
X50583333Y-47771223D02*
X50621428Y-47695033D01*
X50621428Y-47695033D02*
X50659523Y-47656938D01*
X50659523Y-47656938D02*
X50735714Y-47618842D01*
X50735714Y-47618842D02*
X50888095Y-47580747D01*
X50888095Y-47580747D02*
X50964285Y-47542652D01*
X50964285Y-47542652D02*
X51002380Y-47504557D01*
X51002380Y-47504557D02*
X51040476Y-47428366D01*
X51040476Y-47428366D02*
X51040476Y-47352176D01*
X51040476Y-47352176D02*
X51002380Y-47275985D01*
X51002380Y-47275985D02*
X50964285Y-47237890D01*
X50964285Y-47237890D02*
X50888095Y-47199795D01*
X50888095Y-47199795D02*
X50697618Y-47199795D01*
X50697618Y-47199795D02*
X50583333Y-47237890D01*
X49973809Y-47580747D02*
X49859523Y-47618842D01*
X49859523Y-47618842D02*
X49821428Y-47656938D01*
X49821428Y-47656938D02*
X49783332Y-47733128D01*
X49783332Y-47733128D02*
X49783332Y-47847414D01*
X49783332Y-47847414D02*
X49821428Y-47923604D01*
X49821428Y-47923604D02*
X49859523Y-47961700D01*
X49859523Y-47961700D02*
X49935713Y-47999795D01*
X49935713Y-47999795D02*
X50240475Y-47999795D01*
X50240475Y-47999795D02*
X50240475Y-47199795D01*
X50240475Y-47199795D02*
X49973809Y-47199795D01*
X49973809Y-47199795D02*
X49897618Y-47237890D01*
X49897618Y-47237890D02*
X49859523Y-47275985D01*
X49859523Y-47275985D02*
X49821428Y-47352176D01*
X49821428Y-47352176D02*
X49821428Y-47428366D01*
X49821428Y-47428366D02*
X49859523Y-47504557D01*
X49859523Y-47504557D02*
X49897618Y-47542652D01*
X49897618Y-47542652D02*
X49973809Y-47580747D01*
X49973809Y-47580747D02*
X50240475Y-47580747D01*
X49021428Y-47999795D02*
X49478571Y-47999795D01*
X49249999Y-47999795D02*
X49249999Y-47199795D01*
X49249999Y-47199795D02*
X49326190Y-47314080D01*
X49326190Y-47314080D02*
X49402380Y-47390271D01*
X49402380Y-47390271D02*
X49478571Y-47428366D01*
X35907142Y-94822200D02*
X35764285Y-94869819D01*
X35764285Y-94869819D02*
X35526190Y-94869819D01*
X35526190Y-94869819D02*
X35430952Y-94822200D01*
X35430952Y-94822200D02*
X35383333Y-94774580D01*
X35383333Y-94774580D02*
X35335714Y-94679342D01*
X35335714Y-94679342D02*
X35335714Y-94584104D01*
X35335714Y-94584104D02*
X35383333Y-94488866D01*
X35383333Y-94488866D02*
X35430952Y-94441247D01*
X35430952Y-94441247D02*
X35526190Y-94393628D01*
X35526190Y-94393628D02*
X35716666Y-94346009D01*
X35716666Y-94346009D02*
X35811904Y-94298390D01*
X35811904Y-94298390D02*
X35859523Y-94250771D01*
X35859523Y-94250771D02*
X35907142Y-94155533D01*
X35907142Y-94155533D02*
X35907142Y-94060295D01*
X35907142Y-94060295D02*
X35859523Y-93965057D01*
X35859523Y-93965057D02*
X35811904Y-93917438D01*
X35811904Y-93917438D02*
X35716666Y-93869819D01*
X35716666Y-93869819D02*
X35478571Y-93869819D01*
X35478571Y-93869819D02*
X35335714Y-93917438D01*
X35002380Y-93869819D02*
X34764285Y-94869819D01*
X34764285Y-94869819D02*
X34573809Y-94155533D01*
X34573809Y-94155533D02*
X34383333Y-94869819D01*
X34383333Y-94869819D02*
X34145238Y-93869819D01*
X33764285Y-94869819D02*
X33764285Y-93869819D01*
X33764285Y-93869819D02*
X33526190Y-93869819D01*
X33526190Y-93869819D02*
X33383333Y-93917438D01*
X33383333Y-93917438D02*
X33288095Y-94012676D01*
X33288095Y-94012676D02*
X33240476Y-94107914D01*
X33240476Y-94107914D02*
X33192857Y-94298390D01*
X33192857Y-94298390D02*
X33192857Y-94441247D01*
X33192857Y-94441247D02*
X33240476Y-94631723D01*
X33240476Y-94631723D02*
X33288095Y-94726961D01*
X33288095Y-94726961D02*
X33383333Y-94822200D01*
X33383333Y-94822200D02*
X33526190Y-94869819D01*
X33526190Y-94869819D02*
X33764285Y-94869819D01*
X96347200Y-86964286D02*
X96394819Y-87107143D01*
X96394819Y-87107143D02*
X96394819Y-87345238D01*
X96394819Y-87345238D02*
X96347200Y-87440476D01*
X96347200Y-87440476D02*
X96299580Y-87488095D01*
X96299580Y-87488095D02*
X96204342Y-87535714D01*
X96204342Y-87535714D02*
X96109104Y-87535714D01*
X96109104Y-87535714D02*
X96013866Y-87488095D01*
X96013866Y-87488095D02*
X95966247Y-87440476D01*
X95966247Y-87440476D02*
X95918628Y-87345238D01*
X95918628Y-87345238D02*
X95871009Y-87154762D01*
X95871009Y-87154762D02*
X95823390Y-87059524D01*
X95823390Y-87059524D02*
X95775771Y-87011905D01*
X95775771Y-87011905D02*
X95680533Y-86964286D01*
X95680533Y-86964286D02*
X95585295Y-86964286D01*
X95585295Y-86964286D02*
X95490057Y-87011905D01*
X95490057Y-87011905D02*
X95442438Y-87059524D01*
X95442438Y-87059524D02*
X95394819Y-87154762D01*
X95394819Y-87154762D02*
X95394819Y-87392857D01*
X95394819Y-87392857D02*
X95442438Y-87535714D01*
X81019047Y-65451009D02*
X80876190Y-65498628D01*
X80876190Y-65498628D02*
X80828571Y-65546247D01*
X80828571Y-65546247D02*
X80780952Y-65641485D01*
X80780952Y-65641485D02*
X80780952Y-65784342D01*
X80780952Y-65784342D02*
X80828571Y-65879580D01*
X80828571Y-65879580D02*
X80876190Y-65927200D01*
X80876190Y-65927200D02*
X80971428Y-65974819D01*
X80971428Y-65974819D02*
X81352380Y-65974819D01*
X81352380Y-65974819D02*
X81352380Y-64974819D01*
X81352380Y-64974819D02*
X81019047Y-64974819D01*
X81019047Y-64974819D02*
X80923809Y-65022438D01*
X80923809Y-65022438D02*
X80876190Y-65070057D01*
X80876190Y-65070057D02*
X80828571Y-65165295D01*
X80828571Y-65165295D02*
X80828571Y-65260533D01*
X80828571Y-65260533D02*
X80876190Y-65355771D01*
X80876190Y-65355771D02*
X80923809Y-65403390D01*
X80923809Y-65403390D02*
X81019047Y-65451009D01*
X81019047Y-65451009D02*
X81352380Y-65451009D01*
X80209523Y-65974819D02*
X80304761Y-65927200D01*
X80304761Y-65927200D02*
X80352380Y-65879580D01*
X80352380Y-65879580D02*
X80399999Y-65784342D01*
X80399999Y-65784342D02*
X80399999Y-65498628D01*
X80399999Y-65498628D02*
X80352380Y-65403390D01*
X80352380Y-65403390D02*
X80304761Y-65355771D01*
X80304761Y-65355771D02*
X80209523Y-65308152D01*
X80209523Y-65308152D02*
X80066666Y-65308152D01*
X80066666Y-65308152D02*
X79971428Y-65355771D01*
X79971428Y-65355771D02*
X79923809Y-65403390D01*
X79923809Y-65403390D02*
X79876190Y-65498628D01*
X79876190Y-65498628D02*
X79876190Y-65784342D01*
X79876190Y-65784342D02*
X79923809Y-65879580D01*
X79923809Y-65879580D02*
X79971428Y-65927200D01*
X79971428Y-65927200D02*
X80066666Y-65974819D01*
X80066666Y-65974819D02*
X80209523Y-65974819D01*
X79304761Y-65974819D02*
X79399999Y-65927200D01*
X79399999Y-65927200D02*
X79447618Y-65879580D01*
X79447618Y-65879580D02*
X79495237Y-65784342D01*
X79495237Y-65784342D02*
X79495237Y-65498628D01*
X79495237Y-65498628D02*
X79447618Y-65403390D01*
X79447618Y-65403390D02*
X79399999Y-65355771D01*
X79399999Y-65355771D02*
X79304761Y-65308152D01*
X79304761Y-65308152D02*
X79161904Y-65308152D01*
X79161904Y-65308152D02*
X79066666Y-65355771D01*
X79066666Y-65355771D02*
X79019047Y-65403390D01*
X79019047Y-65403390D02*
X78971428Y-65498628D01*
X78971428Y-65498628D02*
X78971428Y-65784342D01*
X78971428Y-65784342D02*
X79019047Y-65879580D01*
X79019047Y-65879580D02*
X79066666Y-65927200D01*
X79066666Y-65927200D02*
X79161904Y-65974819D01*
X79161904Y-65974819D02*
X79304761Y-65974819D01*
X78685713Y-65308152D02*
X78304761Y-65308152D01*
X78542856Y-64974819D02*
X78542856Y-65831961D01*
X78542856Y-65831961D02*
X78495237Y-65927200D01*
X78495237Y-65927200D02*
X78399999Y-65974819D01*
X78399999Y-65974819D02*
X78304761Y-65974819D01*
X67441904Y-55644819D02*
X67441904Y-56454342D01*
X67441904Y-56454342D02*
X67394285Y-56549580D01*
X67394285Y-56549580D02*
X67346666Y-56597200D01*
X67346666Y-56597200D02*
X67251428Y-56644819D01*
X67251428Y-56644819D02*
X67060952Y-56644819D01*
X67060952Y-56644819D02*
X66965714Y-56597200D01*
X66965714Y-56597200D02*
X66918095Y-56549580D01*
X66918095Y-56549580D02*
X66870476Y-56454342D01*
X66870476Y-56454342D02*
X66870476Y-55644819D01*
X65918095Y-55644819D02*
X66394285Y-55644819D01*
X66394285Y-55644819D02*
X66441904Y-56121009D01*
X66441904Y-56121009D02*
X66394285Y-56073390D01*
X66394285Y-56073390D02*
X66299047Y-56025771D01*
X66299047Y-56025771D02*
X66060952Y-56025771D01*
X66060952Y-56025771D02*
X65965714Y-56073390D01*
X65965714Y-56073390D02*
X65918095Y-56121009D01*
X65918095Y-56121009D02*
X65870476Y-56216247D01*
X65870476Y-56216247D02*
X65870476Y-56454342D01*
X65870476Y-56454342D02*
X65918095Y-56549580D01*
X65918095Y-56549580D02*
X65965714Y-56597200D01*
X65965714Y-56597200D02*
X66060952Y-56644819D01*
X66060952Y-56644819D02*
X66299047Y-56644819D01*
X66299047Y-56644819D02*
X66394285Y-56597200D01*
X66394285Y-56597200D02*
X66441904Y-56549580D01*
X115834819Y-87008095D02*
X114834819Y-87008095D01*
X114834819Y-87008095D02*
X114834819Y-87246190D01*
X114834819Y-87246190D02*
X114882438Y-87389047D01*
X114882438Y-87389047D02*
X114977676Y-87484285D01*
X114977676Y-87484285D02*
X115072914Y-87531904D01*
X115072914Y-87531904D02*
X115263390Y-87579523D01*
X115263390Y-87579523D02*
X115406247Y-87579523D01*
X115406247Y-87579523D02*
X115596723Y-87531904D01*
X115596723Y-87531904D02*
X115691961Y-87484285D01*
X115691961Y-87484285D02*
X115787200Y-87389047D01*
X115787200Y-87389047D02*
X115834819Y-87246190D01*
X115834819Y-87246190D02*
X115834819Y-87008095D01*
%TO.C,U4*%
X51075000Y-53225000D02*
X49775000Y-53225000D01*
X51075000Y-50325000D02*
X51075000Y-53225000D01*
X49775000Y-50325000D02*
X51075000Y-50325000D01*
X49775000Y-50325000D02*
X49775000Y-53225000D01*
D11*
%TO.C,SW2*%
X35330000Y-70750000D02*
X37330000Y-70750000D01*
X38630000Y-71800000D02*
X39080000Y-72250000D01*
X34030000Y-71800000D02*
X33580000Y-72250000D01*
X39080000Y-72250000D02*
X39080000Y-74750000D01*
X33580000Y-72250000D02*
X33580000Y-74750000D01*
X38630000Y-75200000D02*
X39080000Y-74750000D01*
X34030000Y-75200000D02*
X33580000Y-74750000D01*
X35330000Y-76250000D02*
X37330000Y-76250000D01*
%TO.C,D19*%
X105275000Y-109500000D02*
X105275000Y-105600000D01*
X107275000Y-109500000D02*
X105275000Y-109500000D01*
X107275000Y-109500000D02*
X107275000Y-105600000D01*
%TO.C,C_3V-Decoup8*%
X58260000Y-90542164D02*
X58260000Y-90757836D01*
X57540000Y-90542164D02*
X57540000Y-90757836D01*
%TO.C,D46*%
X219575000Y-109500000D02*
X219575000Y-105600000D01*
X221575000Y-109500000D02*
X219575000Y-109500000D01*
X221575000Y-109500000D02*
X221575000Y-105600000D01*
%TO.C,D74*%
D12*
X103950000Y-125975000D02*
X103500000Y-126325000D01*
X103500000Y-125625000D01*
X103950000Y-125975000D01*
G36*
X103950000Y-125975000D02*
G01*
X103500000Y-126325000D01*
X103500000Y-125625000D01*
X103950000Y-125975000D01*
G37*
D11*
%TO.C,D15*%
X103410000Y-123330000D02*
X99510000Y-123330000D01*
X103410000Y-121330000D02*
X103410000Y-123330000D01*
X103410000Y-121330000D02*
X99510000Y-121330000D01*
%TO.C,D71*%
D12*
X72000000Y-49025000D02*
X71550000Y-48675000D01*
X72000000Y-48325000D01*
X72000000Y-49025000D01*
G36*
X72000000Y-49025000D02*
G01*
X71550000Y-48675000D01*
X72000000Y-48325000D01*
X72000000Y-49025000D01*
G37*
D11*
%TO.C,D63*%
X290725000Y-53900000D02*
X290725000Y-50000000D01*
X292725000Y-53900000D02*
X290725000Y-53900000D01*
X292725000Y-53900000D02*
X292725000Y-50000000D01*
%TO.C,D35*%
X186250000Y-71400000D02*
X186250000Y-67500000D01*
X188250000Y-71400000D02*
X186250000Y-71400000D01*
X188250000Y-71400000D02*
X188250000Y-67500000D01*
%TO.C,C_1V-Decoup2*%
X61070000Y-73617836D02*
X61070000Y-73402164D01*
X61790000Y-73617836D02*
X61790000Y-73402164D01*
%TO.C,D26*%
X148150000Y-71400000D02*
X148150000Y-67500000D01*
X150150000Y-71400000D02*
X148150000Y-71400000D01*
X150150000Y-71400000D02*
X150150000Y-67500000D01*
%TO.C,C_LDO2*%
X46557836Y-60010000D02*
X46342164Y-60010000D01*
X46557836Y-59290000D02*
X46342164Y-59290000D01*
%TO.C,D54*%
X262450000Y-71400000D02*
X262450000Y-67500000D01*
X264450000Y-71400000D02*
X262450000Y-71400000D01*
X264450000Y-71400000D02*
X264450000Y-67500000D01*
%TO.C,C_3V-Decoup2*%
X54340000Y-77082836D02*
X54340000Y-76867164D01*
X55060000Y-77082836D02*
X55060000Y-76867164D01*
%TO.C,D34*%
X176725000Y-53300000D02*
X176725000Y-49400000D01*
X178725000Y-53300000D02*
X176725000Y-53300000D01*
X178725000Y-53300000D02*
X178725000Y-49400000D01*
%TO.C,D50*%
X248175000Y-90475000D02*
X248175000Y-86575000D01*
X250175000Y-90475000D02*
X248175000Y-90475000D01*
X250175000Y-90475000D02*
X250175000Y-86575000D01*
%TO.C,C_Flash1*%
X74940000Y-74732836D02*
X74940000Y-74517164D01*
X75660000Y-74732836D02*
X75660000Y-74517164D01*
%TO.C,A*%
X73130000Y-87160000D02*
X73130000Y-87810000D01*
X73130000Y-87160000D02*
X73130000Y-86510000D01*
X76250000Y-87160000D02*
X76250000Y-88835000D01*
X76250000Y-87160000D02*
X76250000Y-86510000D01*
%TO.C,D84*%
D12*
X299350000Y-104125000D02*
X298650000Y-104125000D01*
X299000000Y-103675000D01*
X299350000Y-104125000D01*
G36*
X299350000Y-104125000D02*
G01*
X298650000Y-104125000D01*
X299000000Y-103675000D01*
X299350000Y-104125000D01*
G37*
D11*
%TO.C,C_3V-Decoup6*%
X63390000Y-79782836D02*
X63390000Y-79567164D01*
X64110000Y-79782836D02*
X64110000Y-79567164D01*
%TO.C,D48*%
X233875000Y-53300000D02*
X233875000Y-49400000D01*
X235875000Y-53300000D02*
X233875000Y-53300000D01*
X235875000Y-53300000D02*
X235875000Y-49400000D01*
%TO.C,D22*%
X133875000Y-90450000D02*
X133875000Y-86550000D01*
X135875000Y-90450000D02*
X133875000Y-90450000D01*
X135875000Y-90450000D02*
X135875000Y-86550000D01*
%TO.C,C_Crystal2*%
X56940000Y-93532836D02*
X56940000Y-93317164D01*
X57660000Y-93532836D02*
X57660000Y-93317164D01*
%TO.C,D40*%
X205300000Y-71400000D02*
X205300000Y-67500000D01*
X207300000Y-71400000D02*
X205300000Y-71400000D01*
X207300000Y-71400000D02*
X207300000Y-67500000D01*
%TO.C,R_Crystal1*%
X58695000Y-90778641D02*
X58695000Y-90471359D01*
X59455000Y-90778641D02*
X59455000Y-90471359D01*
%TO.C,D14*%
X95775000Y-90450000D02*
X95775000Y-86550000D01*
X97775000Y-90450000D02*
X95775000Y-90450000D01*
X97775000Y-90450000D02*
X97775000Y-86550000D01*
%TO.C,R_LED1*%
X40683641Y-57150000D02*
X40376359Y-57150000D01*
X40683641Y-56390000D02*
X40376359Y-56390000D01*
%TO.C,W*%
X87130000Y-68020000D02*
X87130000Y-68670000D01*
X87130000Y-68020000D02*
X87130000Y-67370000D01*
X90250000Y-68020000D02*
X90250000Y-69695000D01*
X90250000Y-68020000D02*
X90250000Y-67370000D01*
%TO.C,D78*%
D12*
X190275000Y-124370000D02*
X189825000Y-124720000D01*
X189825000Y-124020000D01*
X190275000Y-124370000D01*
G36*
X190275000Y-124370000D02*
G01*
X189825000Y-124720000D01*
X189825000Y-124020000D01*
X190275000Y-124370000D01*
G37*
D11*
%TO.C,D10*%
X76560000Y-129380000D02*
X76560000Y-125480000D01*
X78560000Y-129380000D02*
X76560000Y-129380000D01*
X78560000Y-129380000D02*
X78560000Y-125480000D01*
%TO.C,D77*%
D12*
X205350000Y-49000000D02*
X204900000Y-48650000D01*
X205350000Y-48300000D01*
X205350000Y-49000000D01*
G36*
X205350000Y-49000000D02*
G01*
X204900000Y-48650000D01*
X205350000Y-48300000D01*
X205350000Y-49000000D01*
G37*
D11*
%TO.C,D61*%
X293400000Y-109500000D02*
X293400000Y-105600000D01*
X295400000Y-109500000D02*
X293400000Y-109500000D01*
X295400000Y-109500000D02*
X295400000Y-105600000D01*
%TO.C,D9*%
X67200000Y-109500000D02*
X67200000Y-105600000D01*
X69200000Y-109500000D02*
X67200000Y-109500000D01*
X69200000Y-109500000D02*
X69200000Y-105600000D01*
%TO.C,D37*%
X181500000Y-109500000D02*
X181500000Y-105600000D01*
X183500000Y-109500000D02*
X181500000Y-109500000D01*
X183500000Y-109500000D02*
X183500000Y-105600000D01*
%TO.C,C_1V-Decoup1*%
X55490000Y-76082836D02*
X55490000Y-75867164D01*
X56210000Y-76082836D02*
X56210000Y-75867164D01*
%TO.C,U1*%
X62710000Y-86860000D02*
X62710000Y-86210000D01*
X62060000Y-86860000D02*
X62710000Y-86860000D01*
X62060000Y-79640000D02*
X62710000Y-79640000D01*
X56140000Y-86860000D02*
X55490000Y-86860000D01*
X56140000Y-79640000D02*
X55490000Y-79640000D01*
X55490000Y-86860000D02*
X55490000Y-86210000D01*
X55490000Y-79640000D02*
X55490000Y-80290000D01*
%TO.C,D39*%
X195775000Y-53300000D02*
X195775000Y-49400000D01*
X197775000Y-53300000D02*
X195775000Y-53300000D01*
X197775000Y-53300000D02*
X197775000Y-49400000D01*
%TO.C,D2*%
X48125000Y-71400000D02*
X48125000Y-67500000D01*
X50125000Y-71400000D02*
X48125000Y-71400000D01*
X50125000Y-71400000D02*
X50125000Y-67500000D01*
%TO.C,D6*%
X62425000Y-52350000D02*
X62425000Y-48450000D01*
X64425000Y-52350000D02*
X62425000Y-52350000D01*
X64425000Y-52350000D02*
X64425000Y-48450000D01*
%TO.C,C_3V-Decoup7*%
X52657836Y-79060000D02*
X52442164Y-79060000D01*
X52657836Y-78340000D02*
X52442164Y-78340000D01*
%TO.C,D72*%
D12*
X58625000Y-125975000D02*
X58175000Y-126325000D01*
X58175000Y-125625000D01*
X58625000Y-125975000D01*
G36*
X58625000Y-125975000D02*
G01*
X58175000Y-126325000D01*
X58175000Y-125625000D01*
X58625000Y-125975000D01*
G37*
%TO.C,D75*%
X148200000Y-49025000D02*
X147750000Y-48675000D01*
X148200000Y-48325000D01*
X148200000Y-49025000D01*
G36*
X148200000Y-49025000D02*
G01*
X147750000Y-48675000D01*
X148200000Y-48325000D01*
X148200000Y-49025000D01*
G37*
D11*
%TO.C,C_LDO1*%
X47557836Y-54985000D02*
X47342164Y-54985000D01*
X47557836Y-54265000D02*
X47342164Y-54265000D01*
%TO.C,J2*%
X35880000Y-93415000D02*
X33220000Y-93415000D01*
X35880000Y-83195000D02*
X35880000Y-93415000D01*
X35880000Y-83195000D02*
X33220000Y-83195000D01*
X35880000Y-81925000D02*
X35880000Y-80595000D01*
X35880000Y-80595000D02*
X34550000Y-80595000D01*
X33220000Y-83195000D02*
X33220000Y-93415000D01*
%TO.C,D1*%
X43375000Y-52350000D02*
X43375000Y-48450000D01*
X45375000Y-52350000D02*
X43375000Y-52350000D01*
X45375000Y-52350000D02*
X45375000Y-48450000D01*
%TO.C,D67*%
X310075000Y-109500000D02*
X310075000Y-105600000D01*
X312075000Y-109500000D02*
X310075000Y-109500000D01*
X312075000Y-109500000D02*
X312075000Y-105600000D01*
%TO.C,D13*%
X91000000Y-71400000D02*
X91000000Y-67500000D01*
X93000000Y-71400000D02*
X91000000Y-71400000D01*
X93000000Y-71400000D02*
X93000000Y-67500000D01*
%TO.C,R_DATA2*%
X57305000Y-75596359D02*
X57305000Y-75903641D01*
X56545000Y-75596359D02*
X56545000Y-75903641D01*
%TO.C,R_USB1*%
X49103641Y-49280000D02*
X48796359Y-49280000D01*
X49103641Y-48520000D02*
X48796359Y-48520000D01*
%TO.C,C_3V-Decoup4*%
X52937836Y-84800000D02*
X52722164Y-84800000D01*
X52937836Y-84080000D02*
X52722164Y-84080000D01*
%TO.C,D21*%
X129100000Y-71400000D02*
X129100000Y-67500000D01*
X131100000Y-71400000D02*
X129100000Y-71400000D01*
X131100000Y-71400000D02*
X131100000Y-67500000D01*
%TO.C,D52*%
X217210000Y-129350000D02*
X217210000Y-125450000D01*
X217210000Y-129350000D02*
X215210000Y-129350000D01*
X215210000Y-129350000D02*
X215210000Y-125450000D01*
%TO.C,R_DATA1*%
X58455000Y-75596359D02*
X58455000Y-75903641D01*
X57695000Y-75596359D02*
X57695000Y-75903641D01*
%TO.C,D76*%
D12*
X151090000Y-120330000D02*
X150640000Y-120680000D01*
X150640000Y-119980000D01*
X151090000Y-120330000D01*
G36*
X151090000Y-120330000D02*
G01*
X150640000Y-120680000D01*
X150640000Y-119980000D01*
X151090000Y-120330000D01*
G37*
%TO.C,D79*%
X243450000Y-49025000D02*
X243000000Y-48675000D01*
X243450000Y-48325000D01*
X243450000Y-49025000D01*
G36*
X243450000Y-49025000D02*
G01*
X243000000Y-48675000D01*
X243450000Y-48325000D01*
X243450000Y-49025000D01*
G37*
D11*
%TO.C,D4*%
X55275000Y-109500000D02*
X55275000Y-105600000D01*
X57275000Y-109500000D02*
X55275000Y-109500000D01*
X57275000Y-109500000D02*
X57275000Y-105600000D01*
%TO.C,S*%
X91980000Y-87250000D02*
X91980000Y-87900000D01*
X91980000Y-87250000D02*
X91980000Y-86600000D01*
X95100000Y-87250000D02*
X95100000Y-88925000D01*
X95100000Y-87250000D02*
X95100000Y-86600000D01*
%TO.C,D3*%
X50525000Y-90450000D02*
X50525000Y-86550000D01*
X52525000Y-90450000D02*
X50525000Y-90450000D01*
X52525000Y-90450000D02*
X52525000Y-86550000D01*
%TO.C,D36*%
X191025000Y-90450000D02*
X191025000Y-86550000D01*
X193025000Y-90450000D02*
X191025000Y-90450000D01*
X193025000Y-90450000D02*
X193025000Y-86550000D01*
%TO.C,D12*%
X81475000Y-53300000D02*
X81475000Y-49400000D01*
X83475000Y-53300000D02*
X81475000Y-53300000D01*
X83475000Y-53300000D02*
X83475000Y-49400000D01*
%TO.C,D25*%
X138625000Y-53300000D02*
X138625000Y-49400000D01*
X140625000Y-53300000D02*
X138625000Y-53300000D01*
X140625000Y-53300000D02*
X140625000Y-49400000D01*
%TO.C,SW1*%
X82650000Y-60960000D02*
X82650000Y-62960000D01*
X81600000Y-64260000D02*
X81150000Y-64710000D01*
X81600000Y-59660000D02*
X81150000Y-59210000D01*
X81150000Y-64710000D02*
X78650000Y-64710000D01*
X81150000Y-59210000D02*
X78650000Y-59210000D01*
X78200000Y-64260000D02*
X78650000Y-64710000D01*
X78200000Y-59660000D02*
X78650000Y-59210000D01*
X77150000Y-60960000D02*
X77150000Y-62960000D01*
%TO.C,D30*%
X157675000Y-53300000D02*
X157675000Y-49400000D01*
X159675000Y-53300000D02*
X157675000Y-53300000D01*
X159675000Y-53300000D02*
X159675000Y-49400000D01*
%TO.C,D51*%
X238650000Y-109500000D02*
X238650000Y-105600000D01*
X240650000Y-109500000D02*
X238650000Y-109500000D01*
X240650000Y-109500000D02*
X240650000Y-105600000D01*
%TO.C,J1*%
X58765000Y-57140000D02*
X56265000Y-57140000D01*
X56265000Y-57140000D02*
X56265000Y-58190000D01*
X56265000Y-58190000D02*
X55275000Y-58190000D01*
X60735000Y-58310000D02*
X60735000Y-62190000D01*
X58765000Y-63360000D02*
X56265000Y-63360000D01*
X56265000Y-63360000D02*
X56265000Y-62310000D01*
%TO.C,R_USB2*%
X52621359Y-48220000D02*
X52928641Y-48220000D01*
X52621359Y-48980000D02*
X52928641Y-48980000D01*
%TO.C,D28*%
X143400000Y-109500000D02*
X143400000Y-105600000D01*
X145400000Y-109500000D02*
X143400000Y-109500000D01*
X145400000Y-109500000D02*
X145400000Y-105600000D01*
%TO.C,D38*%
X182110000Y-129390000D02*
X182110000Y-125490000D01*
X184110000Y-129390000D02*
X182110000Y-129390000D01*
X184110000Y-129390000D02*
X184110000Y-125490000D01*
%TO.C,C_Crystal1*%
X63760000Y-93317164D02*
X63760000Y-93532836D01*
X63040000Y-93317164D02*
X63040000Y-93532836D01*
%TO.C,D45*%
X229100000Y-90450000D02*
X229100000Y-86550000D01*
X231100000Y-90450000D02*
X229100000Y-90450000D01*
X231100000Y-90450000D02*
X231100000Y-86550000D01*
%TO.C,C_3V-Decoup5*%
X52657836Y-80110000D02*
X52442164Y-80110000D01*
X52657836Y-79390000D02*
X52442164Y-79390000D01*
%TO.C,R_Shield1*%
X58655000Y-41771359D02*
X58655000Y-42078641D01*
X57895000Y-41771359D02*
X57895000Y-42078641D01*
%TO.C,D32*%
X171950000Y-90450000D02*
X171950000Y-86550000D01*
X173950000Y-90450000D02*
X171950000Y-90450000D01*
X173950000Y-90450000D02*
X173950000Y-86550000D01*
%TO.C,D55*%
X267200000Y-90450000D02*
X267200000Y-86550000D01*
X269200000Y-90450000D02*
X267200000Y-90450000D01*
X269200000Y-90450000D02*
X269200000Y-86550000D01*
%TO.C,D49*%
X243400000Y-71400000D02*
X243400000Y-67500000D01*
X245400000Y-71400000D02*
X243400000Y-71400000D01*
X245400000Y-71400000D02*
X245400000Y-67500000D01*
%TO.C,D70*%
D12*
X51225000Y-96525000D02*
X50875000Y-96075000D01*
X51575000Y-96075000D01*
X51225000Y-96525000D01*
G36*
X51225000Y-96525000D02*
G01*
X50875000Y-96075000D01*
X51575000Y-96075000D01*
X51225000Y-96525000D01*
G37*
D11*
%TO.C,D5*%
X52530000Y-129880000D02*
X52530000Y-125980000D01*
X54530000Y-129880000D02*
X52530000Y-129880000D01*
X54530000Y-129880000D02*
X54530000Y-125980000D01*
%TO.C,Y1*%
X58175000Y-91775000D02*
X62175000Y-91775000D01*
X58175000Y-95075000D02*
X58175000Y-91775000D01*
%TO.C,D23*%
X124350000Y-109500000D02*
X124350000Y-105600000D01*
X126350000Y-109500000D02*
X124350000Y-109500000D01*
X126350000Y-109500000D02*
X126350000Y-105600000D01*
%TO.C,U5*%
X66680000Y-52230000D02*
X65880000Y-52230000D01*
X66680000Y-52230000D02*
X67480000Y-52230000D01*
X66680000Y-55350000D02*
X64880000Y-55350000D01*
X66680000Y-55350000D02*
X67480000Y-55350000D01*
%TO.C,D20*%
X119575000Y-53300000D02*
X119575000Y-49400000D01*
X121575000Y-53300000D02*
X119575000Y-53300000D01*
X121575000Y-53300000D02*
X121575000Y-49400000D01*
%TO.C,D42*%
X200550000Y-109500000D02*
X200550000Y-105600000D01*
X202550000Y-109500000D02*
X200550000Y-109500000D01*
X202550000Y-109500000D02*
X202550000Y-105600000D01*
%TO.C,D64*%
X302125000Y-90475000D02*
X302125000Y-86575000D01*
X304125000Y-90475000D02*
X302125000Y-90475000D01*
X304125000Y-90475000D02*
X304125000Y-86575000D01*
%TO.C,D65*%
X310075000Y-52350000D02*
X310075000Y-48450000D01*
X312075000Y-52350000D02*
X310075000Y-52350000D01*
X312075000Y-52350000D02*
X312075000Y-48450000D01*
%TO.C,D16*%
X100525000Y-53300000D02*
X100525000Y-49400000D01*
X102525000Y-53300000D02*
X100525000Y-53300000D01*
X102525000Y-53300000D02*
X102525000Y-49400000D01*
%TO.C,D56*%
X257700000Y-109500000D02*
X257700000Y-105600000D01*
X259700000Y-109500000D02*
X257700000Y-109500000D01*
X259700000Y-109500000D02*
X259700000Y-105600000D01*
%TO.C,D27*%
X152900000Y-90450000D02*
X152900000Y-86550000D01*
X154900000Y-90450000D02*
X152900000Y-90450000D01*
X154900000Y-90450000D02*
X154900000Y-86550000D01*
%TO.C,U3*%
X46340000Y-57225000D02*
X46340000Y-57875000D01*
X46340000Y-57225000D02*
X46340000Y-56575000D01*
X49460000Y-57225000D02*
X49460000Y-58900000D01*
X49460000Y-57225000D02*
X49460000Y-56575000D01*
%TO.C,D59*%
X281500000Y-71400000D02*
X281500000Y-67500000D01*
X283500000Y-71400000D02*
X281500000Y-71400000D01*
X283500000Y-71400000D02*
X283500000Y-67500000D01*
%TO.C,D82*%
D12*
X287225000Y-125975000D02*
X286775000Y-126325000D01*
X286775000Y-125625000D01*
X287225000Y-125975000D01*
G36*
X287225000Y-125975000D02*
G01*
X286775000Y-126325000D01*
X286775000Y-125625000D01*
X287225000Y-125975000D01*
G37*
%TO.C,D81*%
X281550000Y-49025000D02*
X281100000Y-48675000D01*
X281550000Y-48325000D01*
X281550000Y-49025000D01*
G36*
X281550000Y-49025000D02*
G01*
X281100000Y-48675000D01*
X281550000Y-48325000D01*
X281550000Y-49025000D01*
G37*
D11*
%TO.C,D58*%
X271975000Y-53300000D02*
X271975000Y-49400000D01*
X273975000Y-53300000D02*
X271975000Y-53300000D01*
X273975000Y-53300000D02*
X273975000Y-49400000D01*
%TO.C,C_3V-Decoup3*%
X59150000Y-73627836D02*
X59150000Y-73412164D01*
X59870000Y-73627836D02*
X59870000Y-73412164D01*
%TO.C,D57*%
X264590000Y-129370000D02*
X264590000Y-125470000D01*
X266590000Y-129370000D02*
X264590000Y-129370000D01*
X266590000Y-129370000D02*
X266590000Y-125470000D01*
%TO.C,D73*%
D12*
X110100000Y-49025000D02*
X109650000Y-48675000D01*
X110100000Y-48325000D01*
X110100000Y-49025000D01*
G36*
X110100000Y-49025000D02*
G01*
X109650000Y-48675000D01*
X110100000Y-48325000D01*
X110100000Y-49025000D01*
G37*
D11*
%TO.C,D43*%
X214825000Y-53300000D02*
X214825000Y-49400000D01*
X216825000Y-53300000D02*
X214825000Y-53300000D01*
X216825000Y-53300000D02*
X216825000Y-49400000D01*
%TO.C,D68*%
X307300000Y-131380000D02*
X307300000Y-127480000D01*
X309300000Y-131380000D02*
X307300000Y-131380000D01*
X309300000Y-131380000D02*
X309300000Y-127480000D01*
%TO.C,C_1V-Decoup3*%
X56910000Y-90542164D02*
X56910000Y-90757836D01*
X56190000Y-90542164D02*
X56190000Y-90757836D01*
%TO.C,D83*%
D12*
X302125000Y-75200000D02*
X301425000Y-75200000D01*
X301775000Y-74750000D01*
X302125000Y-75200000D01*
G36*
X302125000Y-75200000D02*
G01*
X301425000Y-75200000D01*
X301775000Y-74750000D01*
X302125000Y-75200000D01*
G37*
D11*
%TO.C,D66*%
X305325000Y-71400000D02*
X305325000Y-67500000D01*
X307325000Y-71400000D02*
X305325000Y-71400000D01*
X307325000Y-71400000D02*
X307325000Y-67500000D01*
%TO.C,D62*%
X293100000Y-130800000D02*
X293100000Y-126900000D01*
X295100000Y-130800000D02*
X293100000Y-130800000D01*
X295100000Y-130800000D02*
X295100000Y-126900000D01*
%TO.C,D18*%
X114800000Y-90450000D02*
X114800000Y-86550000D01*
X116800000Y-90450000D02*
X114800000Y-90450000D01*
X116800000Y-90450000D02*
X116800000Y-86550000D01*
%TO.C,D80*%
D12*
X241895000Y-125975000D02*
X241445000Y-126325000D01*
X241445000Y-125625000D01*
X241895000Y-125975000D01*
G36*
X241895000Y-125975000D02*
G01*
X241445000Y-126325000D01*
X241445000Y-125625000D01*
X241895000Y-125975000D01*
G37*
D11*
%TO.C,C_Shield1*%
X59040000Y-42032836D02*
X59040000Y-41817164D01*
X59760000Y-42032836D02*
X59760000Y-41817164D01*
%TO.C,D33*%
X162450000Y-109500000D02*
X162450000Y-105600000D01*
X164450000Y-109500000D02*
X162450000Y-109500000D01*
X164450000Y-109500000D02*
X164450000Y-105600000D01*
%TO.C,D8*%
X76725000Y-90450000D02*
X76725000Y-86550000D01*
X78725000Y-90450000D02*
X76725000Y-90450000D01*
X78725000Y-90450000D02*
X78725000Y-86550000D01*
%TO.C,U2*%
X81550000Y-68800000D02*
X81290000Y-68800000D01*
X76360000Y-68800000D02*
X76360000Y-67125000D01*
X76100000Y-68800000D02*
X76360000Y-68800000D01*
X81550000Y-71525000D02*
X81550000Y-68800000D01*
X81550000Y-71525000D02*
X81550000Y-74250000D01*
X76100000Y-71525000D02*
X76100000Y-68800000D01*
X76100000Y-71525000D02*
X76100000Y-74250000D01*
X81550000Y-74250000D02*
X81290000Y-74250000D01*
X76100000Y-74250000D02*
X76360000Y-74250000D01*
%TO.C,D44*%
X224350000Y-71400000D02*
X224350000Y-67500000D01*
X226350000Y-71400000D02*
X224350000Y-71400000D01*
X226350000Y-71400000D02*
X226350000Y-67500000D01*
%TO.C,R_RST1*%
X36920000Y-83228641D02*
X36920000Y-82921359D01*
X37680000Y-83228641D02*
X37680000Y-82921359D01*
%TO.C,D53*%
X252925000Y-53300000D02*
X252925000Y-49400000D01*
X254925000Y-53300000D02*
X252925000Y-53300000D01*
X254925000Y-53300000D02*
X254925000Y-49400000D01*
%TO.C,D7*%
X71950000Y-71400000D02*
X71950000Y-67500000D01*
X73950000Y-71400000D02*
X71950000Y-71400000D01*
X73950000Y-71400000D02*
X73950000Y-67500000D01*
%TO.C,F1*%
X48560000Y-52016422D02*
X48560000Y-52533578D01*
X47140000Y-52016422D02*
X47140000Y-52533578D01*
%TO.C,C_3V-Decoup9*%
X65928307Y-85569190D02*
X66080810Y-85721693D01*
X65419190Y-86078307D02*
X65571693Y-86230810D01*
%TO.C,D31*%
X167200000Y-71400000D02*
X167200000Y-67500000D01*
X169200000Y-71400000D02*
X167200000Y-71400000D01*
X169200000Y-71400000D02*
X169200000Y-67500000D01*
%TO.C,D11*%
X86225000Y-109500000D02*
X86225000Y-105600000D01*
X88225000Y-109500000D02*
X86225000Y-109500000D01*
X88225000Y-109500000D02*
X88225000Y-105600000D01*
%TO.C,C_3V-Decoup1*%
X46557836Y-61110000D02*
X46342164Y-61110000D01*
X46557836Y-60390000D02*
X46342164Y-60390000D01*
%TO.C,D41*%
X210075000Y-90450000D02*
X210075000Y-86550000D01*
X212075000Y-90450000D02*
X210075000Y-90450000D01*
X212075000Y-90450000D02*
X212075000Y-86550000D01*
%TO.C,D69*%
D12*
X45475000Y-73800000D02*
X45125000Y-73350000D01*
X45825000Y-73350000D01*
X45475000Y-73800000D01*
G36*
X45475000Y-73800000D02*
G01*
X45125000Y-73350000D01*
X45825000Y-73350000D01*
X45475000Y-73800000D01*
G37*
D11*
%TO.C,D*%
X111420000Y-87270000D02*
X111420000Y-87920000D01*
X111420000Y-87270000D02*
X111420000Y-86620000D01*
X114540000Y-87270000D02*
X114540000Y-88945000D01*
X114540000Y-87270000D02*
X114540000Y-86620000D01*
%TO.C,R_Flash1*%
X77280000Y-65446359D02*
X77280000Y-65753641D01*
X76520000Y-65446359D02*
X76520000Y-65753641D01*
%TO.C,D17*%
X110050000Y-71400000D02*
X110050000Y-67500000D01*
X112050000Y-71400000D02*
X110050000Y-71400000D01*
X112050000Y-71400000D02*
X112050000Y-67500000D01*
%TD*%
%LPC*%
D13*
%TO.C,1.25U*%
X300620000Y-125430000D03*
D14*
X305700000Y-125430000D03*
D13*
X310780000Y-125430000D03*
D15*
X302545008Y-122160007D03*
D16*
X303200000Y-121430000D03*
D17*
X308220004Y-120640000D03*
D16*
X308240000Y-120350000D03*
%TD*%
D13*
%TO.C,1.25U*%
X276720000Y-125430000D03*
D14*
X281800000Y-125430000D03*
D13*
X286880000Y-125430000D03*
D15*
X278645008Y-122160007D03*
D16*
X279300000Y-121430000D03*
D17*
X284320004Y-120640000D03*
D16*
X284340000Y-120350000D03*
%TD*%
D13*
%TO.C,1.25U*%
X252880000Y-125490000D03*
D14*
X257960000Y-125490000D03*
D13*
X263040000Y-125490000D03*
D15*
X254805008Y-122220007D03*
D16*
X255460000Y-121490000D03*
D17*
X260480004Y-120700000D03*
D16*
X260500000Y-120410000D03*
%TD*%
D13*
%TO.C,1.25U*%
X229160000Y-125430000D03*
D14*
X234240000Y-125430000D03*
D13*
X239320000Y-125430000D03*
D15*
X231085008Y-122160007D03*
D16*
X231740000Y-121430000D03*
D17*
X236760004Y-120640000D03*
D16*
X236780000Y-120350000D03*
%TD*%
D13*
%TO.C,Small Split*%
X226695000Y-125412500D03*
D14*
X231775000Y-125412500D03*
D13*
X236855000Y-125412500D03*
D18*
X228620001Y-122142500D03*
D16*
X229275000Y-121412500D03*
D19*
X234295000Y-120622500D03*
D16*
X234315000Y-120332500D03*
%TD*%
D13*
%TO.C,N*%
X174307500Y-106362500D03*
D14*
X179387500Y-106362500D03*
D13*
X184467500Y-106362500D03*
D18*
X176232501Y-103092500D03*
D16*
X176887500Y-102362500D03*
D19*
X181907500Y-101572500D03*
D16*
X181927500Y-101282500D03*
%TD*%
D20*
%TO.C,REF\u002A\u002A*%
X112990000Y-117190000D03*
D21*
X212990000Y-132430000D03*
D22*
X157910000Y-125430000D03*
D20*
X212990000Y-117190000D03*
D21*
X112990000Y-132430000D03*
D20*
X162990000Y-125430000D03*
D22*
X168070000Y-125430000D03*
D23*
X165530000Y-120350000D03*
X159180000Y-122890000D03*
%TD*%
D13*
%TO.C,1.25U*%
X86430000Y-125450000D03*
D14*
X91510000Y-125450000D03*
D13*
X96590000Y-125450000D03*
D15*
X88355008Y-122180007D03*
D16*
X89010000Y-121450000D03*
D17*
X94030004Y-120660000D03*
D16*
X94050000Y-120370000D03*
%TD*%
D13*
%TO.C,1.25U*%
X62510000Y-125450000D03*
D14*
X67590000Y-125450000D03*
D13*
X72670000Y-125450000D03*
D15*
X64435008Y-122180007D03*
D16*
X65090000Y-121450000D03*
D17*
X70110004Y-120660000D03*
D16*
X70130000Y-120370000D03*
%TD*%
D13*
%TO.C,1.25U*%
X38670000Y-125330000D03*
D14*
X43750000Y-125330000D03*
D13*
X48830000Y-125330000D03*
D15*
X40595008Y-122060007D03*
D16*
X41250000Y-121330000D03*
D17*
X46270004Y-120540000D03*
D16*
X46290000Y-120250000D03*
%TD*%
D13*
%TO.C,2*%
X155240000Y-106380000D03*
D14*
X160320000Y-106380000D03*
D13*
X165400000Y-106380000D03*
D18*
X157165001Y-103110000D03*
D16*
X157820000Y-102380000D03*
D19*
X162840000Y-101590000D03*
D16*
X162860000Y-101300000D03*
%TD*%
D13*
%TO.C,2*%
X55270000Y-49190000D03*
D14*
X60350000Y-49190000D03*
D13*
X65430000Y-49190000D03*
D18*
X57195001Y-45920000D03*
D16*
X57850000Y-45190000D03*
D19*
X62870000Y-44400000D03*
D16*
X62890000Y-44110000D03*
%TD*%
D13*
%TO.C,1.50u*%
X40957500Y-125412500D03*
D14*
X46037500Y-125412500D03*
D13*
X51117500Y-125412500D03*
D18*
X42882501Y-122142500D03*
D16*
X43537500Y-121412500D03*
D19*
X48557500Y-120622500D03*
D16*
X48577500Y-120332500D03*
%TD*%
D13*
%TO.C,T*%
X140970000Y-68262500D03*
D14*
X146050000Y-68262500D03*
D13*
X151130000Y-68262500D03*
D18*
X142895001Y-64992500D03*
D16*
X143550000Y-64262500D03*
D19*
X148570000Y-63472500D03*
D16*
X148590000Y-63182500D03*
%TD*%
D13*
%TO.C,Tab*%
X40957500Y-68262500D03*
D14*
X46037500Y-68262500D03*
D13*
X51117500Y-68262500D03*
D18*
X42882501Y-64992500D03*
D16*
X43537500Y-64262500D03*
D19*
X48557500Y-63472500D03*
D16*
X48577500Y-63182500D03*
%TD*%
D13*
%TO.C,[*%
X255270000Y-68262500D03*
D14*
X260350000Y-68262500D03*
D13*
X265430000Y-68262500D03*
D18*
X257195001Y-64992500D03*
D16*
X257850000Y-64262500D03*
D19*
X262870000Y-63472500D03*
D16*
X262890000Y-63182500D03*
%TD*%
D13*
%TO.C,1.50u*%
X250507500Y-125412500D03*
D14*
X255587500Y-125412500D03*
D13*
X260667500Y-125412500D03*
D18*
X252432501Y-122142500D03*
D16*
X253087500Y-121412500D03*
D19*
X258107500Y-120622500D03*
D16*
X258127500Y-120332500D03*
%TD*%
D13*
%TO.C,R*%
X121920000Y-68262500D03*
D14*
X127000000Y-68262500D03*
D13*
X132080000Y-68262500D03*
D18*
X123845001Y-64992500D03*
D16*
X124500000Y-64262500D03*
D19*
X129520000Y-63472500D03*
D16*
X129540000Y-63182500D03*
%TD*%
D13*
%TO.C,<*%
X212407500Y-106362500D03*
D14*
X217487500Y-106362500D03*
D13*
X222567500Y-106362500D03*
D18*
X214332501Y-103092500D03*
D16*
X214987500Y-102362500D03*
D19*
X220007500Y-101572500D03*
D16*
X220027500Y-101282500D03*
%TD*%
D13*
%TO.C,Stepped*%
X38576250Y-87312500D03*
D14*
X43656250Y-87312500D03*
D13*
X48736250Y-87312500D03*
D18*
X40501251Y-84042500D03*
D16*
X41156250Y-83312500D03*
D19*
X46176250Y-82522500D03*
D16*
X46196250Y-82232500D03*
%TD*%
D13*
%TO.C,S*%
X88582500Y-87312500D03*
X98742500Y-87312500D03*
D18*
X90507501Y-84042500D03*
D16*
X91162500Y-83312500D03*
D19*
X96182500Y-82522500D03*
D16*
X96202500Y-82232500D03*
%TD*%
D13*
%TO.C,H*%
X164782500Y-87312500D03*
D14*
X169862500Y-87312500D03*
D13*
X174942500Y-87312500D03*
D18*
X166707501Y-84042500D03*
D16*
X167362500Y-83312500D03*
D19*
X172382500Y-82522500D03*
D16*
X172402500Y-82232500D03*
%TD*%
D13*
%TO.C,D*%
X107632500Y-87312500D03*
X117792500Y-87312500D03*
D18*
X109557501Y-84042500D03*
D16*
X110212500Y-83312500D03*
D19*
X115232500Y-82522500D03*
D16*
X115252500Y-82232500D03*
%TD*%
D13*
%TO.C,J*%
X183832500Y-87312500D03*
D14*
X188912500Y-87312500D03*
D13*
X193992500Y-87312500D03*
D18*
X185757501Y-84042500D03*
D16*
X186412500Y-83312500D03*
D19*
X191432500Y-82522500D03*
D16*
X191452500Y-82232500D03*
%TD*%
D13*
%TO.C,Z*%
X79057500Y-106362500D03*
D14*
X84137500Y-106362500D03*
D13*
X89217500Y-106362500D03*
D18*
X80982501Y-103092500D03*
D16*
X81637500Y-102362500D03*
D19*
X86657500Y-101572500D03*
D16*
X86677500Y-101282500D03*
%TD*%
D13*
%TO.C,Split*%
X302895000Y-106362500D03*
D14*
X307975000Y-106362500D03*
D13*
X313055000Y-106362500D03*
D18*
X304820001Y-103092500D03*
D16*
X305475000Y-102362500D03*
D19*
X310495000Y-101572500D03*
D16*
X310515000Y-101282500D03*
%TD*%
D13*
%TO.C,W*%
X83820000Y-68262500D03*
X93980000Y-68262500D03*
D18*
X85745001Y-64992500D03*
D16*
X86400000Y-64262500D03*
D19*
X91420000Y-63472500D03*
D16*
X91440000Y-63182500D03*
%TD*%
D13*
%TO.C,-*%
X245745000Y-49212500D03*
D14*
X250825000Y-49212500D03*
D13*
X255905000Y-49212500D03*
D18*
X247670001Y-45942500D03*
D16*
X248325000Y-45212500D03*
D19*
X253345000Y-44422500D03*
D16*
X253365000Y-44132500D03*
%TD*%
D13*
%TO.C,Split*%
X276701250Y-106362500D03*
D14*
X281781250Y-106362500D03*
D13*
X286861250Y-106362500D03*
D18*
X278626251Y-103092500D03*
D16*
X279281250Y-102362500D03*
D19*
X284301250Y-101572500D03*
D16*
X284321250Y-101282500D03*
%TD*%
D13*
%TO.C,V*%
X136207500Y-106362500D03*
D14*
X141287500Y-106362500D03*
D13*
X146367500Y-106362500D03*
D18*
X138132501Y-103092500D03*
D16*
X138787500Y-102362500D03*
D19*
X143807500Y-101572500D03*
D16*
X143827500Y-101282500D03*
%TD*%
%TO.C,X*%
X105727500Y-101282500D03*
D19*
X105707500Y-101572500D03*
D16*
X100687500Y-102362500D03*
D18*
X100032501Y-103092500D03*
D13*
X108267500Y-106362500D03*
D14*
X103187500Y-106362500D03*
D13*
X98107500Y-106362500D03*
%TD*%
%TO.C,1u*%
X274320000Y-125412500D03*
D14*
X279400000Y-125412500D03*
D13*
X284480000Y-125412500D03*
D18*
X276245001Y-122142500D03*
D16*
X276900000Y-121412500D03*
D19*
X281920000Y-120622500D03*
D16*
X281940000Y-120332500D03*
%TD*%
D13*
%TO.C,5*%
X131445000Y-49212500D03*
D14*
X136525000Y-49212500D03*
D13*
X141605000Y-49212500D03*
D18*
X133370001Y-45942500D03*
D16*
X134025000Y-45212500D03*
D19*
X139045000Y-44422500D03*
D16*
X139065000Y-44132500D03*
%TD*%
D24*
%TO.C,H1*%
X55036250Y-68031250D03*
X55709904Y-66404904D03*
X55709904Y-69657596D03*
X57336250Y-65731250D03*
D25*
X57336250Y-68031250D03*
D24*
X57336250Y-70331250D03*
X58962596Y-66404904D03*
X58962596Y-69657596D03*
X59636250Y-68031250D03*
X292186250Y-65731250D03*
X292186250Y-70331250D03*
D26*
X160336250Y-87131250D03*
X222636250Y-125331250D03*
D24*
X293635250Y-70413250D03*
X290714250Y-70413250D03*
D26*
X292186250Y-68031250D03*
D24*
X290841250Y-65714250D03*
X293635250Y-65714250D03*
%TD*%
D13*
%TO.C,G*%
X145732500Y-87312500D03*
D14*
X150812500Y-87312500D03*
D13*
X155892500Y-87312500D03*
D18*
X147657501Y-84042500D03*
D16*
X148312500Y-83312500D03*
D19*
X153332500Y-82522500D03*
D16*
X153352500Y-82232500D03*
%TD*%
D13*
%TO.C,:*%
X240982500Y-87312500D03*
D14*
X246062500Y-87312500D03*
D13*
X251142500Y-87312500D03*
D18*
X242907501Y-84042500D03*
D16*
X243562500Y-83312500D03*
D19*
X248582500Y-82522500D03*
D16*
X248602500Y-82232500D03*
%TD*%
D13*
%TO.C,8*%
X188595000Y-49212500D03*
D14*
X193675000Y-49212500D03*
D13*
X198755000Y-49212500D03*
D18*
X190520001Y-45942500D03*
D16*
X191175000Y-45212500D03*
D19*
X196195000Y-44422500D03*
D16*
X196215000Y-44132500D03*
%TD*%
D13*
%TO.C,P*%
X236220000Y-68262500D03*
D14*
X241300000Y-68262500D03*
D13*
X246380000Y-68262500D03*
D18*
X238145001Y-64992500D03*
D16*
X238800000Y-64262500D03*
D19*
X243820000Y-63472500D03*
D16*
X243840000Y-63182500D03*
%TD*%
D13*
%TO.C,Q*%
X64770000Y-68262500D03*
D14*
X69850000Y-68262500D03*
D13*
X74930000Y-68262500D03*
D18*
X66695001Y-64992500D03*
D16*
X67350000Y-64262500D03*
D19*
X72370000Y-63472500D03*
D16*
X72390000Y-63182500D03*
%TD*%
D13*
%TO.C,Y*%
X160020000Y-68262500D03*
D14*
X165100000Y-68262500D03*
D13*
X170180000Y-68262500D03*
D18*
X161945001Y-64992500D03*
D16*
X162600000Y-64262500D03*
D19*
X167620000Y-63472500D03*
D16*
X167640000Y-63182500D03*
%TD*%
D13*
%TO.C,]*%
X274320000Y-68262500D03*
D14*
X279400000Y-68262500D03*
D13*
X284480000Y-68262500D03*
D18*
X276245001Y-64992500D03*
D16*
X276900000Y-64262500D03*
D19*
X281920000Y-63472500D03*
D16*
X281940000Y-63182500D03*
%TD*%
D13*
%TO.C,1u/7u/10u*%
X169545000Y-125412500D03*
D14*
X174625000Y-125412500D03*
D13*
X179705000Y-125412500D03*
D18*
X171470001Y-122142500D03*
D16*
X172125000Y-121412500D03*
D19*
X177145000Y-120622500D03*
D16*
X177165000Y-120332500D03*
%TD*%
D13*
%TO.C,9*%
X207645000Y-49212500D03*
D14*
X212725000Y-49212500D03*
D13*
X217805000Y-49212500D03*
D18*
X209570001Y-45942500D03*
D16*
X210225000Y-45212500D03*
D19*
X215245000Y-44422500D03*
D16*
X215265000Y-44132500D03*
%TD*%
D13*
%TO.C,ISO*%
X60007500Y-106362500D03*
D14*
X65087500Y-106362500D03*
D13*
X70167500Y-106362500D03*
D18*
X61932501Y-103092500D03*
D16*
X62587500Y-102362500D03*
D19*
X67607500Y-101572500D03*
D16*
X67627500Y-101282500D03*
%TD*%
D13*
%TO.C,>*%
X231457500Y-106362500D03*
D14*
X236537500Y-106362500D03*
D13*
X241617500Y-106362500D03*
D18*
X233382501Y-103092500D03*
D16*
X234037500Y-102362500D03*
D19*
X239057500Y-101572500D03*
D16*
X239077500Y-101282500D03*
%TD*%
D27*
%TO.C,Full*%
X279368250Y-99377500D03*
D14*
X279368250Y-114617500D03*
D13*
X286226250Y-106362500D03*
D14*
X291306250Y-106362500D03*
D13*
X296386250Y-106362500D03*
D27*
X303244250Y-99377500D03*
D14*
X303244250Y-114617500D03*
D18*
X288151251Y-103092500D03*
D16*
X288806250Y-102362500D03*
D19*
X293826250Y-101572500D03*
D16*
X293846250Y-101282500D03*
%TD*%
D13*
%TO.C,C*%
X117157500Y-106362500D03*
D14*
X122237500Y-106362500D03*
D13*
X127317500Y-106362500D03*
D18*
X119082501Y-103092500D03*
D16*
X119737500Y-102362500D03*
D19*
X124757500Y-101572500D03*
D16*
X124777500Y-101282500D03*
%TD*%
D13*
%TO.C,E*%
X102870000Y-68262500D03*
D14*
X107950000Y-68262500D03*
D13*
X113030000Y-68262500D03*
D18*
X104795001Y-64992500D03*
D16*
X105450000Y-64262500D03*
D19*
X110470000Y-63472500D03*
D16*
X110490000Y-63182500D03*
%TD*%
D27*
%TO.C,ANSI*%
X284130750Y-80327500D03*
D14*
X284130750Y-95567500D03*
D13*
X290988750Y-87312500D03*
D14*
X296068750Y-87312500D03*
D13*
X301148750Y-87312500D03*
D27*
X308006750Y-80327500D03*
D14*
X308006750Y-95567500D03*
D18*
X292913751Y-84042500D03*
D16*
X293568750Y-83312500D03*
D19*
X298588750Y-82522500D03*
D16*
X298608750Y-82232500D03*
%TD*%
D13*
%TO.C,A*%
X69532500Y-87312500D03*
X79692500Y-87312500D03*
D18*
X71457501Y-84042500D03*
D16*
X72112500Y-83312500D03*
D19*
X77132500Y-82522500D03*
D16*
X77152500Y-82232500D03*
%TD*%
D13*
%TO.C,Split*%
X302895000Y-49212500D03*
D14*
X307975000Y-49212500D03*
D13*
X313055000Y-49212500D03*
D18*
X304820001Y-45942500D03*
D16*
X305475000Y-45212500D03*
D19*
X310495000Y-44422500D03*
D16*
X310515000Y-44132500D03*
%TD*%
D13*
%TO.C,0*%
X226695000Y-49212500D03*
D14*
X231775000Y-49212500D03*
D13*
X236855000Y-49212500D03*
D18*
X228620001Y-45942500D03*
D16*
X229275000Y-45212500D03*
D19*
X234295000Y-44422500D03*
D16*
X234315000Y-44132500D03*
%TD*%
D13*
%TO.C,L*%
X221932500Y-87312500D03*
D14*
X227012500Y-87312500D03*
D13*
X232092500Y-87312500D03*
D18*
X223857501Y-84042500D03*
D16*
X224512500Y-83312500D03*
D19*
X229532500Y-82522500D03*
D16*
X229552500Y-82232500D03*
%TD*%
D13*
%TO.C,I*%
X198120000Y-68262500D03*
D14*
X203200000Y-68262500D03*
D13*
X208280000Y-68262500D03*
D18*
X200045001Y-64992500D03*
D16*
X200700000Y-64262500D03*
D19*
X205720000Y-63472500D03*
D16*
X205740000Y-63182500D03*
%TD*%
D13*
%TO.C,M*%
X193357500Y-106362500D03*
D14*
X198437500Y-106362500D03*
D13*
X203517500Y-106362500D03*
D18*
X195282501Y-103092500D03*
D16*
X195937500Y-102362500D03*
D19*
X200957500Y-101572500D03*
D16*
X200977500Y-101282500D03*
%TD*%
D27*
%TO.C,Full*%
X286512000Y-42227500D03*
D14*
X286512000Y-57467500D03*
D13*
X293370000Y-49212500D03*
D14*
X298450000Y-49212500D03*
D13*
X303530000Y-49212500D03*
D27*
X310388000Y-42227500D03*
D14*
X310388000Y-57467500D03*
D18*
X295295001Y-45942500D03*
D16*
X295950000Y-45212500D03*
D19*
X300970000Y-44422500D03*
D16*
X300990000Y-44132500D03*
%TD*%
D13*
%TO.C,?*%
X250507500Y-106362500D03*
D14*
X255587500Y-106362500D03*
D13*
X260667500Y-106362500D03*
D18*
X252432501Y-103092500D03*
D16*
X253087500Y-102362500D03*
D19*
X258107500Y-101572500D03*
D16*
X258127500Y-101282500D03*
%TD*%
D13*
%TO.C,F*%
X126682500Y-87312500D03*
D14*
X131762500Y-87312500D03*
D13*
X136842500Y-87312500D03*
D18*
X128607501Y-84042500D03*
D16*
X129262500Y-83312500D03*
D19*
X134282500Y-82522500D03*
D16*
X134302500Y-82232500D03*
%TD*%
D13*
%TO.C,1u*%
X64770000Y-125412500D03*
D14*
X69850000Y-125412500D03*
D13*
X74930000Y-125412500D03*
D18*
X66695001Y-122142500D03*
D16*
X67350000Y-121412500D03*
D19*
X72370000Y-120622500D03*
D16*
X72390000Y-120332500D03*
%TD*%
D13*
%TO.C,3*%
X93345000Y-49212500D03*
D14*
X98425000Y-49212500D03*
D13*
X103505000Y-49212500D03*
D18*
X95270001Y-45942500D03*
D16*
X95925000Y-45212500D03*
D19*
X100945000Y-44422500D03*
D16*
X100965000Y-44132500D03*
%TD*%
D13*
%TO.C,6*%
X150495000Y-49212500D03*
D14*
X155575000Y-49212500D03*
D13*
X160655000Y-49212500D03*
D18*
X152420001Y-45942500D03*
D16*
X153075000Y-45212500D03*
D19*
X158095000Y-44422500D03*
D16*
X158115000Y-44132500D03*
%TD*%
D13*
%TO.C,"*%
X260032500Y-87312500D03*
D14*
X265112500Y-87312500D03*
D13*
X270192500Y-87312500D03*
D18*
X261957501Y-84042500D03*
D16*
X262612500Y-83312500D03*
D19*
X267632500Y-82522500D03*
D16*
X267652500Y-82232500D03*
%TD*%
D13*
%TO.C,Esc*%
X36195000Y-49212500D03*
D14*
X41275000Y-49212500D03*
D13*
X46355000Y-49212500D03*
D18*
X38120001Y-45942500D03*
D16*
X38775000Y-45212500D03*
D19*
X43795000Y-44422500D03*
D16*
X43815000Y-44132500D03*
D28*
X40005000Y-54292500D03*
D29*
X42545000Y-54292500D03*
%TD*%
D13*
%TO.C,1.50u*%
X88582500Y-125412500D03*
D14*
X93662500Y-125412500D03*
D13*
X98742500Y-125412500D03*
D18*
X90507501Y-122142500D03*
D16*
X91162500Y-121412500D03*
D19*
X96182500Y-120622500D03*
D16*
X96202500Y-120332500D03*
%TD*%
D13*
%TO.C,=*%
X264795000Y-49212500D03*
D14*
X269875000Y-49212500D03*
D13*
X274955000Y-49212500D03*
D18*
X266720001Y-45942500D03*
D16*
X267375000Y-45212500D03*
D19*
X272395000Y-44422500D03*
D16*
X272415000Y-44132500D03*
%TD*%
D13*
%TO.C,Split*%
X283845000Y-49212500D03*
D14*
X288925000Y-49212500D03*
D13*
X294005000Y-49212500D03*
D18*
X285770001Y-45942500D03*
D16*
X286425000Y-45212500D03*
D19*
X291445000Y-44422500D03*
D16*
X291465000Y-44132500D03*
%TD*%
D13*
%TO.C,K*%
X202882500Y-87312500D03*
D14*
X207962500Y-87312500D03*
D13*
X213042500Y-87312500D03*
D18*
X204807501Y-84042500D03*
D16*
X205462500Y-83312500D03*
D19*
X210482500Y-82522500D03*
D16*
X210502500Y-82232500D03*
%TD*%
D13*
%TO.C,ISO*%
X38576250Y-106362500D03*
D14*
X43656250Y-106362500D03*
D13*
X48736250Y-106362500D03*
D18*
X40501251Y-103092500D03*
D16*
X41156250Y-102362500D03*
D19*
X46176250Y-101572500D03*
D16*
X46196250Y-101282500D03*
%TD*%
D13*
%TO.C,2*%
X74295000Y-49212500D03*
D14*
X79375000Y-49212500D03*
D13*
X84455000Y-49212500D03*
D18*
X76220001Y-45942500D03*
D16*
X76875000Y-45212500D03*
D19*
X81895000Y-44422500D03*
D16*
X81915000Y-44132500D03*
%TD*%
D13*
%TO.C,ANSI*%
X298132500Y-68262500D03*
D14*
X303212500Y-68262500D03*
D13*
X308292500Y-68262500D03*
D18*
X300057501Y-64992500D03*
D16*
X300712500Y-64262500D03*
D19*
X305732500Y-63472500D03*
D16*
X305752500Y-63182500D03*
%TD*%
D13*
%TO.C,Full*%
X43338750Y-87312500D03*
D14*
X48418750Y-87312500D03*
D13*
X53498750Y-87312500D03*
D15*
X45263758Y-84042507D03*
D16*
X45918750Y-83312500D03*
D17*
X50938754Y-82522500D03*
D16*
X50958750Y-82232500D03*
%TD*%
D13*
%TO.C,7*%
X169545000Y-49212500D03*
D14*
X174625000Y-49212500D03*
D13*
X179705000Y-49212500D03*
D18*
X171470001Y-45942500D03*
D16*
X172125000Y-45212500D03*
D19*
X177145000Y-44422500D03*
D16*
X177165000Y-44132500D03*
%TD*%
D13*
%TO.C,O*%
X217170000Y-68262500D03*
D14*
X222250000Y-68262500D03*
D13*
X227330000Y-68262500D03*
D18*
X219095001Y-64992500D03*
D16*
X219750000Y-64262500D03*
D19*
X224770000Y-63472500D03*
D16*
X224790000Y-63182500D03*
%TD*%
D13*
%TO.C,1.50u*%
X298132500Y-125412500D03*
D14*
X303212500Y-125412500D03*
D13*
X308292500Y-125412500D03*
D18*
X300057501Y-122142500D03*
D16*
X300712500Y-121412500D03*
D19*
X305732500Y-120622500D03*
D16*
X305752500Y-120332500D03*
%TD*%
D27*
%TO.C,ANSI*%
X41243250Y-99377500D03*
D14*
X41243250Y-114617500D03*
D13*
X48101250Y-106362500D03*
D14*
X53181250Y-106362500D03*
D13*
X58261250Y-106362500D03*
D27*
X65119250Y-99377500D03*
D14*
X65119250Y-114617500D03*
D18*
X50026251Y-103092500D03*
D16*
X50681250Y-102362500D03*
D19*
X55701250Y-101572500D03*
D16*
X55721250Y-101282500D03*
%TD*%
D14*
%TO.C,MX42*%
X117475000Y-117157500D03*
D27*
X117475000Y-132397500D03*
D13*
X169545000Y-125412500D03*
D14*
X174625000Y-125412500D03*
D13*
X179705000Y-125412500D03*
D14*
X231775000Y-117157500D03*
D27*
X231775000Y-132397500D03*
D18*
X171470001Y-122142500D03*
D16*
X172125000Y-121412500D03*
D19*
X177145000Y-120622500D03*
D16*
X177165000Y-120332500D03*
%TD*%
D13*
%TO.C,4*%
X112395000Y-49212500D03*
D14*
X117475000Y-49212500D03*
D13*
X122555000Y-49212500D03*
D18*
X114320001Y-45942500D03*
D16*
X114975000Y-45212500D03*
D19*
X119995000Y-44422500D03*
D16*
X120015000Y-44132500D03*
%TD*%
D13*
%TO.C,U*%
X179070000Y-68262500D03*
D14*
X184150000Y-68262500D03*
D13*
X189230000Y-68262500D03*
D18*
X180995001Y-64992500D03*
D16*
X181650000Y-64262500D03*
D19*
X186670000Y-63472500D03*
D16*
X186690000Y-63182500D03*
%TD*%
D30*
%TO.C,U4*%
X51425000Y-51025000D03*
D31*
X51425000Y-52725000D03*
X49425000Y-52725000D03*
X49425000Y-50825000D03*
%TD*%
D32*
%TO.C,SW2*%
X34430000Y-70350000D03*
X34430000Y-76650000D03*
X38230000Y-70350000D03*
X38230000Y-76650000D03*
%TD*%
D33*
%TO.C,D19*%
X106275000Y-108900000D03*
X106275000Y-105600000D03*
%TD*%
D34*
%TO.C,C_3V-Decoup8*%
X57900000Y-90170000D03*
X57900000Y-91130000D03*
%TD*%
D33*
%TO.C,D46*%
X220575000Y-108900000D03*
X220575000Y-105600000D03*
%TD*%
D35*
%TO.C,D74*%
X104735000Y-125975000D03*
D36*
X104735000Y-124875000D03*
X106565000Y-124875000D03*
X106565000Y-125975000D03*
%TD*%
D37*
%TO.C,D15*%
X102810000Y-122330000D03*
X99510000Y-122330000D03*
%TD*%
D38*
%TO.C,D71*%
X70765000Y-48675000D03*
D36*
X70765000Y-49775000D03*
X68935000Y-49775000D03*
X68935000Y-48675000D03*
%TD*%
D33*
%TO.C,D63*%
X291725000Y-53300000D03*
X291725000Y-50000000D03*
%TD*%
%TO.C,D35*%
X187250000Y-70800000D03*
X187250000Y-67500000D03*
%TD*%
D39*
%TO.C,C_1V-Decoup2*%
X61430000Y-73990000D03*
X61430000Y-73030000D03*
%TD*%
D33*
%TO.C,D26*%
X149150000Y-70800000D03*
X149150000Y-67500000D03*
%TD*%
D40*
%TO.C,C_LDO2*%
X46930000Y-59650000D03*
X45970000Y-59650000D03*
%TD*%
D33*
%TO.C,D54*%
X263450000Y-70800000D03*
X263450000Y-67500000D03*
%TD*%
D39*
%TO.C,C_3V-Decoup2*%
X54700000Y-77455000D03*
X54700000Y-76495000D03*
%TD*%
D33*
%TO.C,D34*%
X177725000Y-52700000D03*
X177725000Y-49400000D03*
%TD*%
%TO.C,D50*%
X249175000Y-89875000D03*
X249175000Y-86575000D03*
%TD*%
D39*
%TO.C,C_Flash1*%
X75300000Y-75105000D03*
X75300000Y-74145000D03*
%TD*%
D41*
%TO.C,A*%
X75640000Y-88097500D03*
X74690000Y-86222500D03*
X73740000Y-88097500D03*
%TD*%
D42*
%TO.C,D84*%
X299000000Y-102890000D03*
D36*
X297900000Y-102890000D03*
X297900000Y-101060000D03*
X299000000Y-101060000D03*
%TD*%
D39*
%TO.C,C_3V-Decoup6*%
X63750000Y-80155000D03*
X63750000Y-79195000D03*
%TD*%
D33*
%TO.C,D48*%
X234875000Y-52700000D03*
X234875000Y-49400000D03*
%TD*%
%TO.C,D22*%
X134875000Y-89850000D03*
X134875000Y-86550000D03*
%TD*%
D39*
%TO.C,C_Crystal2*%
X57300000Y-93905000D03*
X57300000Y-92945000D03*
%TD*%
D33*
%TO.C,D40*%
X206300000Y-70800000D03*
X206300000Y-67500000D03*
%TD*%
D43*
%TO.C,R_Crystal1*%
X59075000Y-91135000D03*
X59075000Y-90115000D03*
%TD*%
D33*
%TO.C,D14*%
X96775000Y-89850000D03*
X96775000Y-86550000D03*
%TD*%
D44*
%TO.C,R_LED1*%
X41040000Y-56770000D03*
X40020000Y-56770000D03*
%TD*%
D41*
%TO.C,W*%
X88690000Y-67082500D03*
X87740000Y-68957500D03*
X89640000Y-68957500D03*
%TD*%
D35*
%TO.C,D78*%
X191060000Y-124370000D03*
D36*
X191060000Y-123270000D03*
X192890000Y-123270000D03*
X192890000Y-124370000D03*
%TD*%
D33*
%TO.C,D10*%
X77560000Y-128780000D03*
X77560000Y-125480000D03*
%TD*%
D38*
%TO.C,D77*%
X204115000Y-48650000D03*
D36*
X204115000Y-49750000D03*
X202285000Y-49750000D03*
X202285000Y-48650000D03*
%TD*%
D33*
%TO.C,D61*%
X294400000Y-108900000D03*
X294400000Y-105600000D03*
%TD*%
D45*
%TO.C,USB1*%
X47560000Y-44637500D03*
X53340000Y-44637500D03*
D46*
X47225000Y-46082500D03*
X48000000Y-46082500D03*
D47*
X48700000Y-46082500D03*
X49200000Y-46082500D03*
X49700000Y-46082500D03*
X50200000Y-46082500D03*
X50700000Y-46082500D03*
X51200000Y-46082500D03*
X51700000Y-46082500D03*
X52200000Y-46082500D03*
D46*
X52900000Y-46082500D03*
X53675000Y-46082500D03*
D48*
X46130000Y-40987500D03*
D49*
X46130000Y-45167500D03*
D48*
X54770000Y-40987500D03*
D49*
X54770000Y-45167500D03*
%TD*%
D33*
%TO.C,D9*%
X68200000Y-108900000D03*
X68200000Y-105600000D03*
%TD*%
%TO.C,D37*%
X182500000Y-108900000D03*
X182500000Y-105600000D03*
%TD*%
D39*
%TO.C,C_1V-Decoup1*%
X55850000Y-76455000D03*
X55850000Y-75495000D03*
%TD*%
D50*
%TO.C,U1*%
X62537500Y-80650000D03*
X62537500Y-81050000D03*
X62537500Y-81450000D03*
X62537500Y-81850000D03*
X62537500Y-82250000D03*
X62537500Y-82650000D03*
X62537500Y-83050000D03*
X62537500Y-83450000D03*
X62537500Y-83850000D03*
X62537500Y-84250000D03*
X62537500Y-84650000D03*
X62537500Y-85050000D03*
X62537500Y-85450000D03*
X62537500Y-85850000D03*
D51*
X61700000Y-86687500D03*
X61300000Y-86687500D03*
X60900000Y-86687500D03*
X60500000Y-86687500D03*
X60100000Y-86687500D03*
X59700000Y-86687500D03*
X59300000Y-86687500D03*
X58900000Y-86687500D03*
X58500000Y-86687500D03*
X58100000Y-86687500D03*
X57700000Y-86687500D03*
X57300000Y-86687500D03*
X56900000Y-86687500D03*
X56500000Y-86687500D03*
D50*
X55662500Y-85850000D03*
X55662500Y-85450000D03*
X55662500Y-85050000D03*
X55662500Y-84650000D03*
X55662500Y-84250000D03*
X55662500Y-83850000D03*
X55662500Y-83450000D03*
X55662500Y-83050000D03*
X55662500Y-82650000D03*
X55662500Y-82250000D03*
X55662500Y-81850000D03*
X55662500Y-81450000D03*
X55662500Y-81050000D03*
X55662500Y-80650000D03*
D51*
X56500000Y-79812500D03*
X56900000Y-79812500D03*
X57300000Y-79812500D03*
X57700000Y-79812500D03*
X58100000Y-79812500D03*
X58500000Y-79812500D03*
X58900000Y-79812500D03*
X59300000Y-79812500D03*
X59700000Y-79812500D03*
X60100000Y-79812500D03*
X60500000Y-79812500D03*
X60900000Y-79812500D03*
X61300000Y-79812500D03*
X61700000Y-79812500D03*
D52*
X59100000Y-83250000D03*
%TD*%
D33*
%TO.C,D39*%
X196775000Y-52700000D03*
X196775000Y-49400000D03*
%TD*%
%TO.C,D2*%
X49125000Y-70800000D03*
X49125000Y-67500000D03*
%TD*%
%TO.C,D6*%
X63425000Y-51750000D03*
X63425000Y-48450000D03*
%TD*%
D40*
%TO.C,C_3V-Decoup7*%
X53030000Y-78700000D03*
X52070000Y-78700000D03*
%TD*%
D35*
%TO.C,D72*%
X59410000Y-125975000D03*
D36*
X59410000Y-124875000D03*
X61240000Y-124875000D03*
X61240000Y-125975000D03*
%TD*%
D38*
%TO.C,D75*%
X146965000Y-48675000D03*
D36*
X146965000Y-49775000D03*
X145135000Y-49775000D03*
X145135000Y-48675000D03*
%TD*%
D40*
%TO.C,C_LDO1*%
X47930000Y-54625000D03*
X46970000Y-54625000D03*
%TD*%
D53*
%TO.C,J2*%
X34550000Y-81925000D03*
D54*
X34550000Y-84465000D03*
X34550000Y-87005000D03*
X34550000Y-89545000D03*
X34550000Y-92085000D03*
%TD*%
D33*
%TO.C,D1*%
X44375000Y-51750000D03*
X44375000Y-48450000D03*
%TD*%
%TO.C,D67*%
X311075000Y-108900000D03*
X311075000Y-105600000D03*
%TD*%
%TO.C,D13*%
X92000000Y-70800000D03*
X92000000Y-67500000D03*
%TD*%
D55*
%TO.C,R_DATA2*%
X56925000Y-75240000D03*
X56925000Y-76260000D03*
%TD*%
D44*
%TO.C,R_USB1*%
X49460000Y-48900000D03*
X48440000Y-48900000D03*
%TD*%
D40*
%TO.C,C_3V-Decoup4*%
X53310000Y-84440000D03*
X52350000Y-84440000D03*
%TD*%
D33*
%TO.C,D21*%
X130100000Y-70800000D03*
X130100000Y-67500000D03*
%TD*%
%TO.C,D52*%
X216210000Y-125450000D03*
X216210000Y-128750000D03*
%TD*%
D55*
%TO.C,R_DATA1*%
X58075000Y-75240000D03*
X58075000Y-76260000D03*
%TD*%
D36*
%TO.C,D76*%
X153705000Y-120330000D03*
X153705000Y-119230000D03*
X151875000Y-119230000D03*
D35*
X151875000Y-120330000D03*
%TD*%
D38*
%TO.C,D79*%
X242215000Y-48675000D03*
D36*
X242215000Y-49775000D03*
X240385000Y-49775000D03*
X240385000Y-48675000D03*
%TD*%
D33*
%TO.C,D4*%
X56275000Y-108900000D03*
X56275000Y-105600000D03*
%TD*%
D41*
%TO.C,S*%
X93540000Y-86312500D03*
X94490000Y-88187500D03*
X92590000Y-88187500D03*
%TD*%
D33*
%TO.C,D3*%
X51525000Y-89850000D03*
X51525000Y-86550000D03*
%TD*%
%TO.C,D36*%
X192025000Y-89850000D03*
X192025000Y-86550000D03*
%TD*%
%TO.C,D12*%
X82475000Y-52700000D03*
X82475000Y-49400000D03*
%TD*%
%TO.C,D25*%
X139625000Y-52700000D03*
X139625000Y-49400000D03*
%TD*%
D56*
%TO.C,SW1*%
X83050000Y-60060000D03*
X76750000Y-60060000D03*
X83050000Y-63860000D03*
X76750000Y-63860000D03*
%TD*%
D33*
%TO.C,D30*%
X158675000Y-52700000D03*
X158675000Y-49400000D03*
%TD*%
%TO.C,D51*%
X239650000Y-108900000D03*
X239650000Y-105600000D03*
%TD*%
D57*
%TO.C,J1*%
X56050000Y-58750000D03*
X56050000Y-59750000D03*
X56050000Y-60750000D03*
X56050000Y-61750000D03*
D58*
X59925000Y-57450000D03*
X59925000Y-63050000D03*
%TD*%
D59*
%TO.C,R_USB2*%
X52265000Y-48600000D03*
X53285000Y-48600000D03*
%TD*%
D33*
%TO.C,D28*%
X144400000Y-108900000D03*
X144400000Y-105600000D03*
%TD*%
%TO.C,D38*%
X183110000Y-128790000D03*
X183110000Y-125490000D03*
%TD*%
D34*
%TO.C,C_Crystal1*%
X63400000Y-92945000D03*
X63400000Y-93905000D03*
%TD*%
D33*
%TO.C,D45*%
X230100000Y-89850000D03*
X230100000Y-86550000D03*
%TD*%
D40*
%TO.C,C_3V-Decoup5*%
X53030000Y-79750000D03*
X52070000Y-79750000D03*
%TD*%
D55*
%TO.C,R_Shield1*%
X58275000Y-41415000D03*
X58275000Y-42435000D03*
%TD*%
D33*
%TO.C,D32*%
X172950000Y-89850000D03*
X172950000Y-86550000D03*
%TD*%
%TO.C,D55*%
X268200000Y-89850000D03*
X268200000Y-86550000D03*
%TD*%
%TO.C,D49*%
X244400000Y-70800000D03*
X244400000Y-67500000D03*
%TD*%
D60*
%TO.C,D70*%
X51225000Y-97310000D03*
D36*
X52325000Y-97310000D03*
X52325000Y-99140000D03*
X51225000Y-99140000D03*
%TD*%
D33*
%TO.C,D5*%
X53530000Y-129280000D03*
X53530000Y-125980000D03*
%TD*%
D61*
%TO.C,Y1*%
X59075000Y-92575000D03*
X61275000Y-92575000D03*
X61275000Y-94275000D03*
X59075000Y-94275000D03*
%TD*%
D33*
%TO.C,D23*%
X125350000Y-108900000D03*
X125350000Y-105600000D03*
%TD*%
D62*
%TO.C,U5*%
X65542500Y-54740000D03*
X65542500Y-53790000D03*
X65542500Y-52840000D03*
X67817500Y-52840000D03*
X67817500Y-54740000D03*
%TD*%
D33*
%TO.C,D20*%
X120575000Y-52700000D03*
X120575000Y-49400000D03*
%TD*%
%TO.C,D42*%
X201550000Y-108900000D03*
X201550000Y-105600000D03*
%TD*%
%TO.C,D64*%
X303125000Y-89875000D03*
X303125000Y-86575000D03*
%TD*%
%TO.C,D65*%
X311075000Y-51750000D03*
X311075000Y-48450000D03*
%TD*%
%TO.C,D16*%
X101525000Y-52700000D03*
X101525000Y-49400000D03*
%TD*%
%TO.C,D56*%
X258700000Y-108900000D03*
X258700000Y-105600000D03*
%TD*%
%TO.C,D27*%
X153900000Y-89850000D03*
X153900000Y-86550000D03*
%TD*%
D41*
%TO.C,U3*%
X48850000Y-58162500D03*
X46950000Y-58162500D03*
X47900000Y-56287500D03*
%TD*%
D33*
%TO.C,D59*%
X282500000Y-70800000D03*
X282500000Y-67500000D03*
%TD*%
D35*
%TO.C,D82*%
X288010000Y-125975000D03*
D36*
X288010000Y-124875000D03*
X289840000Y-124875000D03*
X289840000Y-125975000D03*
%TD*%
D38*
%TO.C,D81*%
X280315000Y-48675000D03*
D36*
X280315000Y-49775000D03*
X278485000Y-49775000D03*
X278485000Y-48675000D03*
%TD*%
D33*
%TO.C,D58*%
X272975000Y-52700000D03*
X272975000Y-49400000D03*
%TD*%
D39*
%TO.C,C_3V-Decoup3*%
X59510000Y-74000000D03*
X59510000Y-73040000D03*
%TD*%
D33*
%TO.C,D57*%
X265590000Y-128770000D03*
X265590000Y-125470000D03*
%TD*%
D38*
%TO.C,D73*%
X108865000Y-48675000D03*
D36*
X108865000Y-49775000D03*
X107035000Y-49775000D03*
X107035000Y-48675000D03*
%TD*%
D33*
%TO.C,D43*%
X215825000Y-52700000D03*
X215825000Y-49400000D03*
%TD*%
%TO.C,D68*%
X308300000Y-130780000D03*
X308300000Y-127480000D03*
%TD*%
D34*
%TO.C,C_1V-Decoup3*%
X56550000Y-90170000D03*
X56550000Y-91130000D03*
%TD*%
D42*
%TO.C,D83*%
X301775000Y-73965000D03*
D36*
X300675000Y-73965000D03*
X300675000Y-72135000D03*
X301775000Y-72135000D03*
%TD*%
D33*
%TO.C,D66*%
X306325000Y-70800000D03*
X306325000Y-67500000D03*
%TD*%
%TO.C,D62*%
X294100000Y-130200000D03*
X294100000Y-126900000D03*
%TD*%
%TO.C,D18*%
X115800000Y-89850000D03*
X115800000Y-86550000D03*
%TD*%
D35*
%TO.C,D80*%
X242680000Y-125975000D03*
D36*
X242680000Y-124875000D03*
X244510000Y-124875000D03*
X244510000Y-125975000D03*
%TD*%
D39*
%TO.C,C_Shield1*%
X59400000Y-42405000D03*
X59400000Y-41445000D03*
%TD*%
D33*
%TO.C,D33*%
X163450000Y-108900000D03*
X163450000Y-105600000D03*
%TD*%
%TO.C,D8*%
X77725000Y-89850000D03*
X77725000Y-86550000D03*
%TD*%
D63*
%TO.C,U2*%
X76920000Y-67925000D03*
X78190000Y-67925000D03*
X79460000Y-67925000D03*
X80730000Y-67925000D03*
X80730000Y-75125000D03*
X79460000Y-75125000D03*
X78190000Y-75125000D03*
X76920000Y-75125000D03*
%TD*%
D33*
%TO.C,D44*%
X225350000Y-70800000D03*
X225350000Y-67500000D03*
%TD*%
D43*
%TO.C,R_RST1*%
X37300000Y-83585000D03*
X37300000Y-82565000D03*
%TD*%
D33*
%TO.C,D53*%
X253925000Y-52700000D03*
X253925000Y-49400000D03*
%TD*%
%TO.C,D7*%
X72950000Y-70800000D03*
X72950000Y-67500000D03*
%TD*%
D64*
%TO.C,F1*%
X47850000Y-51337500D03*
X47850000Y-53212500D03*
%TD*%
D65*
%TO.C,C_3V-Decoup9*%
X65410589Y-85560589D03*
X66089411Y-86239411D03*
%TD*%
D33*
%TO.C,D31*%
X168200000Y-70800000D03*
X168200000Y-67500000D03*
%TD*%
%TO.C,D11*%
X87225000Y-108900000D03*
X87225000Y-105600000D03*
%TD*%
D40*
%TO.C,C_3V-Decoup1*%
X46930000Y-60750000D03*
X45970000Y-60750000D03*
%TD*%
D33*
%TO.C,D41*%
X211075000Y-89850000D03*
X211075000Y-86550000D03*
%TD*%
D60*
%TO.C,D69*%
X45475000Y-74585000D03*
D36*
X46575000Y-74585000D03*
X46575000Y-76415000D03*
X45475000Y-76415000D03*
%TD*%
D41*
%TO.C,D*%
X113930000Y-88207500D03*
X112980000Y-86332500D03*
X112030000Y-88207500D03*
%TD*%
D55*
%TO.C,R_Flash1*%
X76900000Y-65090000D03*
X76900000Y-66110000D03*
%TD*%
D33*
%TO.C,D17*%
X111050000Y-70800000D03*
X111050000Y-67500000D03*
%TD*%
%LPD*%
M02*
