%TF.GenerationSoftware,KiCad,Pcbnew,7.0.9-7.0.9~ubuntu22.04.1*%
%TF.CreationDate,2023-11-09T12:16:25-08:00*%
%TF.ProjectId,SST60,53535436-302e-46b6-9963-61645f706362,0.1*%
%TF.SameCoordinates,Original*%
%TF.FileFunction,Copper,L1,Top*%
%TF.FilePolarity,Positive*%
%FSLAX46Y46*%
G04 Gerber Fmt 4.6, Leading zero omitted, Abs format (unit mm)*
G04 Created by KiCad (PCBNEW 7.0.9-7.0.9~ubuntu22.04.1) date 2023-11-09 12:16:25*
%MOMM*%
%LPD*%
G01*
G04 APERTURE LIST*
G04 Aperture macros list*
%AMHorizOval*
0 Thick line with rounded ends*
0 $1 width*
0 $2 $3 position (X,Y) of the first rounded end (center of the circle)*
0 $4 $5 position (X,Y) of the second rounded end (center of the circle)*
0 Add line between two ends*
20,1,$1,$2,$3,$4,$5,0*
0 Add two circle primitives to create the rounded ends*
1,1,$1,$2,$3*
1,1,$1,$4,$5*%
G04 Aperture macros list end*
%TA.AperFunction,ComponentPad*%
%ADD10HorizOval,2.250000X0.655008X0.729993X-0.655008X-0.729993X0*%
%TD*%
%TA.AperFunction,ComponentPad*%
%ADD11C,2.250000*%
%TD*%
%TA.AperFunction,ComponentPad*%
%ADD12HorizOval,2.250000X0.020004X0.290000X-0.020004X-0.290000X0*%
%TD*%
%TA.AperFunction,ComponentPad*%
%ADD13HorizOval,2.250000X0.655001X0.730000X-0.655001X-0.730000X0*%
%TD*%
%TA.AperFunction,ComponentPad*%
%ADD14HorizOval,2.250000X0.020000X0.290000X-0.020000X-0.290000X0*%
%TD*%
%TA.AperFunction,ComponentPad*%
%ADD15C,2.200000*%
%TD*%
%TA.AperFunction,ComponentPad*%
%ADD16C,1.000000*%
%TD*%
%TA.AperFunction,ComponentPad*%
%ADD17C,7.001300*%
%TD*%
%TA.AperFunction,ComponentPad*%
%ADD18C,7.000240*%
%TD*%
%TA.AperFunction,ComponentPad*%
%ADD19C,1.905000*%
%TD*%
%TA.AperFunction,ComponentPad*%
%ADD20R,1.905000X1.905000*%
%TD*%
%TA.AperFunction,ComponentPad*%
%ADD21O,1.000000X1.600000*%
%TD*%
%TA.AperFunction,ComponentPad*%
%ADD22O,1.000000X2.100000*%
%TD*%
%TA.AperFunction,ComponentPad*%
%ADD23C,0.600000*%
%TD*%
%TA.AperFunction,ComponentPad*%
%ADD24R,1.700000X1.700000*%
%TD*%
%TA.AperFunction,ComponentPad*%
%ADD25O,1.700000X1.700000*%
%TD*%
%TA.AperFunction,ViaPad*%
%ADD26C,0.800000*%
%TD*%
%TA.AperFunction,ViaPad*%
%ADD27C,0.600000*%
%TD*%
%TA.AperFunction,Conductor*%
%ADD28C,0.250000*%
%TD*%
%TA.AperFunction,Conductor*%
%ADD29C,0.200000*%
%TD*%
%TA.AperFunction,Conductor*%
%ADD30C,0.500000*%
%TD*%
G04 APERTURE END LIST*
D10*
%TO.P,1.25U,1,COL*%
%TO.N,col14*%
X302545008Y-122160007D03*
D11*
X303200000Y-121430000D03*
D12*
%TO.P,1.25U,2,ROW*%
%TO.N,Net-(D68-Pad2)*%
X308220004Y-120640000D03*
D11*
X308240000Y-120350000D03*
%TD*%
D10*
%TO.P,1.25U,1,COL*%
%TO.N,col12*%
X278645008Y-122160007D03*
D11*
X279300000Y-121430000D03*
D12*
%TO.P,1.25U,2,ROW*%
%TO.N,Net-(D62-Pad2)*%
X284320004Y-120640000D03*
D11*
X284340000Y-120350000D03*
%TD*%
D10*
%TO.P,1.25U,1,COL*%
%TO.N,col11*%
X254805008Y-122220007D03*
D11*
X255460000Y-121490000D03*
D12*
%TO.P,1.25U,2,ROW*%
%TO.N,Net-(D57-Pad2)*%
X260480004Y-120700000D03*
D11*
X260500000Y-120410000D03*
%TD*%
D10*
%TO.P,1.25U,1,COL*%
%TO.N,col10*%
X231085008Y-122160007D03*
D11*
X231740000Y-121430000D03*
D12*
%TO.P,1.25U,2,ROW*%
%TO.N,Net-(D52-Pad2)*%
X236760004Y-120640000D03*
D11*
%TO.P,1.25U,d52,ROW*%
X236780000Y-120350000D03*
%TD*%
D13*
%TO.P,Small Split,1,COL*%
%TO.N,col10*%
X228620001Y-122142500D03*
D11*
X229275000Y-121412500D03*
D14*
%TO.P,Small Split,2,ROW*%
%TO.N,Net-(D52-Pad2)*%
X234295000Y-120622500D03*
D11*
X234315000Y-120332500D03*
%TD*%
D13*
%TO.P,N,1,COL*%
%TO.N,col7*%
X176232501Y-103092500D03*
D11*
X176887500Y-102362500D03*
D14*
%TO.P,N,2,ROW*%
%TO.N,Net-(D37-Pad2)*%
X181907500Y-101572500D03*
D11*
X181927500Y-101282500D03*
%TD*%
D15*
%TO.P,REF\u002A\u002A,1*%
%TO.N,Net-(D38-Pad2)*%
X165530000Y-120350000D03*
%TO.P,REF\u002A\u002A,col*%
%TO.N,col7*%
X159180000Y-122890000D03*
%TD*%
D10*
%TO.P,1.25U,1,COL*%
%TO.N,col2*%
X88355008Y-122180007D03*
D11*
X89010000Y-121450000D03*
D12*
%TO.P,1.25U,2,ROW*%
%TO.N,Net-(D15-Pad2)*%
X94030004Y-120660000D03*
D11*
X94050000Y-120370000D03*
%TD*%
D10*
%TO.P,1.25U,1,COL*%
%TO.N,col1*%
X64435008Y-122180007D03*
D11*
%TO.P,1.25U,*%
X65090000Y-121450000D03*
D12*
%TO.P,1.25U,2,ROW*%
%TO.N,Net-(D10-Pad2)*%
X70110004Y-120660000D03*
D11*
X70130000Y-120370000D03*
%TD*%
D10*
%TO.P,1.25U,1,COL*%
%TO.N,col0*%
X40595008Y-122060007D03*
D11*
X41250000Y-121330000D03*
D12*
%TO.P,1.25U,2,ROW*%
%TO.N,Net-(D5-Pad2)*%
X46270004Y-120540000D03*
D11*
X46290000Y-120250000D03*
%TD*%
D13*
%TO.P,2,1,COL*%
%TO.N,N/C*%
X157165001Y-103110000D03*
D11*
X157820000Y-102380000D03*
D14*
%TO.P,2,2,ROW*%
X162840000Y-101590000D03*
D11*
X162860000Y-101300000D03*
%TD*%
D13*
%TO.P,2,1,COL*%
%TO.N,N/C*%
X57195001Y-45920000D03*
D11*
X57850000Y-45190000D03*
D14*
%TO.P,2,2,ROW*%
X62870000Y-44400000D03*
D11*
X62890000Y-44110000D03*
%TD*%
D13*
%TO.P,1.50u,1,COL*%
%TO.N,col0*%
X42882501Y-122142500D03*
D11*
X43537500Y-121412500D03*
D14*
%TO.P,1.50u,2,ROW*%
%TO.N,Net-(D5-Pad2)*%
X48557500Y-120622500D03*
D11*
X48577500Y-120332500D03*
%TD*%
D13*
%TO.P,T,1,COL*%
%TO.N,col5*%
X142895001Y-64992500D03*
D11*
X143550000Y-64262500D03*
D14*
%TO.P,T,2,ROW*%
%TO.N,Net-(D26-Pad2)*%
X148570000Y-63472500D03*
D11*
X148590000Y-63182500D03*
%TD*%
D13*
%TO.P,Tab,1,COL*%
%TO.N,col0*%
X42882501Y-64992500D03*
D11*
X43537500Y-64262500D03*
D14*
%TO.P,Tab,2,ROW*%
%TO.N,Net-(D2-Pad2)*%
X48557500Y-63472500D03*
D11*
X48577500Y-63182500D03*
%TD*%
D13*
%TO.P,[,1,COL*%
%TO.N,col11*%
X257195001Y-64992500D03*
D11*
X257850000Y-64262500D03*
D14*
%TO.P,[,2,ROW*%
%TO.N,Net-(D54-Pad2)*%
X262870000Y-63472500D03*
D11*
X262890000Y-63182500D03*
%TD*%
D13*
%TO.P,1.50u,1,COL*%
%TO.N,col11*%
X252432501Y-122142500D03*
D11*
X253087500Y-121412500D03*
D14*
%TO.P,1.50u,2,ROW*%
%TO.N,Net-(D57-Pad2)*%
X258107500Y-120622500D03*
D11*
X258127500Y-120332500D03*
%TD*%
D13*
%TO.P,R,1,COL*%
%TO.N,col4*%
X123845001Y-64992500D03*
D11*
X124500000Y-64262500D03*
D14*
%TO.P,R,2,ROW*%
%TO.N,Net-(D21-Pad2)*%
X129520000Y-63472500D03*
D11*
X129540000Y-63182500D03*
%TD*%
D13*
%TO.P,<,1,COL*%
%TO.N,col9*%
X214332501Y-103092500D03*
D11*
X214987500Y-102362500D03*
D14*
%TO.P,<,2,ROW*%
%TO.N,Net-(D46-Pad2)*%
X220007500Y-101572500D03*
D11*
X220027500Y-101282500D03*
%TD*%
D13*
%TO.P,Stepped,1,COL*%
%TO.N,col0*%
X40501251Y-84042500D03*
D11*
X41156250Y-83312500D03*
D14*
%TO.P,Stepped,2,ROW*%
%TO.N,Net-(D3-Pad2)*%
X46176250Y-82522500D03*
D11*
X46196250Y-82232500D03*
%TD*%
D13*
%TO.P,S,1,COL*%
%TO.N,col2*%
X90507501Y-84042500D03*
D11*
X91162500Y-83312500D03*
D14*
%TO.P,S,2,ROW*%
%TO.N,Net-(D14-Pad2)*%
X96182500Y-82522500D03*
D11*
X96202500Y-82232500D03*
%TD*%
D13*
%TO.P,H,1,COL*%
%TO.N,col6*%
X166707501Y-84042500D03*
D11*
X167362500Y-83312500D03*
D14*
%TO.P,H,2,ROW*%
%TO.N,Net-(D32-Pad2)*%
X172382500Y-82522500D03*
D11*
X172402500Y-82232500D03*
%TD*%
D13*
%TO.P,D,1,COL*%
%TO.N,col3*%
X109557501Y-84042500D03*
D11*
X110212500Y-83312500D03*
D14*
%TO.P,D,2,ROW*%
%TO.N,Net-(D18-Pad2)*%
X115232500Y-82522500D03*
D11*
X115252500Y-82232500D03*
%TD*%
D13*
%TO.P,J,1,COL*%
%TO.N,col7*%
X185757501Y-84042500D03*
D11*
X186412500Y-83312500D03*
D14*
%TO.P,J,2,ROW*%
%TO.N,Net-(D36-Pad2)*%
X191432500Y-82522500D03*
D11*
X191452500Y-82232500D03*
%TD*%
D13*
%TO.P,Z,1,COL*%
%TO.N,col2*%
X80982501Y-103092500D03*
D11*
X81637500Y-102362500D03*
D14*
%TO.P,Z,2,ROW*%
%TO.N,Net-(D11-Pad2)*%
X86657500Y-101572500D03*
D11*
X86677500Y-101282500D03*
%TD*%
D13*
%TO.P,Split,1,COL*%
%TO.N,col14*%
X304820001Y-103092500D03*
D11*
X305475000Y-102362500D03*
D14*
%TO.P,Split,2,ROW*%
%TO.N,Net-(D67-Pad2)*%
X310495000Y-101572500D03*
D11*
X310515000Y-101282500D03*
%TD*%
D13*
%TO.P,W,1,COL*%
%TO.N,col2*%
X85745001Y-64992500D03*
D11*
X86400000Y-64262500D03*
D14*
%TO.P,W,2,ROW*%
%TO.N,Net-(D13-Pad2)*%
X91420000Y-63472500D03*
D11*
X91440000Y-63182500D03*
%TD*%
D13*
%TO.P,-,1,COL*%
%TO.N,col11*%
X247670001Y-45942500D03*
D11*
X248325000Y-45212500D03*
D14*
%TO.P,-,2,ROW*%
%TO.N,Net-(D53-Pad2)*%
X253345000Y-44422500D03*
D11*
X253365000Y-44132500D03*
%TD*%
D13*
%TO.P,Split,1,COL*%
%TO.N,col12*%
X278626251Y-103092500D03*
D11*
X279281250Y-102362500D03*
D14*
%TO.P,Split,2,ROW*%
%TO.N,Net-(D61-Pad2)*%
X284301250Y-101572500D03*
D11*
X284321250Y-101282500D03*
%TD*%
D13*
%TO.P,V,1,COL*%
%TO.N,col5*%
X138132501Y-103092500D03*
D11*
X138787500Y-102362500D03*
D14*
%TO.P,V,2,ROW*%
%TO.N,Net-(D28-Pad2)*%
X143807500Y-101572500D03*
D11*
X143827500Y-101282500D03*
%TD*%
%TO.P,X,2,ROW*%
%TO.N,Net-(D19-Pad2)*%
X105727500Y-101282500D03*
D14*
X105707500Y-101572500D03*
D11*
%TO.P,X,1,COL*%
%TO.N,col3*%
X100687500Y-102362500D03*
D13*
X100032501Y-103092500D03*
%TD*%
%TO.P,1u,1,COL*%
%TO.N,col12*%
X276245001Y-122142500D03*
D11*
X276900000Y-121412500D03*
D14*
%TO.P,1u,2,ROW*%
%TO.N,Net-(D62-Pad2)*%
X281920000Y-120622500D03*
D11*
X281940000Y-120332500D03*
%TD*%
D13*
%TO.P,5,1,COL*%
%TO.N,col5*%
X133370001Y-45942500D03*
D11*
X134025000Y-45212500D03*
D14*
%TO.P,5,2,ROW*%
%TO.N,Net-(D25-Pad2)*%
X139045000Y-44422500D03*
D11*
X139065000Y-44132500D03*
%TD*%
D16*
%TO.P,H1,1,1*%
%TO.N,GND*%
X55036250Y-68031250D03*
X55709904Y-66404904D03*
X55709904Y-69657596D03*
X57336250Y-65731250D03*
D17*
X57336250Y-68031250D03*
D16*
X57336250Y-70331250D03*
X58962596Y-66404904D03*
X58962596Y-69657596D03*
X59636250Y-68031250D03*
%TO.N,N/C*%
X292186250Y-65731250D03*
X292186250Y-70331250D03*
D18*
%TO.P,H1,2*%
X160336250Y-87131250D03*
%TO.P,H1,3*%
X222636250Y-125331250D03*
D16*
X293635250Y-70413250D03*
%TO.P,H1,4*%
X290714250Y-70413250D03*
D18*
X292186250Y-68031250D03*
D16*
%TO.P,H1,5*%
X290841250Y-65714250D03*
%TO.P,H1,6*%
X293635250Y-65714250D03*
%TD*%
D13*
%TO.P,G,1,COL*%
%TO.N,col5*%
X147657501Y-84042500D03*
D11*
X148312500Y-83312500D03*
D14*
%TO.P,G,2,ROW*%
%TO.N,Net-(D27-Pad2)*%
X153332500Y-82522500D03*
D11*
X153352500Y-82232500D03*
%TD*%
D13*
%TO.P,:,1,COL*%
%TO.N,col10*%
X242907501Y-84042500D03*
D11*
X243562500Y-83312500D03*
D14*
%TO.P,:,2,ROW*%
%TO.N,Net-(D50-Pad2)*%
X248582500Y-82522500D03*
D11*
X248602500Y-82232500D03*
%TD*%
D13*
%TO.P,8,1,COL*%
%TO.N,col8*%
X190520001Y-45942500D03*
D11*
X191175000Y-45212500D03*
D14*
%TO.P,8,2,ROW*%
%TO.N,Net-(D39-Pad2)*%
X196195000Y-44422500D03*
D11*
X196215000Y-44132500D03*
%TD*%
D13*
%TO.P,P,1,COL*%
%TO.N,col10*%
X238145001Y-64992500D03*
D11*
X238800000Y-64262500D03*
D14*
%TO.P,P,2,ROW*%
%TO.N,Net-(D49-Pad2)*%
X243820000Y-63472500D03*
D11*
X243840000Y-63182500D03*
%TD*%
D13*
%TO.P,Q,1,COL*%
%TO.N,col1*%
X66695001Y-64992500D03*
D11*
X67350000Y-64262500D03*
D14*
%TO.P,Q,2,ROW*%
%TO.N,Net-(D7-Pad2)*%
X72370000Y-63472500D03*
D11*
X72390000Y-63182500D03*
%TD*%
D13*
%TO.P,Y,1,COL*%
%TO.N,col6*%
X161945001Y-64992500D03*
D11*
X162600000Y-64262500D03*
D14*
%TO.P,Y,2,ROW*%
%TO.N,Net-(D31-Pad2)*%
X167620000Y-63472500D03*
D11*
X167640000Y-63182500D03*
%TD*%
D13*
%TO.P,],1,COL*%
%TO.N,col12*%
X276245001Y-64992500D03*
D11*
X276900000Y-64262500D03*
D14*
%TO.P,],2,ROW*%
%TO.N,Net-(D59-Pad2)*%
X281920000Y-63472500D03*
D11*
X281940000Y-63182500D03*
%TD*%
D13*
%TO.P,1u/7u/10u,1,COL*%
%TO.N,col7*%
X171470001Y-122142500D03*
D11*
X172125000Y-121412500D03*
D14*
%TO.P,1u/7u/10u,2,ROW*%
%TO.N,Net-(D38-Pad2)*%
X177145000Y-120622500D03*
D11*
X177165000Y-120332500D03*
%TD*%
D13*
%TO.P,9,1,COL*%
%TO.N,col9*%
X209570001Y-45942500D03*
D11*
X210225000Y-45212500D03*
D14*
%TO.P,9,2,ROW*%
%TO.N,Net-(D43-Pad2)*%
X215245000Y-44422500D03*
D11*
X215265000Y-44132500D03*
%TD*%
D13*
%TO.P,ISO,1,COL*%
%TO.N,col1*%
X61932501Y-103092500D03*
D11*
X62587500Y-102362500D03*
D14*
%TO.P,ISO,2,ROW*%
%TO.N,Net-(D9-Pad2)*%
X67607500Y-101572500D03*
D11*
X67627500Y-101282500D03*
%TD*%
D13*
%TO.P,>,1,COL*%
%TO.N,col10*%
X233382501Y-103092500D03*
D11*
X234037500Y-102362500D03*
D14*
%TO.P,>,2,ROW*%
%TO.N,Net-(D51-Pad2)*%
X239057500Y-101572500D03*
D11*
X239077500Y-101282500D03*
%TD*%
D13*
%TO.P,Full,1,COL*%
%TO.N,col12*%
X288151251Y-103092500D03*
D11*
X288806250Y-102362500D03*
D14*
%TO.P,Full,2,ROW*%
%TO.N,Net-(D61-Pad2)*%
X293826250Y-101572500D03*
D11*
X293846250Y-101282500D03*
%TD*%
D13*
%TO.P,C,1,COL*%
%TO.N,col4*%
X119082501Y-103092500D03*
D11*
X119737500Y-102362500D03*
D14*
%TO.P,C,2,ROW*%
%TO.N,Net-(D23-Pad2)*%
X124757500Y-101572500D03*
D11*
X124777500Y-101282500D03*
%TD*%
D13*
%TO.P,E,1,COL*%
%TO.N,col3*%
X104795001Y-64992500D03*
D11*
X105450000Y-64262500D03*
D14*
%TO.P,E,2,ROW*%
%TO.N,Net-(D17-Pad2)*%
X110470000Y-63472500D03*
D11*
X110490000Y-63182500D03*
%TD*%
D13*
%TO.P,ANSI,1,COL*%
%TO.N,col13*%
X292913751Y-84042500D03*
D11*
X293568750Y-83312500D03*
D14*
%TO.P,ANSI,2,ROW*%
%TO.N,Net-(D64-Pad2)*%
X298588750Y-82522500D03*
D11*
X298608750Y-82232500D03*
%TD*%
D13*
%TO.P,A,1,COL*%
%TO.N,col1*%
X71457501Y-84042500D03*
D11*
X72112500Y-83312500D03*
D14*
%TO.P,A,2,ROW*%
%TO.N,Net-(D8-Pad2)*%
X77132500Y-82522500D03*
D11*
X77152500Y-82232500D03*
%TD*%
D13*
%TO.P,Split,1,COL*%
%TO.N,col14*%
X304820001Y-45942500D03*
D11*
X305475000Y-45212500D03*
D14*
%TO.P,Split,2,ROW*%
%TO.N,Net-(D65-Pad2)*%
X310495000Y-44422500D03*
D11*
X310515000Y-44132500D03*
%TD*%
D13*
%TO.P,0,1,COL*%
%TO.N,col10*%
X228620001Y-45942500D03*
D11*
X229275000Y-45212500D03*
D14*
%TO.P,0,2,ROW*%
%TO.N,Net-(D48-Pad2)*%
X234295000Y-44422500D03*
D11*
X234315000Y-44132500D03*
%TD*%
D13*
%TO.P,L,1,COL*%
%TO.N,col9*%
X223857501Y-84042500D03*
D11*
X224512500Y-83312500D03*
D14*
%TO.P,L,2,ROW*%
%TO.N,Net-(D45-Pad2)*%
X229532500Y-82522500D03*
D11*
X229552500Y-82232500D03*
%TD*%
D13*
%TO.P,I,1,COL*%
%TO.N,col8*%
X200045001Y-64992500D03*
D11*
X200700000Y-64262500D03*
D14*
%TO.P,I,2,ROW*%
%TO.N,Net-(D40-Pad2)*%
X205720000Y-63472500D03*
D11*
X205740000Y-63182500D03*
%TD*%
D13*
%TO.P,M,1,COL*%
%TO.N,col8*%
X195282501Y-103092500D03*
D11*
X195937500Y-102362500D03*
D14*
%TO.P,M,2,ROW*%
%TO.N,Net-(D42-Pad2)*%
X200957500Y-101572500D03*
D11*
X200977500Y-101282500D03*
%TD*%
D13*
%TO.P,Full,1,COL*%
%TO.N,col14*%
X295295001Y-45942500D03*
D11*
X295950000Y-45212500D03*
D14*
%TO.P,Full,2,ROW*%
%TO.N,Net-(D65-Pad2)*%
X300970000Y-44422500D03*
D11*
X300990000Y-44132500D03*
%TD*%
D13*
%TO.P,?,1,COL*%
%TO.N,col11*%
X252432501Y-103092500D03*
D11*
X253087500Y-102362500D03*
D14*
%TO.P,?,2,ROW*%
%TO.N,Net-(D56-Pad2)*%
X258107500Y-101572500D03*
D11*
X258127500Y-101282500D03*
%TD*%
D13*
%TO.P,F,1,COL*%
%TO.N,col4*%
X128607501Y-84042500D03*
D11*
X129262500Y-83312500D03*
D14*
%TO.P,F,2,ROW*%
%TO.N,Net-(D22-Pad2)*%
X134282500Y-82522500D03*
D11*
X134302500Y-82232500D03*
%TD*%
D13*
%TO.P,1u,1,COL*%
%TO.N,col1*%
X66695001Y-122142500D03*
D11*
X67350000Y-121412500D03*
D14*
%TO.P,1u,2,ROW*%
%TO.N,Net-(D10-Pad2)*%
X72370000Y-120622500D03*
D11*
X72390000Y-120332500D03*
%TD*%
D13*
%TO.P,3,1,COL*%
%TO.N,col3*%
X95270001Y-45942500D03*
D11*
X95925000Y-45212500D03*
D14*
%TO.P,3,2,ROW*%
%TO.N,Net-(D16-Pad2)*%
X100945000Y-44422500D03*
D11*
X100965000Y-44132500D03*
%TD*%
D13*
%TO.P,6,1,COL*%
%TO.N,col6*%
X152420001Y-45942500D03*
D11*
X153075000Y-45212500D03*
D14*
%TO.P,6,2,ROW*%
%TO.N,Net-(D30-Pad2)*%
X158095000Y-44422500D03*
D11*
X158115000Y-44132500D03*
%TD*%
D13*
%TO.P,",1,COL*%
%TO.N,col11*%
X261957501Y-84042500D03*
D11*
X262612500Y-83312500D03*
D14*
%TO.P,",2,ROW*%
%TO.N,Net-(D55-Pad2)*%
X267632500Y-82522500D03*
D11*
X267652500Y-82232500D03*
%TD*%
D13*
%TO.P,Esc,1,COL*%
%TO.N,col0*%
X38120001Y-45942500D03*
D11*
X38775000Y-45212500D03*
D14*
%TO.P,Esc,2,ROW*%
%TO.N,Net-(D1-Pad2)*%
X43795000Y-44422500D03*
D11*
X43815000Y-44132500D03*
D19*
%TO.P,Esc,3,LED*%
%TO.N,Net-(MX3-Pad3)*%
X40005000Y-54292500D03*
D20*
%TO.P,Esc,4,LEDGND*%
%TO.N,GND*%
X42545000Y-54292500D03*
%TD*%
D13*
%TO.P,1.50u,1,COL*%
%TO.N,col2*%
X90507501Y-122142500D03*
D11*
X91162500Y-121412500D03*
D14*
%TO.P,1.50u,2,ROW*%
%TO.N,Net-(D15-Pad2)*%
X96182500Y-120622500D03*
D11*
X96202500Y-120332500D03*
%TD*%
D13*
%TO.P,=,1,COL*%
%TO.N,col12*%
X266720001Y-45942500D03*
D11*
X267375000Y-45212500D03*
D14*
%TO.P,=,2,ROW*%
%TO.N,Net-(D58-Pad2)*%
X272395000Y-44422500D03*
D11*
X272415000Y-44132500D03*
%TD*%
D13*
%TO.P,Split,1,COL*%
%TO.N,col13*%
X285770001Y-45942500D03*
D11*
X286425000Y-45212500D03*
D14*
%TO.P,Split,2,ROW*%
%TO.N,Net-(D63-Pad2)*%
X291445000Y-44422500D03*
D11*
X291465000Y-44132500D03*
%TD*%
D13*
%TO.P,K,1,COL*%
%TO.N,col8*%
X204807501Y-84042500D03*
D11*
X205462500Y-83312500D03*
D14*
%TO.P,K,2,ROW*%
%TO.N,Net-(D41-Pad2)*%
X210482500Y-82522500D03*
D11*
X210502500Y-82232500D03*
%TD*%
D13*
%TO.P,ISO,1,COL*%
%TO.N,col0*%
X40501251Y-103092500D03*
D11*
X41156250Y-102362500D03*
D14*
%TO.P,ISO,2,ROW*%
%TO.N,Net-(D4-Pad2)*%
X46176250Y-101572500D03*
D11*
X46196250Y-101282500D03*
%TD*%
D13*
%TO.P,2,1,COL*%
%TO.N,col2*%
X76220001Y-45942500D03*
D11*
X76875000Y-45212500D03*
D14*
%TO.P,2,2,ROW*%
%TO.N,Net-(D12-Pad2)*%
X81895000Y-44422500D03*
D11*
X81915000Y-44132500D03*
%TD*%
D13*
%TO.P,ANSI,1,COL*%
%TO.N,col14*%
X300057501Y-64992500D03*
D11*
X300712500Y-64262500D03*
D14*
%TO.P,ANSI,2,ROW*%
%TO.N,Net-(D66-Pad2)*%
X305732500Y-63472500D03*
D11*
X305752500Y-63182500D03*
%TD*%
D10*
%TO.P,Full,1,ROW*%
%TO.N,Net-(D3-Pad2)*%
X45263758Y-84042507D03*
D11*
X45918750Y-83312500D03*
D12*
%TO.P,Full,2,COL*%
%TO.N,col0*%
X50938754Y-82522500D03*
D11*
X50958750Y-82232500D03*
%TD*%
D13*
%TO.P,7,1,COL*%
%TO.N,col7*%
X171470001Y-45942500D03*
D11*
X172125000Y-45212500D03*
D14*
%TO.P,7,2,ROW*%
%TO.N,Net-(D34-Pad2)*%
X177145000Y-44422500D03*
D11*
X177165000Y-44132500D03*
%TD*%
D13*
%TO.P,O,1,COL*%
%TO.N,col9*%
X219095001Y-64992500D03*
D11*
X219750000Y-64262500D03*
D14*
%TO.P,O,2,ROW*%
%TO.N,Net-(D44-Pad2)*%
X224770000Y-63472500D03*
D11*
X224790000Y-63182500D03*
%TD*%
D13*
%TO.P,1.50u,1,COL*%
%TO.N,col14*%
X300057501Y-122142500D03*
D11*
X300712500Y-121412500D03*
D14*
%TO.P,1.50u,2,ROW*%
%TO.N,Net-(D68-Pad2)*%
X305732500Y-120622500D03*
D11*
X305752500Y-120332500D03*
%TD*%
D13*
%TO.P,ANSI,1,COL*%
%TO.N,col0*%
X50026251Y-103092500D03*
D11*
X50681250Y-102362500D03*
D14*
%TO.P,ANSI,2,ROW*%
%TO.N,Net-(D4-Pad2)*%
X55701250Y-101572500D03*
D11*
X55721250Y-101282500D03*
%TD*%
D13*
%TO.P,MX42,1,COL*%
%TO.N,col7*%
X171470001Y-122142500D03*
D11*
X172125000Y-121412500D03*
D14*
%TO.P,MX42,2,ROW*%
%TO.N,Net-(D38-Pad2)*%
X177145000Y-120622500D03*
D11*
X177165000Y-120332500D03*
%TD*%
D13*
%TO.P,4,1,COL*%
%TO.N,col4*%
X114320001Y-45942500D03*
D11*
X114975000Y-45212500D03*
D14*
%TO.P,4,2,ROW*%
%TO.N,Net-(D20-Pad2)*%
X119995000Y-44422500D03*
D11*
X120015000Y-44132500D03*
%TD*%
D13*
%TO.P,U,1,COL*%
%TO.N,col7*%
X180995001Y-64992500D03*
D11*
X181650000Y-64262500D03*
D14*
%TO.P,U,2,ROW*%
%TO.N,Net-(D35-Pad2)*%
X186670000Y-63472500D03*
D11*
X186690000Y-63182500D03*
%TD*%
D21*
%TO.P,USB1,13,SHIELD*%
%TO.N,GNDREF*%
X46130000Y-40987500D03*
D22*
X46130000Y-45167500D03*
D21*
X54770000Y-40987500D03*
D22*
X54770000Y-45167500D03*
%TD*%
D23*
%TO.P,U1,57,GND*%
%TO.N,GND*%
X60375000Y-84525000D03*
X60375000Y-83250000D03*
X60375000Y-81975000D03*
X59100000Y-84525000D03*
X59100000Y-83250000D03*
X59100000Y-81975000D03*
X57825000Y-84525000D03*
X57825000Y-83250000D03*
X57825000Y-81975000D03*
%TD*%
D24*
%TO.P,J2,1,Pin_1*%
%TO.N,RESET*%
X34550000Y-81925000D03*
D25*
%TO.P,J2,2,Pin_2*%
%TO.N,+3V3*%
X34550000Y-84465000D03*
%TO.P,J2,3,Pin_3*%
%TO.N,GND*%
X34550000Y-87005000D03*
%TO.P,J2,4,Pin_4*%
%TO.N,SWDIO*%
X34550000Y-89545000D03*
%TO.P,J2,5,Pin_5*%
%TO.N,SWCLK*%
X34550000Y-92085000D03*
%TD*%
D26*
%TO.N,GND*%
X199525000Y-47125000D03*
X278725000Y-51275000D03*
X44750000Y-99000000D03*
X149060000Y-119010000D03*
D27*
X299780000Y-85340000D03*
D26*
X80725000Y-69800000D03*
X82575000Y-84575000D03*
X47770000Y-78020000D03*
D27*
X109160000Y-126240000D03*
D26*
X54700000Y-74650000D03*
X78175000Y-69700000D03*
X286400000Y-61300000D03*
X104050000Y-47225000D03*
X60400000Y-90525000D03*
X237300000Y-46625000D03*
X52275000Y-93550000D03*
D27*
X53700000Y-76470000D03*
D26*
X45310000Y-54620000D03*
X162300000Y-121950000D03*
X57300000Y-95375000D03*
X50200000Y-65850000D03*
X93530000Y-82600000D03*
X75275000Y-73025000D03*
X220200000Y-119350000D03*
D27*
X64650000Y-79625000D03*
D26*
X165300000Y-130925000D03*
X50725000Y-78075000D03*
X300750000Y-104275000D03*
X74575000Y-82025000D03*
X81450000Y-90575000D03*
X247225000Y-126050000D03*
X62600000Y-54475000D03*
X49100000Y-59825000D03*
X109100000Y-42525000D03*
X44400000Y-78700000D03*
X68675000Y-83275000D03*
X300600000Y-75350000D03*
X46150000Y-47325000D03*
X63375000Y-92000000D03*
X53250000Y-112075000D03*
X275250000Y-46450000D03*
X239775000Y-42650000D03*
X127300000Y-48750000D03*
X205100000Y-51000000D03*
D27*
X301610000Y-80260000D03*
D26*
X109900000Y-50950000D03*
X249700000Y-75125000D03*
X236650000Y-118650000D03*
X307725000Y-86625000D03*
X281850000Y-50600000D03*
X60000000Y-101500000D03*
X101220000Y-82350000D03*
X295950000Y-41700000D03*
D27*
X184940000Y-124750000D03*
D26*
X79800000Y-45500000D03*
X259475000Y-47900000D03*
X164875000Y-45600000D03*
X177400000Y-61975000D03*
X127225000Y-121725000D03*
X71900000Y-50700000D03*
D27*
X53475000Y-72825000D03*
D26*
X231025000Y-75900000D03*
X45250000Y-58590000D03*
D27*
X82770000Y-65710000D03*
D26*
X57075000Y-42425000D03*
X43975000Y-72425000D03*
X133650000Y-74275000D03*
X228550000Y-126300000D03*
X155200000Y-43375000D03*
X89950000Y-48025000D03*
D27*
X51450000Y-74550000D03*
D26*
X243000000Y-50825000D03*
X286650000Y-54325000D03*
X117425000Y-44275000D03*
X104700000Y-123625000D03*
X93525000Y-74050000D03*
X200800000Y-90875000D03*
X248250000Y-131275000D03*
X37680000Y-88680000D03*
X221125000Y-47950000D03*
X279725000Y-45050000D03*
X65600000Y-87350000D03*
X148200000Y-50975000D03*
X144500000Y-42650000D03*
X212450000Y-43650000D03*
X250800000Y-45450000D03*
X52305000Y-83490000D03*
X37500000Y-90500000D03*
X211500000Y-77475000D03*
X142275000Y-46850000D03*
D27*
X48625000Y-47900000D03*
D26*
X183450000Y-47525000D03*
D27*
%TO.N,W*%
X83830000Y-71830000D03*
D26*
%TO.N,GND*%
X163725000Y-128500000D03*
%TO.N,row4*%
X102000000Y-124470000D03*
X100560000Y-126820000D03*
%TO.N,+5V*%
X283575000Y-51950000D03*
X38910000Y-95820000D03*
X49750000Y-99350000D03*
X49225000Y-55625000D03*
X302725000Y-72450000D03*
X302700000Y-78325000D03*
X286650500Y-71625000D03*
X57550000Y-53060000D03*
X288950000Y-127225500D03*
X156600000Y-127750000D03*
X38940000Y-81780000D03*
X105650000Y-127750000D03*
X299075000Y-99925000D03*
X70190000Y-54320000D03*
X52800000Y-58500000D03*
X187875000Y-127750000D03*
X304400000Y-85175000D03*
X243600000Y-127750000D03*
X60300000Y-127200000D03*
D27*
%TO.N,row0*%
X50556196Y-80364788D03*
D26*
X51601460Y-71875000D03*
X45375000Y-53275000D03*
D27*
X48000000Y-76250000D03*
D26*
X59100000Y-59350000D03*
%TO.N,row1*%
X57625000Y-72750000D03*
X49075000Y-72325000D03*
D27*
X53193357Y-83630500D03*
D26*
X83675000Y-70800000D03*
X79650000Y-70800000D03*
%TO.N,row2*%
X52125000Y-92300000D03*
X54300000Y-85799500D03*
X75650000Y-90025000D03*
X62800000Y-95125000D03*
X67500000Y-95600000D03*
X52175000Y-88625000D03*
%TO.N,row3*%
X57942878Y-101067878D03*
X57575000Y-104175000D03*
X58725000Y-108900000D03*
X68882122Y-90042878D03*
%TO.N,row4*%
X68925000Y-91075000D03*
X56150000Y-124800000D03*
X55500000Y-127950000D03*
X56425000Y-121900000D03*
%TO.N,Net-(D69-Pad3)*%
X47925000Y-81299500D03*
X46375000Y-85675000D03*
%TO.N,Net-(D70-Pad3)*%
X52350000Y-103550000D03*
X53450000Y-99125000D03*
%TO.N,RGB*%
X69110000Y-53750000D03*
X67700000Y-50225000D03*
%TO.N,Net-(D81-Pad1)*%
X285950000Y-51825000D03*
X289050000Y-71750000D03*
%TO.N,Net-(D82-Pad3)*%
X298300000Y-108125000D03*
X289825000Y-123725000D03*
%TO.N,Net-(D83-Pad1)*%
X299925000Y-88975000D03*
X297875000Y-99600000D03*
%TO.N,D-*%
X52325000Y-63250000D03*
X53325000Y-61785756D03*
%TO.N,RESET*%
X53250511Y-90125296D03*
X42300000Y-89575000D03*
X34550000Y-79060000D03*
%TO.N,SWDIO*%
X53950011Y-90892878D03*
X41350000Y-89900000D03*
%TO.N,SWCLK*%
X40825000Y-90875000D03*
X53059821Y-91600500D03*
D27*
%TO.N,ESCLED*%
X49603025Y-74209803D03*
X54038748Y-83947743D03*
X50706717Y-74844508D03*
D26*
X42610000Y-57620000D03*
D27*
%TO.N,+1V1*%
X58500000Y-85350000D03*
X58225000Y-81150000D03*
D26*
X55425000Y-90175000D03*
X59406334Y-77357910D03*
D27*
%TO.N,+3V3*%
X72160000Y-88080000D03*
D26*
X45820000Y-79840000D03*
D27*
X85840000Y-71530000D03*
D26*
X48810000Y-79270000D03*
X52450960Y-75599040D03*
X61520000Y-74920000D03*
D27*
X79840000Y-81600000D03*
D26*
X58043412Y-73657710D03*
X41470000Y-80570000D03*
D27*
X110390000Y-88030000D03*
X111760000Y-78249059D03*
X82130000Y-78080000D03*
D26*
X39420000Y-80090000D03*
D27*
X72120000Y-75850000D03*
X85830000Y-69600000D03*
D26*
%TO.N,col13*%
X292325000Y-91100000D03*
D27*
%TO.N,W*%
X52984909Y-80559500D03*
X78825000Y-71525000D03*
X64380000Y-72620000D03*
X84200000Y-69580000D03*
%TO.N,A*%
X53726497Y-80231642D03*
X50740000Y-88370000D03*
X49090000Y-81570000D03*
X50670000Y-91640000D03*
X66390000Y-96050000D03*
X61340000Y-95950000D03*
X75700000Y-85800000D03*
X53958107Y-78204070D03*
%TO.N,S*%
X89240000Y-96780000D03*
X54325997Y-79531825D03*
X56220000Y-92220000D03*
X94620000Y-86300000D03*
%TO.N,D*%
X55047339Y-79015161D03*
X69880000Y-89700000D03*
X112585000Y-91275000D03*
X112940000Y-89225500D03*
%TD*%
D28*
%TO.N,col14*%
X301890000Y-122890000D02*
X299420000Y-122890000D01*
X299420000Y-122890000D02*
X299402500Y-122872500D01*
%TO.N,Net-(D68-Pad2)*%
X308200000Y-120930000D02*
X307602500Y-120332500D01*
X307602500Y-120332500D02*
X305752500Y-120332500D01*
X308240000Y-120350000D02*
X308240000Y-120890000D01*
X308240000Y-120890000D02*
X308200000Y-120930000D01*
%TO.N,col14*%
X303200000Y-121430000D02*
X303200000Y-121580000D01*
X303200000Y-121580000D02*
X301890000Y-122890000D01*
%TO.N,Net-(D62-Pad2)*%
X284340000Y-120350000D02*
X281957500Y-120350000D01*
X281957500Y-120350000D02*
X281940000Y-120332500D01*
X284340000Y-120350000D02*
X284340000Y-120890000D01*
X284340000Y-120890000D02*
X284300000Y-120930000D01*
%TO.N,col12*%
X279300000Y-121430000D02*
X276917500Y-121430000D01*
X276917500Y-121430000D02*
X276900000Y-121412500D01*
X279300000Y-121430000D02*
X279300000Y-121580000D01*
X279300000Y-121580000D02*
X277990000Y-122890000D01*
%TO.N,Net-(D57-Pad2)*%
X260500000Y-120410000D02*
X258205000Y-120410000D01*
X258205000Y-120410000D02*
X258127500Y-120332500D01*
%TO.N,col11*%
X254150000Y-122950000D02*
X254150000Y-122475000D01*
X254150000Y-122475000D02*
X253087500Y-121412500D01*
%TO.N,col10*%
X242925058Y-119485660D02*
X242813578Y-119485660D01*
X242813578Y-119485660D02*
X239409238Y-122890000D01*
X230430000Y-122890000D02*
X239409238Y-122890000D01*
X227965000Y-122872500D02*
X230412500Y-122872500D01*
X230412500Y-122872500D02*
X230430000Y-122890000D01*
%TO.N,col7*%
X170815000Y-122872500D02*
X170797500Y-122890000D01*
X170797500Y-122890000D02*
X159180000Y-122890000D01*
%TO.N,+5V*%
X243600000Y-127750000D02*
X288425500Y-127750000D01*
X224300000Y-129375000D02*
X225925000Y-127750000D01*
X283575000Y-61850000D02*
X286650500Y-64925500D01*
D29*
X304650000Y-94350000D02*
X304650000Y-85425000D01*
D28*
X46250000Y-113150000D02*
X46250000Y-104250000D01*
X220925000Y-129375000D02*
X224300000Y-129375000D01*
X187875000Y-127750000D02*
X219300000Y-127750000D01*
X46250000Y-104250000D02*
X49750000Y-100750000D01*
D29*
%TO.N,row4*%
X55625000Y-104375000D02*
X55625000Y-121100000D01*
%TO.N,Net-(D81-Pad1)*%
X288050000Y-70750000D02*
X288050000Y-59725000D01*
%TO.N,ESCLED*%
X45275000Y-65275000D02*
X45275000Y-60285000D01*
D28*
%TO.N,col10*%
X234081180Y-122872500D02*
X227965000Y-122872500D01*
D29*
%TO.N,GND*%
X165300000Y-130075000D02*
X165300000Y-130925000D01*
D28*
%TO.N,col10*%
X244696378Y-117714340D02*
X242925058Y-119485660D01*
X245757038Y-117275028D02*
G75*
G03*
X244696379Y-117714341I-38J-1499972D01*
G01*
D29*
%TO.N,GND*%
X163725000Y-128500000D02*
X165300000Y-130075000D01*
D28*
%TO.N,col10*%
X269628680Y-117275000D02*
X245757038Y-117275000D01*
X269628680Y-117274985D02*
G75*
G03*
X270689340Y-116835660I20J1499985D01*
G01*
X270835660Y-116689340D02*
X270689340Y-116835660D01*
X270835670Y-116689350D02*
G75*
G03*
X271275000Y-115628680I-1060670J1060650D01*
G01*
X271275000Y-115346320D02*
X271275000Y-115628680D01*
X271274985Y-115346320D02*
G75*
G03*
X270835660Y-114285660I-1499985J20D01*
G01*
X270639340Y-114089340D02*
X270835660Y-114285660D01*
X270639350Y-114089330D02*
G75*
G03*
X269578680Y-113650000I-1060650J-1060670D01*
G01*
X246146320Y-113650000D02*
X269578680Y-113650000D01*
X245085650Y-113210670D02*
G75*
G03*
X246146320Y-113650000I1060650J1060670D01*
G01*
X244489340Y-112614340D02*
X245085660Y-113210660D01*
X244489350Y-112614330D02*
G75*
G03*
X243428680Y-112175000I-1060650J-1060670D01*
G01*
X239296320Y-112175000D02*
X243428680Y-112175000D01*
X239296320Y-112175015D02*
G75*
G03*
X238235660Y-112614340I-20J-1499985D01*
G01*
X237664340Y-113185660D02*
X238235660Y-112614340D01*
X236603680Y-113624985D02*
G75*
G03*
X237664340Y-113185660I20J1499985D01*
G01*
X236421320Y-113625000D02*
X236603680Y-113625000D01*
X235360650Y-113185670D02*
G75*
G03*
X236421320Y-113625000I1060650J1060670D01*
G01*
X233166840Y-110991840D02*
X235360660Y-113185660D01*
X232727515Y-109931180D02*
G75*
G03*
X233166840Y-110991840I1499985J-20D01*
G01*
X232727500Y-103822500D02*
X232727500Y-109931180D01*
D29*
%TO.N,S*%
X54638748Y-85148298D02*
X57072157Y-87581707D01*
D28*
%TO.N,row4*%
X100560000Y-126820000D02*
X100560000Y-125910000D01*
X100560000Y-125910000D02*
X102000000Y-124470000D01*
%TO.N,col0*%
X41250000Y-121330000D02*
X42520000Y-120060000D01*
X42520000Y-120060000D02*
X42520000Y-119550000D01*
X42520000Y-119550000D02*
X42990000Y-119550000D01*
X42990000Y-119550000D02*
X43537500Y-120097500D01*
X43537500Y-120097500D02*
X43537500Y-121412500D01*
X39940000Y-122790000D02*
X42145000Y-122790000D01*
X42145000Y-122790000D02*
X42227500Y-122872500D01*
%TO.N,Net-(D5-Pad2)*%
X46880000Y-118330000D02*
X47900000Y-118330000D01*
X47900000Y-119655000D02*
X48577500Y-120332500D01*
X46290000Y-120250000D02*
X46290000Y-118820000D01*
X46830000Y-118280000D02*
X46880000Y-118330000D01*
X46290000Y-118820000D02*
X46830000Y-118280000D01*
X47900000Y-118330000D02*
X47900000Y-119655000D01*
X46290000Y-120250000D02*
X46290000Y-120790000D01*
X46290000Y-120790000D02*
X46250000Y-120830000D01*
%TO.N,col7*%
X175577500Y-103822500D02*
X175577500Y-109116180D01*
X175577500Y-109116180D02*
X179150660Y-112689340D01*
X179150660Y-112689340D02*
X172125000Y-119715000D01*
X172125000Y-119715000D02*
X172125000Y-121412500D01*
D30*
%TO.N,GND*%
X60375000Y-81975000D02*
X57825000Y-81975000D01*
X57825000Y-83250000D02*
X60375000Y-83250000D01*
X57825000Y-81975000D02*
X57825000Y-84525000D01*
X60375000Y-84525000D02*
X57825000Y-84525000D01*
X60375000Y-81975000D02*
X60375000Y-84525000D01*
X59100000Y-81975000D02*
X59100000Y-84525000D01*
D28*
%TO.N,+5V*%
X156600000Y-127750000D02*
X105650000Y-127750000D01*
X187875000Y-127750000D02*
X156600000Y-127750000D01*
D29*
X302700000Y-72475000D02*
X302725000Y-72450000D01*
X38940000Y-81780000D02*
X36793533Y-83926467D01*
X36793533Y-93703533D02*
X38910000Y-95820000D01*
X290524500Y-127225500D02*
X288950000Y-127225500D01*
D28*
X60300000Y-127200000D02*
X46250000Y-113150000D01*
D29*
X304650000Y-85425000D02*
X304400000Y-85175000D01*
D28*
X66980000Y-53060000D02*
X57550000Y-53060000D01*
X219325000Y-127775000D02*
X219300000Y-127750000D01*
D29*
X302700000Y-78325000D02*
X302700000Y-72475000D01*
D28*
X243600000Y-127750000D02*
X225925000Y-127750000D01*
X70035489Y-54474511D02*
X68394511Y-54474511D01*
X286650500Y-64925500D02*
X286650500Y-71625000D01*
D30*
X49225000Y-55625000D02*
X49925000Y-55625000D01*
D28*
X68394511Y-54474511D02*
X66980000Y-53060000D01*
X288950000Y-127225500D02*
X288425500Y-127750000D01*
D29*
X299075000Y-99925000D02*
X299400000Y-100250000D01*
D28*
X49750000Y-100750000D02*
X49750000Y-99350000D01*
D30*
X49925000Y-55625000D02*
X52800000Y-58500000D01*
D28*
X220925000Y-129375000D02*
X219325000Y-127775000D01*
D29*
X36793533Y-83926467D02*
X36793533Y-93703533D01*
X299075000Y-99925000D02*
X304650000Y-94350000D01*
X299400000Y-100250000D02*
X299400000Y-118350000D01*
X299400000Y-118350000D02*
X290524500Y-127225500D01*
D28*
X283575000Y-51950000D02*
X283575000Y-61850000D01*
X70190000Y-54320000D02*
X70035489Y-54474511D01*
D29*
%TO.N,GNDREF*%
X54770000Y-40987500D02*
X46130000Y-40987500D01*
X46130000Y-45167500D02*
X46130000Y-40987500D01*
X54770000Y-45167500D02*
X54770000Y-40987500D01*
%TO.N,row0*%
X48000000Y-77075000D02*
X48000000Y-76250000D01*
X51601460Y-71875000D02*
X52800000Y-70676460D01*
X50368136Y-80176728D02*
X50368136Y-79443136D01*
X52800000Y-70676460D02*
X52800000Y-65650000D01*
X50368136Y-79443136D02*
X48000000Y-77075000D01*
X50556196Y-80364788D02*
X50368136Y-80176728D01*
X45375000Y-53275000D02*
X53025000Y-53275000D01*
X53025000Y-53275000D02*
X59100000Y-59350000D01*
X52800000Y-65650000D02*
X59100000Y-59350000D01*
%TO.N,row1*%
X79650000Y-70800000D02*
X83675000Y-70800000D01*
X51087343Y-73574014D02*
X51899014Y-73574014D01*
X56800986Y-73574014D02*
X57625000Y-72750000D01*
X49354496Y-74809803D02*
X49851554Y-74809803D01*
X51119607Y-79872652D02*
X51119607Y-80159924D01*
X49851554Y-74809803D02*
X51087343Y-73574014D01*
X51425000Y-77009992D02*
X51425000Y-78864317D01*
X53193357Y-83388407D02*
X53193357Y-83630500D01*
X51899014Y-73574014D02*
X56800986Y-73574014D01*
X51119607Y-80159924D02*
X52383750Y-81424067D01*
X52383750Y-82578800D02*
X53193357Y-83388407D01*
X51425000Y-78864317D02*
X50768136Y-79521181D01*
X48778768Y-74363760D02*
X51425000Y-77009992D01*
X49354496Y-74809803D02*
X48778768Y-74234075D01*
X50224014Y-73574014D02*
X51899014Y-73574014D01*
X49075000Y-72425000D02*
X50224014Y-73574014D01*
X49075000Y-72325000D02*
X49075000Y-72425000D01*
X50768136Y-79521181D02*
X51119607Y-79872652D01*
X48778768Y-74234075D02*
X48778768Y-74363760D01*
X52383750Y-81424067D02*
X52383750Y-82578800D01*
%TO.N,row2*%
X55843628Y-88625000D02*
X56484564Y-87984064D01*
X56484564Y-87984064D02*
X54300000Y-85799500D01*
X52125000Y-92300000D02*
X55214259Y-92300000D01*
X67500000Y-95600000D02*
X73075000Y-90025000D01*
X55214259Y-92300000D02*
X58039259Y-95125000D01*
X58039259Y-95125000D02*
X62800000Y-95125000D01*
X52175000Y-88625000D02*
X55843628Y-88625000D01*
X73075000Y-90025000D02*
X75650000Y-90025000D01*
%TO.N,row3*%
X68882122Y-90042878D02*
X57942878Y-100982122D01*
X57942878Y-100982122D02*
X57942878Y-101067878D01*
X56825000Y-107000000D02*
X58725000Y-108900000D01*
X56825000Y-104925000D02*
X56825000Y-107000000D01*
X57575000Y-104175000D02*
X56825000Y-104925000D01*
%TO.N,row4*%
X55625000Y-121100000D02*
X56425000Y-121900000D01*
X56150000Y-124800000D02*
X56150000Y-127300000D01*
X68925000Y-91075000D02*
X55625000Y-104375000D01*
X56150000Y-127300000D02*
X55500000Y-127950000D01*
%TO.N,Net-(D69-Pad3)*%
X46375000Y-85675000D02*
X47925000Y-84125000D01*
X47925000Y-84125000D02*
X47925000Y-81299500D01*
%TO.N,Net-(D70-Pad3)*%
X52350000Y-103550000D02*
X53450000Y-102450000D01*
X53450000Y-102450000D02*
X53450000Y-99125000D01*
%TO.N,RGB*%
X69110000Y-51635000D02*
X69110000Y-53750000D01*
X67700000Y-50225000D02*
X69110000Y-51635000D01*
%TO.N,Net-(D81-Pad1)*%
X289000000Y-58775000D02*
X289000000Y-54875000D01*
X289000000Y-54875000D02*
X285950000Y-51825000D01*
X289050000Y-71750000D02*
X288050000Y-70750000D01*
X288050000Y-59725000D02*
X289000000Y-58775000D01*
%TO.N,Net-(D82-Pad3)*%
X289825000Y-116600000D02*
X289825000Y-123725000D01*
X298300000Y-108125000D02*
X289825000Y-116600000D01*
%TO.N,Net-(D83-Pad1)*%
X299925000Y-88975000D02*
X299925000Y-97550000D01*
X299925000Y-97550000D02*
X297875000Y-99600000D01*
%TO.N,D-*%
X52325000Y-62785756D02*
X53325000Y-61785756D01*
X52325000Y-63250000D02*
X52325000Y-62785756D01*
%TO.N,RESET*%
X53050296Y-90125296D02*
X52825000Y-89900000D01*
X53250511Y-90125296D02*
X53050296Y-90125296D01*
X52825000Y-89900000D02*
X42625000Y-89900000D01*
X42625000Y-89900000D02*
X42300000Y-89575000D01*
D28*
X34550000Y-81925000D02*
X34550000Y-79060000D01*
D29*
%TO.N,SWDIO*%
X53950011Y-90892878D02*
X52917205Y-90892878D01*
X52917205Y-90892878D02*
X52435005Y-90410678D01*
X41860678Y-90410678D02*
X41350000Y-89900000D01*
X52435005Y-90410678D02*
X41860678Y-90410678D01*
%TO.N,SWCLK*%
X40889802Y-90810198D02*
X40825000Y-90875000D01*
X52269519Y-90810198D02*
X40889802Y-90810198D01*
X53059821Y-91600500D02*
X52269519Y-90810198D01*
%TO.N,ESCLED*%
X52783750Y-81258382D02*
X52783750Y-82372364D01*
X45275000Y-60285000D02*
X42610000Y-57620000D01*
X50706717Y-75726023D02*
X51825000Y-76844306D01*
X50706717Y-74844508D02*
X50706717Y-75726023D01*
X43625000Y-69450000D02*
X43625000Y-66925000D01*
X51519607Y-79994238D02*
X52783750Y-81258382D01*
X43625000Y-66925000D02*
X45275000Y-65275000D01*
X51333822Y-79521181D02*
X51519607Y-79706966D01*
X54038748Y-83627362D02*
X54038748Y-83947743D01*
X51825000Y-76844306D02*
X51825000Y-79030002D01*
X51825000Y-79030002D02*
X51333822Y-79521181D01*
X47199511Y-73024511D02*
X43625000Y-69450000D01*
X51519607Y-79706966D02*
X51519607Y-79994238D01*
X52783750Y-82372364D02*
X54038748Y-83627362D01*
X49603025Y-74209803D02*
X48417733Y-73024511D01*
X48417733Y-73024511D02*
X47199511Y-73024511D01*
%TO.N,col0*%
X37465000Y-46672500D02*
X37465000Y-58190000D01*
X42227500Y-65722500D02*
X42227500Y-82241250D01*
X49326250Y-80600000D02*
X50958750Y-82232500D01*
X41156250Y-83312500D02*
X43868750Y-80600000D01*
X38575000Y-97800000D02*
X38575000Y-99781250D01*
D28*
X38500000Y-112625000D02*
X38500000Y-119145000D01*
X39846250Y-103822500D02*
X39846250Y-111278750D01*
D29*
X38575000Y-99781250D02*
X41156250Y-102362500D01*
X39846250Y-96528750D02*
X38575000Y-97800000D01*
X42227500Y-82241250D02*
X41156250Y-83312500D01*
D28*
X38500000Y-119145000D02*
X42227500Y-122872500D01*
X39846250Y-111278750D02*
X38500000Y-112625000D01*
D29*
X39846250Y-84772500D02*
X39846250Y-96528750D01*
X37465000Y-58190000D02*
X43537500Y-64262500D01*
X43868750Y-80600000D02*
X49326250Y-80600000D01*
%TO.N,col1*%
X61277500Y-103822500D02*
X61275000Y-103825000D01*
X61275000Y-115337500D02*
X67350000Y-121412500D01*
D28*
X70802500Y-89279859D02*
X70802500Y-84772500D01*
D29*
X61275000Y-103825000D02*
X61275000Y-115337500D01*
D28*
X66918680Y-78118680D02*
X72112500Y-83312500D01*
X62587500Y-102362500D02*
X62587500Y-99980141D01*
X66040000Y-65722500D02*
X66040000Y-75997359D01*
X63466180Y-97858820D02*
X69923820Y-91401180D01*
X69923840Y-91401200D02*
G75*
G03*
X70802500Y-89279859I-2121340J2121300D01*
G01*
X66040029Y-75997359D02*
G75*
G03*
X66918680Y-78118680I2999971J-41D01*
G01*
X63466160Y-97858800D02*
G75*
G03*
X62587500Y-99980141I2121340J-2121300D01*
G01*
%TO.N,col2*%
X85767893Y-61517893D02*
X86107107Y-61857107D01*
X73191099Y-55826920D02*
X64530061Y-55826920D01*
X80327500Y-111451180D02*
X80327500Y-103822500D01*
X89228680Y-117275000D02*
X79346320Y-117275000D01*
X89852500Y-84772500D02*
X89852500Y-92904859D01*
X85968680Y-78118680D02*
X91162500Y-83312500D01*
X77700000Y-115628680D02*
X77700000Y-115321320D01*
X62735930Y-60335930D02*
X62965991Y-60565991D01*
X85090000Y-65722500D02*
X85090000Y-75997359D01*
X91162500Y-121412500D02*
X91162500Y-119208820D01*
X64556981Y-61225000D02*
X85060786Y-61225000D01*
X90723160Y-118148160D02*
X90289340Y-117714340D01*
X74905990Y-55044010D02*
X74782089Y-55167911D01*
X62076920Y-58280061D02*
X62076920Y-58744939D01*
X75565000Y-46672500D02*
X75565000Y-53453019D01*
X86400000Y-62564214D02*
X86400000Y-64262500D01*
X62939070Y-56485930D02*
X62735929Y-56689071D01*
X88973820Y-95026180D02*
X81637500Y-102362500D01*
X78139340Y-114260660D02*
X79888160Y-112511840D01*
X78285660Y-116835660D02*
X78139340Y-116689340D01*
X78139330Y-114260650D02*
G75*
G03*
X77700000Y-115321320I1060670J-1060650D01*
G01*
X77700015Y-115628680D02*
G75*
G03*
X78139340Y-116689340I1499985J-20D01*
G01*
X88973840Y-95026200D02*
G75*
G03*
X89852500Y-92904859I-2121340J2121300D01*
G01*
X74905980Y-55044000D02*
G75*
G03*
X75565000Y-53453019I-1590980J1591000D01*
G01*
X62966001Y-60565981D02*
G75*
G03*
X64556981Y-61225000I1590999J1590981D01*
G01*
X73191099Y-55826913D02*
G75*
G03*
X74782088Y-55167910I1J2250013D01*
G01*
X86399990Y-62564214D02*
G75*
G03*
X86107107Y-61857107I-999990J14D01*
G01*
X78285650Y-116835670D02*
G75*
G03*
X79346320Y-117275000I1060650J1060670D01*
G01*
X62735953Y-56689095D02*
G75*
G03*
X62076920Y-58280061I1590947J-1591005D01*
G01*
X85767900Y-61517886D02*
G75*
G03*
X85060786Y-61225000I-707100J-707114D01*
G01*
X85090029Y-75997359D02*
G75*
G03*
X85968680Y-78118680I2999971J-41D01*
G01*
X62076887Y-58744939D02*
G75*
G03*
X62735931Y-60335929I2250013J39D01*
G01*
X90289350Y-117714330D02*
G75*
G03*
X89228680Y-117275000I-1060650J-1060670D01*
G01*
X79888170Y-112511850D02*
G75*
G03*
X80327500Y-111451180I-1060670J1060650D01*
G01*
X64530061Y-55826887D02*
G75*
G03*
X62939071Y-56485931I39J-2250013D01*
G01*
X91162485Y-119208820D02*
G75*
G03*
X90723160Y-118148160I-1499985J20D01*
G01*
%TO.N,col3*%
X63285997Y-56789003D02*
X63039003Y-57035997D01*
X108900000Y-84775000D02*
X108900000Y-92907359D01*
X104866117Y-61116117D02*
X105083884Y-61333884D01*
X104140000Y-65722500D02*
X104140000Y-75997359D01*
X94615000Y-46672500D02*
X94615000Y-53960126D01*
X108902500Y-84772500D02*
X108900000Y-84775000D01*
X92298686Y-56276440D02*
X64523434Y-56276440D01*
X64539156Y-60750000D02*
X103982233Y-60750000D01*
X63039003Y-59974721D02*
X63301719Y-60237437D01*
X105450000Y-62217767D02*
X105450000Y-64262500D01*
X94102437Y-55197563D02*
X93536123Y-55763877D01*
X62526440Y-58273434D02*
X62526440Y-58737284D01*
X105018680Y-78118680D02*
X110212500Y-83312500D01*
X108021320Y-95028680D02*
X100687500Y-102362500D01*
X63038994Y-57035988D02*
G75*
G03*
X62526440Y-58273434I1237406J-1237412D01*
G01*
X108021340Y-95028700D02*
G75*
G03*
X108900000Y-92907359I-2121340J2121300D01*
G01*
X104866100Y-61116134D02*
G75*
G03*
X103982233Y-60750000I-883900J-883866D01*
G01*
X64523434Y-56276453D02*
G75*
G03*
X63285998Y-56789004I-34J-1749947D01*
G01*
X94102424Y-55197550D02*
G75*
G03*
X94615000Y-53960126I-1237424J1237450D01*
G01*
X105450023Y-62217767D02*
G75*
G03*
X105083884Y-61333884I-1250023J-33D01*
G01*
X92298686Y-56276418D02*
G75*
G03*
X93536123Y-55763877I14J1750018D01*
G01*
X104140029Y-75997359D02*
G75*
G03*
X105018680Y-78118680I2999971J-41D01*
G01*
X62526440Y-58737284D02*
G75*
G03*
X63039003Y-59974721I1749960J-16D01*
G01*
X63301741Y-60237415D02*
G75*
G03*
X64539156Y-60750000I1237459J1237415D01*
G01*
%TO.N,col4*%
X62975960Y-58370360D02*
X62975960Y-58654640D01*
X113665000Y-46672500D02*
X113665000Y-54713680D01*
X123863860Y-60738860D02*
X124060660Y-60935660D01*
X113225660Y-55774340D02*
X112275000Y-56725000D01*
X124068680Y-78118680D02*
X129262500Y-83312500D01*
X112275000Y-56725000D02*
X112275000Y-56725960D01*
X63559700Y-57165300D02*
X63415300Y-57309700D01*
X112275000Y-56725960D02*
X64620360Y-56725960D01*
X127952500Y-84772500D02*
X127952500Y-92904859D01*
X64620840Y-60299520D02*
X122803200Y-60299520D01*
X63415300Y-59715300D02*
X63560180Y-59860180D01*
X124500000Y-61996320D02*
X124500000Y-64262500D01*
X127073820Y-95026180D02*
X119737500Y-102362500D01*
X123190000Y-65722500D02*
X123190000Y-75997359D01*
X127073840Y-95026200D02*
G75*
G03*
X127952500Y-92904859I-2121340J2121300D01*
G01*
X63415312Y-57309712D02*
G75*
G03*
X62975960Y-58370360I1060688J-1060688D01*
G01*
X124499985Y-61996320D02*
G75*
G03*
X124060660Y-60935660I-1499985J20D01*
G01*
X123863856Y-60738864D02*
G75*
G03*
X122803200Y-60299520I-1060656J-1060636D01*
G01*
X62975944Y-58654640D02*
G75*
G03*
X63415300Y-59715300I1500056J40D01*
G01*
X113225670Y-55774350D02*
G75*
G03*
X113665000Y-54713680I-1060670J1060650D01*
G01*
X63560156Y-59860204D02*
G75*
G03*
X64620840Y-60299520I1060644J1060704D01*
G01*
X123190029Y-75997359D02*
G75*
G03*
X124068680Y-78118680I2999971J-41D01*
G01*
X64620360Y-56725944D02*
G75*
G03*
X63559700Y-57165300I40J-1500056D01*
G01*
%TO.N,col5*%
X130381753Y-57175480D02*
X64706569Y-57175480D01*
X143550000Y-61692767D02*
X143550000Y-64262500D01*
X132348883Y-55726117D02*
X131265636Y-56809364D01*
X143118680Y-78118680D02*
X148312500Y-83312500D01*
X142240000Y-65722500D02*
X142240000Y-75997359D01*
X132715000Y-46672500D02*
X132715000Y-54842233D01*
X63425480Y-58456569D02*
X63425480Y-58557713D01*
X63791597Y-59441597D02*
X63833884Y-59483884D01*
X63822685Y-57541597D02*
X63791595Y-57572687D01*
X146123820Y-95026180D02*
X138787500Y-102362500D01*
X142591117Y-60216117D02*
X143183884Y-60808884D01*
X147002500Y-84772500D02*
X147002500Y-92904859D01*
X64717767Y-59850000D02*
X141707233Y-59850000D01*
X130381753Y-57175452D02*
G75*
G03*
X131265636Y-56809364I47J1249952D01*
G01*
X63425477Y-58557713D02*
G75*
G03*
X63791597Y-59441597I1250023J13D01*
G01*
X63791606Y-57572698D02*
G75*
G03*
X63425480Y-58456569I883894J-883902D01*
G01*
X146123840Y-95026200D02*
G75*
G03*
X147002500Y-92904859I-2121340J2121300D01*
G01*
X63833901Y-59483867D02*
G75*
G03*
X64717767Y-59850000I883899J883867D01*
G01*
X142240029Y-75997359D02*
G75*
G03*
X143118680Y-78118680I2999971J-41D01*
G01*
X143550023Y-61692767D02*
G75*
G03*
X143183884Y-60808884I-1250023J-33D01*
G01*
X132348866Y-55726100D02*
G75*
G03*
X132715000Y-54842233I-883866J883900D01*
G01*
X64706569Y-57175464D02*
G75*
G03*
X63822685Y-57541597I31J-1250036D01*
G01*
X142591100Y-60216134D02*
G75*
G03*
X141707233Y-59850000I-883900J-883866D01*
G01*
%TO.N,col6*%
X64685660Y-59375000D02*
X160739340Y-59375000D01*
X162600000Y-61235660D02*
X162600000Y-64262500D01*
X151765000Y-46672500D02*
X151765000Y-55524340D01*
X64155330Y-57844670D02*
X64094670Y-57905330D01*
X149664340Y-57625000D02*
X64685660Y-57625000D01*
X161269670Y-59594670D02*
X162380330Y-60705330D01*
X162168680Y-78118680D02*
X167362500Y-83312500D01*
X151545330Y-56054670D02*
X150194670Y-57405330D01*
X161290000Y-65722500D02*
X161290000Y-75997359D01*
X64094670Y-59094670D02*
X64155330Y-59155330D01*
X63875000Y-58435660D02*
X63875000Y-58564340D01*
X64155350Y-59155310D02*
G75*
G03*
X64685660Y-59375000I530350J530310D01*
G01*
X149664340Y-57625028D02*
G75*
G03*
X150194670Y-57405330I-40J750028D01*
G01*
X151545310Y-56054650D02*
G75*
G03*
X151765000Y-55524340I-530310J530350D01*
G01*
X64685660Y-57624972D02*
G75*
G03*
X64155330Y-57844670I40J-750028D01*
G01*
X64094690Y-57905350D02*
G75*
G03*
X63875000Y-58435660I530310J-530350D01*
G01*
X161269650Y-59594690D02*
G75*
G03*
X160739340Y-59375000I-530350J-530310D01*
G01*
X161290029Y-75997359D02*
G75*
G03*
X162168680Y-78118680I2999971J-41D01*
G01*
X162600028Y-61235660D02*
G75*
G03*
X162380330Y-60705330I-750028J-40D01*
G01*
X63874972Y-58564340D02*
G75*
G03*
X64094670Y-59094670I750028J40D01*
G01*
%TO.N,col7*%
X173310660Y-57625000D02*
X276314340Y-57625000D01*
X184223820Y-95026180D02*
X176887500Y-102362500D01*
X170815000Y-46672500D02*
X170815000Y-55129340D01*
X277125000Y-58435660D02*
X277125000Y-58564340D01*
X171034670Y-55659670D02*
X172780330Y-57405330D01*
X276905330Y-59094670D02*
X276844670Y-59155330D01*
X185102500Y-84772500D02*
X185102500Y-92904859D01*
X181218680Y-78118680D02*
X186412500Y-83312500D01*
X180340000Y-65722500D02*
X180340000Y-75997359D01*
X181650000Y-61085660D02*
X181650000Y-64262500D01*
X276314340Y-59375000D02*
X183360660Y-59375000D01*
X182830330Y-59594670D02*
X181869670Y-60555330D01*
X276844670Y-57844670D02*
X276905330Y-57905330D01*
X184223840Y-95026200D02*
G75*
G03*
X185102500Y-92904859I-2121340J2121300D01*
G01*
X183360660Y-59374972D02*
G75*
G03*
X182830330Y-59594670I40J-750028D01*
G01*
X181869690Y-60555350D02*
G75*
G03*
X181650000Y-61085660I530310J-530350D01*
G01*
X276905310Y-59094650D02*
G75*
G03*
X277125000Y-58564340I-530310J530350D01*
G01*
X276314340Y-59375028D02*
G75*
G03*
X276844670Y-59155330I-40J750028D01*
G01*
X172780350Y-57405310D02*
G75*
G03*
X173310660Y-57625000I530350J530310D01*
G01*
X277125028Y-58435660D02*
G75*
G03*
X276905330Y-57905330I-750028J-40D01*
G01*
X170814972Y-55129340D02*
G75*
G03*
X171034670Y-55659670I750028J40D01*
G01*
X276844650Y-57844690D02*
G75*
G03*
X276314340Y-57625000I-530350J-530310D01*
G01*
X180340029Y-75997359D02*
G75*
G03*
X181218680Y-78118680I2999971J-41D01*
G01*
%TO.N,col8*%
X204152500Y-84772500D02*
X204152500Y-92904859D01*
X201558883Y-60191117D02*
X201066116Y-60683884D01*
X203273820Y-95026180D02*
X195937500Y-102362500D01*
X200700000Y-61567767D02*
X200700000Y-64262500D01*
X200268680Y-78118680D02*
X205462500Y-83312500D01*
X189865000Y-46672500D02*
X189865000Y-54772233D01*
X277575000Y-58457049D02*
X277575000Y-58542951D01*
X277208883Y-59426835D02*
X277176834Y-59458884D01*
X276292951Y-59825000D02*
X202442767Y-59825000D01*
X190231117Y-55656117D02*
X191383884Y-56808884D01*
X192267767Y-57175000D02*
X276292951Y-57175000D01*
X199390000Y-65722500D02*
X199390000Y-75997359D01*
X277176835Y-57541117D02*
X277208884Y-57573166D01*
X201066133Y-60683901D02*
G75*
G03*
X200700000Y-61567767I883867J-883899D01*
G01*
X276292951Y-59824965D02*
G75*
G03*
X277176834Y-59458884I49J1249965D01*
G01*
X277208907Y-59426859D02*
G75*
G03*
X277575000Y-58542951I-883907J883859D01*
G01*
X277574965Y-58457049D02*
G75*
G03*
X277208884Y-57573166I-1249965J49D01*
G01*
X202442767Y-59824977D02*
G75*
G03*
X201558883Y-60191117I33J-1250023D01*
G01*
X189864977Y-54772233D02*
G75*
G03*
X190231117Y-55656117I1250023J33D01*
G01*
X277176859Y-57541093D02*
G75*
G03*
X276292951Y-57175000I-883859J-883907D01*
G01*
X203273840Y-95026200D02*
G75*
G03*
X204152500Y-92904859I-2121340J2121300D01*
G01*
X199390029Y-75997359D02*
G75*
G03*
X200268680Y-78118680I2999971J-41D01*
G01*
X191383901Y-56808867D02*
G75*
G03*
X192267767Y-57175000I883899J883867D01*
G01*
%TO.N,col9*%
X222323820Y-95026180D02*
X214987500Y-102362500D01*
X211196320Y-56725000D02*
X276378680Y-56725000D01*
X208915000Y-46672500D02*
X208915000Y-54443680D01*
X278025000Y-58371320D02*
X278025000Y-58625116D01*
X276375116Y-60275000D02*
X221321320Y-60275000D01*
X219318680Y-78118680D02*
X224512500Y-83312500D01*
X209354340Y-55504340D02*
X210135660Y-56285660D01*
X223202500Y-84772500D02*
X223202500Y-92904859D01*
X218440000Y-65722500D02*
X218440000Y-75997359D01*
X220260660Y-60714340D02*
X220189340Y-60785660D01*
X219750000Y-61846320D02*
X219750000Y-64262500D01*
X277439340Y-57164340D02*
X277585660Y-57310660D01*
X277585660Y-59685776D02*
X277435776Y-59835660D01*
X276375116Y-60275011D02*
G75*
G03*
X277435776Y-59835660I-16J1500011D01*
G01*
X278024985Y-58371320D02*
G75*
G03*
X277585660Y-57310660I-1499985J20D01*
G01*
X221321320Y-60275015D02*
G75*
G03*
X220260660Y-60714340I-20J-1499985D01*
G01*
X208915015Y-54443680D02*
G75*
G03*
X209354340Y-55504340I1499985J-20D01*
G01*
X220189330Y-60785650D02*
G75*
G03*
X219750000Y-61846320I1060670J-1060650D01*
G01*
X277585652Y-59685768D02*
G75*
G03*
X278025000Y-58625116I-1060652J1060668D01*
G01*
X218440029Y-75997359D02*
G75*
G03*
X219318680Y-78118680I2999971J-41D01*
G01*
X277439350Y-57164330D02*
G75*
G03*
X276378680Y-56725000I-1060650J-1060670D01*
G01*
X222323840Y-95026200D02*
G75*
G03*
X223202500Y-92904859I-2121340J2121300D01*
G01*
X210135650Y-56285670D02*
G75*
G03*
X211196320Y-56725000I1060650J1060670D01*
G01*
%TO.N,col10*%
X277961957Y-57051240D02*
X277698761Y-56788044D01*
X276461324Y-56275480D02*
X230325354Y-56275480D01*
X241373820Y-95026180D02*
X234037500Y-102362500D01*
X229087917Y-55762917D02*
X228477563Y-55152563D01*
X277694717Y-60212437D02*
X277961957Y-59945197D01*
X237490000Y-65722500D02*
X237490000Y-75997359D01*
X240214214Y-60725000D02*
X276457280Y-60725000D01*
X238368680Y-78118680D02*
X243562500Y-83312500D01*
X238800000Y-64262500D02*
X238800000Y-62139214D01*
X242252500Y-84772500D02*
X242252500Y-92904859D01*
X278474520Y-58707760D02*
X278474520Y-58288676D01*
X239092893Y-61432107D02*
X239507107Y-61017893D01*
X227965000Y-53915126D02*
X227965000Y-46672500D01*
X237490029Y-75997359D02*
G75*
G03*
X238368680Y-78118680I2999971J-41D01*
G01*
X277961981Y-59945221D02*
G75*
G03*
X278474520Y-58707760I-1237481J1237421D01*
G01*
X276457280Y-60724986D02*
G75*
G03*
X277694717Y-60212437I20J1749986D01*
G01*
X227964982Y-53915126D02*
G75*
G03*
X228477563Y-55152563I1750018J26D01*
G01*
X239092886Y-61432100D02*
G75*
G03*
X238800000Y-62139214I707114J-707100D01*
G01*
X277698754Y-56788051D02*
G75*
G03*
X276461324Y-56275480I-1237454J-1237449D01*
G01*
X229087944Y-55762890D02*
G75*
G03*
X230325354Y-56275480I1237456J1237390D01*
G01*
X278474530Y-58288676D02*
G75*
G03*
X277961957Y-57051240I-1750030J-24D01*
G01*
X240214214Y-60725010D02*
G75*
G03*
X239507107Y-61017893I-14J-999990D01*
G01*
X241373840Y-95026200D02*
G75*
G03*
X242252500Y-92904859I-2121340J2121300D01*
G01*
%TO.N,col11*%
X269621573Y-117725000D02*
X254696320Y-117725000D01*
X252363286Y-111588286D02*
X253389213Y-112614213D01*
X256540000Y-65722500D02*
X256540000Y-75997359D01*
X257418680Y-78118680D02*
X262612500Y-83312500D01*
X254803427Y-113200000D02*
X269557291Y-113200000D01*
X251777500Y-103822500D02*
X251777500Y-110174073D01*
X271725000Y-115367709D02*
X271725000Y-115621573D01*
X248140174Y-55240174D02*
X247600787Y-54700787D01*
X260423820Y-95026180D02*
X253087500Y-102362500D01*
X270971504Y-113785786D02*
X271139213Y-113953495D01*
X276547533Y-55825960D02*
X249554387Y-55825960D01*
X278924040Y-58797533D02*
X278924040Y-58202467D01*
X271139214Y-117035786D02*
X271035787Y-117139213D01*
X253635660Y-118164340D02*
X253526840Y-118273160D01*
X258142893Y-61632107D02*
X258307107Y-61467893D01*
X261302500Y-84772500D02*
X261302500Y-92904859D01*
X278338254Y-56788254D02*
X277961747Y-56411747D01*
X277960786Y-60589214D02*
X278338253Y-60211747D01*
X253087500Y-119333820D02*
X253087500Y-121412500D01*
X247015000Y-53286573D02*
X247015000Y-46672500D01*
X259014214Y-61175000D02*
X276546573Y-61175000D01*
X257850000Y-64262500D02*
X257850000Y-62339214D01*
X276546573Y-61174980D02*
G75*
G03*
X277960785Y-60589213I27J1999980D01*
G01*
X247015020Y-53286573D02*
G75*
G03*
X247600788Y-54700786I1999980J-27D01*
G01*
X271139228Y-117035800D02*
G75*
G03*
X271725000Y-115621573I-1414228J1414200D01*
G01*
X259014214Y-61175010D02*
G75*
G03*
X258307107Y-61467893I-14J-999990D01*
G01*
X269621573Y-117724980D02*
G75*
G03*
X271035786Y-117139212I27J1999980D01*
G01*
X260423840Y-95026200D02*
G75*
G03*
X261302500Y-92904859I-2121340J2121300D01*
G01*
X278924051Y-58202467D02*
G75*
G03*
X278338254Y-56788254I-2000051J-33D01*
G01*
X248140189Y-55240159D02*
G75*
G03*
X249554387Y-55825960I1414211J1414159D01*
G01*
X270971509Y-113785781D02*
G75*
G03*
X269557291Y-113200000I-1414209J-1414219D01*
G01*
X251777520Y-110174073D02*
G75*
G03*
X252363287Y-111588285I1999980J-27D01*
G01*
X277961739Y-56411755D02*
G75*
G03*
X276547533Y-55825960I-1414239J-1414245D01*
G01*
X254696320Y-117725015D02*
G75*
G03*
X253635660Y-118164340I-20J-1499985D01*
G01*
X258142886Y-61632100D02*
G75*
G03*
X257850000Y-62339214I707114J-707100D01*
G01*
X278338245Y-60211739D02*
G75*
G03*
X278924040Y-58797533I-1414245J1414239D01*
G01*
X253526830Y-118273150D02*
G75*
G03*
X253087500Y-119333820I1060670J-1060650D01*
G01*
X256540029Y-75997359D02*
G75*
G03*
X257418680Y-78118680I2999971J-41D01*
G01*
X271724993Y-115367709D02*
G75*
G03*
X271139213Y-113953495I-1999993J9D01*
G01*
X253389199Y-112614227D02*
G75*
G03*
X254803427Y-113200000I1414201J1414227D01*
G01*
%TO.N,col12*%
X276900000Y-111625000D02*
X276900000Y-121412500D01*
X268358421Y-55376440D02*
X276644459Y-55376440D01*
X278235450Y-56035450D02*
X278714551Y-56514551D01*
X275590000Y-65722500D02*
X275590000Y-75997359D01*
X279373560Y-58105541D02*
X279373560Y-58880177D01*
X277971250Y-110553750D02*
X276900000Y-111625000D01*
X276900000Y-63217699D02*
X276900000Y-64262500D01*
X278714550Y-60471168D02*
X277559009Y-61626709D01*
X266065000Y-46672500D02*
X266065000Y-53083019D01*
X280352500Y-84772500D02*
X280352500Y-95649073D01*
X281189213Y-100454537D02*
X279281250Y-102362500D01*
X266724010Y-54674010D02*
X266767431Y-54717431D01*
X277971250Y-103822500D02*
X287496250Y-103822500D01*
X281775000Y-98728427D02*
X281775000Y-99040323D01*
X277971250Y-103822500D02*
X277971250Y-110553750D01*
X280938287Y-97063287D02*
X281189214Y-97314214D01*
X276468680Y-78118680D02*
X281662500Y-83312500D01*
X266064987Y-53083019D02*
G75*
G03*
X266724011Y-54674009I2250013J19D01*
G01*
X275590029Y-75997359D02*
G75*
G03*
X276468680Y-78118680I2999971J-41D01*
G01*
X277559010Y-61626710D02*
G75*
G03*
X276900000Y-63217699I1590990J-1590990D01*
G01*
X278714553Y-60471171D02*
G75*
G03*
X279373560Y-58880177I-1590953J1590971D01*
G01*
X266767412Y-54717450D02*
G75*
G03*
X268358421Y-55376440I1590988J1591050D01*
G01*
X281189202Y-100454526D02*
G75*
G03*
X281775000Y-99040323I-1414202J1414226D01*
G01*
X280352520Y-95649073D02*
G75*
G03*
X280938288Y-97063286I1999980J-27D01*
G01*
X278235462Y-56035438D02*
G75*
G03*
X276644459Y-55376440I-1590962J-1590962D01*
G01*
X279373543Y-58105541D02*
G75*
G03*
X278714551Y-56514551I-2249943J41D01*
G01*
X281774980Y-98728427D02*
G75*
G03*
X281189213Y-97314215I-1999980J27D01*
G01*
D29*
%TO.N,+1V1*%
X59406334Y-79968666D02*
X59406334Y-77357910D01*
X55425000Y-90175000D02*
X58500000Y-87100000D01*
X58500000Y-87100000D02*
X58500000Y-85350000D01*
X58225000Y-81150000D02*
X59406334Y-79968666D01*
D28*
%TO.N,+3V3*%
X79790000Y-78080000D02*
X74350000Y-78080000D01*
X85830000Y-71520000D02*
X85840000Y-71530000D01*
D29*
X56101122Y-75600000D02*
X52451920Y-75600000D01*
D28*
X111760000Y-86660000D02*
X110390000Y-88030000D01*
D29*
X52451920Y-75600000D02*
X52450960Y-75599040D01*
D28*
X111760000Y-78249059D02*
X111760000Y-86660000D01*
X82130000Y-78080000D02*
X79790000Y-78080000D01*
X74350000Y-78080000D02*
X72120000Y-75850000D01*
X79790000Y-78080000D02*
X79790000Y-81550000D01*
X73850000Y-78580000D02*
X73850000Y-86390000D01*
X79790000Y-81550000D02*
X79840000Y-81600000D01*
X85830000Y-69600000D02*
X85830000Y-71520000D01*
D29*
X58043412Y-73657710D02*
X56101122Y-75600000D01*
X45820000Y-79840000D02*
X48240000Y-79840000D01*
X48240000Y-79840000D02*
X48810000Y-79270000D01*
X39420000Y-80090000D02*
X40990000Y-80090000D01*
X40990000Y-80090000D02*
X41470000Y-80570000D01*
D28*
X73850000Y-86390000D02*
X72160000Y-88080000D01*
D30*
X59345702Y-74960000D02*
X58043412Y-73657710D01*
X61520000Y-74920000D02*
X61480000Y-74960000D01*
X61480000Y-74960000D02*
X59345702Y-74960000D01*
D28*
X74350000Y-78080000D02*
X73850000Y-78580000D01*
D29*
%TO.N,col13*%
X292325000Y-84838750D02*
X292258750Y-84772500D01*
X284075000Y-61675000D02*
X287350000Y-64950000D01*
X303250000Y-84375000D02*
X307975000Y-84375000D01*
X292325000Y-91100000D02*
X292325000Y-84838750D01*
X285125000Y-54650000D02*
X284075000Y-55700000D01*
X284075000Y-55700000D02*
X284075000Y-61675000D01*
X287350000Y-64950000D02*
X287350000Y-77093750D01*
X296406250Y-80475000D02*
X299350000Y-80475000D01*
X293568750Y-83312500D02*
X296406250Y-80475000D01*
X299350000Y-80475000D02*
X303250000Y-84375000D01*
X285125000Y-46682500D02*
X285125000Y-54650000D01*
X307975000Y-84375000D02*
X310075000Y-82275000D01*
X285115000Y-46672500D02*
X285125000Y-46682500D01*
X310075000Y-82275000D02*
X310075000Y-80306250D01*
X310075000Y-80306250D02*
X310093750Y-80287500D01*
X287350000Y-77093750D02*
X293568750Y-83312500D01*
D28*
%TO.N,col14*%
X305475000Y-93100000D02*
X305475000Y-102362500D01*
X303871320Y-61103680D02*
X300712500Y-64262500D01*
D29*
X304165000Y-103822500D02*
X304165000Y-107485000D01*
D28*
X304165000Y-46672500D02*
X304750000Y-47257500D01*
X304165000Y-46672500D02*
X294640000Y-46672500D01*
X312900000Y-70325000D02*
X312900000Y-85675000D01*
X304750000Y-47257500D02*
X304750000Y-58982359D01*
X312900000Y-85675000D02*
X305475000Y-93100000D01*
D29*
X304165000Y-107485000D02*
X300712500Y-110937500D01*
D28*
X302250000Y-65800000D02*
X308375000Y-65800000D01*
X308375000Y-65800000D02*
X312900000Y-70325000D01*
D29*
X300712500Y-110937500D02*
X300712500Y-121412500D01*
D28*
X300712500Y-64262500D02*
X302250000Y-65800000D01*
X303871340Y-61103700D02*
G75*
G03*
X304750000Y-58982359I-2121340J2121300D01*
G01*
D29*
%TO.N,W*%
X61172040Y-76257910D02*
X55055738Y-76257910D01*
X64380000Y-72620000D02*
X64380000Y-73049950D01*
X64380000Y-73049950D02*
X61172040Y-76257910D01*
X83830000Y-71830000D02*
X84375000Y-71285000D01*
X84375000Y-69755000D02*
X84200000Y-69580000D01*
X83525000Y-71525000D02*
X83830000Y-71830000D01*
X52984909Y-78328739D02*
X52984909Y-80559500D01*
X55055738Y-76257910D02*
X52984909Y-78328739D01*
X84375000Y-71285000D02*
X84375000Y-69755000D01*
X78825000Y-71525000D02*
X83525000Y-71525000D01*
%TO.N,A*%
X50740000Y-84642178D02*
X50740000Y-88370000D01*
X61340000Y-95950000D02*
X61215000Y-96075000D01*
X54092177Y-78070000D02*
X54420000Y-78070000D01*
X61215000Y-96075000D02*
X53810050Y-96075000D01*
X53420000Y-79925145D02*
X53726497Y-80231642D01*
X54420000Y-78070000D02*
X53420000Y-79070000D01*
X50670000Y-91640000D02*
X50670000Y-92934950D01*
X49090000Y-81570000D02*
X49090000Y-82992178D01*
X75700000Y-85800000D02*
X75700000Y-86226040D01*
X53420000Y-79070000D02*
X53420000Y-79925145D01*
X66390000Y-95536040D02*
X66390000Y-96050000D01*
X75700000Y-86226040D02*
X66390000Y-95536040D01*
X49090000Y-82992178D02*
X50740000Y-84642178D01*
X50670000Y-92934950D02*
X53810050Y-96075000D01*
X53958107Y-78204070D02*
X54092177Y-78070000D01*
%TO.N,S*%
X55559314Y-89475000D02*
X57072157Y-87962157D01*
X89560000Y-96780000D02*
X89240000Y-96780000D01*
X94620000Y-91720000D02*
X89560000Y-96780000D01*
X54325997Y-79531825D02*
X54638748Y-79844576D01*
X54589950Y-90589950D02*
X54589950Y-90020100D01*
X54589950Y-90020100D02*
X55135050Y-89475000D01*
X94620000Y-86300000D02*
X94620000Y-91720000D01*
X56220000Y-92220000D02*
X54589950Y-90589950D01*
X55135050Y-89475000D02*
X55559314Y-89475000D01*
X54638748Y-79844576D02*
X54638748Y-85148298D01*
X57072157Y-87962157D02*
X57072157Y-87581707D01*
%TO.N,D*%
X59696284Y-76657910D02*
X61559558Y-78521184D01*
X112940000Y-90920000D02*
X112585000Y-91275000D01*
X55114839Y-79015161D02*
X57472090Y-76657910D01*
X55047339Y-79015161D02*
X55114839Y-79015161D01*
X61559558Y-78521184D02*
X61559558Y-81379558D01*
X57472090Y-76657910D02*
X59696284Y-76657910D01*
X112940000Y-89225500D02*
X112940000Y-90920000D01*
X61559558Y-81379558D02*
X69880000Y-89700000D01*
%TD*%
M02*
