%TF.GenerationSoftware,KiCad,Pcbnew,7.0.9-7.0.9~ubuntu22.04.1*%
%TF.CreationDate,2023-11-09T12:16:25-08:00*%
%TF.ProjectId,SST60,53535436-302e-46b6-9963-61645f706362,0.1*%
%TF.SameCoordinates,Original*%
%TF.FileFunction,Copper,L2,Bot*%
%TF.FilePolarity,Positive*%
%FSLAX46Y46*%
G04 Gerber Fmt 4.6, Leading zero omitted, Abs format (unit mm)*
G04 Created by KiCad (PCBNEW 7.0.9-7.0.9~ubuntu22.04.1) date 2023-11-09 12:16:25*
%MOMM*%
%LPD*%
G01*
G04 APERTURE LIST*
G04 Aperture macros list*
%AMRoundRect*
0 Rectangle with rounded corners*
0 $1 Rounding radius*
0 $2 $3 $4 $5 $6 $7 $8 $9 X,Y pos of 4 corners*
0 Add a 4 corners polygon primitive as box body*
4,1,4,$2,$3,$4,$5,$6,$7,$8,$9,$2,$3,0*
0 Add four circle primitives for the rounded corners*
1,1,$1+$1,$2,$3*
1,1,$1+$1,$4,$5*
1,1,$1+$1,$6,$7*
1,1,$1+$1,$8,$9*
0 Add four rect primitives between the rounded corners*
20,1,$1+$1,$2,$3,$4,$5,0*
20,1,$1+$1,$4,$5,$6,$7,0*
20,1,$1+$1,$6,$7,$8,$9,0*
20,1,$1+$1,$8,$9,$2,$3,0*%
%AMHorizOval*
0 Thick line with rounded ends*
0 $1 width*
0 $2 $3 position (X,Y) of the first rounded end (center of the circle)*
0 $4 $5 position (X,Y) of the second rounded end (center of the circle)*
0 Add line between two ends*
20,1,$1,$2,$3,$4,$5,0*
0 Add two circle primitives to create the rounded ends*
1,1,$1,$2,$3*
1,1,$1,$4,$5*%
G04 Aperture macros list end*
%TA.AperFunction,ComponentPad*%
%ADD10HorizOval,2.250000X0.655008X0.729993X-0.655008X-0.729993X0*%
%TD*%
%TA.AperFunction,ComponentPad*%
%ADD11C,2.250000*%
%TD*%
%TA.AperFunction,ComponentPad*%
%ADD12HorizOval,2.250000X0.020004X0.290000X-0.020004X-0.290000X0*%
%TD*%
%TA.AperFunction,ComponentPad*%
%ADD13HorizOval,2.250000X0.655001X0.730000X-0.655001X-0.730000X0*%
%TD*%
%TA.AperFunction,ComponentPad*%
%ADD14HorizOval,2.250000X0.020000X0.290000X-0.020000X-0.290000X0*%
%TD*%
%TA.AperFunction,ComponentPad*%
%ADD15C,2.200000*%
%TD*%
%TA.AperFunction,ComponentPad*%
%ADD16C,1.000000*%
%TD*%
%TA.AperFunction,ComponentPad*%
%ADD17C,7.001300*%
%TD*%
%TA.AperFunction,ComponentPad*%
%ADD18C,7.000240*%
%TD*%
%TA.AperFunction,ComponentPad*%
%ADD19C,1.905000*%
%TD*%
%TA.AperFunction,ComponentPad*%
%ADD20R,1.905000X1.905000*%
%TD*%
%TA.AperFunction,SMDPad,CuDef*%
%ADD21R,0.700000X1.000000*%
%TD*%
%TA.AperFunction,SMDPad,CuDef*%
%ADD22R,0.700000X0.600000*%
%TD*%
%TA.AperFunction,SMDPad,CuDef*%
%ADD23R,1.000000X1.700000*%
%TD*%
%TA.AperFunction,SMDPad,CuDef*%
%ADD24R,1.200000X0.900000*%
%TD*%
%TA.AperFunction,SMDPad,CuDef*%
%ADD25RoundRect,0.140000X-0.170000X0.140000X-0.170000X-0.140000X0.170000X-0.140000X0.170000X0.140000X0*%
%TD*%
%TA.AperFunction,SMDPad,CuDef*%
%ADD26RoundRect,0.175000X0.175000X0.175000X-0.175000X0.175000X-0.175000X-0.175000X0.175000X-0.175000X0*%
%TD*%
%TA.AperFunction,SMDPad,CuDef*%
%ADD27R,0.700000X0.700000*%
%TD*%
%TA.AperFunction,SMDPad,CuDef*%
%ADD28R,0.900000X1.200000*%
%TD*%
%TA.AperFunction,SMDPad,CuDef*%
%ADD29RoundRect,0.175000X-0.175000X-0.175000X0.175000X-0.175000X0.175000X0.175000X-0.175000X0.175000X0*%
%TD*%
%TA.AperFunction,SMDPad,CuDef*%
%ADD30RoundRect,0.140000X0.170000X-0.140000X0.170000X0.140000X-0.170000X0.140000X-0.170000X-0.140000X0*%
%TD*%
%TA.AperFunction,SMDPad,CuDef*%
%ADD31RoundRect,0.140000X0.140000X0.170000X-0.140000X0.170000X-0.140000X-0.170000X0.140000X-0.170000X0*%
%TD*%
%TA.AperFunction,SMDPad,CuDef*%
%ADD32RoundRect,0.150000X0.150000X-0.587500X0.150000X0.587500X-0.150000X0.587500X-0.150000X-0.587500X0*%
%TD*%
%TA.AperFunction,SMDPad,CuDef*%
%ADD33RoundRect,0.175000X-0.175000X0.175000X-0.175000X-0.175000X0.175000X-0.175000X0.175000X0.175000X0*%
%TD*%
%TA.AperFunction,SMDPad,CuDef*%
%ADD34RoundRect,0.135000X0.185000X-0.135000X0.185000X0.135000X-0.185000X0.135000X-0.185000X-0.135000X0*%
%TD*%
%TA.AperFunction,SMDPad,CuDef*%
%ADD35RoundRect,0.135000X0.135000X0.185000X-0.135000X0.185000X-0.135000X-0.185000X0.135000X-0.185000X0*%
%TD*%
%TA.AperFunction,SMDPad,CuDef*%
%ADD36R,0.600000X1.450000*%
%TD*%
%TA.AperFunction,SMDPad,CuDef*%
%ADD37R,0.300000X1.450000*%
%TD*%
%TA.AperFunction,ComponentPad*%
%ADD38O,1.000000X1.600000*%
%TD*%
%TA.AperFunction,ComponentPad*%
%ADD39O,1.000000X2.100000*%
%TD*%
%TA.AperFunction,SMDPad,CuDef*%
%ADD40RoundRect,0.050000X0.387500X0.050000X-0.387500X0.050000X-0.387500X-0.050000X0.387500X-0.050000X0*%
%TD*%
%TA.AperFunction,SMDPad,CuDef*%
%ADD41RoundRect,0.050000X0.050000X0.387500X-0.050000X0.387500X-0.050000X-0.387500X0.050000X-0.387500X0*%
%TD*%
%TA.AperFunction,ComponentPad*%
%ADD42C,0.600000*%
%TD*%
%TA.AperFunction,SMDPad,CuDef*%
%ADD43RoundRect,0.144000X1.456000X1.456000X-1.456000X1.456000X-1.456000X-1.456000X1.456000X-1.456000X0*%
%TD*%
%TA.AperFunction,ComponentPad*%
%ADD44R,1.700000X1.700000*%
%TD*%
%TA.AperFunction,ComponentPad*%
%ADD45O,1.700000X1.700000*%
%TD*%
%TA.AperFunction,SMDPad,CuDef*%
%ADD46RoundRect,0.135000X-0.185000X0.135000X-0.185000X-0.135000X0.185000X-0.135000X0.185000X0.135000X0*%
%TD*%
%TA.AperFunction,SMDPad,CuDef*%
%ADD47R,1.700000X1.000000*%
%TD*%
%TA.AperFunction,SMDPad,CuDef*%
%ADD48RoundRect,0.150000X-0.625000X0.150000X-0.625000X-0.150000X0.625000X-0.150000X0.625000X0.150000X0*%
%TD*%
%TA.AperFunction,SMDPad,CuDef*%
%ADD49RoundRect,0.250000X-0.650000X0.350000X-0.650000X-0.350000X0.650000X-0.350000X0.650000X0.350000X0*%
%TD*%
%TA.AperFunction,SMDPad,CuDef*%
%ADD50RoundRect,0.135000X-0.135000X-0.185000X0.135000X-0.185000X0.135000X0.185000X-0.135000X0.185000X0*%
%TD*%
%TA.AperFunction,SMDPad,CuDef*%
%ADD51RoundRect,0.175000X0.175000X-0.175000X0.175000X0.175000X-0.175000X0.175000X-0.175000X-0.175000X0*%
%TD*%
%TA.AperFunction,SMDPad,CuDef*%
%ADD52R,1.400000X1.200000*%
%TD*%
%TA.AperFunction,SMDPad,CuDef*%
%ADD53RoundRect,0.150000X-0.512500X-0.150000X0.512500X-0.150000X0.512500X0.150000X-0.512500X0.150000X0*%
%TD*%
%TA.AperFunction,SMDPad,CuDef*%
%ADD54RoundRect,0.150000X-0.150000X0.650000X-0.150000X-0.650000X0.150000X-0.650000X0.150000X0.650000X0*%
%TD*%
%TA.AperFunction,SMDPad,CuDef*%
%ADD55RoundRect,0.243750X-0.456250X0.243750X-0.456250X-0.243750X0.456250X-0.243750X0.456250X0.243750X0*%
%TD*%
%TA.AperFunction,SMDPad,CuDef*%
%ADD56RoundRect,0.140000X-0.219203X-0.021213X-0.021213X-0.219203X0.219203X0.021213X0.021213X0.219203X0*%
%TD*%
%TA.AperFunction,ViaPad*%
%ADD57C,0.800000*%
%TD*%
%TA.AperFunction,ViaPad*%
%ADD58C,0.600000*%
%TD*%
%TA.AperFunction,Conductor*%
%ADD59C,0.250000*%
%TD*%
%TA.AperFunction,Conductor*%
%ADD60C,0.200000*%
%TD*%
%TA.AperFunction,Conductor*%
%ADD61C,0.500000*%
%TD*%
G04 APERTURE END LIST*
D10*
%TO.P,1.25U,1,COL*%
%TO.N,col14*%
X302545008Y-122160007D03*
D11*
X303200000Y-121430000D03*
D12*
%TO.P,1.25U,2,ROW*%
%TO.N,Net-(D68-Pad2)*%
X308220004Y-120640000D03*
D11*
X308240000Y-120350000D03*
%TD*%
D10*
%TO.P,1.25U,1,COL*%
%TO.N,col12*%
X278645008Y-122160007D03*
D11*
X279300000Y-121430000D03*
D12*
%TO.P,1.25U,2,ROW*%
%TO.N,Net-(D62-Pad2)*%
X284320004Y-120640000D03*
D11*
X284340000Y-120350000D03*
%TD*%
D10*
%TO.P,1.25U,1,COL*%
%TO.N,col11*%
X254805008Y-122220007D03*
D11*
X255460000Y-121490000D03*
D12*
%TO.P,1.25U,2,ROW*%
%TO.N,Net-(D57-Pad2)*%
X260480004Y-120700000D03*
D11*
X260500000Y-120410000D03*
%TD*%
D10*
%TO.P,1.25U,1,COL*%
%TO.N,col10*%
X231085008Y-122160007D03*
D11*
X231740000Y-121430000D03*
D12*
%TO.P,1.25U,2,ROW*%
%TO.N,Net-(D52-Pad2)*%
X236760004Y-120640000D03*
D11*
%TO.P,1.25U,d52,ROW*%
X236780000Y-120350000D03*
%TD*%
D13*
%TO.P,Small Split,1,COL*%
%TO.N,col10*%
X228620001Y-122142500D03*
D11*
X229275000Y-121412500D03*
D14*
%TO.P,Small Split,2,ROW*%
%TO.N,Net-(D52-Pad2)*%
X234295000Y-120622500D03*
D11*
X234315000Y-120332500D03*
%TD*%
D13*
%TO.P,N,1,COL*%
%TO.N,col7*%
X176232501Y-103092500D03*
D11*
X176887500Y-102362500D03*
D14*
%TO.P,N,2,ROW*%
%TO.N,Net-(D37-Pad2)*%
X181907500Y-101572500D03*
D11*
X181927500Y-101282500D03*
%TD*%
D15*
%TO.P,REF\u002A\u002A,1*%
%TO.N,Net-(D38-Pad2)*%
X165530000Y-120350000D03*
%TO.P,REF\u002A\u002A,col*%
%TO.N,col7*%
X159180000Y-122890000D03*
%TD*%
D10*
%TO.P,1.25U,1,COL*%
%TO.N,col2*%
X88355008Y-122180007D03*
D11*
X89010000Y-121450000D03*
D12*
%TO.P,1.25U,2,ROW*%
%TO.N,Net-(D15-Pad2)*%
X94030004Y-120660000D03*
D11*
X94050000Y-120370000D03*
%TD*%
D10*
%TO.P,1.25U,1,COL*%
%TO.N,col1*%
X64435008Y-122180007D03*
D11*
%TO.P,1.25U,*%
X65090000Y-121450000D03*
D12*
%TO.P,1.25U,2,ROW*%
%TO.N,Net-(D10-Pad2)*%
X70110004Y-120660000D03*
D11*
X70130000Y-120370000D03*
%TD*%
D10*
%TO.P,1.25U,1,COL*%
%TO.N,col0*%
X40595008Y-122060007D03*
D11*
X41250000Y-121330000D03*
D12*
%TO.P,1.25U,2,ROW*%
%TO.N,Net-(D5-Pad2)*%
X46270004Y-120540000D03*
D11*
X46290000Y-120250000D03*
%TD*%
D13*
%TO.P,2,1,COL*%
%TO.N,N/C*%
X157165001Y-103110000D03*
D11*
X157820000Y-102380000D03*
D14*
%TO.P,2,2,ROW*%
X162840000Y-101590000D03*
D11*
X162860000Y-101300000D03*
%TD*%
D13*
%TO.P,2,1,COL*%
%TO.N,N/C*%
X57195001Y-45920000D03*
D11*
X57850000Y-45190000D03*
D14*
%TO.P,2,2,ROW*%
X62870000Y-44400000D03*
D11*
X62890000Y-44110000D03*
%TD*%
D13*
%TO.P,1.50u,1,COL*%
%TO.N,col0*%
X42882501Y-122142500D03*
D11*
X43537500Y-121412500D03*
D14*
%TO.P,1.50u,2,ROW*%
%TO.N,Net-(D5-Pad2)*%
X48557500Y-120622500D03*
D11*
X48577500Y-120332500D03*
%TD*%
D13*
%TO.P,T,1,COL*%
%TO.N,col5*%
X142895001Y-64992500D03*
D11*
X143550000Y-64262500D03*
D14*
%TO.P,T,2,ROW*%
%TO.N,Net-(D26-Pad2)*%
X148570000Y-63472500D03*
D11*
X148590000Y-63182500D03*
%TD*%
D13*
%TO.P,Tab,1,COL*%
%TO.N,col0*%
X42882501Y-64992500D03*
D11*
X43537500Y-64262500D03*
D14*
%TO.P,Tab,2,ROW*%
%TO.N,Net-(D2-Pad2)*%
X48557500Y-63472500D03*
D11*
X48577500Y-63182500D03*
%TD*%
D13*
%TO.P,[,1,COL*%
%TO.N,col11*%
X257195001Y-64992500D03*
D11*
X257850000Y-64262500D03*
D14*
%TO.P,[,2,ROW*%
%TO.N,Net-(D54-Pad2)*%
X262870000Y-63472500D03*
D11*
X262890000Y-63182500D03*
%TD*%
D13*
%TO.P,1.50u,1,COL*%
%TO.N,col11*%
X252432501Y-122142500D03*
D11*
X253087500Y-121412500D03*
D14*
%TO.P,1.50u,2,ROW*%
%TO.N,Net-(D57-Pad2)*%
X258107500Y-120622500D03*
D11*
X258127500Y-120332500D03*
%TD*%
D13*
%TO.P,R,1,COL*%
%TO.N,col4*%
X123845001Y-64992500D03*
D11*
X124500000Y-64262500D03*
D14*
%TO.P,R,2,ROW*%
%TO.N,Net-(D21-Pad2)*%
X129520000Y-63472500D03*
D11*
X129540000Y-63182500D03*
%TD*%
D13*
%TO.P,<,1,COL*%
%TO.N,col9*%
X214332501Y-103092500D03*
D11*
X214987500Y-102362500D03*
D14*
%TO.P,<,2,ROW*%
%TO.N,Net-(D46-Pad2)*%
X220007500Y-101572500D03*
D11*
X220027500Y-101282500D03*
%TD*%
D13*
%TO.P,Stepped,1,COL*%
%TO.N,col0*%
X40501251Y-84042500D03*
D11*
X41156250Y-83312500D03*
D14*
%TO.P,Stepped,2,ROW*%
%TO.N,Net-(D3-Pad2)*%
X46176250Y-82522500D03*
D11*
X46196250Y-82232500D03*
%TD*%
D13*
%TO.P,S,1,COL*%
%TO.N,col2*%
X90507501Y-84042500D03*
D11*
X91162500Y-83312500D03*
D14*
%TO.P,S,2,ROW*%
%TO.N,Net-(D14-Pad2)*%
X96182500Y-82522500D03*
D11*
X96202500Y-82232500D03*
%TD*%
D13*
%TO.P,H,1,COL*%
%TO.N,col6*%
X166707501Y-84042500D03*
D11*
X167362500Y-83312500D03*
D14*
%TO.P,H,2,ROW*%
%TO.N,Net-(D32-Pad2)*%
X172382500Y-82522500D03*
D11*
X172402500Y-82232500D03*
%TD*%
D13*
%TO.P,D,1,COL*%
%TO.N,col3*%
X109557501Y-84042500D03*
D11*
X110212500Y-83312500D03*
D14*
%TO.P,D,2,ROW*%
%TO.N,Net-(D18-Pad2)*%
X115232500Y-82522500D03*
D11*
X115252500Y-82232500D03*
%TD*%
D13*
%TO.P,J,1,COL*%
%TO.N,col7*%
X185757501Y-84042500D03*
D11*
X186412500Y-83312500D03*
D14*
%TO.P,J,2,ROW*%
%TO.N,Net-(D36-Pad2)*%
X191432500Y-82522500D03*
D11*
X191452500Y-82232500D03*
%TD*%
D13*
%TO.P,Z,1,COL*%
%TO.N,col2*%
X80982501Y-103092500D03*
D11*
X81637500Y-102362500D03*
D14*
%TO.P,Z,2,ROW*%
%TO.N,Net-(D11-Pad2)*%
X86657500Y-101572500D03*
D11*
X86677500Y-101282500D03*
%TD*%
D13*
%TO.P,Split,1,COL*%
%TO.N,col14*%
X304820001Y-103092500D03*
D11*
X305475000Y-102362500D03*
D14*
%TO.P,Split,2,ROW*%
%TO.N,Net-(D67-Pad2)*%
X310495000Y-101572500D03*
D11*
X310515000Y-101282500D03*
%TD*%
D13*
%TO.P,W,1,COL*%
%TO.N,col2*%
X85745001Y-64992500D03*
D11*
X86400000Y-64262500D03*
D14*
%TO.P,W,2,ROW*%
%TO.N,Net-(D13-Pad2)*%
X91420000Y-63472500D03*
D11*
X91440000Y-63182500D03*
%TD*%
D13*
%TO.P,-,1,COL*%
%TO.N,col11*%
X247670001Y-45942500D03*
D11*
X248325000Y-45212500D03*
D14*
%TO.P,-,2,ROW*%
%TO.N,Net-(D53-Pad2)*%
X253345000Y-44422500D03*
D11*
X253365000Y-44132500D03*
%TD*%
D13*
%TO.P,Split,1,COL*%
%TO.N,col12*%
X278626251Y-103092500D03*
D11*
X279281250Y-102362500D03*
D14*
%TO.P,Split,2,ROW*%
%TO.N,Net-(D61-Pad2)*%
X284301250Y-101572500D03*
D11*
X284321250Y-101282500D03*
%TD*%
D13*
%TO.P,V,1,COL*%
%TO.N,col5*%
X138132501Y-103092500D03*
D11*
X138787500Y-102362500D03*
D14*
%TO.P,V,2,ROW*%
%TO.N,Net-(D28-Pad2)*%
X143807500Y-101572500D03*
D11*
X143827500Y-101282500D03*
%TD*%
%TO.P,X,2,ROW*%
%TO.N,Net-(D19-Pad2)*%
X105727500Y-101282500D03*
D14*
X105707500Y-101572500D03*
D11*
%TO.P,X,1,COL*%
%TO.N,col3*%
X100687500Y-102362500D03*
D13*
X100032501Y-103092500D03*
%TD*%
%TO.P,1u,1,COL*%
%TO.N,col12*%
X276245001Y-122142500D03*
D11*
X276900000Y-121412500D03*
D14*
%TO.P,1u,2,ROW*%
%TO.N,Net-(D62-Pad2)*%
X281920000Y-120622500D03*
D11*
X281940000Y-120332500D03*
%TD*%
D13*
%TO.P,5,1,COL*%
%TO.N,col5*%
X133370001Y-45942500D03*
D11*
X134025000Y-45212500D03*
D14*
%TO.P,5,2,ROW*%
%TO.N,Net-(D25-Pad2)*%
X139045000Y-44422500D03*
D11*
X139065000Y-44132500D03*
%TD*%
D16*
%TO.P,H1,1,1*%
%TO.N,GND*%
X55036250Y-68031250D03*
X55709904Y-66404904D03*
X55709904Y-69657596D03*
X57336250Y-65731250D03*
D17*
X57336250Y-68031250D03*
D16*
X57336250Y-70331250D03*
X58962596Y-66404904D03*
X58962596Y-69657596D03*
X59636250Y-68031250D03*
%TO.N,N/C*%
X292186250Y-65731250D03*
X292186250Y-70331250D03*
D18*
%TO.P,H1,2*%
X160336250Y-87131250D03*
%TO.P,H1,3*%
X222636250Y-125331250D03*
D16*
X293635250Y-70413250D03*
%TO.P,H1,4*%
X290714250Y-70413250D03*
D18*
X292186250Y-68031250D03*
D16*
%TO.P,H1,5*%
X290841250Y-65714250D03*
%TO.P,H1,6*%
X293635250Y-65714250D03*
%TD*%
D13*
%TO.P,G,1,COL*%
%TO.N,col5*%
X147657501Y-84042500D03*
D11*
X148312500Y-83312500D03*
D14*
%TO.P,G,2,ROW*%
%TO.N,Net-(D27-Pad2)*%
X153332500Y-82522500D03*
D11*
X153352500Y-82232500D03*
%TD*%
D13*
%TO.P,:,1,COL*%
%TO.N,col10*%
X242907501Y-84042500D03*
D11*
X243562500Y-83312500D03*
D14*
%TO.P,:,2,ROW*%
%TO.N,Net-(D50-Pad2)*%
X248582500Y-82522500D03*
D11*
X248602500Y-82232500D03*
%TD*%
D13*
%TO.P,8,1,COL*%
%TO.N,col8*%
X190520001Y-45942500D03*
D11*
X191175000Y-45212500D03*
D14*
%TO.P,8,2,ROW*%
%TO.N,Net-(D39-Pad2)*%
X196195000Y-44422500D03*
D11*
X196215000Y-44132500D03*
%TD*%
D13*
%TO.P,P,1,COL*%
%TO.N,col10*%
X238145001Y-64992500D03*
D11*
X238800000Y-64262500D03*
D14*
%TO.P,P,2,ROW*%
%TO.N,Net-(D49-Pad2)*%
X243820000Y-63472500D03*
D11*
X243840000Y-63182500D03*
%TD*%
D13*
%TO.P,Q,1,COL*%
%TO.N,col1*%
X66695001Y-64992500D03*
D11*
X67350000Y-64262500D03*
D14*
%TO.P,Q,2,ROW*%
%TO.N,Net-(D7-Pad2)*%
X72370000Y-63472500D03*
D11*
X72390000Y-63182500D03*
%TD*%
D13*
%TO.P,Y,1,COL*%
%TO.N,col6*%
X161945001Y-64992500D03*
D11*
X162600000Y-64262500D03*
D14*
%TO.P,Y,2,ROW*%
%TO.N,Net-(D31-Pad2)*%
X167620000Y-63472500D03*
D11*
X167640000Y-63182500D03*
%TD*%
D13*
%TO.P,],1,COL*%
%TO.N,col12*%
X276245001Y-64992500D03*
D11*
X276900000Y-64262500D03*
D14*
%TO.P,],2,ROW*%
%TO.N,Net-(D59-Pad2)*%
X281920000Y-63472500D03*
D11*
X281940000Y-63182500D03*
%TD*%
D13*
%TO.P,1u/7u/10u,1,COL*%
%TO.N,col7*%
X171470001Y-122142500D03*
D11*
X172125000Y-121412500D03*
D14*
%TO.P,1u/7u/10u,2,ROW*%
%TO.N,Net-(D38-Pad2)*%
X177145000Y-120622500D03*
D11*
X177165000Y-120332500D03*
%TD*%
D13*
%TO.P,9,1,COL*%
%TO.N,col9*%
X209570001Y-45942500D03*
D11*
X210225000Y-45212500D03*
D14*
%TO.P,9,2,ROW*%
%TO.N,Net-(D43-Pad2)*%
X215245000Y-44422500D03*
D11*
X215265000Y-44132500D03*
%TD*%
D13*
%TO.P,ISO,1,COL*%
%TO.N,col1*%
X61932501Y-103092500D03*
D11*
X62587500Y-102362500D03*
D14*
%TO.P,ISO,2,ROW*%
%TO.N,Net-(D9-Pad2)*%
X67607500Y-101572500D03*
D11*
X67627500Y-101282500D03*
%TD*%
D13*
%TO.P,>,1,COL*%
%TO.N,col10*%
X233382501Y-103092500D03*
D11*
X234037500Y-102362500D03*
D14*
%TO.P,>,2,ROW*%
%TO.N,Net-(D51-Pad2)*%
X239057500Y-101572500D03*
D11*
X239077500Y-101282500D03*
%TD*%
D13*
%TO.P,Full,1,COL*%
%TO.N,col12*%
X288151251Y-103092500D03*
D11*
X288806250Y-102362500D03*
D14*
%TO.P,Full,2,ROW*%
%TO.N,Net-(D61-Pad2)*%
X293826250Y-101572500D03*
D11*
X293846250Y-101282500D03*
%TD*%
D13*
%TO.P,C,1,COL*%
%TO.N,col4*%
X119082501Y-103092500D03*
D11*
X119737500Y-102362500D03*
D14*
%TO.P,C,2,ROW*%
%TO.N,Net-(D23-Pad2)*%
X124757500Y-101572500D03*
D11*
X124777500Y-101282500D03*
%TD*%
D13*
%TO.P,E,1,COL*%
%TO.N,col3*%
X104795001Y-64992500D03*
D11*
X105450000Y-64262500D03*
D14*
%TO.P,E,2,ROW*%
%TO.N,Net-(D17-Pad2)*%
X110470000Y-63472500D03*
D11*
X110490000Y-63182500D03*
%TD*%
D13*
%TO.P,ANSI,1,COL*%
%TO.N,col13*%
X292913751Y-84042500D03*
D11*
X293568750Y-83312500D03*
D14*
%TO.P,ANSI,2,ROW*%
%TO.N,Net-(D64-Pad2)*%
X298588750Y-82522500D03*
D11*
X298608750Y-82232500D03*
%TD*%
D13*
%TO.P,A,1,COL*%
%TO.N,col1*%
X71457501Y-84042500D03*
D11*
X72112500Y-83312500D03*
D14*
%TO.P,A,2,ROW*%
%TO.N,Net-(D8-Pad2)*%
X77132500Y-82522500D03*
D11*
X77152500Y-82232500D03*
%TD*%
D13*
%TO.P,Split,1,COL*%
%TO.N,col14*%
X304820001Y-45942500D03*
D11*
X305475000Y-45212500D03*
D14*
%TO.P,Split,2,ROW*%
%TO.N,Net-(D65-Pad2)*%
X310495000Y-44422500D03*
D11*
X310515000Y-44132500D03*
%TD*%
D13*
%TO.P,0,1,COL*%
%TO.N,col10*%
X228620001Y-45942500D03*
D11*
X229275000Y-45212500D03*
D14*
%TO.P,0,2,ROW*%
%TO.N,Net-(D48-Pad2)*%
X234295000Y-44422500D03*
D11*
X234315000Y-44132500D03*
%TD*%
D13*
%TO.P,L,1,COL*%
%TO.N,col9*%
X223857501Y-84042500D03*
D11*
X224512500Y-83312500D03*
D14*
%TO.P,L,2,ROW*%
%TO.N,Net-(D45-Pad2)*%
X229532500Y-82522500D03*
D11*
X229552500Y-82232500D03*
%TD*%
D13*
%TO.P,I,1,COL*%
%TO.N,col8*%
X200045001Y-64992500D03*
D11*
X200700000Y-64262500D03*
D14*
%TO.P,I,2,ROW*%
%TO.N,Net-(D40-Pad2)*%
X205720000Y-63472500D03*
D11*
X205740000Y-63182500D03*
%TD*%
D13*
%TO.P,M,1,COL*%
%TO.N,col8*%
X195282501Y-103092500D03*
D11*
X195937500Y-102362500D03*
D14*
%TO.P,M,2,ROW*%
%TO.N,Net-(D42-Pad2)*%
X200957500Y-101572500D03*
D11*
X200977500Y-101282500D03*
%TD*%
D13*
%TO.P,Full,1,COL*%
%TO.N,col14*%
X295295001Y-45942500D03*
D11*
X295950000Y-45212500D03*
D14*
%TO.P,Full,2,ROW*%
%TO.N,Net-(D65-Pad2)*%
X300970000Y-44422500D03*
D11*
X300990000Y-44132500D03*
%TD*%
D13*
%TO.P,?,1,COL*%
%TO.N,col11*%
X252432501Y-103092500D03*
D11*
X253087500Y-102362500D03*
D14*
%TO.P,?,2,ROW*%
%TO.N,Net-(D56-Pad2)*%
X258107500Y-101572500D03*
D11*
X258127500Y-101282500D03*
%TD*%
D13*
%TO.P,F,1,COL*%
%TO.N,col4*%
X128607501Y-84042500D03*
D11*
X129262500Y-83312500D03*
D14*
%TO.P,F,2,ROW*%
%TO.N,Net-(D22-Pad2)*%
X134282500Y-82522500D03*
D11*
X134302500Y-82232500D03*
%TD*%
D13*
%TO.P,1u,1,COL*%
%TO.N,col1*%
X66695001Y-122142500D03*
D11*
X67350000Y-121412500D03*
D14*
%TO.P,1u,2,ROW*%
%TO.N,Net-(D10-Pad2)*%
X72370000Y-120622500D03*
D11*
X72390000Y-120332500D03*
%TD*%
D13*
%TO.P,3,1,COL*%
%TO.N,col3*%
X95270001Y-45942500D03*
D11*
X95925000Y-45212500D03*
D14*
%TO.P,3,2,ROW*%
%TO.N,Net-(D16-Pad2)*%
X100945000Y-44422500D03*
D11*
X100965000Y-44132500D03*
%TD*%
D13*
%TO.P,6,1,COL*%
%TO.N,col6*%
X152420001Y-45942500D03*
D11*
X153075000Y-45212500D03*
D14*
%TO.P,6,2,ROW*%
%TO.N,Net-(D30-Pad2)*%
X158095000Y-44422500D03*
D11*
X158115000Y-44132500D03*
%TD*%
D13*
%TO.P,",1,COL*%
%TO.N,col11*%
X261957501Y-84042500D03*
D11*
X262612500Y-83312500D03*
D14*
%TO.P,",2,ROW*%
%TO.N,Net-(D55-Pad2)*%
X267632500Y-82522500D03*
D11*
X267652500Y-82232500D03*
%TD*%
D13*
%TO.P,Esc,1,COL*%
%TO.N,col0*%
X38120001Y-45942500D03*
D11*
X38775000Y-45212500D03*
D14*
%TO.P,Esc,2,ROW*%
%TO.N,Net-(D1-Pad2)*%
X43795000Y-44422500D03*
D11*
X43815000Y-44132500D03*
D19*
%TO.P,Esc,3,LED*%
%TO.N,Net-(MX3-Pad3)*%
X40005000Y-54292500D03*
D20*
%TO.P,Esc,4,LEDGND*%
%TO.N,GND*%
X42545000Y-54292500D03*
%TD*%
D13*
%TO.P,1.50u,1,COL*%
%TO.N,col2*%
X90507501Y-122142500D03*
D11*
X91162500Y-121412500D03*
D14*
%TO.P,1.50u,2,ROW*%
%TO.N,Net-(D15-Pad2)*%
X96182500Y-120622500D03*
D11*
X96202500Y-120332500D03*
%TD*%
D13*
%TO.P,=,1,COL*%
%TO.N,col12*%
X266720001Y-45942500D03*
D11*
X267375000Y-45212500D03*
D14*
%TO.P,=,2,ROW*%
%TO.N,Net-(D58-Pad2)*%
X272395000Y-44422500D03*
D11*
X272415000Y-44132500D03*
%TD*%
D13*
%TO.P,Split,1,COL*%
%TO.N,col13*%
X285770001Y-45942500D03*
D11*
X286425000Y-45212500D03*
D14*
%TO.P,Split,2,ROW*%
%TO.N,Net-(D63-Pad2)*%
X291445000Y-44422500D03*
D11*
X291465000Y-44132500D03*
%TD*%
D13*
%TO.P,K,1,COL*%
%TO.N,col8*%
X204807501Y-84042500D03*
D11*
X205462500Y-83312500D03*
D14*
%TO.P,K,2,ROW*%
%TO.N,Net-(D41-Pad2)*%
X210482500Y-82522500D03*
D11*
X210502500Y-82232500D03*
%TD*%
D13*
%TO.P,ISO,1,COL*%
%TO.N,col0*%
X40501251Y-103092500D03*
D11*
X41156250Y-102362500D03*
D14*
%TO.P,ISO,2,ROW*%
%TO.N,Net-(D4-Pad2)*%
X46176250Y-101572500D03*
D11*
X46196250Y-101282500D03*
%TD*%
D13*
%TO.P,2,1,COL*%
%TO.N,col2*%
X76220001Y-45942500D03*
D11*
X76875000Y-45212500D03*
D14*
%TO.P,2,2,ROW*%
%TO.N,Net-(D12-Pad2)*%
X81895000Y-44422500D03*
D11*
X81915000Y-44132500D03*
%TD*%
D13*
%TO.P,ANSI,1,COL*%
%TO.N,col14*%
X300057501Y-64992500D03*
D11*
X300712500Y-64262500D03*
D14*
%TO.P,ANSI,2,ROW*%
%TO.N,Net-(D66-Pad2)*%
X305732500Y-63472500D03*
D11*
X305752500Y-63182500D03*
%TD*%
D10*
%TO.P,Full,1,ROW*%
%TO.N,Net-(D3-Pad2)*%
X45263758Y-84042507D03*
D11*
X45918750Y-83312500D03*
D12*
%TO.P,Full,2,COL*%
%TO.N,col0*%
X50938754Y-82522500D03*
D11*
X50958750Y-82232500D03*
%TD*%
D13*
%TO.P,7,1,COL*%
%TO.N,col7*%
X171470001Y-45942500D03*
D11*
X172125000Y-45212500D03*
D14*
%TO.P,7,2,ROW*%
%TO.N,Net-(D34-Pad2)*%
X177145000Y-44422500D03*
D11*
X177165000Y-44132500D03*
%TD*%
D13*
%TO.P,O,1,COL*%
%TO.N,col9*%
X219095001Y-64992500D03*
D11*
X219750000Y-64262500D03*
D14*
%TO.P,O,2,ROW*%
%TO.N,Net-(D44-Pad2)*%
X224770000Y-63472500D03*
D11*
X224790000Y-63182500D03*
%TD*%
D13*
%TO.P,1.50u,1,COL*%
%TO.N,col14*%
X300057501Y-122142500D03*
D11*
X300712500Y-121412500D03*
D14*
%TO.P,1.50u,2,ROW*%
%TO.N,Net-(D68-Pad2)*%
X305732500Y-120622500D03*
D11*
X305752500Y-120332500D03*
%TD*%
D13*
%TO.P,ANSI,1,COL*%
%TO.N,col0*%
X50026251Y-103092500D03*
D11*
X50681250Y-102362500D03*
D14*
%TO.P,ANSI,2,ROW*%
%TO.N,Net-(D4-Pad2)*%
X55701250Y-101572500D03*
D11*
X55721250Y-101282500D03*
%TD*%
D13*
%TO.P,MX42,1,COL*%
%TO.N,col7*%
X171470001Y-122142500D03*
D11*
X172125000Y-121412500D03*
D14*
%TO.P,MX42,2,ROW*%
%TO.N,Net-(D38-Pad2)*%
X177145000Y-120622500D03*
D11*
X177165000Y-120332500D03*
%TD*%
D13*
%TO.P,4,1,COL*%
%TO.N,col4*%
X114320001Y-45942500D03*
D11*
X114975000Y-45212500D03*
D14*
%TO.P,4,2,ROW*%
%TO.N,Net-(D20-Pad2)*%
X119995000Y-44422500D03*
D11*
X120015000Y-44132500D03*
%TD*%
D13*
%TO.P,U,1,COL*%
%TO.N,col7*%
X180995001Y-64992500D03*
D11*
X181650000Y-64262500D03*
D14*
%TO.P,U,2,ROW*%
%TO.N,Net-(D35-Pad2)*%
X186670000Y-63472500D03*
D11*
X186690000Y-63182500D03*
%TD*%
D21*
%TO.P,U4,1,GND*%
%TO.N,GND*%
X51425000Y-51025000D03*
D22*
%TO.P,U4,2,IO1*%
%TO.N,D+*%
X51425000Y-52725000D03*
%TO.P,U4,3,IO2*%
%TO.N,D-*%
X49425000Y-52725000D03*
%TO.P,U4,4,VCC*%
%TO.N,VCC*%
X49425000Y-50825000D03*
%TD*%
D23*
%TO.P,SW2,1,1*%
%TO.N,RESET*%
X34430000Y-70350000D03*
X34430000Y-76650000D03*
%TO.P,SW2,2,2*%
%TO.N,GND*%
X38230000Y-70350000D03*
X38230000Y-76650000D03*
%TD*%
D24*
%TO.P,D19,1,K*%
%TO.N,row3*%
X106275000Y-108900000D03*
%TO.P,D19,2,A*%
%TO.N,Net-(D19-Pad2)*%
X106275000Y-105600000D03*
%TD*%
D25*
%TO.P,C_3V-Decoup8,1*%
%TO.N,+3V3*%
X57900000Y-90170000D03*
%TO.P,C_3V-Decoup8,2*%
%TO.N,GND*%
X57900000Y-91130000D03*
%TD*%
D24*
%TO.P,D46,1,K*%
%TO.N,row3*%
X220575000Y-108900000D03*
%TO.P,D46,2,A*%
%TO.N,Net-(D46-Pad2)*%
X220575000Y-105600000D03*
%TD*%
D26*
%TO.P,D74,1,DOUT*%
%TO.N,Net-(D72-Pad3)*%
X104735000Y-125975000D03*
D27*
%TO.P,D74,2,VSS*%
%TO.N,GND*%
X104735000Y-124875000D03*
%TO.P,D74,3,DIN*%
%TO.N,Net-(D74-Pad3)*%
X106565000Y-124875000D03*
%TO.P,D74,4,VDD*%
%TO.N,+5V*%
X106565000Y-125975000D03*
%TD*%
D28*
%TO.P,D15,1,K*%
%TO.N,row4*%
X102810000Y-122330000D03*
%TO.P,D15,2,A*%
%TO.N,Net-(D15-Pad2)*%
X99510000Y-122330000D03*
%TD*%
D29*
%TO.P,D71,1,DOUT*%
%TO.N,Net-(D71-Pad1)*%
X70765000Y-48675000D03*
D27*
%TO.P,D71,2,VSS*%
%TO.N,GND*%
X70765000Y-49775000D03*
%TO.P,D71,3,DIN*%
%TO.N,RGB*%
X68935000Y-49775000D03*
%TO.P,D71,4,VDD*%
%TO.N,+5V*%
X68935000Y-48675000D03*
%TD*%
D24*
%TO.P,D63,1,K*%
%TO.N,row0*%
X291725000Y-53300000D03*
%TO.P,D63,2,A*%
%TO.N,Net-(D63-Pad2)*%
X291725000Y-50000000D03*
%TD*%
%TO.P,D35,1,K*%
%TO.N,row1*%
X187250000Y-70800000D03*
%TO.P,D35,2,A*%
%TO.N,Net-(D35-Pad2)*%
X187250000Y-67500000D03*
%TD*%
D30*
%TO.P,C_1V-Decoup2,1*%
%TO.N,+1V1*%
X61430000Y-73990000D03*
%TO.P,C_1V-Decoup2,2*%
%TO.N,GND*%
X61430000Y-73030000D03*
%TD*%
D24*
%TO.P,D26,1,K*%
%TO.N,row1*%
X149150000Y-70800000D03*
%TO.P,D26,2,A*%
%TO.N,Net-(D26-Pad2)*%
X149150000Y-67500000D03*
%TD*%
D31*
%TO.P,C_LDO2,1*%
%TO.N,+3V3*%
X46930000Y-59650000D03*
%TO.P,C_LDO2,2*%
%TO.N,GND*%
X45970000Y-59650000D03*
%TD*%
D24*
%TO.P,D54,1,K*%
%TO.N,row1*%
X263450000Y-70800000D03*
%TO.P,D54,2,A*%
%TO.N,Net-(D54-Pad2)*%
X263450000Y-67500000D03*
%TD*%
D30*
%TO.P,C_3V-Decoup2,1*%
%TO.N,+3V3*%
X54700000Y-77455000D03*
%TO.P,C_3V-Decoup2,2*%
%TO.N,GND*%
X54700000Y-76495000D03*
%TD*%
D24*
%TO.P,D34,1,K*%
%TO.N,row0*%
X177725000Y-52700000D03*
%TO.P,D34,2,A*%
%TO.N,Net-(D34-Pad2)*%
X177725000Y-49400000D03*
%TD*%
%TO.P,D50,1,K*%
%TO.N,row2*%
X249175000Y-89875000D03*
%TO.P,D50,2,A*%
%TO.N,Net-(D50-Pad2)*%
X249175000Y-86575000D03*
%TD*%
D30*
%TO.P,C_Flash1,1*%
%TO.N,+3V3*%
X75300000Y-75105000D03*
%TO.P,C_Flash1,2*%
%TO.N,GND*%
X75300000Y-74145000D03*
%TD*%
D32*
%TO.P,A,A*%
%TO.N,A*%
X75640000Y-88097500D03*
%TO.P,A,GND*%
%TO.N,GND*%
X74690000Y-86222500D03*
%TO.P,A,VDD*%
%TO.N,+3V3*%
X73740000Y-88097500D03*
%TD*%
D33*
%TO.P,D84,1,DOUT*%
%TO.N,Net-(D82-Pad3)*%
X299000000Y-102890000D03*
D27*
%TO.P,D84,2,VSS*%
%TO.N,GND*%
X297900000Y-102890000D03*
%TO.P,D84,3,DIN*%
%TO.N,Net-(D83-Pad1)*%
X297900000Y-101060000D03*
%TO.P,D84,4,VDD*%
%TO.N,+5V*%
X299000000Y-101060000D03*
%TD*%
D30*
%TO.P,C_3V-Decoup6,1*%
%TO.N,+3V3*%
X63750000Y-80155000D03*
%TO.P,C_3V-Decoup6,2*%
%TO.N,GND*%
X63750000Y-79195000D03*
%TD*%
D24*
%TO.P,D48,1,K*%
%TO.N,row0*%
X234875000Y-52700000D03*
%TO.P,D48,2,A*%
%TO.N,Net-(D48-Pad2)*%
X234875000Y-49400000D03*
%TD*%
%TO.P,D22,1,K*%
%TO.N,row2*%
X134875000Y-89850000D03*
%TO.P,D22,2,A*%
%TO.N,Net-(D22-Pad2)*%
X134875000Y-86550000D03*
%TD*%
D30*
%TO.P,C_Crystal2,1*%
%TO.N,GND*%
X57300000Y-93905000D03*
%TO.P,C_Crystal2,2*%
%TO.N,Net-(C_Crystal2-Pad2)*%
X57300000Y-92945000D03*
%TD*%
D24*
%TO.P,D40,1,K*%
%TO.N,row1*%
X206300000Y-70800000D03*
%TO.P,D40,2,A*%
%TO.N,Net-(D40-Pad2)*%
X206300000Y-67500000D03*
%TD*%
D34*
%TO.P,R_Crystal1,1*%
%TO.N,Net-(C_Crystal2-Pad2)*%
X59075000Y-91135000D03*
%TO.P,R_Crystal1,2*%
%TO.N,XTAL_OUT*%
X59075000Y-90115000D03*
%TD*%
D24*
%TO.P,D14,1,K*%
%TO.N,row2*%
X96775000Y-89850000D03*
%TO.P,D14,2,A*%
%TO.N,Net-(D14-Pad2)*%
X96775000Y-86550000D03*
%TD*%
D35*
%TO.P,R_LED1,1*%
%TO.N,ESCLED*%
X41040000Y-56770000D03*
%TO.P,R_LED1,2*%
%TO.N,Net-(MX3-Pad3)*%
X40020000Y-56770000D03*
%TD*%
D32*
%TO.P,W,GND*%
%TO.N,GND*%
X88690000Y-67082500D03*
%TO.P,W,VDD*%
%TO.N,+3V3*%
X87740000Y-68957500D03*
%TO.P,W,W*%
%TO.N,W*%
X89640000Y-68957500D03*
%TD*%
D26*
%TO.P,D78,1,DOUT*%
%TO.N,Net-(D76-Pad3)*%
X191060000Y-124370000D03*
D27*
%TO.P,D78,2,VSS*%
%TO.N,GND*%
X191060000Y-123270000D03*
%TO.P,D78,3,DIN*%
%TO.N,Net-(D78-Pad3)*%
X192890000Y-123270000D03*
%TO.P,D78,4,VDD*%
%TO.N,+5V*%
X192890000Y-124370000D03*
%TD*%
D24*
%TO.P,D10,1,K*%
%TO.N,row4*%
X77560000Y-128780000D03*
%TO.P,D10,2,A*%
%TO.N,Net-(D10-Pad2)*%
X77560000Y-125480000D03*
%TD*%
D29*
%TO.P,D77,1,DOUT*%
%TO.N,Net-(D77-Pad1)*%
X204115000Y-48650000D03*
D27*
%TO.P,D77,2,VSS*%
%TO.N,GND*%
X204115000Y-49750000D03*
%TO.P,D77,3,DIN*%
%TO.N,Net-(D75-Pad1)*%
X202285000Y-49750000D03*
%TO.P,D77,4,VDD*%
%TO.N,+5V*%
X202285000Y-48650000D03*
%TD*%
D24*
%TO.P,D61,1,K*%
%TO.N,row3*%
X294400000Y-108900000D03*
%TO.P,D61,2,A*%
%TO.N,Net-(D61-Pad2)*%
X294400000Y-105600000D03*
%TD*%
D36*
%TO.P,USB1,1,GND*%
%TO.N,GND*%
X47225000Y-46082500D03*
%TO.P,USB1,2,VBUS*%
%TO.N,VCC*%
X48000000Y-46082500D03*
D37*
%TO.P,USB1,3,SBU2*%
%TO.N,unconnected-(USB1-Pad3)*%
X48700000Y-46082500D03*
%TO.P,USB1,4,CC1*%
%TO.N,Net-(R_USB1-Pad1)*%
X49200000Y-46082500D03*
%TO.P,USB1,5,DN2*%
%TO.N,D-*%
X49700000Y-46082500D03*
%TO.P,USB1,6,DP1*%
%TO.N,D+*%
X50200000Y-46082500D03*
%TO.P,USB1,7,DN1*%
%TO.N,D-*%
X50700000Y-46082500D03*
%TO.P,USB1,8,DP2*%
%TO.N,D+*%
X51200000Y-46082500D03*
%TO.P,USB1,9,SBU1*%
%TO.N,unconnected-(USB1-Pad9)*%
X51700000Y-46082500D03*
%TO.P,USB1,10,CC2*%
%TO.N,Net-(R_USB2-Pad1)*%
X52200000Y-46082500D03*
D36*
%TO.P,USB1,11,VBUS*%
%TO.N,VCC*%
X52900000Y-46082500D03*
%TO.P,USB1,12,GND*%
%TO.N,GND*%
X53675000Y-46082500D03*
D38*
%TO.P,USB1,13,SHIELD*%
%TO.N,GNDREF*%
X46130000Y-40987500D03*
D39*
X46130000Y-45167500D03*
D38*
X54770000Y-40987500D03*
D39*
X54770000Y-45167500D03*
%TD*%
D24*
%TO.P,D9,1,K*%
%TO.N,row3*%
X68200000Y-108900000D03*
%TO.P,D9,2,A*%
%TO.N,Net-(D9-Pad2)*%
X68200000Y-105600000D03*
%TD*%
%TO.P,D37,1,K*%
%TO.N,row3*%
X182500000Y-108900000D03*
%TO.P,D37,2,A*%
%TO.N,Net-(D37-Pad2)*%
X182500000Y-105600000D03*
%TD*%
D30*
%TO.P,C_1V-Decoup1,1*%
%TO.N,+1V1*%
X55850000Y-76455000D03*
%TO.P,C_1V-Decoup1,2*%
%TO.N,GND*%
X55850000Y-75495000D03*
%TD*%
D40*
%TO.P,U1,1,IOVDD*%
%TO.N,+3V3*%
X62537500Y-80650000D03*
%TO.P,U1,2,GPIO0*%
%TO.N,col6*%
X62537500Y-81050000D03*
%TO.P,U1,3,GPIO1*%
%TO.N,col5*%
X62537500Y-81450000D03*
%TO.P,U1,4,GPIO2*%
%TO.N,col4*%
X62537500Y-81850000D03*
%TO.P,U1,5,GPIO3*%
%TO.N,col3*%
X62537500Y-82250000D03*
%TO.P,U1,6,GPIO4*%
%TO.N,col2*%
X62537500Y-82650000D03*
%TO.P,U1,7,GPIO5*%
%TO.N,col1*%
X62537500Y-83050000D03*
%TO.P,U1,8,GPIO6*%
%TO.N,row3*%
X62537500Y-83450000D03*
%TO.P,U1,9,GPIO7*%
%TO.N,row4*%
X62537500Y-83850000D03*
%TO.P,U1,10,IOVDD*%
%TO.N,+3V3*%
X62537500Y-84250000D03*
%TO.P,U1,11,GPIO8*%
%TO.N,col13*%
X62537500Y-84650000D03*
%TO.P,U1,12,GPIO9*%
%TO.N,col14*%
X62537500Y-85050000D03*
%TO.P,U1,13,GPIO10*%
%TO.N,col12*%
X62537500Y-85450000D03*
%TO.P,U1,14,GPIO11*%
%TO.N,col11*%
X62537500Y-85850000D03*
D41*
%TO.P,U1,15,GPIO12*%
%TO.N,col10*%
X61700000Y-86687500D03*
%TO.P,U1,16,GPIO13*%
%TO.N,col9*%
X61300000Y-86687500D03*
%TO.P,U1,17,GPIO14*%
%TO.N,col8*%
X60900000Y-86687500D03*
%TO.P,U1,18,GPIO15*%
%TO.N,col7*%
X60500000Y-86687500D03*
%TO.P,U1,19,TESTEN*%
%TO.N,GND*%
X60100000Y-86687500D03*
%TO.P,U1,20,XTAL_IN*%
%TO.N,XTAL_IN*%
X59700000Y-86687500D03*
%TO.P,U1,21,XTAL_OUT*%
%TO.N,XTAL_OUT*%
X59300000Y-86687500D03*
%TO.P,U1,22,IOVDD*%
%TO.N,+3V3*%
X58900000Y-86687500D03*
%TO.P,U1,23,DVDD*%
%TO.N,+1V1*%
X58500000Y-86687500D03*
%TO.P,U1,24,SWCLK*%
%TO.N,SWCLK*%
X58100000Y-86687500D03*
%TO.P,U1,25,SWDIO*%
%TO.N,SWDIO*%
X57700000Y-86687500D03*
%TO.P,U1,26,~{RUN}*%
%TO.N,RESET*%
X57300000Y-86687500D03*
%TO.P,U1,27,GPIO16*%
%TO.N,unconnected-(U1-Pad27)*%
X56900000Y-86687500D03*
%TO.P,U1,28,GPIO17*%
%TO.N,CAPSLED*%
X56500000Y-86687500D03*
D40*
%TO.P,U1,29,GPIO18*%
%TO.N,unconnected-(U1-Pad29)*%
X55662500Y-85850000D03*
%TO.P,U1,30,GPIO19*%
%TO.N,unconnected-(U1-Pad30)*%
X55662500Y-85450000D03*
%TO.P,U1,31,GPIO20*%
%TO.N,row2*%
X55662500Y-85050000D03*
%TO.P,U1,32,GPIO21*%
%TO.N,col0*%
X55662500Y-84650000D03*
%TO.P,U1,33,IOVDD*%
%TO.N,+3V3*%
X55662500Y-84250000D03*
%TO.P,U1,34,GPIO22*%
%TO.N,ESCLED*%
X55662500Y-83850000D03*
%TO.P,U1,35,GPIO23*%
%TO.N,row1*%
X55662500Y-83450000D03*
%TO.P,U1,36,GPIO24*%
%TO.N,row0*%
X55662500Y-83050000D03*
%TO.P,U1,37,GPIO25*%
%TO.N,RGBLED*%
X55662500Y-82650000D03*
%TO.P,U1,38,GPIO26/ADC0*%
%TO.N,W*%
X55662500Y-82250000D03*
%TO.P,U1,39,GPIO27/ADC1*%
%TO.N,A*%
X55662500Y-81850000D03*
%TO.P,U1,40,GPIO28/ADC2*%
%TO.N,S*%
X55662500Y-81450000D03*
%TO.P,U1,41,GPIO29/ADC3*%
%TO.N,D*%
X55662500Y-81050000D03*
%TO.P,U1,42,IOVDD*%
%TO.N,+3V3*%
X55662500Y-80650000D03*
D41*
%TO.P,U1,43,ADC_AVDD*%
X56500000Y-79812500D03*
%TO.P,U1,44,VREG_VIN*%
X56900000Y-79812500D03*
%TO.P,U1,45,VREG_VOUT*%
%TO.N,+1V1*%
X57300000Y-79812500D03*
%TO.P,U1,46,D-*%
%TO.N,Net-(R_DATA2-Pad2)*%
X57700000Y-79812500D03*
%TO.P,U1,47,D+*%
%TO.N,Net-(R_DATA1-Pad2)*%
X58100000Y-79812500D03*
%TO.P,U1,48,USB_VDD*%
%TO.N,+3V3*%
X58500000Y-79812500D03*
%TO.P,U1,49,IOVDD*%
X58900000Y-79812500D03*
%TO.P,U1,50,DVDD*%
%TO.N,+1V1*%
X59300000Y-79812500D03*
%TO.P,U1,51,QSPI_SD3*%
%TO.N,SD3*%
X59700000Y-79812500D03*
%TO.P,U1,52,QSPI_SCLK*%
%TO.N,QSPI_CLK*%
X60100000Y-79812500D03*
%TO.P,U1,53,QSPI_SD0*%
%TO.N,SD0*%
X60500000Y-79812500D03*
%TO.P,U1,54,QSPI_SD2*%
%TO.N,SD2*%
X60900000Y-79812500D03*
%TO.P,U1,55,QSPI_SD1*%
%TO.N,SD1*%
X61300000Y-79812500D03*
%TO.P,U1,56,QSPI_SS_N*%
%TO.N,CS*%
X61700000Y-79812500D03*
D42*
%TO.P,U1,57,GND*%
%TO.N,GND*%
X60375000Y-84525000D03*
X60375000Y-83250000D03*
X60375000Y-81975000D03*
X59100000Y-84525000D03*
X59100000Y-83250000D03*
D43*
X59100000Y-83250000D03*
D42*
X59100000Y-81975000D03*
X57825000Y-84525000D03*
X57825000Y-83250000D03*
X57825000Y-81975000D03*
%TD*%
D24*
%TO.P,D39,1,K*%
%TO.N,row0*%
X196775000Y-52700000D03*
%TO.P,D39,2,A*%
%TO.N,Net-(D39-Pad2)*%
X196775000Y-49400000D03*
%TD*%
%TO.P,D2,1,K*%
%TO.N,row1*%
X49125000Y-70800000D03*
%TO.P,D2,2,A*%
%TO.N,Net-(D2-Pad2)*%
X49125000Y-67500000D03*
%TD*%
%TO.P,D6,1,K*%
%TO.N,row0*%
X63425000Y-51750000D03*
%TO.P,D6,2,A*%
%TO.N,Net-(D6-Pad2)*%
X63425000Y-48450000D03*
%TD*%
D31*
%TO.P,C_3V-Decoup7,1*%
%TO.N,+3V3*%
X53030000Y-78700000D03*
%TO.P,C_3V-Decoup7,2*%
%TO.N,GND*%
X52070000Y-78700000D03*
%TD*%
D26*
%TO.P,D72,1,DOUT*%
%TO.N,Net-(D70-Pad3)*%
X59410000Y-125975000D03*
D27*
%TO.P,D72,2,VSS*%
%TO.N,GND*%
X59410000Y-124875000D03*
%TO.P,D72,3,DIN*%
%TO.N,Net-(D72-Pad3)*%
X61240000Y-124875000D03*
%TO.P,D72,4,VDD*%
%TO.N,+5V*%
X61240000Y-125975000D03*
%TD*%
D29*
%TO.P,D75,1,DOUT*%
%TO.N,Net-(D75-Pad1)*%
X146965000Y-48675000D03*
D27*
%TO.P,D75,2,VSS*%
%TO.N,GND*%
X146965000Y-49775000D03*
%TO.P,D75,3,DIN*%
%TO.N,Net-(D73-Pad1)*%
X145135000Y-49775000D03*
%TO.P,D75,4,VDD*%
%TO.N,+5V*%
X145135000Y-48675000D03*
%TD*%
D31*
%TO.P,C_LDO1,1*%
%TO.N,+5V*%
X47930000Y-54625000D03*
%TO.P,C_LDO1,2*%
%TO.N,GND*%
X46970000Y-54625000D03*
%TD*%
D44*
%TO.P,J2,1,Pin_1*%
%TO.N,RESET*%
X34550000Y-81925000D03*
D45*
%TO.P,J2,2,Pin_2*%
%TO.N,+3V3*%
X34550000Y-84465000D03*
%TO.P,J2,3,Pin_3*%
%TO.N,GND*%
X34550000Y-87005000D03*
%TO.P,J2,4,Pin_4*%
%TO.N,SWDIO*%
X34550000Y-89545000D03*
%TO.P,J2,5,Pin_5*%
%TO.N,SWCLK*%
X34550000Y-92085000D03*
%TD*%
D24*
%TO.P,D1,1,K*%
%TO.N,row0*%
X44375000Y-51750000D03*
%TO.P,D1,2,A*%
%TO.N,Net-(D1-Pad2)*%
X44375000Y-48450000D03*
%TD*%
%TO.P,D67,1,K*%
%TO.N,row3*%
X311075000Y-108900000D03*
%TO.P,D67,2,A*%
%TO.N,Net-(D67-Pad2)*%
X311075000Y-105600000D03*
%TD*%
%TO.P,D13,1,K*%
%TO.N,row1*%
X92000000Y-70800000D03*
%TO.P,D13,2,A*%
%TO.N,Net-(D13-Pad2)*%
X92000000Y-67500000D03*
%TD*%
D46*
%TO.P,R_DATA2,1*%
%TO.N,D-*%
X56925000Y-75240000D03*
%TO.P,R_DATA2,2*%
%TO.N,Net-(R_DATA2-Pad2)*%
X56925000Y-76260000D03*
%TD*%
D35*
%TO.P,R_USB1,1*%
%TO.N,Net-(R_USB1-Pad1)*%
X49460000Y-48900000D03*
%TO.P,R_USB1,2*%
%TO.N,GND*%
X48440000Y-48900000D03*
%TD*%
D31*
%TO.P,C_3V-Decoup4,1*%
%TO.N,+3V3*%
X53310000Y-84440000D03*
%TO.P,C_3V-Decoup4,2*%
%TO.N,GND*%
X52350000Y-84440000D03*
%TD*%
D24*
%TO.P,D21,1,K*%
%TO.N,row1*%
X130100000Y-70800000D03*
%TO.P,D21,2,A*%
%TO.N,Net-(D21-Pad2)*%
X130100000Y-67500000D03*
%TD*%
%TO.P,D52,2,A*%
%TO.N,Net-(D52-Pad2)*%
X216210000Y-125450000D03*
%TO.P,D52,1,K*%
%TO.N,row4*%
X216210000Y-128750000D03*
%TD*%
D46*
%TO.P,R_DATA1,1*%
%TO.N,D+*%
X58075000Y-75240000D03*
%TO.P,R_DATA1,2*%
%TO.N,Net-(R_DATA1-Pad2)*%
X58075000Y-76260000D03*
%TD*%
D27*
%TO.P,D76,4,VDD*%
%TO.N,+5V*%
X153705000Y-120330000D03*
%TO.P,D76,3,DIN*%
%TO.N,Net-(D76-Pad3)*%
X153705000Y-119230000D03*
%TO.P,D76,2,VSS*%
%TO.N,GND*%
X151875000Y-119230000D03*
D26*
%TO.P,D76,1,DOUT*%
%TO.N,Net-(D74-Pad3)*%
X151875000Y-120330000D03*
%TD*%
D29*
%TO.P,D79,1,DOUT*%
%TO.N,Net-(D79-Pad1)*%
X242215000Y-48675000D03*
D27*
%TO.P,D79,2,VSS*%
%TO.N,GND*%
X242215000Y-49775000D03*
%TO.P,D79,3,DIN*%
%TO.N,Net-(D77-Pad1)*%
X240385000Y-49775000D03*
%TO.P,D79,4,VDD*%
%TO.N,+5V*%
X240385000Y-48675000D03*
%TD*%
D24*
%TO.P,D4,1,K*%
%TO.N,row3*%
X56275000Y-108900000D03*
%TO.P,D4,2,A*%
%TO.N,Net-(D4-Pad2)*%
X56275000Y-105600000D03*
%TD*%
D32*
%TO.P,S,GND*%
%TO.N,GND*%
X93540000Y-86312500D03*
%TO.P,S,S*%
%TO.N,S*%
X94490000Y-88187500D03*
%TO.P,S,VDD*%
%TO.N,+3V3*%
X92590000Y-88187500D03*
%TD*%
D24*
%TO.P,D3,1,K*%
%TO.N,row2*%
X51525000Y-89850000D03*
%TO.P,D3,2,A*%
%TO.N,Net-(D3-Pad2)*%
X51525000Y-86550000D03*
%TD*%
%TO.P,D36,1,K*%
%TO.N,row2*%
X192025000Y-89850000D03*
%TO.P,D36,2,A*%
%TO.N,Net-(D36-Pad2)*%
X192025000Y-86550000D03*
%TD*%
%TO.P,D12,1,K*%
%TO.N,row0*%
X82475000Y-52700000D03*
%TO.P,D12,2,A*%
%TO.N,Net-(D12-Pad2)*%
X82475000Y-49400000D03*
%TD*%
%TO.P,D25,1,K*%
%TO.N,row0*%
X139625000Y-52700000D03*
%TO.P,D25,2,A*%
%TO.N,Net-(D25-Pad2)*%
X139625000Y-49400000D03*
%TD*%
D47*
%TO.P,SW1,1,1*%
%TO.N,GND*%
X83050000Y-60060000D03*
X76750000Y-60060000D03*
%TO.P,SW1,2,2*%
%TO.N,Net-(R_Flash1-Pad1)*%
X83050000Y-63860000D03*
X76750000Y-63860000D03*
%TD*%
D24*
%TO.P,D30,1,K*%
%TO.N,row0*%
X158675000Y-52700000D03*
%TO.P,D30,2,A*%
%TO.N,Net-(D30-Pad2)*%
X158675000Y-49400000D03*
%TD*%
%TO.P,D51,1,K*%
%TO.N,row3*%
X239650000Y-108900000D03*
%TO.P,D51,2,A*%
%TO.N,Net-(D51-Pad2)*%
X239650000Y-105600000D03*
%TD*%
D48*
%TO.P,J1,1,Pin_1*%
%TO.N,+5V*%
X56050000Y-58750000D03*
%TO.P,J1,2,Pin_2*%
%TO.N,D-*%
X56050000Y-59750000D03*
%TO.P,J1,3,Pin_3*%
%TO.N,D+*%
X56050000Y-60750000D03*
%TO.P,J1,4,Pin_4*%
%TO.N,GND*%
X56050000Y-61750000D03*
D49*
%TO.P,J1,MP*%
%TO.N,N/C*%
X59925000Y-57450000D03*
X59925000Y-63050000D03*
%TD*%
D50*
%TO.P,R_USB2,1*%
%TO.N,Net-(R_USB2-Pad1)*%
X52265000Y-48600000D03*
%TO.P,R_USB2,2*%
%TO.N,GND*%
X53285000Y-48600000D03*
%TD*%
D24*
%TO.P,D28,1,K*%
%TO.N,row3*%
X144400000Y-108900000D03*
%TO.P,D28,2,A*%
%TO.N,Net-(D28-Pad2)*%
X144400000Y-105600000D03*
%TD*%
%TO.P,D38,1,K*%
%TO.N,row4*%
X183110000Y-128790000D03*
%TO.P,D38,2,A*%
%TO.N,Net-(D38-Pad2)*%
X183110000Y-125490000D03*
%TD*%
D25*
%TO.P,C_Crystal1,1*%
%TO.N,GND*%
X63400000Y-92945000D03*
%TO.P,C_Crystal1,2*%
%TO.N,XTAL_IN*%
X63400000Y-93905000D03*
%TD*%
D24*
%TO.P,D45,1,K*%
%TO.N,row2*%
X230100000Y-89850000D03*
%TO.P,D45,2,A*%
%TO.N,Net-(D45-Pad2)*%
X230100000Y-86550000D03*
%TD*%
D31*
%TO.P,C_3V-Decoup5,1*%
%TO.N,+3V3*%
X53030000Y-79750000D03*
%TO.P,C_3V-Decoup5,2*%
%TO.N,GND*%
X52070000Y-79750000D03*
%TD*%
D46*
%TO.P,R_Shield1,1*%
%TO.N,GNDREF*%
X58275000Y-41415000D03*
%TO.P,R_Shield1,2*%
%TO.N,GND*%
X58275000Y-42435000D03*
%TD*%
D24*
%TO.P,D32,1,K*%
%TO.N,row2*%
X172950000Y-89850000D03*
%TO.P,D32,2,A*%
%TO.N,Net-(D32-Pad2)*%
X172950000Y-86550000D03*
%TD*%
%TO.P,D55,1,K*%
%TO.N,row2*%
X268200000Y-89850000D03*
%TO.P,D55,2,A*%
%TO.N,Net-(D55-Pad2)*%
X268200000Y-86550000D03*
%TD*%
%TO.P,D49,1,K*%
%TO.N,row1*%
X244400000Y-70800000D03*
%TO.P,D49,2,A*%
%TO.N,Net-(D49-Pad2)*%
X244400000Y-67500000D03*
%TD*%
D51*
%TO.P,D70,1,DOUT*%
%TO.N,Net-(D69-Pad3)*%
X51225000Y-97310000D03*
D27*
%TO.P,D70,2,VSS*%
%TO.N,GND*%
X52325000Y-97310000D03*
%TO.P,D70,3,DIN*%
%TO.N,Net-(D70-Pad3)*%
X52325000Y-99140000D03*
%TO.P,D70,4,VDD*%
%TO.N,+5V*%
X51225000Y-99140000D03*
%TD*%
D24*
%TO.P,D5,1,K*%
%TO.N,row4*%
X53530000Y-129280000D03*
%TO.P,D5,2,A*%
%TO.N,Net-(D5-Pad2)*%
X53530000Y-125980000D03*
%TD*%
D52*
%TO.P,Y1,1,1*%
%TO.N,Net-(C_Crystal2-Pad2)*%
X59075000Y-92575000D03*
%TO.P,Y1,2,2*%
%TO.N,GND*%
X61275000Y-92575000D03*
%TO.P,Y1,3,3*%
%TO.N,XTAL_IN*%
X61275000Y-94275000D03*
%TO.P,Y1,4,4*%
%TO.N,GND*%
X59075000Y-94275000D03*
%TD*%
D24*
%TO.P,D23,1,K*%
%TO.N,row3*%
X125350000Y-108900000D03*
%TO.P,D23,2,A*%
%TO.N,Net-(D23-Pad2)*%
X125350000Y-105600000D03*
%TD*%
D53*
%TO.P,U5,1*%
%TO.N,GND*%
X65542500Y-54740000D03*
%TO.P,U5,2*%
%TO.N,RGBLED*%
X65542500Y-53790000D03*
%TO.P,U5,3,GND*%
%TO.N,GND*%
X65542500Y-52840000D03*
%TO.P,U5,4*%
%TO.N,RGB*%
X67817500Y-52840000D03*
%TO.P,U5,5,+5V*%
%TO.N,+5V*%
X67817500Y-54740000D03*
%TD*%
D24*
%TO.P,D20,1,K*%
%TO.N,row0*%
X120575000Y-52700000D03*
%TO.P,D20,2,A*%
%TO.N,Net-(D20-Pad2)*%
X120575000Y-49400000D03*
%TD*%
%TO.P,D42,1,K*%
%TO.N,row3*%
X201550000Y-108900000D03*
%TO.P,D42,2,A*%
%TO.N,Net-(D42-Pad2)*%
X201550000Y-105600000D03*
%TD*%
%TO.P,D64,1,K*%
%TO.N,row2*%
X303125000Y-89875000D03*
%TO.P,D64,2,A*%
%TO.N,Net-(D64-Pad2)*%
X303125000Y-86575000D03*
%TD*%
%TO.P,D65,1,K*%
%TO.N,row0*%
X311075000Y-51750000D03*
%TO.P,D65,2,A*%
%TO.N,Net-(D65-Pad2)*%
X311075000Y-48450000D03*
%TD*%
%TO.P,D16,1,K*%
%TO.N,row0*%
X101525000Y-52700000D03*
%TO.P,D16,2,A*%
%TO.N,Net-(D16-Pad2)*%
X101525000Y-49400000D03*
%TD*%
%TO.P,D56,1,K*%
%TO.N,row3*%
X258700000Y-108900000D03*
%TO.P,D56,2,A*%
%TO.N,Net-(D56-Pad2)*%
X258700000Y-105600000D03*
%TD*%
%TO.P,D27,1,K*%
%TO.N,row2*%
X153900000Y-89850000D03*
%TO.P,D27,2,A*%
%TO.N,Net-(D27-Pad2)*%
X153900000Y-86550000D03*
%TD*%
D32*
%TO.P,U3,1,GND*%
%TO.N,GND*%
X48850000Y-58162500D03*
%TO.P,U3,2,VO*%
%TO.N,+3V3*%
X46950000Y-58162500D03*
%TO.P,U3,3,VI*%
%TO.N,+5V*%
X47900000Y-56287500D03*
%TD*%
D24*
%TO.P,D59,1,K*%
%TO.N,row1*%
X282500000Y-70800000D03*
%TO.P,D59,2,A*%
%TO.N,Net-(D59-Pad2)*%
X282500000Y-67500000D03*
%TD*%
D26*
%TO.P,D82,1,DOUT*%
%TO.N,Net-(D80-Pad3)*%
X288010000Y-125975000D03*
D27*
%TO.P,D82,2,VSS*%
%TO.N,GND*%
X288010000Y-124875000D03*
%TO.P,D82,3,DIN*%
%TO.N,Net-(D82-Pad3)*%
X289840000Y-124875000D03*
%TO.P,D82,4,VDD*%
%TO.N,+5V*%
X289840000Y-125975000D03*
%TD*%
D29*
%TO.P,D81,1,DOUT*%
%TO.N,Net-(D81-Pad1)*%
X280315000Y-48675000D03*
D27*
%TO.P,D81,2,VSS*%
%TO.N,GND*%
X280315000Y-49775000D03*
%TO.P,D81,3,DIN*%
%TO.N,Net-(D79-Pad1)*%
X278485000Y-49775000D03*
%TO.P,D81,4,VDD*%
%TO.N,+5V*%
X278485000Y-48675000D03*
%TD*%
D24*
%TO.P,D58,1,K*%
%TO.N,row0*%
X272975000Y-52700000D03*
%TO.P,D58,2,A*%
%TO.N,Net-(D58-Pad2)*%
X272975000Y-49400000D03*
%TD*%
D30*
%TO.P,C_3V-Decoup3,1*%
%TO.N,+3V3*%
X59510000Y-74000000D03*
%TO.P,C_3V-Decoup3,2*%
%TO.N,GND*%
X59510000Y-73040000D03*
%TD*%
D24*
%TO.P,D57,1,K*%
%TO.N,row4*%
X265590000Y-128770000D03*
%TO.P,D57,2,A*%
%TO.N,Net-(D57-Pad2)*%
X265590000Y-125470000D03*
%TD*%
D29*
%TO.P,D73,1,DOUT*%
%TO.N,Net-(D73-Pad1)*%
X108865000Y-48675000D03*
D27*
%TO.P,D73,2,VSS*%
%TO.N,GND*%
X108865000Y-49775000D03*
%TO.P,D73,3,DIN*%
%TO.N,Net-(D71-Pad1)*%
X107035000Y-49775000D03*
%TO.P,D73,4,VDD*%
%TO.N,+5V*%
X107035000Y-48675000D03*
%TD*%
D24*
%TO.P,D43,1,K*%
%TO.N,row0*%
X215825000Y-52700000D03*
%TO.P,D43,2,A*%
%TO.N,Net-(D43-Pad2)*%
X215825000Y-49400000D03*
%TD*%
%TO.P,D68,1,K*%
%TO.N,row4*%
X308300000Y-130780000D03*
%TO.P,D68,2,A*%
%TO.N,Net-(D68-Pad2)*%
X308300000Y-127480000D03*
%TD*%
D25*
%TO.P,C_1V-Decoup3,1*%
%TO.N,+1V1*%
X56550000Y-90170000D03*
%TO.P,C_1V-Decoup3,2*%
%TO.N,GND*%
X56550000Y-91130000D03*
%TD*%
D33*
%TO.P,D83,1,DOUT*%
%TO.N,Net-(D83-Pad1)*%
X301775000Y-73965000D03*
D27*
%TO.P,D83,2,VSS*%
%TO.N,GND*%
X300675000Y-73965000D03*
%TO.P,D83,3,DIN*%
%TO.N,Net-(D81-Pad1)*%
X300675000Y-72135000D03*
%TO.P,D83,4,VDD*%
%TO.N,+5V*%
X301775000Y-72135000D03*
%TD*%
D24*
%TO.P,D66,1,K*%
%TO.N,row1*%
X306325000Y-70800000D03*
%TO.P,D66,2,A*%
%TO.N,Net-(D66-Pad2)*%
X306325000Y-67500000D03*
%TD*%
%TO.P,D62,1,K*%
%TO.N,row4*%
X294100000Y-130200000D03*
%TO.P,D62,2,A*%
%TO.N,Net-(D62-Pad2)*%
X294100000Y-126900000D03*
%TD*%
%TO.P,D18,1,K*%
%TO.N,row2*%
X115800000Y-89850000D03*
%TO.P,D18,2,A*%
%TO.N,Net-(D18-Pad2)*%
X115800000Y-86550000D03*
%TD*%
D26*
%TO.P,D80,1,DOUT*%
%TO.N,Net-(D78-Pad3)*%
X242680000Y-125975000D03*
D27*
%TO.P,D80,2,VSS*%
%TO.N,GND*%
X242680000Y-124875000D03*
%TO.P,D80,3,DIN*%
%TO.N,Net-(D80-Pad3)*%
X244510000Y-124875000D03*
%TO.P,D80,4,VDD*%
%TO.N,+5V*%
X244510000Y-125975000D03*
%TD*%
D30*
%TO.P,C_Shield1,1*%
%TO.N,GND*%
X59400000Y-42405000D03*
%TO.P,C_Shield1,2*%
%TO.N,GNDREF*%
X59400000Y-41445000D03*
%TD*%
D24*
%TO.P,D33,1,K*%
%TO.N,row3*%
X163450000Y-108900000D03*
%TO.P,D33,2,A*%
%TO.N,Net-(D33-Pad2)*%
X163450000Y-105600000D03*
%TD*%
%TO.P,D8,1,K*%
%TO.N,row2*%
X77725000Y-89850000D03*
%TO.P,D8,2,A*%
%TO.N,Net-(D8-Pad2)*%
X77725000Y-86550000D03*
%TD*%
D54*
%TO.P,U2,1,~{CS}*%
%TO.N,CS*%
X76920000Y-67925000D03*
%TO.P,U2,2,DO(IO1)*%
%TO.N,SD1*%
X78190000Y-67925000D03*
%TO.P,U2,3,IO2*%
%TO.N,SD2*%
X79460000Y-67925000D03*
%TO.P,U2,4,GND*%
%TO.N,GND*%
X80730000Y-67925000D03*
%TO.P,U2,5,DI(IO0)*%
%TO.N,SD0*%
X80730000Y-75125000D03*
%TO.P,U2,6,CLK*%
%TO.N,QSPI_CLK*%
X79460000Y-75125000D03*
%TO.P,U2,7,IO3*%
%TO.N,SD3*%
X78190000Y-75125000D03*
%TO.P,U2,8,VCC*%
%TO.N,+3V3*%
X76920000Y-75125000D03*
%TD*%
D24*
%TO.P,D44,1,K*%
%TO.N,row1*%
X225350000Y-70800000D03*
%TO.P,D44,2,A*%
%TO.N,Net-(D44-Pad2)*%
X225350000Y-67500000D03*
%TD*%
D34*
%TO.P,R_RST1,1*%
%TO.N,+3V3*%
X37300000Y-83585000D03*
%TO.P,R_RST1,2*%
%TO.N,RESET*%
X37300000Y-82565000D03*
%TD*%
D24*
%TO.P,D53,1,K*%
%TO.N,row0*%
X253925000Y-52700000D03*
%TO.P,D53,2,A*%
%TO.N,Net-(D53-Pad2)*%
X253925000Y-49400000D03*
%TD*%
%TO.P,D7,1,K*%
%TO.N,row1*%
X72950000Y-70800000D03*
%TO.P,D7,2,A*%
%TO.N,Net-(D7-Pad2)*%
X72950000Y-67500000D03*
%TD*%
D55*
%TO.P,F1,1*%
%TO.N,VCC*%
X47850000Y-51337500D03*
%TO.P,F1,2*%
%TO.N,+5V*%
X47850000Y-53212500D03*
%TD*%
D56*
%TO.P,C_3V-Decoup9,1*%
%TO.N,+3V3*%
X65410589Y-85560589D03*
%TO.P,C_3V-Decoup9,2*%
%TO.N,GND*%
X66089411Y-86239411D03*
%TD*%
D24*
%TO.P,D31,1,K*%
%TO.N,row1*%
X168200000Y-70800000D03*
%TO.P,D31,2,A*%
%TO.N,Net-(D31-Pad2)*%
X168200000Y-67500000D03*
%TD*%
%TO.P,D11,1,K*%
%TO.N,row3*%
X87225000Y-108900000D03*
%TO.P,D11,2,A*%
%TO.N,Net-(D11-Pad2)*%
X87225000Y-105600000D03*
%TD*%
D31*
%TO.P,C_3V-Decoup1,1*%
%TO.N,+3V3*%
X46930000Y-60750000D03*
%TO.P,C_3V-Decoup1,2*%
%TO.N,GND*%
X45970000Y-60750000D03*
%TD*%
D24*
%TO.P,D41,1,K*%
%TO.N,row2*%
X211075000Y-89850000D03*
%TO.P,D41,2,A*%
%TO.N,Net-(D41-Pad2)*%
X211075000Y-86550000D03*
%TD*%
D51*
%TO.P,D69,1,DOUT*%
%TO.N,unconnected-(D69-Pad1)*%
X45475000Y-74585000D03*
D27*
%TO.P,D69,2,VSS*%
%TO.N,GND*%
X46575000Y-74585000D03*
%TO.P,D69,3,DIN*%
%TO.N,Net-(D69-Pad3)*%
X46575000Y-76415000D03*
%TO.P,D69,4,VDD*%
%TO.N,+5V*%
X45475000Y-76415000D03*
%TD*%
D32*
%TO.P,D,D*%
%TO.N,D*%
X113930000Y-88207500D03*
%TO.P,D,GND*%
%TO.N,GND*%
X112980000Y-86332500D03*
%TO.P,D,VDD*%
%TO.N,+3V3*%
X112030000Y-88207500D03*
%TD*%
D46*
%TO.P,R_Flash1,1*%
%TO.N,Net-(R_Flash1-Pad1)*%
X76900000Y-65090000D03*
%TO.P,R_Flash1,2*%
%TO.N,CS*%
X76900000Y-66110000D03*
%TD*%
D24*
%TO.P,D17,1,K*%
%TO.N,row1*%
X111050000Y-70800000D03*
%TO.P,D17,2,A*%
%TO.N,Net-(D17-Pad2)*%
X111050000Y-67500000D03*
%TD*%
D57*
%TO.N,GND*%
X199525000Y-47125000D03*
X278725000Y-51275000D03*
X44750000Y-99000000D03*
X149060000Y-119010000D03*
D58*
X299780000Y-85340000D03*
D57*
X80725000Y-69800000D03*
X82575000Y-84575000D03*
X47770000Y-78020000D03*
D58*
X109160000Y-126240000D03*
D57*
X54700000Y-74650000D03*
X78175000Y-69700000D03*
X286400000Y-61300000D03*
X104050000Y-47225000D03*
X60400000Y-90525000D03*
X237300000Y-46625000D03*
X52275000Y-93550000D03*
D58*
X53700000Y-76470000D03*
D57*
X45310000Y-54620000D03*
X162300000Y-121950000D03*
X57300000Y-95375000D03*
X50200000Y-65850000D03*
X93530000Y-82600000D03*
X75275000Y-73025000D03*
X220200000Y-119350000D03*
D58*
X64650000Y-79625000D03*
D57*
X165300000Y-130925000D03*
X50725000Y-78075000D03*
X300750000Y-104275000D03*
X74575000Y-82025000D03*
X81450000Y-90575000D03*
X247225000Y-126050000D03*
X62600000Y-54475000D03*
X49100000Y-59825000D03*
X109100000Y-42525000D03*
X44400000Y-78700000D03*
X68675000Y-83275000D03*
X300600000Y-75350000D03*
X46150000Y-47325000D03*
X63375000Y-92000000D03*
X53250000Y-112075000D03*
X275250000Y-46450000D03*
X239775000Y-42650000D03*
X127300000Y-48750000D03*
X205100000Y-51000000D03*
D58*
X301610000Y-80260000D03*
D57*
X109900000Y-50950000D03*
X249700000Y-75125000D03*
X236650000Y-118650000D03*
X307725000Y-86625000D03*
X281850000Y-50600000D03*
X60000000Y-101500000D03*
X101220000Y-82350000D03*
X295950000Y-41700000D03*
D58*
X184940000Y-124750000D03*
D57*
X79800000Y-45500000D03*
X259475000Y-47900000D03*
X164875000Y-45600000D03*
X177400000Y-61975000D03*
X127225000Y-121725000D03*
X71900000Y-50700000D03*
D58*
X53475000Y-72825000D03*
D57*
X231025000Y-75900000D03*
X45250000Y-58590000D03*
D58*
X82770000Y-65710000D03*
D57*
X57075000Y-42425000D03*
X43975000Y-72425000D03*
X133650000Y-74275000D03*
X228550000Y-126300000D03*
X155200000Y-43375000D03*
X89950000Y-48025000D03*
D58*
X51450000Y-74550000D03*
D57*
X243000000Y-50825000D03*
X286650000Y-54325000D03*
X117425000Y-44275000D03*
X104700000Y-123625000D03*
X93525000Y-74050000D03*
X200800000Y-90875000D03*
X248250000Y-131275000D03*
X37680000Y-88680000D03*
X221125000Y-47950000D03*
X279725000Y-45050000D03*
X65600000Y-87350000D03*
X148200000Y-50975000D03*
X144500000Y-42650000D03*
X212450000Y-43650000D03*
X250800000Y-45450000D03*
X52305000Y-83490000D03*
X37500000Y-90500000D03*
X211500000Y-77475000D03*
X142275000Y-46850000D03*
D58*
X48625000Y-47900000D03*
D57*
X183450000Y-47525000D03*
D58*
%TO.N,W*%
X83830000Y-71830000D03*
D57*
%TO.N,GND*%
X163725000Y-128500000D03*
%TO.N,row4*%
X102000000Y-124470000D03*
X100560000Y-126820000D03*
%TO.N,+5V*%
X283575000Y-51950000D03*
X38910000Y-95820000D03*
X49750000Y-99350000D03*
X49225000Y-55625000D03*
X302725000Y-72450000D03*
X302700000Y-78325000D03*
X286650500Y-71625000D03*
X57550000Y-53060000D03*
X288950000Y-127225500D03*
X156600000Y-127750000D03*
X38940000Y-81780000D03*
X105650000Y-127750000D03*
X299075000Y-99925000D03*
X70190000Y-54320000D03*
X52800000Y-58500000D03*
X187875000Y-127750000D03*
X304400000Y-85175000D03*
X243600000Y-127750000D03*
X60300000Y-127200000D03*
D58*
%TO.N,row0*%
X50556196Y-80364788D03*
D57*
X51601460Y-71875000D03*
X45375000Y-53275000D03*
D58*
X48000000Y-76250000D03*
D57*
X59100000Y-59350000D03*
%TO.N,row1*%
X57625000Y-72750000D03*
X49075000Y-72325000D03*
D58*
X53193357Y-83630500D03*
D57*
X83675000Y-70800000D03*
X79650000Y-70800000D03*
%TO.N,row2*%
X52125000Y-92300000D03*
X54300000Y-85799500D03*
X75650000Y-90025000D03*
X62800000Y-95125000D03*
X67500000Y-95600000D03*
X52175000Y-88625000D03*
%TO.N,row3*%
X57942878Y-101067878D03*
X57575000Y-104175000D03*
X58725000Y-108900000D03*
X68882122Y-90042878D03*
%TO.N,row4*%
X68925000Y-91075000D03*
X56150000Y-124800000D03*
X55500000Y-127950000D03*
X56425000Y-121900000D03*
%TO.N,Net-(D69-Pad3)*%
X47925000Y-81299500D03*
X46375000Y-85675000D03*
%TO.N,Net-(D70-Pad3)*%
X52350000Y-103550000D03*
X53450000Y-99125000D03*
%TO.N,RGB*%
X69110000Y-53750000D03*
X67700000Y-50225000D03*
%TO.N,Net-(D81-Pad1)*%
X285950000Y-51825000D03*
X289050000Y-71750000D03*
%TO.N,Net-(D82-Pad3)*%
X298300000Y-108125000D03*
X289825000Y-123725000D03*
%TO.N,Net-(D83-Pad1)*%
X299925000Y-88975000D03*
X297875000Y-99600000D03*
%TO.N,D-*%
X52325000Y-63250000D03*
X53325000Y-61785756D03*
%TO.N,RESET*%
X53250511Y-90125296D03*
X42300000Y-89575000D03*
X34550000Y-79060000D03*
%TO.N,SWDIO*%
X53950011Y-90892878D03*
X41350000Y-89900000D03*
%TO.N,SWCLK*%
X40825000Y-90875000D03*
X53059821Y-91600500D03*
D58*
%TO.N,ESCLED*%
X49603025Y-74209803D03*
X54038748Y-83947743D03*
X50706717Y-74844508D03*
D57*
X42610000Y-57620000D03*
D58*
%TO.N,+1V1*%
X58500000Y-85350000D03*
X58225000Y-81150000D03*
D57*
X55425000Y-90175000D03*
X59406334Y-77357910D03*
D58*
%TO.N,+3V3*%
X72160000Y-88080000D03*
D57*
X45820000Y-79840000D03*
D58*
X85840000Y-71530000D03*
D57*
X48810000Y-79270000D03*
X52450960Y-75599040D03*
X61520000Y-74920000D03*
D58*
X79840000Y-81600000D03*
D57*
X58043412Y-73657710D03*
X41470000Y-80570000D03*
D58*
X110390000Y-88030000D03*
X111760000Y-78249059D03*
X82130000Y-78080000D03*
D57*
X39420000Y-80090000D03*
D58*
X72120000Y-75850000D03*
X85830000Y-69600000D03*
D57*
%TO.N,col13*%
X292325000Y-91100000D03*
D58*
%TO.N,W*%
X52984909Y-80559500D03*
X78825000Y-71525000D03*
X64380000Y-72620000D03*
X84200000Y-69580000D03*
%TO.N,A*%
X53726497Y-80231642D03*
X50740000Y-88370000D03*
X49090000Y-81570000D03*
X50670000Y-91640000D03*
X66390000Y-96050000D03*
X61340000Y-95950000D03*
X75700000Y-85800000D03*
X53958107Y-78204070D03*
%TO.N,S*%
X89240000Y-96780000D03*
X54325997Y-79531825D03*
X56220000Y-92220000D03*
X94620000Y-86300000D03*
%TO.N,D*%
X55047339Y-79015161D03*
X69880000Y-89700000D03*
X112585000Y-91275000D03*
X112940000Y-89225500D03*
%TD*%
D59*
%TO.N,Net-(D38-Pad2)*%
X183110000Y-125490000D02*
X181702500Y-125490000D01*
X181702500Y-125490000D02*
X177125000Y-120912500D01*
%TO.N,Net-(D76-Pad3)*%
X191060000Y-124370000D02*
X189758604Y-124370000D01*
X189758604Y-124370000D02*
X188340000Y-125788604D01*
X188340000Y-125788604D02*
X188340000Y-126070000D01*
X188340000Y-126070000D02*
X186660000Y-127750000D01*
X186660000Y-127750000D02*
X179075000Y-127750000D01*
%TO.N,+5V*%
X192890000Y-124370000D02*
X191285000Y-125975000D01*
X191285000Y-125975000D02*
X188790000Y-125975000D01*
%TO.N,Net-(D78-Pad3)*%
X219300000Y-127750000D02*
X196770000Y-127750000D01*
X196770000Y-127750000D02*
X191625000Y-127750000D01*
X196770000Y-126550000D02*
X196770000Y-127750000D01*
X192890000Y-123270000D02*
X193490000Y-123270000D01*
X193490000Y-123270000D02*
X196770000Y-126550000D01*
%TO.N,Net-(D52-Pad2)*%
X234275000Y-120912500D02*
X236722500Y-120912500D01*
X236722500Y-120912500D02*
X236740000Y-120930000D01*
%TO.N,Net-(D38-Pad2)*%
X165530000Y-120350000D02*
X165540000Y-120350000D01*
X165540000Y-120350000D02*
X165957855Y-119932145D01*
X174952500Y-118120000D02*
X177165000Y-120332500D01*
X165957855Y-119932145D02*
X170817855Y-119932145D01*
X170817855Y-119932145D02*
X172630000Y-118120000D01*
X172630000Y-118120000D02*
X174952500Y-118120000D01*
%TO.N,Net-(D15-Pad2)*%
X94700000Y-122560000D02*
X95740000Y-122560000D01*
X94650000Y-122610000D02*
X94700000Y-122560000D01*
X94010000Y-120950000D02*
X94010000Y-121970000D01*
X94010000Y-121970000D02*
X94650000Y-122610000D01*
X95740000Y-122560000D02*
X95740000Y-121335000D01*
X95740000Y-121335000D02*
X96162500Y-120912500D01*
%TO.N,col2*%
X91162500Y-121412500D02*
X91162500Y-120692500D01*
X91162500Y-120692500D02*
X90320000Y-119850000D01*
X90320000Y-119850000D02*
X89520000Y-119850000D01*
X89520000Y-119850000D02*
X89010000Y-120360000D01*
X89010000Y-120360000D02*
X89010000Y-121450000D01*
%TO.N,row4*%
X225425000Y-128900000D02*
X284100000Y-128900000D01*
%TO.N,Net-(D76-Pad3)*%
X168180000Y-127750000D02*
X179075000Y-127750000D01*
%TO.N,row4*%
X65875000Y-128900000D02*
X101970000Y-128900000D01*
X101970000Y-128900000D02*
X160575000Y-128900000D01*
D60*
%TO.N,GND*%
X66170000Y-54740000D02*
X66910000Y-54000000D01*
D59*
%TO.N,+5V*%
X288400500Y-73375000D02*
X294150000Y-73375000D01*
D60*
%TO.N,row1*%
X59950000Y-72525000D02*
X61675000Y-70800000D01*
%TO.N,row3*%
X67374519Y-85784513D02*
X67374520Y-88535276D01*
X65040006Y-83450000D02*
X67374519Y-85784513D01*
%TO.N,row4*%
X64875000Y-83850000D02*
X66975000Y-85950000D01*
X66975000Y-85950000D02*
X66975000Y-89125000D01*
%TO.N,Net-(D83-Pad1)*%
X296800000Y-81200000D02*
X296800000Y-84375000D01*
X296800000Y-84375000D02*
X299925000Y-87500000D01*
X296800000Y-81200000D02*
X301775000Y-76225000D01*
%TO.N,D-*%
X50200000Y-60225000D02*
X52712500Y-62737500D01*
%TO.N,D+*%
X50600000Y-60050000D02*
X53325000Y-62775000D01*
%TO.N,CS*%
X62175990Y-78449040D02*
X80430974Y-78449038D01*
D59*
%TO.N,Net-(R_USB1-Pad1)*%
X49200000Y-47650000D02*
X49460000Y-47910000D01*
D60*
%TO.N,+3V3*%
X33120000Y-83035000D02*
X33120000Y-80930000D01*
X54584315Y-84250000D02*
X55662500Y-84250000D01*
X62537500Y-84250000D02*
X64145000Y-84250000D01*
X33780000Y-80270000D02*
X39240000Y-80270000D01*
%TO.N,col13*%
X68700000Y-91950000D02*
X291475000Y-91950000D01*
X63680012Y-84650000D02*
X64425000Y-85394988D01*
X64425000Y-87675000D02*
X68700000Y-91950000D01*
X64425000Y-85394988D02*
X64425000Y-87675000D01*
%TO.N,GND*%
X66089411Y-86860589D02*
X65600000Y-87350000D01*
D59*
X104084214Y-82350000D02*
X101220000Y-82350000D01*
X93540000Y-82610000D02*
X93530000Y-82600000D01*
D60*
X242215000Y-50040000D02*
X243000000Y-50825000D01*
D59*
X45315000Y-54625000D02*
X45310000Y-54620000D01*
D60*
X64650000Y-79625000D02*
X64220000Y-79195000D01*
X242215000Y-49775000D02*
X242215000Y-50040000D01*
D61*
X54700000Y-75750000D02*
X54700000Y-74650000D01*
D59*
X45970000Y-59310000D02*
X45250000Y-58590000D01*
D60*
X300675000Y-75275000D02*
X300600000Y-75350000D01*
D61*
X75300000Y-73050000D02*
X75275000Y-73025000D01*
D59*
X84442500Y-67382500D02*
X82770000Y-65710000D01*
D60*
X300675000Y-73965000D02*
X300675000Y-75275000D01*
D61*
X75300000Y-74145000D02*
X75300000Y-73050000D01*
D59*
X93540000Y-86312500D02*
X93540000Y-82610000D01*
D60*
X66089411Y-86239411D02*
X66089411Y-86860589D01*
X70975000Y-49775000D02*
X71900000Y-50700000D01*
X80730000Y-69795000D02*
X80725000Y-69800000D01*
D61*
X49100000Y-59825000D02*
X48850000Y-59575000D01*
D59*
X74690000Y-82140000D02*
X74575000Y-82025000D01*
D60*
X147000000Y-49775000D02*
X148200000Y-50975000D01*
X108865000Y-49915000D02*
X109900000Y-50950000D01*
X281025000Y-49775000D02*
X281850000Y-50600000D01*
X280315000Y-49775000D02*
X281025000Y-49775000D01*
X70765000Y-49775000D02*
X70975000Y-49775000D01*
D59*
X45970000Y-59650000D02*
X45970000Y-59310000D01*
X48440000Y-48085000D02*
X48625000Y-47900000D01*
D61*
X51350000Y-78700000D02*
X50725000Y-78075000D01*
D60*
X47225000Y-46250000D02*
X46150000Y-47325000D01*
D61*
X48850000Y-59575000D02*
X48850000Y-58162500D01*
D59*
X36005000Y-87005000D02*
X37680000Y-88680000D01*
X74690000Y-86222500D02*
X74690000Y-82140000D01*
X108066714Y-86332500D02*
X104084214Y-82350000D01*
D60*
X64220000Y-79195000D02*
X63750000Y-79195000D01*
D59*
X112980000Y-86332500D02*
X108066714Y-86332500D01*
D60*
X104735000Y-123660000D02*
X104700000Y-123625000D01*
D59*
X46970000Y-54625000D02*
X45315000Y-54625000D01*
D61*
X57300000Y-93905000D02*
X57300000Y-95375000D01*
X57085000Y-42435000D02*
X57075000Y-42425000D01*
D60*
X204115000Y-50015000D02*
X205100000Y-51000000D01*
D59*
X52305000Y-83490000D02*
X52305000Y-84395000D01*
X34550000Y-87005000D02*
X36005000Y-87005000D01*
X151680000Y-119010000D02*
X149060000Y-119010000D01*
D61*
X52070000Y-78700000D02*
X51350000Y-78700000D01*
D59*
X88390000Y-67382500D02*
X84442500Y-67382500D01*
D61*
X58275000Y-42435000D02*
X57085000Y-42435000D01*
D60*
X146965000Y-49775000D02*
X147000000Y-49775000D01*
X204115000Y-49750000D02*
X204115000Y-50015000D01*
D59*
X88690000Y-67082500D02*
X88390000Y-67382500D01*
D60*
X80730000Y-67925000D02*
X80730000Y-69795000D01*
X47225000Y-46082500D02*
X47225000Y-46250000D01*
X108865000Y-49775000D02*
X108865000Y-49915000D01*
D59*
X48440000Y-48900000D02*
X48440000Y-48085000D01*
X52305000Y-84395000D02*
X52350000Y-84440000D01*
D60*
X104735000Y-124875000D02*
X104735000Y-123660000D01*
D59*
X151900000Y-119230000D02*
X151680000Y-119010000D01*
X151875000Y-119230000D02*
X151900000Y-119230000D01*
D60*
%TO.N,+3V3*%
X58043412Y-73657710D02*
X58700000Y-74314298D01*
D59*
%TO.N,Net-(D10-Pad2)*%
X70130000Y-120370000D02*
X70130000Y-119520000D01*
X72390000Y-119130000D02*
X72390000Y-120332500D01*
X70130000Y-119520000D02*
X71030000Y-118620000D01*
X71030000Y-118620000D02*
X71880000Y-118620000D01*
X71880000Y-118620000D02*
X72390000Y-119130000D01*
%TO.N,col1*%
X65090000Y-121450000D02*
X65810000Y-120730000D01*
X66640000Y-119510000D02*
X67350000Y-120220000D01*
X65810000Y-120730000D02*
X65810000Y-119510000D01*
X65810000Y-119510000D02*
X66640000Y-119510000D01*
X67350000Y-120220000D02*
X67350000Y-121412500D01*
%TO.N,Net-(D62-Pad2)*%
X294100000Y-126900000D02*
X286100000Y-118900000D01*
X286100000Y-118900000D02*
X283372500Y-118900000D01*
X283372500Y-118900000D02*
X281940000Y-120332500D01*
%TO.N,row4*%
X308300000Y-130780000D02*
X307800000Y-130280000D01*
X307800000Y-130280000D02*
X285480000Y-130280000D01*
X285480000Y-130280000D02*
X284100000Y-128900000D01*
%TO.N,Net-(D68-Pad2)*%
X305712500Y-120912500D02*
X308070000Y-123270000D01*
X308070000Y-123270000D02*
X312380000Y-123270000D01*
X312380000Y-123270000D02*
X312380000Y-127120000D01*
X312380000Y-127120000D02*
X312020000Y-127480000D01*
X312020000Y-127480000D02*
X308300000Y-127480000D01*
%TO.N,Net-(D57-Pad2)*%
X265590000Y-125470000D02*
X265520000Y-125470000D01*
X265520000Y-125470000D02*
X262527887Y-122477887D01*
X262527887Y-122477887D02*
X259652887Y-122477887D01*
X259652887Y-122477887D02*
X258087500Y-120912500D01*
%TO.N,Net-(D52-Pad2)*%
X216210000Y-125450000D02*
X226621400Y-115038600D01*
X226621400Y-115038600D02*
X232652677Y-115038600D01*
X232652677Y-115038600D02*
X234275000Y-116660923D01*
X234275000Y-116660923D02*
X234275000Y-120912500D01*
%TO.N,row4*%
X215825000Y-128900000D02*
X216430000Y-128900000D01*
X216430000Y-128900000D02*
X219775000Y-128900000D01*
%TO.N,+5V*%
X153705000Y-120330000D02*
X153705000Y-124855000D01*
X153705000Y-124855000D02*
X156600000Y-127750000D01*
%TO.N,Net-(D74-Pad3)*%
X136420000Y-127725000D02*
X113000000Y-127725000D01*
X151875000Y-120330000D02*
X143815000Y-120330000D01*
X143815000Y-120330000D02*
X136420000Y-127725000D01*
%TO.N,Net-(D76-Pad3)*%
X153705000Y-119230000D02*
X162394745Y-119230000D01*
X162394745Y-119230000D02*
X166220000Y-123055255D01*
X166220000Y-123055255D02*
X166220000Y-125790000D01*
X166220000Y-125790000D02*
X168180000Y-127750000D01*
%TO.N,row4*%
X102810000Y-122330000D02*
X102690000Y-122330000D01*
X102690000Y-122330000D02*
X102000000Y-123020000D01*
X102000000Y-123020000D02*
X102000000Y-124470000D01*
X100560000Y-126820000D02*
X100560000Y-127490000D01*
X100560000Y-127490000D02*
X101970000Y-128900000D01*
%TO.N,Net-(D15-Pad2)*%
X99510000Y-122330000D02*
X97580000Y-122330000D01*
X97580000Y-122330000D02*
X96162500Y-120912500D01*
%TO.N,Net-(D10-Pad2)*%
X77530000Y-125450000D02*
X77530000Y-125440000D01*
X77560000Y-125480000D02*
X77530000Y-125450000D01*
X77530000Y-125440000D02*
X76877500Y-125440000D01*
X76877500Y-125440000D02*
X72350000Y-120912500D01*
%TO.N,Net-(D5-Pad2)*%
X53530000Y-125980000D02*
X53530000Y-124990000D01*
X53530000Y-124990000D02*
X49452500Y-120912500D01*
X49452500Y-120912500D02*
X48537500Y-120912500D01*
%TO.N,row4*%
X53530000Y-129280000D02*
X54860000Y-127950000D01*
X54860000Y-127950000D02*
X55500000Y-127950000D01*
D60*
%TO.N,GND*%
X60100000Y-88025000D02*
X63375000Y-91300000D01*
X60100000Y-86687500D02*
X60100000Y-88025000D01*
D61*
X52070000Y-78700000D02*
X52070000Y-79750000D01*
X57300000Y-93905000D02*
X58705000Y-93905000D01*
D60*
X59325000Y-94275000D02*
X59075000Y-94275000D01*
D61*
X63400000Y-92025000D02*
X63375000Y-92000000D01*
X54700000Y-76495000D02*
X54700000Y-75750000D01*
D60*
X61430000Y-73030000D02*
X59520000Y-73030000D01*
D61*
X58705000Y-93905000D02*
X59075000Y-94275000D01*
D59*
X53675000Y-46082500D02*
X53675000Y-48210000D01*
X53285000Y-49165000D02*
X53285000Y-48600000D01*
D60*
X65542500Y-52840000D02*
X66170000Y-52840000D01*
D61*
X63400000Y-92945000D02*
X63400000Y-92025000D01*
D60*
X65542500Y-54740000D02*
X66170000Y-54740000D01*
D61*
X54700000Y-75750000D02*
X54955000Y-75495000D01*
D59*
X53675000Y-48210000D02*
X53285000Y-48600000D01*
D60*
X61025000Y-92575000D02*
X59325000Y-94275000D01*
D59*
X51425000Y-51025000D02*
X53285000Y-49165000D01*
D60*
X61275000Y-92575000D02*
X61025000Y-92575000D01*
X66170000Y-52840000D02*
X66910000Y-53580000D01*
X66910000Y-53580000D02*
X66910000Y-54000000D01*
D59*
X45970000Y-60750000D02*
X45970000Y-59650000D01*
D60*
X59520000Y-73030000D02*
X59510000Y-73040000D01*
D61*
X59370000Y-42435000D02*
X59400000Y-42405000D01*
X58275000Y-42435000D02*
X59370000Y-42435000D01*
X54955000Y-75495000D02*
X55850000Y-75495000D01*
D60*
X63375000Y-91300000D02*
X63375000Y-92000000D01*
%TO.N,XTAL_IN*%
X62575000Y-93075000D02*
X61375000Y-94275000D01*
X61375000Y-94275000D02*
X61275000Y-94275000D01*
X63030000Y-94275000D02*
X61275000Y-94275000D01*
X59700000Y-86687500D02*
X59700000Y-88190006D01*
X59700000Y-88190006D02*
X62575000Y-91065006D01*
X63400000Y-93905000D02*
X63030000Y-94275000D01*
X62575000Y-91065006D02*
X62575000Y-93075000D01*
%TO.N,Net-(C_Crystal2-Pad2)*%
X57670000Y-92575000D02*
X57300000Y-92945000D01*
X59075000Y-92575000D02*
X57670000Y-92575000D01*
X59075000Y-91135000D02*
X59075000Y-92575000D01*
D59*
%TO.N,+5V*%
X107035000Y-47810000D02*
X107035000Y-48675000D01*
X61240000Y-125975000D02*
X61240000Y-126260000D01*
X202285000Y-48650000D02*
X202285000Y-48640000D01*
X265575000Y-42475000D02*
X273100000Y-42475000D01*
X57550000Y-53060000D02*
X55820000Y-53060000D01*
X208450000Y-42475000D02*
X215925000Y-42475000D01*
X289840000Y-125975000D02*
X289840000Y-126335500D01*
D60*
X301775000Y-72500000D02*
X301225000Y-73050000D01*
D59*
X286650500Y-71625000D02*
X288400500Y-73375000D01*
D60*
X46042500Y-56287500D02*
X47900000Y-56287500D01*
D59*
X244510000Y-125975000D02*
X244510000Y-126840000D01*
X202285000Y-48640000D02*
X208450000Y-42475000D01*
X145135000Y-48665000D02*
X151325000Y-42475000D01*
X68935000Y-48665000D02*
X75125000Y-42475000D01*
D61*
X55800000Y-58500000D02*
X56050000Y-58750000D01*
D60*
X301775000Y-72135000D02*
X301775000Y-72500000D01*
X38910000Y-95820000D02*
X40500000Y-97410000D01*
X301225000Y-73050000D02*
X294475000Y-73050000D01*
X44305000Y-76415000D02*
X38940000Y-81780000D01*
X294475000Y-73050000D02*
X294437500Y-73087500D01*
D61*
X47900000Y-56287500D02*
X47900000Y-54655000D01*
D59*
X278734022Y-48675000D02*
X279375000Y-49315978D01*
X106565000Y-125975000D02*
X106565000Y-126835000D01*
X188790000Y-126835000D02*
X187875000Y-127750000D01*
D61*
X47900000Y-54655000D02*
X47930000Y-54625000D01*
D59*
X61240000Y-126260000D02*
X60300000Y-127200000D01*
X151325000Y-42475000D02*
X196925000Y-42475000D01*
X51015000Y-99350000D02*
X51225000Y-99140000D01*
D60*
X39570000Y-62760000D02*
X46042500Y-56287500D01*
D59*
X278485000Y-48675000D02*
X278734022Y-48675000D01*
X262600000Y-45450000D02*
X265575000Y-42475000D01*
X75125000Y-42475000D02*
X83650000Y-42475000D01*
X83650000Y-42475000D02*
X86650000Y-45475000D01*
X86650000Y-45475000D02*
X91125000Y-45475000D01*
D60*
X299000000Y-101060000D02*
X299000000Y-100000000D01*
X39570000Y-70510000D02*
X39570000Y-62760000D01*
X48450000Y-97410000D02*
X49750000Y-98710000D01*
D59*
X145135000Y-47835000D02*
X139775000Y-42475000D01*
D60*
X302090000Y-72450000D02*
X301775000Y-72135000D01*
D59*
X188790000Y-125975000D02*
X188790000Y-126835000D01*
X52800000Y-56080000D02*
X52800000Y-58500000D01*
X91125000Y-45475000D02*
X94125000Y-42475000D01*
X222925000Y-44125000D02*
X224575000Y-42475000D01*
D60*
X45475000Y-76415000D02*
X39570000Y-70510000D01*
D59*
X217575000Y-44125000D02*
X222925000Y-44125000D01*
X294150000Y-73375000D02*
X294437500Y-73087500D01*
X224575000Y-42475000D02*
X235000000Y-42475000D01*
X139775000Y-42475000D02*
X133515000Y-42475000D01*
X240385000Y-47860000D02*
X240385000Y-48675000D01*
X278485000Y-47860000D02*
X278485000Y-48675000D01*
X255100000Y-42475000D02*
X258075000Y-45450000D01*
X289840000Y-126335500D02*
X288950000Y-127225500D01*
X215925000Y-42475000D02*
X217575000Y-44125000D01*
D61*
X48225000Y-54625000D02*
X49225000Y-55625000D01*
D59*
X279375000Y-50000000D02*
X281325000Y-51950000D01*
D60*
X304400000Y-85175000D02*
X302700000Y-83475000D01*
D59*
X49750000Y-99350000D02*
X51015000Y-99350000D01*
X279375000Y-49315978D02*
X279375000Y-50000000D01*
X101700000Y-42475000D02*
X107035000Y-47810000D01*
D61*
X47930000Y-53292500D02*
X47930000Y-54625000D01*
D59*
X281325000Y-51950000D02*
X283575000Y-51950000D01*
X67817500Y-54740000D02*
X69770000Y-54740000D01*
X235000000Y-42475000D02*
X240385000Y-47860000D01*
X145135000Y-48675000D02*
X145135000Y-48665000D01*
D61*
X47930000Y-54625000D02*
X48225000Y-54625000D01*
D59*
X145135000Y-48675000D02*
X145135000Y-47835000D01*
D60*
X302700000Y-83475000D02*
X302700000Y-78325000D01*
D59*
X68935000Y-48675000D02*
X68935000Y-48665000D01*
D61*
X52800000Y-58500000D02*
X55800000Y-58500000D01*
D60*
X40500000Y-97410000D02*
X48450000Y-97410000D01*
D59*
X240385000Y-48675000D02*
X240385000Y-48665000D01*
X106565000Y-126835000D02*
X105650000Y-127750000D01*
X258075000Y-45450000D02*
X262600000Y-45450000D01*
X94125000Y-42475000D02*
X101700000Y-42475000D01*
X202285000Y-47835000D02*
X202285000Y-48650000D01*
X55820000Y-53060000D02*
X52800000Y-56080000D01*
X113225000Y-42475000D02*
X107035000Y-48665000D01*
D61*
X47850000Y-53212500D02*
X47930000Y-53292500D01*
D59*
X131815000Y-44175000D02*
X126350000Y-44175000D01*
X240385000Y-48665000D02*
X246575000Y-42475000D01*
X133515000Y-42475000D02*
X131815000Y-44175000D01*
X126350000Y-44175000D02*
X124650000Y-42475000D01*
X196925000Y-42475000D02*
X202285000Y-47835000D01*
X273100000Y-42475000D02*
X278485000Y-47860000D01*
X69770000Y-54740000D02*
X70190000Y-54320000D01*
D60*
X49750000Y-98710000D02*
X49750000Y-99350000D01*
X299000000Y-100000000D02*
X299075000Y-99925000D01*
D59*
X246575000Y-42475000D02*
X255100000Y-42475000D01*
D60*
X45475000Y-76415000D02*
X44305000Y-76415000D01*
D59*
X124650000Y-42475000D02*
X113225000Y-42475000D01*
X107035000Y-48665000D02*
X107035000Y-48675000D01*
D60*
X302725000Y-72450000D02*
X302090000Y-72450000D01*
D59*
X244510000Y-126840000D02*
X243600000Y-127750000D01*
D61*
%TO.N,GNDREF*%
X54770000Y-40987500D02*
X57847500Y-40987500D01*
X59370000Y-41415000D02*
X59400000Y-41445000D01*
X58275000Y-41415000D02*
X59370000Y-41415000D01*
X57847500Y-40987500D02*
X58275000Y-41415000D01*
D60*
%TO.N,row0*%
X53541777Y-83030500D02*
X53624534Y-82947743D01*
X51550380Y-80810573D02*
X52383750Y-81643943D01*
X52383750Y-81643943D02*
X52383750Y-82303908D01*
D59*
X291125000Y-52700000D02*
X291725000Y-53300000D01*
D60*
X48000000Y-76250000D02*
X48000000Y-74400000D01*
X52383750Y-82303908D02*
X53110342Y-83030500D01*
X53624534Y-82947743D02*
X54452962Y-82947743D01*
X50556196Y-80364788D02*
X51001981Y-80810573D01*
D59*
X311075000Y-51750000D02*
X293275000Y-51750000D01*
X293275000Y-51750000D02*
X291725000Y-53300000D01*
D60*
X58350000Y-55650000D02*
X62250000Y-51750000D01*
D59*
X272975000Y-52700000D02*
X82475000Y-52700000D01*
D60*
X44375000Y-51750000D02*
X44375000Y-52275000D01*
X50525000Y-71875000D02*
X51601460Y-71875000D01*
X53110342Y-83030500D02*
X53541777Y-83030500D01*
X59100000Y-59350000D02*
X58350000Y-58600000D01*
X54452962Y-82947743D02*
X54555219Y-83050000D01*
X44375000Y-52275000D02*
X45375000Y-53275000D01*
X48000000Y-74400000D02*
X50525000Y-71875000D01*
X51001981Y-80810573D02*
X51550380Y-80810573D01*
D59*
X75350000Y-52700000D02*
X82475000Y-52700000D01*
X74400000Y-51750000D02*
X75350000Y-52700000D01*
X272975000Y-52700000D02*
X291125000Y-52700000D01*
X63425000Y-51750000D02*
X74400000Y-51750000D01*
D60*
X54555219Y-83050000D02*
X55662500Y-83050000D01*
X58350000Y-58600000D02*
X58350000Y-55650000D01*
X62250000Y-51750000D02*
X63425000Y-51750000D01*
D59*
%TO.N,Net-(D1-Pad2)*%
X43775000Y-44712500D02*
X44375000Y-45312500D01*
X44375000Y-45312500D02*
X44375000Y-48450000D01*
D60*
%TO.N,row1*%
X72950000Y-70800000D02*
X61675000Y-70800000D01*
D59*
X290500000Y-72075000D02*
X293875000Y-72075000D01*
D60*
X54287277Y-83347743D02*
X54389534Y-83450000D01*
X57775000Y-72525000D02*
X57625000Y-72675000D01*
D59*
X92000000Y-70800000D02*
X289225000Y-70800000D01*
D60*
X49075000Y-70850000D02*
X49125000Y-70800000D01*
X53790219Y-83347743D02*
X54287277Y-83347743D01*
X59950000Y-72525000D02*
X57775000Y-72525000D01*
X49075000Y-72325000D02*
X49075000Y-70850000D01*
X72950000Y-70800000D02*
X79650000Y-70800000D01*
X54389534Y-83450000D02*
X55662500Y-83450000D01*
X57625000Y-72675000D02*
X57625000Y-72750000D01*
D59*
X293875000Y-72075000D02*
X295150000Y-70800000D01*
X295150000Y-70800000D02*
X306325000Y-70800000D01*
X289225000Y-70800000D02*
X290500000Y-72075000D01*
D60*
X83675000Y-70800000D02*
X92000000Y-70800000D01*
X53193357Y-83630500D02*
X53507462Y-83630500D01*
X53507462Y-83630500D02*
X53790219Y-83347743D01*
D59*
%TO.N,Net-(D2-Pad2)*%
X48537500Y-63762500D02*
X49125000Y-64350000D01*
X49125000Y-64350000D02*
X49125000Y-67500000D01*
D60*
%TO.N,row2*%
X55049500Y-85050000D02*
X54300000Y-85799500D01*
D59*
X162025000Y-91150000D02*
X158675000Y-91150000D01*
X300475000Y-89875000D02*
X303125000Y-89875000D01*
D60*
X52125000Y-92300000D02*
X52125000Y-90450000D01*
D59*
X157375000Y-89850000D02*
X153900000Y-89850000D01*
D60*
X75825000Y-89850000D02*
X77725000Y-89850000D01*
D59*
X172950000Y-89850000D02*
X163325000Y-89850000D01*
X287275000Y-89850000D02*
X294150000Y-89850000D01*
D60*
X52125000Y-90450000D02*
X51525000Y-89850000D01*
D59*
X163325000Y-89850000D02*
X162025000Y-91150000D01*
D60*
X52175000Y-88625000D02*
X51525000Y-89275000D01*
X75650000Y-90025000D02*
X75825000Y-89850000D01*
X67025000Y-95125000D02*
X67500000Y-95600000D01*
X62800000Y-95125000D02*
X67025000Y-95125000D01*
D59*
X158675000Y-91150000D02*
X157375000Y-89850000D01*
X296350000Y-92050000D02*
X298300000Y-92050000D01*
X287275000Y-89850000D02*
X172950000Y-89850000D01*
X153900000Y-89850000D02*
X77725000Y-89850000D01*
D60*
X51525000Y-89275000D02*
X51525000Y-89850000D01*
X55662500Y-85050000D02*
X55049500Y-85050000D01*
D59*
X294150000Y-89850000D02*
X296350000Y-92050000D01*
X298300000Y-92050000D02*
X300475000Y-89875000D01*
%TO.N,Net-(D3-Pad2)*%
X50172500Y-84772500D02*
X51525000Y-86125000D01*
X51525000Y-86125000D02*
X51525000Y-86550000D01*
X44608750Y-84772500D02*
X50172500Y-84772500D01*
%TO.N,row3*%
X56275000Y-108900000D02*
X58725000Y-108900000D01*
D60*
X62537500Y-83450000D02*
X65040006Y-83450000D01*
X67374520Y-88535276D02*
X68882122Y-90042878D01*
D59*
X58725000Y-108900000D02*
X311075000Y-108900000D01*
D60*
X57942878Y-101067878D02*
X57942878Y-103807122D01*
X57942878Y-103807122D02*
X57575000Y-104175000D01*
D59*
%TO.N,Net-(D4-Pad2)*%
X47318750Y-100700000D02*
X54518750Y-100700000D01*
X54518750Y-100700000D02*
X55681250Y-101862500D01*
X55681250Y-101862500D02*
X56275000Y-102456250D01*
X56275000Y-102456250D02*
X56275000Y-105600000D01*
X46156250Y-101862500D02*
X47318750Y-100700000D01*
%TO.N,row4*%
X167300000Y-128900000D02*
X166850000Y-129350000D01*
X220725000Y-129850000D02*
X224475000Y-129850000D01*
X166850000Y-129350000D02*
X161025000Y-129350000D01*
X224475000Y-129850000D02*
X225425000Y-128900000D01*
X219775000Y-128900000D02*
X220725000Y-129850000D01*
D60*
X56425000Y-121900000D02*
X56150000Y-122175000D01*
X62537500Y-83850000D02*
X64875000Y-83850000D01*
D59*
X64925000Y-127950000D02*
X65875000Y-128900000D01*
X177725000Y-128900000D02*
X167300000Y-128900000D01*
D60*
X66975000Y-89125000D02*
X68925000Y-91075000D01*
X56150000Y-122175000D02*
X56150000Y-124800000D01*
D59*
X161025000Y-129350000D02*
X160575000Y-128900000D01*
X55500000Y-127950000D02*
X64925000Y-127950000D01*
D60*
X177725000Y-128900000D02*
X215825000Y-128900000D01*
D59*
%TO.N,Net-(D7-Pad2)*%
X72950000Y-64362500D02*
X72950000Y-67500000D01*
X72350000Y-63762500D02*
X72950000Y-64362500D01*
%TO.N,Net-(D8-Pad2)*%
X77112500Y-82812500D02*
X77725000Y-83425000D01*
X77725000Y-83425000D02*
X77725000Y-86550000D01*
%TO.N,Net-(D9-Pad2)*%
X67587500Y-101862500D02*
X68200000Y-102475000D01*
X68200000Y-102475000D02*
X68200000Y-105600000D01*
%TO.N,Net-(D11-Pad2)*%
X87225000Y-102450000D02*
X87225000Y-105600000D01*
X86637500Y-101862500D02*
X87225000Y-102450000D01*
%TO.N,Net-(D12-Pad2)*%
X81875000Y-44712500D02*
X82475000Y-45312500D01*
X82475000Y-45312500D02*
X82475000Y-49400000D01*
%TO.N,Net-(D13-Pad2)*%
X91400000Y-63762500D02*
X92000000Y-64362500D01*
X92000000Y-64362500D02*
X92000000Y-67500000D01*
%TO.N,Net-(D14-Pad2)*%
X96775000Y-83425000D02*
X96775000Y-86550000D01*
X96162500Y-82812500D02*
X96775000Y-83425000D01*
%TO.N,Net-(D16-Pad2)*%
X101525000Y-45312500D02*
X101525000Y-49400000D01*
X100925000Y-44712500D02*
X101525000Y-45312500D01*
%TO.N,Net-(D17-Pad2)*%
X110450000Y-63762500D02*
X111050000Y-64362500D01*
X111050000Y-64362500D02*
X111050000Y-67500000D01*
%TO.N,Net-(D18-Pad2)*%
X115800000Y-83400000D02*
X115800000Y-86550000D01*
X115212500Y-82812500D02*
X115800000Y-83400000D01*
%TO.N,Net-(D19-Pad2)*%
X105687500Y-101862500D02*
X106275000Y-102450000D01*
X106275000Y-102450000D02*
X106275000Y-105600000D01*
%TO.N,Net-(D20-Pad2)*%
X119975000Y-44712500D02*
X120575000Y-45312500D01*
X120575000Y-45312500D02*
X120575000Y-49400000D01*
%TO.N,Net-(D21-Pad2)*%
X129500000Y-63762500D02*
X130100000Y-64362500D01*
X130100000Y-64362500D02*
X130100000Y-67500000D01*
%TO.N,Net-(D22-Pad2)*%
X134262500Y-82812500D02*
X134875000Y-83425000D01*
X134875000Y-83425000D02*
X134875000Y-86550000D01*
%TO.N,Net-(D23-Pad2)*%
X125350000Y-102475000D02*
X125350000Y-105600000D01*
X124737500Y-101862500D02*
X125350000Y-102475000D01*
%TO.N,Net-(D25-Pad2)*%
X139025000Y-44712500D02*
X139625000Y-45312500D01*
X139625000Y-45312500D02*
X139625000Y-49400000D01*
%TO.N,Net-(D26-Pad2)*%
X148550000Y-63762500D02*
X149150000Y-64362500D01*
X149150000Y-64362500D02*
X149150000Y-67500000D01*
%TO.N,Net-(D27-Pad2)*%
X153900000Y-83400000D02*
X153900000Y-86550000D01*
X153312500Y-82812500D02*
X153900000Y-83400000D01*
%TO.N,Net-(D28-Pad2)*%
X144400000Y-102475000D02*
X144400000Y-105600000D01*
X143787500Y-101862500D02*
X144400000Y-102475000D01*
%TO.N,Net-(D30-Pad2)*%
X158675000Y-45312500D02*
X158675000Y-49400000D01*
X158075000Y-44712500D02*
X158675000Y-45312500D01*
%TO.N,Net-(D31-Pad2)*%
X168200000Y-64362500D02*
X168200000Y-67500000D01*
X167600000Y-63762500D02*
X168200000Y-64362500D01*
%TO.N,Net-(D32-Pad2)*%
X172950000Y-83400000D02*
X172950000Y-86550000D01*
X172362500Y-82812500D02*
X172950000Y-83400000D01*
%TO.N,Net-(D34-Pad2)*%
X177125000Y-44712500D02*
X177725000Y-45312500D01*
X177725000Y-45312500D02*
X177725000Y-49400000D01*
%TO.N,Net-(D35-Pad2)*%
X186650000Y-63762500D02*
X187250000Y-64362500D01*
X187250000Y-64362500D02*
X187250000Y-67500000D01*
%TO.N,Net-(D36-Pad2)*%
X191412500Y-82812500D02*
X192025000Y-83425000D01*
X192025000Y-83425000D02*
X192025000Y-86550000D01*
%TO.N,Net-(D37-Pad2)*%
X181887500Y-101862500D02*
X182500000Y-102475000D01*
X182500000Y-102475000D02*
X182500000Y-105600000D01*
%TO.N,Net-(D38-Pad2)*%
X177125000Y-120912500D02*
X177725000Y-121512500D01*
%TO.N,Net-(D39-Pad2)*%
X196175000Y-44712500D02*
X196775000Y-45312500D01*
X196775000Y-45312500D02*
X196775000Y-49400000D01*
%TO.N,Net-(D40-Pad2)*%
X206300000Y-64362500D02*
X206300000Y-67500000D01*
X205700000Y-63762500D02*
X206300000Y-64362500D01*
%TO.N,Net-(D41-Pad2)*%
X210462500Y-82812500D02*
X211075000Y-83425000D01*
X211075000Y-83425000D02*
X211075000Y-86550000D01*
%TO.N,Net-(D42-Pad2)*%
X200937500Y-101862500D02*
X201550000Y-102475000D01*
X201550000Y-102475000D02*
X201550000Y-105600000D01*
%TO.N,Net-(D43-Pad2)*%
X215225000Y-44712500D02*
X215825000Y-45312500D01*
X215825000Y-45312500D02*
X215825000Y-49400000D01*
%TO.N,Net-(D44-Pad2)*%
X224750000Y-63762500D02*
X225350000Y-64362500D01*
X225350000Y-64362500D02*
X225350000Y-67500000D01*
%TO.N,Net-(D45-Pad2)*%
X230100000Y-83400000D02*
X230100000Y-86550000D01*
X229512500Y-82812500D02*
X230100000Y-83400000D01*
%TO.N,Net-(D46-Pad2)*%
X219987500Y-101862500D02*
X220575000Y-102450000D01*
X220575000Y-102450000D02*
X220575000Y-105600000D01*
%TO.N,Net-(D48-Pad2)*%
X234275000Y-44712500D02*
X234875000Y-45312500D01*
X234875000Y-45312500D02*
X234875000Y-49400000D01*
%TO.N,Net-(D49-Pad2)*%
X244400000Y-64362500D02*
X244400000Y-67500000D01*
X243800000Y-63762500D02*
X244400000Y-64362500D01*
%TO.N,Net-(D50-Pad2)*%
X249175000Y-83425000D02*
X249175000Y-86575000D01*
X248562500Y-82812500D02*
X249175000Y-83425000D01*
%TO.N,Net-(D51-Pad2)*%
X239650000Y-102475000D02*
X239650000Y-105600000D01*
X239037500Y-101862500D02*
X239650000Y-102475000D01*
%TO.N,Net-(D53-Pad2)*%
X253325000Y-44712500D02*
X253925000Y-45312500D01*
X253925000Y-45312500D02*
X253925000Y-49400000D01*
%TO.N,Net-(D54-Pad2)*%
X262850000Y-63762500D02*
X263450000Y-64362500D01*
X263450000Y-64362500D02*
X263450000Y-67500000D01*
%TO.N,Net-(D55-Pad2)*%
X268200000Y-83400000D02*
X268200000Y-86550000D01*
X267612500Y-82812500D02*
X268200000Y-83400000D01*
%TO.N,Net-(D56-Pad2)*%
X258700000Y-102475000D02*
X258700000Y-105600000D01*
X258087500Y-101862500D02*
X258700000Y-102475000D01*
%TO.N,Net-(D58-Pad2)*%
X272975000Y-45312500D02*
X272975000Y-49400000D01*
X272375000Y-44712500D02*
X272975000Y-45312500D01*
%TO.N,Net-(D59-Pad2)*%
X281900000Y-63762500D02*
X282500000Y-64362500D01*
X282500000Y-64362500D02*
X282500000Y-67500000D01*
%TO.N,Net-(D61-Pad2)*%
X284281250Y-101862500D02*
X285443750Y-100700000D01*
X292643750Y-100700000D02*
X293806250Y-101862500D01*
X285443750Y-100700000D02*
X292643750Y-100700000D01*
X294400000Y-102456250D02*
X294400000Y-105600000D01*
X293806250Y-101862500D02*
X294400000Y-102456250D01*
%TO.N,Net-(D63-Pad2)*%
X291725000Y-45012500D02*
X291725000Y-50000000D01*
X291425000Y-44712500D02*
X291725000Y-45012500D01*
%TO.N,Net-(D64-Pad2)*%
X298568750Y-82812500D02*
X299362500Y-82812500D01*
X299362500Y-82812500D02*
X303125000Y-86575000D01*
D60*
X298608750Y-82232500D02*
X298608750Y-80941250D01*
D59*
%TO.N,Net-(D65-Pad2)*%
X307225000Y-43525000D02*
X308412500Y-44712500D01*
X308412500Y-44712500D02*
X310475000Y-44712500D01*
X311075000Y-45312500D02*
X311075000Y-48450000D01*
X301597500Y-43525000D02*
X307225000Y-43525000D01*
X310475000Y-44712500D02*
X311075000Y-45312500D01*
X300990000Y-44132500D02*
X301597500Y-43525000D01*
%TO.N,Net-(D66-Pad2)*%
X305712500Y-63762500D02*
X306325000Y-64375000D01*
X306325000Y-64375000D02*
X306325000Y-67500000D01*
%TO.N,Net-(D67-Pad2)*%
X311075000Y-102462500D02*
X311075000Y-105600000D01*
X310475000Y-101862500D02*
X311075000Y-102462500D01*
D60*
%TO.N,Net-(D69-Pad3)*%
X38475000Y-92485000D02*
X39780686Y-92485000D01*
X39780686Y-92485000D02*
X40690686Y-91575000D01*
X46575000Y-79949500D02*
X46575000Y-76415000D01*
X47925000Y-81299500D02*
X46575000Y-79949500D01*
X46025000Y-86025000D02*
X46375000Y-85675000D01*
X38775686Y-95120000D02*
X37307843Y-93652157D01*
X50925000Y-97010000D02*
X40665686Y-97010000D01*
X40665686Y-97010000D02*
X39610000Y-95954314D01*
X46025000Y-87904972D02*
X46025000Y-86025000D01*
X39199950Y-95120000D02*
X38775686Y-95120000D01*
X39610000Y-95954314D02*
X39610000Y-95530050D01*
X39610000Y-95530050D02*
X39199950Y-95120000D01*
X40690686Y-91575000D02*
X42354972Y-91575000D01*
X51225000Y-97310000D02*
X50925000Y-97010000D01*
X42354972Y-91575000D02*
X46025000Y-87904972D01*
X37307843Y-93652157D02*
X38475000Y-92485000D01*
%TO.N,Net-(D70-Pad3)*%
X52340000Y-99125000D02*
X52325000Y-99140000D01*
X59410000Y-125975000D02*
X55925000Y-125975000D01*
X50400000Y-120450000D02*
X50400000Y-105500000D01*
X53450000Y-99125000D02*
X52340000Y-99125000D01*
X50400000Y-105500000D02*
X52350000Y-103550000D01*
X55925000Y-125975000D02*
X50400000Y-120450000D01*
D59*
%TO.N,Net-(D71-Pad1)*%
X72025000Y-48675000D02*
X74900000Y-51550000D01*
X74900000Y-51550000D02*
X105260000Y-51550000D01*
X105260000Y-51550000D02*
X107035000Y-49775000D01*
X70765000Y-48675000D02*
X72025000Y-48675000D01*
D60*
%TO.N,RGB*%
X67700000Y-50225000D02*
X68485000Y-50225000D01*
X68727500Y-53750000D02*
X67817500Y-52840000D01*
X69110000Y-53750000D02*
X68727500Y-53750000D01*
X68485000Y-50225000D02*
X68935000Y-49775000D01*
D59*
%TO.N,Net-(D72-Pad3)*%
X62525000Y-124875000D02*
X61240000Y-124875000D01*
X99875000Y-125975000D02*
X98125000Y-127725000D01*
X104735000Y-125975000D02*
X99875000Y-125975000D01*
X98125000Y-127725000D02*
X65375000Y-127725000D01*
X65375000Y-127725000D02*
X62525000Y-124875000D01*
%TO.N,Net-(D73-Pad1)*%
X110150000Y-48675000D02*
X113175000Y-51700000D01*
X108865000Y-48675000D02*
X110150000Y-48675000D01*
X143210000Y-51700000D02*
X145135000Y-49775000D01*
X113175000Y-51700000D02*
X143210000Y-51700000D01*
%TO.N,Net-(D74-Pad3)*%
X113000000Y-127725000D02*
X110150000Y-124875000D01*
X110150000Y-124875000D02*
X106565000Y-124875000D01*
%TO.N,Net-(D75-Pad1)*%
X148250000Y-48675000D02*
X151125000Y-51550000D01*
X200485000Y-51550000D02*
X202285000Y-49750000D01*
X151125000Y-51550000D02*
X200485000Y-51550000D01*
X146965000Y-48675000D02*
X148250000Y-48675000D01*
%TO.N,Net-(D77-Pad1)*%
X238610000Y-51550000D02*
X240385000Y-49775000D01*
X208275000Y-51550000D02*
X238610000Y-51550000D01*
X204115000Y-48650000D02*
X205375000Y-48650000D01*
X205375000Y-48650000D02*
X208275000Y-51550000D01*
%TO.N,Net-(D78-Pad3)*%
X242680000Y-125975000D02*
X238000000Y-125975000D01*
X225925000Y-127750000D02*
X224300000Y-129375000D01*
X236225000Y-127750000D02*
X225925000Y-127750000D01*
X224300000Y-129375000D02*
X220925000Y-129375000D01*
X220925000Y-129375000D02*
X219300000Y-127750000D01*
X238000000Y-125975000D02*
X236225000Y-127750000D01*
%TO.N,Net-(D79-Pad1)*%
X242215000Y-48675000D02*
X243500000Y-48675000D01*
X276710000Y-51550000D02*
X278485000Y-49775000D01*
X243500000Y-48675000D02*
X246375000Y-51550000D01*
X246375000Y-51550000D02*
X276710000Y-51550000D01*
%TO.N,Net-(D80-Pad3)*%
X251125000Y-127750000D02*
X248250000Y-124875000D01*
X283850000Y-127750000D02*
X251125000Y-127750000D01*
X285625000Y-125975000D02*
X283850000Y-127750000D01*
X288010000Y-125975000D02*
X285625000Y-125975000D01*
X248250000Y-124875000D02*
X244510000Y-124875000D01*
D60*
%TO.N,Net-(D81-Pad1)*%
X281500000Y-48675000D02*
X280315000Y-48675000D01*
X293900000Y-72850000D02*
X290150000Y-72850000D01*
X285950000Y-51825000D02*
X284650000Y-51825000D01*
X294615000Y-72135000D02*
X293900000Y-72850000D01*
X290150000Y-72850000D02*
X289050000Y-71750000D01*
X284650000Y-51825000D02*
X281500000Y-48675000D01*
X300675000Y-72135000D02*
X294615000Y-72135000D01*
%TO.N,Net-(D82-Pad3)*%
X299000000Y-107425000D02*
X298300000Y-108125000D01*
X289825000Y-123725000D02*
X289825000Y-124860000D01*
X299000000Y-102890000D02*
X299000000Y-107425000D01*
X289825000Y-124860000D02*
X289840000Y-124875000D01*
%TO.N,Net-(D83-Pad1)*%
X301775000Y-73965000D02*
X301775000Y-76225000D01*
X297875000Y-101035000D02*
X297900000Y-101060000D01*
X297875000Y-99600000D02*
X297875000Y-101035000D01*
X299925000Y-87500000D02*
X299925000Y-88975000D01*
D59*
%TO.N,VCC*%
X47575000Y-48100000D02*
X47575000Y-49600000D01*
X47575000Y-49600000D02*
X47875000Y-49900000D01*
X52900000Y-45200000D02*
X52900000Y-46082500D01*
X52025481Y-44325481D02*
X52900000Y-45200000D01*
D61*
X48362500Y-50825000D02*
X47850000Y-51337500D01*
D59*
X48000000Y-45200000D02*
X48874519Y-44325481D01*
X48000000Y-47675000D02*
X47575000Y-48100000D01*
X49425000Y-50150000D02*
X49425000Y-50825000D01*
X48874519Y-44325481D02*
X52025481Y-44325481D01*
X48000000Y-46082500D02*
X48000000Y-45200000D01*
X48000000Y-46082500D02*
X48000000Y-47675000D01*
D61*
X49425000Y-50825000D02*
X48362500Y-50825000D01*
D59*
X47875000Y-49900000D02*
X49175000Y-49900000D01*
X49175000Y-49900000D02*
X49425000Y-50150000D01*
D60*
%TO.N,D-*%
X52925480Y-62950480D02*
X52712500Y-62737500D01*
X53325000Y-61785756D02*
X53389244Y-61785756D01*
X50250000Y-47650000D02*
X50025000Y-47425000D01*
X53000480Y-71315480D02*
X56925000Y-75240000D01*
X53000480Y-63025480D02*
X53000480Y-71315480D01*
X53389244Y-61785756D02*
X55425000Y-59750000D01*
X55425000Y-59750000D02*
X56050000Y-59750000D01*
X49700000Y-47100000D02*
X50025000Y-47425000D01*
X49425000Y-52725000D02*
X50250000Y-51900000D01*
X50025000Y-47425000D02*
X50450000Y-47425000D01*
X52325000Y-63250000D02*
X52575000Y-63000000D01*
X50450000Y-47450000D02*
X50450000Y-47425000D01*
X49700000Y-46082500D02*
X49700000Y-47100000D01*
X50200000Y-53500000D02*
X50200000Y-60225000D01*
X50450000Y-47425000D02*
X50700000Y-47175000D01*
X50250000Y-51900000D02*
X50250000Y-47650000D01*
X52575000Y-63000000D02*
X52925480Y-63000000D01*
X50700000Y-47175000D02*
X50700000Y-46082500D01*
X52712500Y-62737500D02*
X53000480Y-63025480D01*
X52925480Y-63000000D02*
X52925480Y-62950480D01*
X50250000Y-47650000D02*
X50450000Y-47450000D01*
X49425000Y-52725000D02*
X50200000Y-53500000D01*
%TO.N,D+*%
X50649520Y-51949520D02*
X50649520Y-48050480D01*
X58075000Y-75075000D02*
X53400000Y-70400000D01*
X50600000Y-53550000D02*
X51425000Y-52725000D01*
X50200000Y-45050000D02*
X50200000Y-46082500D01*
X53400000Y-62850000D02*
X53325000Y-62775000D01*
X51200000Y-46082500D02*
X51200000Y-45025000D01*
X50649520Y-48050480D02*
X51200000Y-47500000D01*
X50500000Y-44750000D02*
X50200000Y-45050000D01*
X55350000Y-60750000D02*
X56050000Y-60750000D01*
X53400000Y-70400000D02*
X53400000Y-62850000D01*
X51200000Y-47500000D02*
X51200000Y-46082500D01*
X51425000Y-52725000D02*
X50649520Y-51949520D01*
X50600000Y-60050000D02*
X50600000Y-53550000D01*
X51200000Y-45025000D02*
X50925000Y-44750000D01*
X58075000Y-75240000D02*
X58075000Y-75075000D01*
X53325000Y-62775000D02*
X55350000Y-60750000D01*
X50925000Y-44750000D02*
X50500000Y-44750000D01*
D59*
%TO.N,RESET*%
X34550000Y-76770000D02*
X34430000Y-76650000D01*
D60*
X53550492Y-89819496D02*
X54844988Y-88525000D01*
D59*
X37300000Y-82565000D02*
X36660000Y-81925000D01*
D60*
X42300000Y-89575000D02*
X42300000Y-89375000D01*
X53550491Y-89825316D02*
X53550492Y-89819496D01*
X57300000Y-87300000D02*
X57300000Y-86687500D01*
D59*
X36660000Y-81925000D02*
X34550000Y-81925000D01*
D60*
X42300000Y-89375000D02*
X38175000Y-85250000D01*
X53250511Y-90125296D02*
X53550491Y-89825316D01*
X37890000Y-82565000D02*
X37300000Y-82565000D01*
D59*
X34550000Y-79060000D02*
X34550000Y-76770000D01*
D60*
X56075000Y-88525000D02*
X57300000Y-87300000D01*
X54844988Y-88525000D02*
X56075000Y-88525000D01*
D59*
X34430000Y-70350000D02*
X34430000Y-76650000D01*
D60*
X38175000Y-82850000D02*
X37890000Y-82565000D01*
X38175000Y-85250000D02*
X38175000Y-82850000D01*
%TO.N,SWDIO*%
X57700000Y-87484994D02*
X57700000Y-86687500D01*
X41350000Y-89900000D02*
X40995000Y-89545000D01*
X53950011Y-90892878D02*
X53950011Y-89984983D01*
X56184994Y-89000000D02*
X57700000Y-87484994D01*
X53950011Y-89984983D02*
X54934994Y-89000000D01*
X40995000Y-89545000D02*
X34550000Y-89545000D01*
X54934994Y-89000000D02*
X56184994Y-89000000D01*
%TO.N,SWCLK*%
X54649511Y-91225489D02*
X54649511Y-89850489D01*
X54274500Y-91600500D02*
X54649511Y-91225489D01*
X39615000Y-92085000D02*
X34550000Y-92085000D01*
X55100000Y-89400000D02*
X56350000Y-89400000D01*
X40825000Y-90875000D02*
X39615000Y-92085000D01*
X54649511Y-89850489D02*
X55100000Y-89400000D01*
X53059821Y-91600500D02*
X54274500Y-91600500D01*
X56350000Y-89400000D02*
X58100000Y-87650000D01*
X58100000Y-87650000D02*
X58100000Y-86687500D01*
%TO.N,ESCLED*%
X54418630Y-83850000D02*
X55662500Y-83850000D01*
X54320887Y-83947743D02*
X54418630Y-83850000D01*
X54038748Y-83947743D02*
X54320887Y-83947743D01*
X42610000Y-57620000D02*
X41890000Y-57620000D01*
X41890000Y-57620000D02*
X41040000Y-56770000D01*
X50706717Y-74844508D02*
X50237730Y-74844508D01*
X50237730Y-74844508D02*
X49603025Y-74209803D01*
%TO.N,col0*%
X54300000Y-85100000D02*
X51600000Y-85100000D01*
X50918750Y-84418750D02*
X50918750Y-82812500D01*
D59*
X39846250Y-103822500D02*
X49371250Y-103822500D01*
D60*
X51600000Y-85100000D02*
X50918750Y-84418750D01*
X55662500Y-84650000D02*
X54750000Y-84650000D01*
X54750000Y-84650000D02*
X54300000Y-85100000D01*
%TO.N,col1*%
X64919988Y-83050000D02*
X62537500Y-83050000D01*
X67122388Y-80847600D02*
X64919988Y-83050000D01*
X72112500Y-81610100D02*
X71350000Y-80847600D01*
X72112500Y-83312500D02*
X72112500Y-81610100D01*
X71350000Y-80847600D02*
X67122388Y-80847600D01*
%TO.N,col2*%
X91162500Y-81412500D02*
X91162500Y-83312500D01*
X64754982Y-82650000D02*
X66956902Y-80448080D01*
X90198080Y-80448080D02*
X91162500Y-81412500D01*
X66956902Y-80448080D02*
X90198080Y-80448080D01*
X62537500Y-82650000D02*
X64754982Y-82650000D01*
%TO.N,col3*%
X64589976Y-82250000D02*
X66791416Y-80048560D01*
X108998560Y-80048560D02*
X110212500Y-81262500D01*
X66791416Y-80048560D02*
X108998560Y-80048560D01*
X110212500Y-81262500D02*
X110212500Y-83312500D01*
X62537500Y-82250000D02*
X64589976Y-82250000D01*
%TO.N,col4*%
X66625930Y-79649040D02*
X127924040Y-79649040D01*
X62537500Y-81850000D02*
X64424970Y-81850000D01*
X127924040Y-79649040D02*
X129262500Y-80987500D01*
X64424970Y-81850000D02*
X66625930Y-79649040D01*
X129262500Y-80987500D02*
X129262500Y-83312500D01*
%TO.N,col5*%
X62537500Y-81450000D02*
X64259964Y-81450000D01*
X69776441Y-79249520D02*
X146974520Y-79249520D01*
X148312500Y-80587500D02*
X148312500Y-83312500D01*
X69775000Y-79248079D02*
X69776441Y-79249520D01*
X69773559Y-79249520D02*
X69775000Y-79248079D01*
X66460444Y-79249520D02*
X69773559Y-79249520D01*
X146974520Y-79249520D02*
X148312500Y-80587500D01*
X64259964Y-81450000D02*
X66460444Y-79249520D01*
%TO.N,col6*%
X64094958Y-81050000D02*
X66294958Y-78850000D01*
X66925000Y-78850000D02*
X66926441Y-78848559D01*
X62537500Y-81050000D02*
X64094958Y-81050000D01*
X66926441Y-78848559D02*
X165473559Y-78848559D01*
X167362500Y-80737500D02*
X167362500Y-83312500D01*
X165473559Y-78848559D02*
X167362500Y-80737500D01*
X66294958Y-78850000D02*
X66925000Y-78850000D01*
%TO.N,col7*%
X61149039Y-88474039D02*
X67500000Y-94825000D01*
X60500000Y-87830012D02*
X61144027Y-88474039D01*
X61144027Y-88474039D02*
X61149039Y-88474039D01*
X60500000Y-86687500D02*
X60500000Y-87830012D01*
X174150000Y-94825000D02*
X176887500Y-97562500D01*
X176887500Y-97562500D02*
X176887500Y-102362500D01*
X67500000Y-94825000D02*
X174150000Y-94825000D01*
%TO.N,col8*%
X195937500Y-96937500D02*
X193425480Y-94425480D01*
X193425480Y-94425480D02*
X67665486Y-94425480D01*
X195937500Y-102362500D02*
X195937500Y-96937500D01*
X61314526Y-88074520D02*
X61309513Y-88074519D01*
X61309513Y-88074519D02*
X60900000Y-87665006D01*
X67665486Y-94425480D02*
X61314526Y-88074520D01*
X60900000Y-87665006D02*
X60900000Y-86687500D01*
%TO.N,col9*%
X61300000Y-86687500D02*
X61300000Y-87500000D01*
X67830972Y-94025960D02*
X211000960Y-94025960D01*
X61475000Y-87675000D02*
X61480013Y-87675001D01*
X61480013Y-87675001D02*
X67830972Y-94025960D01*
X211000960Y-94025960D02*
X214987500Y-98012500D01*
X61300000Y-87500000D02*
X61475000Y-87675000D01*
X214987500Y-98012500D02*
X214987500Y-102362500D01*
%TO.N,col10*%
X61700000Y-87329982D02*
X67945018Y-93575000D01*
X229625000Y-93575000D02*
X234037500Y-97987500D01*
X67945018Y-93575000D02*
X229625000Y-93575000D01*
X61700000Y-86687500D02*
X61700000Y-87329982D01*
X234037500Y-97987500D02*
X234037500Y-102362500D01*
%TO.N,col11*%
X68125480Y-93175480D02*
X249100480Y-93175480D01*
X253087500Y-97162500D02*
X253087500Y-102362500D01*
X249100480Y-93175480D02*
X253087500Y-97162500D01*
X62537500Y-87587500D02*
X68125480Y-93175480D01*
X62537500Y-85850000D02*
X62537500Y-87587500D01*
%TO.N,col12*%
X269694710Y-92775960D02*
X279281250Y-102362500D01*
X63600000Y-85700000D02*
X63600000Y-88050000D01*
X63600000Y-88050000D02*
X68325960Y-92775960D01*
X63350000Y-85450000D02*
X63600000Y-85700000D01*
X62537500Y-85450000D02*
X63350000Y-85450000D01*
X68325960Y-92775960D02*
X269694710Y-92775960D01*
%TO.N,XTAL_OUT*%
X59300000Y-86687500D02*
X59300000Y-89890000D01*
X59300000Y-89890000D02*
X59075000Y-90115000D01*
%TO.N,Net-(R_DATA1-Pad2)*%
X58100000Y-76285000D02*
X58075000Y-76260000D01*
X58100000Y-79812500D02*
X58100000Y-76285000D01*
%TO.N,Net-(R_DATA2-Pad2)*%
X57700000Y-77250000D02*
X56925000Y-76475000D01*
X56925000Y-76475000D02*
X56925000Y-76260000D01*
X57700000Y-79812500D02*
X57700000Y-77250000D01*
%TO.N,Net-(R_Flash1-Pad1)*%
X76900000Y-64010000D02*
X76750000Y-63860000D01*
D59*
X83050000Y-63860000D02*
X76750000Y-63860000D01*
D60*
X76900000Y-65090000D02*
X76900000Y-64010000D01*
%TO.N,CS*%
X76920000Y-67355000D02*
X76920000Y-67925000D01*
X61700000Y-79812500D02*
X61700000Y-78925030D01*
X78150000Y-66125000D02*
X76920000Y-67355000D01*
X82450000Y-76430012D02*
X82450000Y-67134994D01*
X81440006Y-66125000D02*
X78150000Y-66125000D01*
X61700000Y-78925030D02*
X62175990Y-78449040D01*
X76900000Y-66110000D02*
X76900000Y-67905000D01*
X76900000Y-67905000D02*
X76920000Y-67925000D01*
X80430974Y-78449038D02*
X82450000Y-76430012D01*
X82450000Y-67134994D02*
X81440006Y-66125000D01*
D59*
%TO.N,Net-(R_USB1-Pad1)*%
X49200000Y-46082500D02*
X49200000Y-47650000D01*
X49460000Y-48900000D02*
X49460000Y-47910000D01*
%TO.N,Net-(R_USB2-Pad1)*%
X52200000Y-48535000D02*
X52265000Y-48600000D01*
X52200000Y-46082500D02*
X52200000Y-48535000D01*
D60*
%TO.N,SD3*%
X59700000Y-78100000D02*
X61350000Y-76450000D01*
X59700000Y-79812500D02*
X59700000Y-78100000D01*
X61350000Y-76450000D02*
X77625000Y-76450000D01*
X77625000Y-76450000D02*
X78190000Y-75885000D01*
X78190000Y-75885000D02*
X78190000Y-75125000D01*
%TO.N,QSPI_CLK*%
X60100000Y-78265006D02*
X61515486Y-76849520D01*
X78800480Y-76849520D02*
X79460000Y-76190000D01*
X61515486Y-76849520D02*
X78800480Y-76849520D01*
X79460000Y-76190000D02*
X79460000Y-75125000D01*
X60100000Y-79812500D02*
X60100000Y-78265006D01*
%TO.N,SD0*%
X60500000Y-79812500D02*
X60500000Y-78430012D01*
X79875960Y-77249040D02*
X80750000Y-76375000D01*
X61680972Y-77249040D02*
X79875960Y-77249040D01*
X80750000Y-76375000D02*
X80750000Y-75145000D01*
X60500000Y-78430012D02*
X61680972Y-77249040D01*
X80750000Y-75145000D02*
X80730000Y-75125000D01*
%TO.N,SD2*%
X80100000Y-77650000D02*
X81625000Y-76125000D01*
X81625000Y-71750000D02*
X79460000Y-69585000D01*
X81625000Y-76125000D02*
X81625000Y-71750000D01*
X79460000Y-69585000D02*
X79460000Y-67925000D01*
X60900000Y-78595018D02*
X61845018Y-77650000D01*
X60900000Y-79812500D02*
X60900000Y-78595018D01*
X61845018Y-77650000D02*
X80100000Y-77650000D01*
%TO.N,SD1*%
X82025000Y-67275000D02*
X81275000Y-66525000D01*
X81275000Y-66525000D02*
X78975000Y-66525000D01*
X61300000Y-79812500D02*
X61300000Y-78760024D01*
X82025000Y-76290006D02*
X82025000Y-67275000D01*
X61300000Y-78760024D02*
X62010504Y-78049520D01*
X80265487Y-78049519D02*
X82025000Y-76290006D01*
X78190000Y-67310000D02*
X78190000Y-67925000D01*
X62010504Y-78049520D02*
X80265487Y-78049519D01*
X78975000Y-66525000D02*
X78190000Y-67310000D01*
%TO.N,+1V1*%
X55430000Y-90170000D02*
X55425000Y-90175000D01*
X57300000Y-80550000D02*
X57400000Y-80650000D01*
X58500000Y-86687500D02*
X58500000Y-87875000D01*
X58500000Y-87875000D02*
X56550000Y-89825000D01*
X58500000Y-86687500D02*
X58500000Y-85350000D01*
X60690000Y-73990000D02*
X61430000Y-73990000D01*
X57300000Y-77900000D02*
X57300000Y-79812500D01*
X57300000Y-79812500D02*
X57300000Y-80550000D01*
X55855000Y-76455000D02*
X57300000Y-77900000D01*
X55850000Y-76455000D02*
X55855000Y-76455000D01*
X56550000Y-90170000D02*
X55430000Y-90170000D01*
X56550000Y-89825000D02*
X56550000Y-90170000D01*
X59300000Y-79812500D02*
X59300000Y-77464244D01*
X59406334Y-77357910D02*
X59406334Y-75273666D01*
X59300000Y-77464244D02*
X59406334Y-77357910D01*
X59406334Y-75273666D02*
X60690000Y-73990000D01*
D59*
%TO.N,+3V3*%
X87590000Y-88487500D02*
X87710000Y-88487500D01*
D60*
X58700000Y-74314298D02*
X58700000Y-78900000D01*
X55662500Y-80650000D02*
X55662500Y-78782500D01*
D59*
X71890000Y-75620000D02*
X71890000Y-75105000D01*
D60*
X39240000Y-80270000D02*
X39420000Y-80090000D01*
D61*
X75300000Y-75105000D02*
X71890000Y-75105000D01*
D59*
X112030000Y-88207500D02*
X110567500Y-88207500D01*
D61*
X52450960Y-75599040D02*
X52450960Y-76550960D01*
D60*
X56500000Y-79812500D02*
X56500000Y-79255000D01*
X58900000Y-86687500D02*
X58900000Y-86000000D01*
X58500000Y-79100000D02*
X58500000Y-79812500D01*
X56775000Y-80650000D02*
X56900000Y-80525000D01*
D61*
X46950000Y-58162500D02*
X46950000Y-59630000D01*
D59*
X73740000Y-88097500D02*
X72177500Y-88097500D01*
D61*
X61644388Y-74920000D02*
X62154388Y-74410000D01*
D60*
X58700000Y-78900000D02*
X58500000Y-79100000D01*
D59*
X85840000Y-74370000D02*
X82130000Y-78080000D01*
D60*
X58900000Y-79812500D02*
X58900000Y-80425000D01*
D61*
X57900000Y-89500000D02*
X58225000Y-89175000D01*
D60*
X58900000Y-79812500D02*
X58900000Y-79100000D01*
D59*
X92290000Y-88487500D02*
X87710000Y-88487500D01*
X72177500Y-88097500D02*
X72160000Y-88080000D01*
D60*
X53310000Y-84440000D02*
X53690000Y-84440000D01*
X58900000Y-79100000D02*
X58700000Y-78900000D01*
D61*
X61520000Y-74920000D02*
X61644388Y-74920000D01*
D60*
X52371920Y-75520000D02*
X52450960Y-75599040D01*
X56500000Y-79255000D02*
X54700000Y-77455000D01*
D61*
X49075000Y-60750000D02*
X51125000Y-62800000D01*
D60*
X58385702Y-74000000D02*
X59510000Y-74000000D01*
D61*
X62154388Y-74410000D02*
X71195000Y-74410000D01*
D59*
X92590000Y-88187500D02*
X92290000Y-88487500D01*
D61*
X71195000Y-74410000D02*
X71890000Y-75105000D01*
D59*
X110567500Y-88207500D02*
X110390000Y-88030000D01*
D61*
X52450960Y-66600960D02*
X52450960Y-75599040D01*
D59*
X87740000Y-68957500D02*
X86472500Y-68957500D01*
D60*
X64145000Y-84250000D02*
X65495000Y-85600000D01*
X56900000Y-80525000D02*
X56900000Y-79812500D01*
D61*
X51125000Y-65275000D02*
X52450960Y-66600960D01*
D59*
X85840000Y-71530000D02*
X92570000Y-78260000D01*
D61*
X46930000Y-60750000D02*
X49075000Y-60750000D01*
X46950000Y-59630000D02*
X46930000Y-59650000D01*
D60*
X58900000Y-86687500D02*
X58900000Y-88500000D01*
X49401260Y-76110000D02*
X49450823Y-76110000D01*
D59*
X92570000Y-78260000D02*
X111760000Y-78260000D01*
D61*
X53030000Y-78700000D02*
X53030000Y-79750000D01*
D60*
X58500000Y-79812500D02*
X58500000Y-80425000D01*
D61*
X52450960Y-76550960D02*
X53355000Y-77455000D01*
D60*
X54610000Y-78400000D02*
X53260000Y-79750000D01*
X55280000Y-78400000D02*
X54610000Y-78400000D01*
X62537500Y-80650000D02*
X61800000Y-80650000D01*
D61*
X51125000Y-62800000D02*
X51125000Y-65275000D01*
D60*
X41470000Y-80570000D02*
X42200000Y-79840000D01*
D61*
X53355000Y-77455000D02*
X54700000Y-77455000D01*
D60*
X33120000Y-80930000D02*
X33780000Y-80270000D01*
X34550000Y-84465000D02*
X33120000Y-83035000D01*
D61*
X46930000Y-59650000D02*
X46930000Y-60750000D01*
D60*
X53950000Y-84700000D02*
X54134314Y-84700000D01*
D59*
X85840000Y-71530000D02*
X85840000Y-74370000D01*
D61*
X76920000Y-75125000D02*
X75320000Y-75125000D01*
D60*
X55662500Y-78782500D02*
X55280000Y-78400000D01*
X49450823Y-76110000D02*
X50040823Y-75520000D01*
X62537500Y-80650000D02*
X63255000Y-80650000D01*
D59*
X72120000Y-75850000D02*
X71890000Y-75620000D01*
D60*
X53260000Y-79750000D02*
X53030000Y-79750000D01*
D59*
X80702500Y-81600000D02*
X87590000Y-88487500D01*
D60*
X48810000Y-76701260D02*
X49401260Y-76110000D01*
X63255000Y-80650000D02*
X63750000Y-80155000D01*
D59*
X86472500Y-68957500D02*
X85830000Y-69600000D01*
D60*
X42200000Y-79840000D02*
X45820000Y-79840000D01*
X58900000Y-80425000D02*
X59025000Y-80550000D01*
X56500000Y-80375000D02*
X56775000Y-80650000D01*
D61*
X36420000Y-84465000D02*
X37300000Y-83585000D01*
D60*
X58500000Y-80425000D02*
X58625000Y-80550000D01*
X53690000Y-84440000D02*
X53950000Y-84700000D01*
X56500000Y-79812500D02*
X56500000Y-80375000D01*
D61*
X34550000Y-84465000D02*
X36420000Y-84465000D01*
D60*
X58043412Y-73657710D02*
X58385702Y-74000000D01*
D59*
X79840000Y-81600000D02*
X80702500Y-81600000D01*
D61*
X57900000Y-90170000D02*
X57900000Y-89500000D01*
D60*
X58900000Y-88500000D02*
X58225000Y-89175000D01*
D61*
X75320000Y-75125000D02*
X75300000Y-75105000D01*
D60*
X48810000Y-79270000D02*
X48810000Y-76701260D01*
X50040823Y-75520000D02*
X52371920Y-75520000D01*
X55662500Y-80650000D02*
X56775000Y-80650000D01*
X54134314Y-84700000D02*
X54584315Y-84250000D01*
X61800000Y-80650000D02*
X61700000Y-80750000D01*
D59*
%TO.N,Net-(MX3-Pad3)*%
X40020000Y-54307500D02*
X40005000Y-54292500D01*
X40020000Y-56770000D02*
X40020000Y-54307500D01*
D60*
%TO.N,col13*%
X62537500Y-84650000D02*
X63680012Y-84650000D01*
X291475000Y-91950000D02*
X292325000Y-91100000D01*
%TO.N,col14*%
X68491446Y-92376440D02*
X292718940Y-92376440D01*
X64000000Y-85534994D02*
X64000000Y-87884994D01*
X64000000Y-87884994D02*
X68491446Y-92376440D01*
X292718940Y-92376440D02*
X304165000Y-103822500D01*
X62537500Y-85050000D02*
X63515006Y-85050000D01*
X63515006Y-85050000D02*
X64000000Y-85534994D01*
%TO.N,W*%
X72604264Y-72620000D02*
X73699264Y-71525000D01*
X84820000Y-70200000D02*
X88397500Y-70200000D01*
X84200000Y-69580000D02*
X84820000Y-70200000D01*
X53326497Y-80943529D02*
X54632968Y-82250000D01*
X88397500Y-70200000D02*
X89640000Y-68957500D01*
X64380000Y-72620000D02*
X72604264Y-72620000D01*
X53326497Y-80901088D02*
X53326497Y-80943529D01*
X54632968Y-82250000D02*
X55662500Y-82250000D01*
X73699264Y-71525000D02*
X78825000Y-71525000D01*
X52984909Y-80559500D02*
X53326497Y-80901088D01*
%TO.N,A*%
X49510000Y-81150000D02*
X49090000Y-81570000D01*
X75640000Y-85860000D02*
X75700000Y-85800000D01*
X53726497Y-80777843D02*
X54798654Y-81850000D01*
X66390000Y-96050000D02*
X61440000Y-96050000D01*
X50625000Y-88485000D02*
X50740000Y-88370000D01*
X50670000Y-91640000D02*
X50625000Y-91595000D01*
X50625000Y-91595000D02*
X50625000Y-88485000D01*
X54798654Y-81850000D02*
X55662500Y-81850000D01*
X61440000Y-96050000D02*
X61340000Y-95950000D01*
X53127182Y-78005000D02*
X52341091Y-77218909D01*
X52341091Y-77218909D02*
X50591141Y-77218909D01*
X53759037Y-78005000D02*
X53127182Y-78005000D01*
X50591141Y-77218909D02*
X49510000Y-78300050D01*
X53726497Y-80231642D02*
X53726497Y-80777843D01*
X49510000Y-78300050D02*
X49510000Y-81150000D01*
X75640000Y-88097500D02*
X75640000Y-85860000D01*
X53958107Y-78204070D02*
X53759037Y-78005000D01*
%TO.N,S*%
X56220000Y-95284950D02*
X56220000Y-92220000D01*
X54325997Y-80811657D02*
X54964340Y-81450000D01*
X89240000Y-96780000D02*
X57715050Y-96780000D01*
X94620000Y-86300000D02*
X94620000Y-88057500D01*
X54325997Y-79531825D02*
X54325997Y-80811657D01*
X57715050Y-96780000D02*
X56220000Y-95284950D01*
X94620000Y-88057500D02*
X94490000Y-88187500D01*
X54964340Y-81450000D02*
X55662500Y-81450000D01*
%TO.N,D*%
X55130026Y-81050000D02*
X55662500Y-81050000D01*
X69880000Y-89700000D02*
X71455000Y-91275000D01*
X112940000Y-89225500D02*
X112940000Y-89197500D01*
X54925000Y-79137500D02*
X54925000Y-80844974D01*
X112940000Y-89197500D02*
X113930000Y-88207500D01*
X71455000Y-91275000D02*
X112585000Y-91275000D01*
X54925000Y-80844974D02*
X55130026Y-81050000D01*
X55047339Y-79015161D02*
X54925000Y-79137500D01*
%TD*%
M02*
