%TF.GenerationSoftware,KiCad,Pcbnew,7.0.9-7.0.9~ubuntu22.04.1*%
%TF.CreationDate,2023-11-09T12:16:25-08:00*%
%TF.ProjectId,SST60,53535436-302e-46b6-9963-61645f706362,0.1*%
%TF.SameCoordinates,Original*%
%TF.FileFunction,Soldermask,Top*%
%TF.FilePolarity,Negative*%
%FSLAX46Y46*%
G04 Gerber Fmt 4.6, Leading zero omitted, Abs format (unit mm)*
G04 Created by KiCad (PCBNEW 7.0.9-7.0.9~ubuntu22.04.1) date 2023-11-09 12:16:25*
%MOMM*%
%LPD*%
G01*
G04 APERTURE LIST*
%ADD10C,1.750000*%
%ADD11C,3.987800*%
%ADD12C,4.000000*%
%ADD13C,3.050000*%
%ADD14C,1.700000*%
%ADD15C,2.200000*%
%ADD16C,1.000000*%
%ADD17C,7.001300*%
%ADD18C,7.000240*%
%ADD19C,3.048000*%
%ADD20C,0.750000*%
%ADD21O,1.100000X1.700000*%
%ADD22O,1.100000X2.200000*%
%ADD23R,1.700000X1.700000*%
%ADD24O,1.700000X1.700000*%
G04 APERTURE END LIST*
D10*
%TO.C,1.25U*%
X300620000Y-125430000D03*
D11*
X305700000Y-125430000D03*
D10*
X310780000Y-125430000D03*
%TD*%
%TO.C,1.25U*%
X276720000Y-125430000D03*
D11*
X281800000Y-125430000D03*
D10*
X286880000Y-125430000D03*
%TD*%
%TO.C,1.25U*%
X252880000Y-125490000D03*
D11*
X257960000Y-125490000D03*
D10*
X263040000Y-125490000D03*
%TD*%
%TO.C,1.25U*%
X229160000Y-125430000D03*
D11*
X234240000Y-125430000D03*
D10*
X239320000Y-125430000D03*
%TD*%
%TO.C,Small Split*%
X226695000Y-125412500D03*
D11*
X231775000Y-125412500D03*
D10*
X236855000Y-125412500D03*
%TD*%
%TO.C,N*%
X174307500Y-106362500D03*
D11*
X179387500Y-106362500D03*
D10*
X184467500Y-106362500D03*
%TD*%
D12*
%TO.C,REF\u002A\u002A*%
X112990000Y-117190000D03*
D13*
X212990000Y-132430000D03*
D14*
X157910000Y-125430000D03*
D12*
X212990000Y-117190000D03*
D13*
X112990000Y-132430000D03*
D12*
X162990000Y-125430000D03*
D14*
X168070000Y-125430000D03*
D15*
X165530000Y-120350000D03*
X159180000Y-122890000D03*
%TD*%
D10*
%TO.C,1.25U*%
X86430000Y-125450000D03*
D11*
X91510000Y-125450000D03*
D10*
X96590000Y-125450000D03*
%TD*%
%TO.C,1.25U*%
X62510000Y-125450000D03*
D11*
X67590000Y-125450000D03*
D10*
X72670000Y-125450000D03*
%TD*%
%TO.C,1.25U*%
X38670000Y-125330000D03*
D11*
X43750000Y-125330000D03*
D10*
X48830000Y-125330000D03*
%TD*%
%TO.C,2*%
X155240000Y-106380000D03*
D11*
X160320000Y-106380000D03*
D10*
X165400000Y-106380000D03*
%TD*%
%TO.C,2*%
X55270000Y-49190000D03*
D11*
X60350000Y-49190000D03*
D10*
X65430000Y-49190000D03*
%TD*%
%TO.C,1.50u*%
X40957500Y-125412500D03*
D11*
X46037500Y-125412500D03*
D10*
X51117500Y-125412500D03*
%TD*%
%TO.C,T*%
X140970000Y-68262500D03*
D11*
X146050000Y-68262500D03*
D10*
X151130000Y-68262500D03*
%TD*%
%TO.C,Tab*%
X40957500Y-68262500D03*
D11*
X46037500Y-68262500D03*
D10*
X51117500Y-68262500D03*
%TD*%
%TO.C,[*%
X255270000Y-68262500D03*
D11*
X260350000Y-68262500D03*
D10*
X265430000Y-68262500D03*
%TD*%
%TO.C,1.50u*%
X250507500Y-125412500D03*
D11*
X255587500Y-125412500D03*
D10*
X260667500Y-125412500D03*
%TD*%
%TO.C,R*%
X121920000Y-68262500D03*
D11*
X127000000Y-68262500D03*
D10*
X132080000Y-68262500D03*
%TD*%
%TO.C,<*%
X212407500Y-106362500D03*
D11*
X217487500Y-106362500D03*
D10*
X222567500Y-106362500D03*
%TD*%
%TO.C,Stepped*%
X38576250Y-87312500D03*
D11*
X43656250Y-87312500D03*
D10*
X48736250Y-87312500D03*
%TD*%
%TO.C,S*%
X88582500Y-87312500D03*
X98742500Y-87312500D03*
%TD*%
%TO.C,H*%
X164782500Y-87312500D03*
D11*
X169862500Y-87312500D03*
D10*
X174942500Y-87312500D03*
%TD*%
%TO.C,D*%
X107632500Y-87312500D03*
X117792500Y-87312500D03*
%TD*%
%TO.C,J*%
X183832500Y-87312500D03*
D11*
X188912500Y-87312500D03*
D10*
X193992500Y-87312500D03*
%TD*%
%TO.C,Z*%
X79057500Y-106362500D03*
D11*
X84137500Y-106362500D03*
D10*
X89217500Y-106362500D03*
%TD*%
%TO.C,Split*%
X302895000Y-106362500D03*
D11*
X307975000Y-106362500D03*
D10*
X313055000Y-106362500D03*
%TD*%
%TO.C,W*%
X83820000Y-68262500D03*
X93980000Y-68262500D03*
%TD*%
%TO.C,-*%
X245745000Y-49212500D03*
D11*
X250825000Y-49212500D03*
D10*
X255905000Y-49212500D03*
%TD*%
%TO.C,Split*%
X276701250Y-106362500D03*
D11*
X281781250Y-106362500D03*
D10*
X286861250Y-106362500D03*
%TD*%
%TO.C,V*%
X136207500Y-106362500D03*
D11*
X141287500Y-106362500D03*
D10*
X146367500Y-106362500D03*
%TD*%
%TO.C,X*%
X108267500Y-106362500D03*
D11*
X103187500Y-106362500D03*
D10*
X98107500Y-106362500D03*
%TD*%
%TO.C,1u*%
X274320000Y-125412500D03*
D11*
X279400000Y-125412500D03*
D10*
X284480000Y-125412500D03*
%TD*%
%TO.C,5*%
X131445000Y-49212500D03*
D11*
X136525000Y-49212500D03*
D10*
X141605000Y-49212500D03*
%TD*%
D16*
%TO.C,H1*%
X55036250Y-68031250D03*
X55709904Y-66404904D03*
X55709904Y-69657596D03*
X57336250Y-65731250D03*
D17*
X57336250Y-68031250D03*
D16*
X57336250Y-70331250D03*
X58962596Y-66404904D03*
X58962596Y-69657596D03*
X59636250Y-68031250D03*
X292186250Y-65731250D03*
X292186250Y-70331250D03*
D18*
X160336250Y-87131250D03*
X222636250Y-125331250D03*
D16*
X293635250Y-70413250D03*
X290714250Y-70413250D03*
D18*
X292186250Y-68031250D03*
D16*
X290841250Y-65714250D03*
X293635250Y-65714250D03*
%TD*%
D10*
%TO.C,G*%
X145732500Y-87312500D03*
D11*
X150812500Y-87312500D03*
D10*
X155892500Y-87312500D03*
%TD*%
%TO.C,:*%
X240982500Y-87312500D03*
D11*
X246062500Y-87312500D03*
D10*
X251142500Y-87312500D03*
%TD*%
%TO.C,8*%
X188595000Y-49212500D03*
D11*
X193675000Y-49212500D03*
D10*
X198755000Y-49212500D03*
%TD*%
%TO.C,P*%
X236220000Y-68262500D03*
D11*
X241300000Y-68262500D03*
D10*
X246380000Y-68262500D03*
%TD*%
%TO.C,Q*%
X64770000Y-68262500D03*
D11*
X69850000Y-68262500D03*
D10*
X74930000Y-68262500D03*
%TD*%
%TO.C,Y*%
X160020000Y-68262500D03*
D11*
X165100000Y-68262500D03*
D10*
X170180000Y-68262500D03*
%TD*%
%TO.C,]*%
X274320000Y-68262500D03*
D11*
X279400000Y-68262500D03*
D10*
X284480000Y-68262500D03*
%TD*%
%TO.C,1u/7u/10u*%
X169545000Y-125412500D03*
D11*
X174625000Y-125412500D03*
D10*
X179705000Y-125412500D03*
%TD*%
%TO.C,9*%
X207645000Y-49212500D03*
D11*
X212725000Y-49212500D03*
D10*
X217805000Y-49212500D03*
%TD*%
%TO.C,ISO*%
X60007500Y-106362500D03*
D11*
X65087500Y-106362500D03*
D10*
X70167500Y-106362500D03*
%TD*%
%TO.C,>*%
X231457500Y-106362500D03*
D11*
X236537500Y-106362500D03*
D10*
X241617500Y-106362500D03*
%TD*%
D19*
%TO.C,Full*%
X279368250Y-99377500D03*
D11*
X279368250Y-114617500D03*
D10*
X286226250Y-106362500D03*
D11*
X291306250Y-106362500D03*
D10*
X296386250Y-106362500D03*
D19*
X303244250Y-99377500D03*
D11*
X303244250Y-114617500D03*
%TD*%
D10*
%TO.C,C*%
X117157500Y-106362500D03*
D11*
X122237500Y-106362500D03*
D10*
X127317500Y-106362500D03*
%TD*%
%TO.C,E*%
X102870000Y-68262500D03*
D11*
X107950000Y-68262500D03*
D10*
X113030000Y-68262500D03*
%TD*%
D19*
%TO.C,ANSI*%
X284130750Y-80327500D03*
D11*
X284130750Y-95567500D03*
D10*
X290988750Y-87312500D03*
D11*
X296068750Y-87312500D03*
D10*
X301148750Y-87312500D03*
D19*
X308006750Y-80327500D03*
D11*
X308006750Y-95567500D03*
%TD*%
D10*
%TO.C,A*%
X69532500Y-87312500D03*
X79692500Y-87312500D03*
%TD*%
%TO.C,Split*%
X302895000Y-49212500D03*
D11*
X307975000Y-49212500D03*
D10*
X313055000Y-49212500D03*
%TD*%
%TO.C,0*%
X226695000Y-49212500D03*
D11*
X231775000Y-49212500D03*
D10*
X236855000Y-49212500D03*
%TD*%
%TO.C,L*%
X221932500Y-87312500D03*
D11*
X227012500Y-87312500D03*
D10*
X232092500Y-87312500D03*
%TD*%
%TO.C,I*%
X198120000Y-68262500D03*
D11*
X203200000Y-68262500D03*
D10*
X208280000Y-68262500D03*
%TD*%
%TO.C,M*%
X193357500Y-106362500D03*
D11*
X198437500Y-106362500D03*
D10*
X203517500Y-106362500D03*
%TD*%
D19*
%TO.C,Full*%
X286512000Y-42227500D03*
D11*
X286512000Y-57467500D03*
D10*
X293370000Y-49212500D03*
D11*
X298450000Y-49212500D03*
D10*
X303530000Y-49212500D03*
D19*
X310388000Y-42227500D03*
D11*
X310388000Y-57467500D03*
%TD*%
D10*
%TO.C,?*%
X250507500Y-106362500D03*
D11*
X255587500Y-106362500D03*
D10*
X260667500Y-106362500D03*
%TD*%
%TO.C,F*%
X126682500Y-87312500D03*
D11*
X131762500Y-87312500D03*
D10*
X136842500Y-87312500D03*
%TD*%
%TO.C,1u*%
X64770000Y-125412500D03*
D11*
X69850000Y-125412500D03*
D10*
X74930000Y-125412500D03*
%TD*%
%TO.C,3*%
X93345000Y-49212500D03*
D11*
X98425000Y-49212500D03*
D10*
X103505000Y-49212500D03*
%TD*%
%TO.C,6*%
X150495000Y-49212500D03*
D11*
X155575000Y-49212500D03*
D10*
X160655000Y-49212500D03*
%TD*%
%TO.C,"*%
X260032500Y-87312500D03*
D11*
X265112500Y-87312500D03*
D10*
X270192500Y-87312500D03*
%TD*%
%TO.C,Esc*%
X36195000Y-49212500D03*
D11*
X41275000Y-49212500D03*
D10*
X46355000Y-49212500D03*
%TD*%
%TO.C,1.50u*%
X88582500Y-125412500D03*
D11*
X93662500Y-125412500D03*
D10*
X98742500Y-125412500D03*
%TD*%
%TO.C,=*%
X264795000Y-49212500D03*
D11*
X269875000Y-49212500D03*
D10*
X274955000Y-49212500D03*
%TD*%
%TO.C,Split*%
X283845000Y-49212500D03*
D11*
X288925000Y-49212500D03*
D10*
X294005000Y-49212500D03*
%TD*%
%TO.C,K*%
X202882500Y-87312500D03*
D11*
X207962500Y-87312500D03*
D10*
X213042500Y-87312500D03*
%TD*%
%TO.C,ISO*%
X38576250Y-106362500D03*
D11*
X43656250Y-106362500D03*
D10*
X48736250Y-106362500D03*
%TD*%
%TO.C,2*%
X74295000Y-49212500D03*
D11*
X79375000Y-49212500D03*
D10*
X84455000Y-49212500D03*
%TD*%
%TO.C,ANSI*%
X298132500Y-68262500D03*
D11*
X303212500Y-68262500D03*
D10*
X308292500Y-68262500D03*
%TD*%
%TO.C,Full*%
X43338750Y-87312500D03*
D11*
X48418750Y-87312500D03*
D10*
X53498750Y-87312500D03*
%TD*%
%TO.C,7*%
X169545000Y-49212500D03*
D11*
X174625000Y-49212500D03*
D10*
X179705000Y-49212500D03*
%TD*%
%TO.C,O*%
X217170000Y-68262500D03*
D11*
X222250000Y-68262500D03*
D10*
X227330000Y-68262500D03*
%TD*%
%TO.C,1.50u*%
X298132500Y-125412500D03*
D11*
X303212500Y-125412500D03*
D10*
X308292500Y-125412500D03*
%TD*%
D19*
%TO.C,ANSI*%
X41243250Y-99377500D03*
D11*
X41243250Y-114617500D03*
D10*
X48101250Y-106362500D03*
D11*
X53181250Y-106362500D03*
D10*
X58261250Y-106362500D03*
D19*
X65119250Y-99377500D03*
D11*
X65119250Y-114617500D03*
%TD*%
%TO.C,MX42*%
X117475000Y-117157500D03*
D19*
X117475000Y-132397500D03*
D10*
X169545000Y-125412500D03*
D11*
X174625000Y-125412500D03*
D10*
X179705000Y-125412500D03*
D11*
X231775000Y-117157500D03*
D19*
X231775000Y-132397500D03*
%TD*%
D10*
%TO.C,4*%
X112395000Y-49212500D03*
D11*
X117475000Y-49212500D03*
D10*
X122555000Y-49212500D03*
%TD*%
%TO.C,U*%
X179070000Y-68262500D03*
D11*
X184150000Y-68262500D03*
D10*
X189230000Y-68262500D03*
%TD*%
D20*
%TO.C,USB1*%
X47560000Y-44637500D03*
X53340000Y-44637500D03*
D21*
X46130000Y-40987500D03*
D22*
X46130000Y-45167500D03*
D21*
X54770000Y-40987500D03*
D22*
X54770000Y-45167500D03*
%TD*%
D23*
%TO.C,J2*%
X34550000Y-81925000D03*
D24*
X34550000Y-84465000D03*
X34550000Y-87005000D03*
X34550000Y-89545000D03*
X34550000Y-92085000D03*
%TD*%
M02*
