%TF.GenerationSoftware,KiCad,Pcbnew,7.0.9-7.0.9~ubuntu22.04.1*%
%TF.CreationDate,2023-11-09T12:16:25-08:00*%
%TF.ProjectId,SST60,53535436-302e-46b6-9963-61645f706362,0.1*%
%TF.SameCoordinates,Original*%
%TF.FileFunction,Soldermask,Bot*%
%TF.FilePolarity,Negative*%
%FSLAX46Y46*%
G04 Gerber Fmt 4.6, Leading zero omitted, Abs format (unit mm)*
G04 Created by KiCad (PCBNEW 7.0.9-7.0.9~ubuntu22.04.1) date 2023-11-09 12:16:25*
%MOMM*%
%LPD*%
G01*
G04 APERTURE LIST*
G04 Aperture macros list*
%AMRoundRect*
0 Rectangle with rounded corners*
0 $1 Rounding radius*
0 $2 $3 $4 $5 $6 $7 $8 $9 X,Y pos of 4 corners*
0 Add a 4 corners polygon primitive as box body*
4,1,4,$2,$3,$4,$5,$6,$7,$8,$9,$2,$3,0*
0 Add four circle primitives for the rounded corners*
1,1,$1+$1,$2,$3*
1,1,$1+$1,$4,$5*
1,1,$1+$1,$6,$7*
1,1,$1+$1,$8,$9*
0 Add four rect primitives between the rounded corners*
20,1,$1+$1,$2,$3,$4,$5,0*
20,1,$1+$1,$4,$5,$6,$7,0*
20,1,$1+$1,$6,$7,$8,$9,0*
20,1,$1+$1,$8,$9,$2,$3,0*%
%AMHorizOval*
0 Thick line with rounded ends*
0 $1 width*
0 $2 $3 position (X,Y) of the first rounded end (center of the circle)*
0 $4 $5 position (X,Y) of the second rounded end (center of the circle)*
0 Add line between two ends*
20,1,$1,$2,$3,$4,$5,0*
0 Add two circle primitives to create the rounded ends*
1,1,$1,$2,$3*
1,1,$1,$4,$5*%
G04 Aperture macros list end*
%ADD10C,1.750000*%
%ADD11C,3.987800*%
%ADD12HorizOval,2.250000X0.655008X0.729993X-0.655008X-0.729993X0*%
%ADD13C,2.250000*%
%ADD14HorizOval,2.250000X0.020004X0.290000X-0.020004X-0.290000X0*%
%ADD15HorizOval,2.250000X0.655001X0.730000X-0.655001X-0.730000X0*%
%ADD16HorizOval,2.250000X0.020000X0.290000X-0.020000X-0.290000X0*%
%ADD17C,4.000000*%
%ADD18C,3.050000*%
%ADD19C,1.700000*%
%ADD20C,2.200000*%
%ADD21C,1.000000*%
%ADD22C,7.001300*%
%ADD23C,7.000240*%
%ADD24C,3.048000*%
%ADD25C,1.905000*%
%ADD26R,1.905000X1.905000*%
%ADD27R,0.700000X1.000000*%
%ADD28R,0.700000X0.600000*%
%ADD29R,1.000000X1.700000*%
%ADD30R,1.200000X0.900000*%
%ADD31RoundRect,0.140000X-0.170000X0.140000X-0.170000X-0.140000X0.170000X-0.140000X0.170000X0.140000X0*%
%ADD32RoundRect,0.175000X0.175000X0.175000X-0.175000X0.175000X-0.175000X-0.175000X0.175000X-0.175000X0*%
%ADD33R,0.700000X0.700000*%
%ADD34R,0.900000X1.200000*%
%ADD35RoundRect,0.175000X-0.175000X-0.175000X0.175000X-0.175000X0.175000X0.175000X-0.175000X0.175000X0*%
%ADD36RoundRect,0.140000X0.170000X-0.140000X0.170000X0.140000X-0.170000X0.140000X-0.170000X-0.140000X0*%
%ADD37RoundRect,0.140000X0.140000X0.170000X-0.140000X0.170000X-0.140000X-0.170000X0.140000X-0.170000X0*%
%ADD38RoundRect,0.150000X0.150000X-0.587500X0.150000X0.587500X-0.150000X0.587500X-0.150000X-0.587500X0*%
%ADD39RoundRect,0.175000X-0.175000X0.175000X-0.175000X-0.175000X0.175000X-0.175000X0.175000X0.175000X0*%
%ADD40RoundRect,0.135000X0.185000X-0.135000X0.185000X0.135000X-0.185000X0.135000X-0.185000X-0.135000X0*%
%ADD41RoundRect,0.135000X0.135000X0.185000X-0.135000X0.185000X-0.135000X-0.185000X0.135000X-0.185000X0*%
%ADD42C,0.750000*%
%ADD43RoundRect,0.050000X-0.300000X-0.725000X0.300000X-0.725000X0.300000X0.725000X-0.300000X0.725000X0*%
%ADD44RoundRect,0.050000X-0.150000X-0.725000X0.150000X-0.725000X0.150000X0.725000X-0.150000X0.725000X0*%
%ADD45O,1.100000X1.700000*%
%ADD46O,1.100000X2.200000*%
%ADD47RoundRect,0.050000X0.387500X0.050000X-0.387500X0.050000X-0.387500X-0.050000X0.387500X-0.050000X0*%
%ADD48RoundRect,0.050000X0.050000X0.387500X-0.050000X0.387500X-0.050000X-0.387500X0.050000X-0.387500X0*%
%ADD49RoundRect,0.144000X1.456000X1.456000X-1.456000X1.456000X-1.456000X-1.456000X1.456000X-1.456000X0*%
%ADD50R,1.700000X1.700000*%
%ADD51O,1.700000X1.700000*%
%ADD52RoundRect,0.135000X-0.185000X0.135000X-0.185000X-0.135000X0.185000X-0.135000X0.185000X0.135000X0*%
%ADD53R,1.700000X1.000000*%
%ADD54RoundRect,0.150000X-0.625000X0.150000X-0.625000X-0.150000X0.625000X-0.150000X0.625000X0.150000X0*%
%ADD55RoundRect,0.250000X-0.650000X0.350000X-0.650000X-0.350000X0.650000X-0.350000X0.650000X0.350000X0*%
%ADD56RoundRect,0.135000X-0.135000X-0.185000X0.135000X-0.185000X0.135000X0.185000X-0.135000X0.185000X0*%
%ADD57RoundRect,0.175000X0.175000X-0.175000X0.175000X0.175000X-0.175000X0.175000X-0.175000X-0.175000X0*%
%ADD58R,1.400000X1.200000*%
%ADD59RoundRect,0.150000X-0.512500X-0.150000X0.512500X-0.150000X0.512500X0.150000X-0.512500X0.150000X0*%
%ADD60RoundRect,0.150000X-0.150000X0.650000X-0.150000X-0.650000X0.150000X-0.650000X0.150000X0.650000X0*%
%ADD61RoundRect,0.243750X-0.456250X0.243750X-0.456250X-0.243750X0.456250X-0.243750X0.456250X0.243750X0*%
%ADD62RoundRect,0.140000X-0.219203X-0.021213X-0.021213X-0.219203X0.219203X0.021213X0.021213X0.219203X0*%
G04 APERTURE END LIST*
D10*
%TO.C,1.25U*%
X300620000Y-125430000D03*
D11*
X305700000Y-125430000D03*
D10*
X310780000Y-125430000D03*
D12*
X302545008Y-122160007D03*
D13*
X303200000Y-121430000D03*
D14*
X308220004Y-120640000D03*
D13*
X308240000Y-120350000D03*
%TD*%
D10*
%TO.C,1.25U*%
X276720000Y-125430000D03*
D11*
X281800000Y-125430000D03*
D10*
X286880000Y-125430000D03*
D12*
X278645008Y-122160007D03*
D13*
X279300000Y-121430000D03*
D14*
X284320004Y-120640000D03*
D13*
X284340000Y-120350000D03*
%TD*%
D10*
%TO.C,1.25U*%
X252880000Y-125490000D03*
D11*
X257960000Y-125490000D03*
D10*
X263040000Y-125490000D03*
D12*
X254805008Y-122220007D03*
D13*
X255460000Y-121490000D03*
D14*
X260480004Y-120700000D03*
D13*
X260500000Y-120410000D03*
%TD*%
D10*
%TO.C,1.25U*%
X229160000Y-125430000D03*
D11*
X234240000Y-125430000D03*
D10*
X239320000Y-125430000D03*
D12*
X231085008Y-122160007D03*
D13*
X231740000Y-121430000D03*
D14*
X236760004Y-120640000D03*
D13*
X236780000Y-120350000D03*
%TD*%
D10*
%TO.C,Small Split*%
X226695000Y-125412500D03*
D11*
X231775000Y-125412500D03*
D10*
X236855000Y-125412500D03*
D15*
X228620001Y-122142500D03*
D13*
X229275000Y-121412500D03*
D16*
X234295000Y-120622500D03*
D13*
X234315000Y-120332500D03*
%TD*%
D10*
%TO.C,N*%
X174307500Y-106362500D03*
D11*
X179387500Y-106362500D03*
D10*
X184467500Y-106362500D03*
D15*
X176232501Y-103092500D03*
D13*
X176887500Y-102362500D03*
D16*
X181907500Y-101572500D03*
D13*
X181927500Y-101282500D03*
%TD*%
D17*
%TO.C,REF\u002A\u002A*%
X112990000Y-117190000D03*
D18*
X212990000Y-132430000D03*
D19*
X157910000Y-125430000D03*
D17*
X212990000Y-117190000D03*
D18*
X112990000Y-132430000D03*
D17*
X162990000Y-125430000D03*
D19*
X168070000Y-125430000D03*
D20*
X165530000Y-120350000D03*
X159180000Y-122890000D03*
%TD*%
D10*
%TO.C,1.25U*%
X86430000Y-125450000D03*
D11*
X91510000Y-125450000D03*
D10*
X96590000Y-125450000D03*
D12*
X88355008Y-122180007D03*
D13*
X89010000Y-121450000D03*
D14*
X94030004Y-120660000D03*
D13*
X94050000Y-120370000D03*
%TD*%
D10*
%TO.C,1.25U*%
X62510000Y-125450000D03*
D11*
X67590000Y-125450000D03*
D10*
X72670000Y-125450000D03*
D12*
X64435008Y-122180007D03*
D13*
X65090000Y-121450000D03*
D14*
X70110004Y-120660000D03*
D13*
X70130000Y-120370000D03*
%TD*%
D10*
%TO.C,1.25U*%
X38670000Y-125330000D03*
D11*
X43750000Y-125330000D03*
D10*
X48830000Y-125330000D03*
D12*
X40595008Y-122060007D03*
D13*
X41250000Y-121330000D03*
D14*
X46270004Y-120540000D03*
D13*
X46290000Y-120250000D03*
%TD*%
D10*
%TO.C,2*%
X155240000Y-106380000D03*
D11*
X160320000Y-106380000D03*
D10*
X165400000Y-106380000D03*
D15*
X157165001Y-103110000D03*
D13*
X157820000Y-102380000D03*
D16*
X162840000Y-101590000D03*
D13*
X162860000Y-101300000D03*
%TD*%
D10*
%TO.C,2*%
X55270000Y-49190000D03*
D11*
X60350000Y-49190000D03*
D10*
X65430000Y-49190000D03*
D15*
X57195001Y-45920000D03*
D13*
X57850000Y-45190000D03*
D16*
X62870000Y-44400000D03*
D13*
X62890000Y-44110000D03*
%TD*%
D10*
%TO.C,1.50u*%
X40957500Y-125412500D03*
D11*
X46037500Y-125412500D03*
D10*
X51117500Y-125412500D03*
D15*
X42882501Y-122142500D03*
D13*
X43537500Y-121412500D03*
D16*
X48557500Y-120622500D03*
D13*
X48577500Y-120332500D03*
%TD*%
D10*
%TO.C,T*%
X140970000Y-68262500D03*
D11*
X146050000Y-68262500D03*
D10*
X151130000Y-68262500D03*
D15*
X142895001Y-64992500D03*
D13*
X143550000Y-64262500D03*
D16*
X148570000Y-63472500D03*
D13*
X148590000Y-63182500D03*
%TD*%
D10*
%TO.C,Tab*%
X40957500Y-68262500D03*
D11*
X46037500Y-68262500D03*
D10*
X51117500Y-68262500D03*
D15*
X42882501Y-64992500D03*
D13*
X43537500Y-64262500D03*
D16*
X48557500Y-63472500D03*
D13*
X48577500Y-63182500D03*
%TD*%
D10*
%TO.C,[*%
X255270000Y-68262500D03*
D11*
X260350000Y-68262500D03*
D10*
X265430000Y-68262500D03*
D15*
X257195001Y-64992500D03*
D13*
X257850000Y-64262500D03*
D16*
X262870000Y-63472500D03*
D13*
X262890000Y-63182500D03*
%TD*%
D10*
%TO.C,1.50u*%
X250507500Y-125412500D03*
D11*
X255587500Y-125412500D03*
D10*
X260667500Y-125412500D03*
D15*
X252432501Y-122142500D03*
D13*
X253087500Y-121412500D03*
D16*
X258107500Y-120622500D03*
D13*
X258127500Y-120332500D03*
%TD*%
D10*
%TO.C,R*%
X121920000Y-68262500D03*
D11*
X127000000Y-68262500D03*
D10*
X132080000Y-68262500D03*
D15*
X123845001Y-64992500D03*
D13*
X124500000Y-64262500D03*
D16*
X129520000Y-63472500D03*
D13*
X129540000Y-63182500D03*
%TD*%
D10*
%TO.C,<*%
X212407500Y-106362500D03*
D11*
X217487500Y-106362500D03*
D10*
X222567500Y-106362500D03*
D15*
X214332501Y-103092500D03*
D13*
X214987500Y-102362500D03*
D16*
X220007500Y-101572500D03*
D13*
X220027500Y-101282500D03*
%TD*%
D10*
%TO.C,Stepped*%
X38576250Y-87312500D03*
D11*
X43656250Y-87312500D03*
D10*
X48736250Y-87312500D03*
D15*
X40501251Y-84042500D03*
D13*
X41156250Y-83312500D03*
D16*
X46176250Y-82522500D03*
D13*
X46196250Y-82232500D03*
%TD*%
D10*
%TO.C,S*%
X88582500Y-87312500D03*
X98742500Y-87312500D03*
D15*
X90507501Y-84042500D03*
D13*
X91162500Y-83312500D03*
D16*
X96182500Y-82522500D03*
D13*
X96202500Y-82232500D03*
%TD*%
D10*
%TO.C,H*%
X164782500Y-87312500D03*
D11*
X169862500Y-87312500D03*
D10*
X174942500Y-87312500D03*
D15*
X166707501Y-84042500D03*
D13*
X167362500Y-83312500D03*
D16*
X172382500Y-82522500D03*
D13*
X172402500Y-82232500D03*
%TD*%
D10*
%TO.C,D*%
X107632500Y-87312500D03*
X117792500Y-87312500D03*
D15*
X109557501Y-84042500D03*
D13*
X110212500Y-83312500D03*
D16*
X115232500Y-82522500D03*
D13*
X115252500Y-82232500D03*
%TD*%
D10*
%TO.C,J*%
X183832500Y-87312500D03*
D11*
X188912500Y-87312500D03*
D10*
X193992500Y-87312500D03*
D15*
X185757501Y-84042500D03*
D13*
X186412500Y-83312500D03*
D16*
X191432500Y-82522500D03*
D13*
X191452500Y-82232500D03*
%TD*%
D10*
%TO.C,Z*%
X79057500Y-106362500D03*
D11*
X84137500Y-106362500D03*
D10*
X89217500Y-106362500D03*
D15*
X80982501Y-103092500D03*
D13*
X81637500Y-102362500D03*
D16*
X86657500Y-101572500D03*
D13*
X86677500Y-101282500D03*
%TD*%
D10*
%TO.C,Split*%
X302895000Y-106362500D03*
D11*
X307975000Y-106362500D03*
D10*
X313055000Y-106362500D03*
D15*
X304820001Y-103092500D03*
D13*
X305475000Y-102362500D03*
D16*
X310495000Y-101572500D03*
D13*
X310515000Y-101282500D03*
%TD*%
D10*
%TO.C,W*%
X83820000Y-68262500D03*
X93980000Y-68262500D03*
D15*
X85745001Y-64992500D03*
D13*
X86400000Y-64262500D03*
D16*
X91420000Y-63472500D03*
D13*
X91440000Y-63182500D03*
%TD*%
D10*
%TO.C,-*%
X245745000Y-49212500D03*
D11*
X250825000Y-49212500D03*
D10*
X255905000Y-49212500D03*
D15*
X247670001Y-45942500D03*
D13*
X248325000Y-45212500D03*
D16*
X253345000Y-44422500D03*
D13*
X253365000Y-44132500D03*
%TD*%
D10*
%TO.C,Split*%
X276701250Y-106362500D03*
D11*
X281781250Y-106362500D03*
D10*
X286861250Y-106362500D03*
D15*
X278626251Y-103092500D03*
D13*
X279281250Y-102362500D03*
D16*
X284301250Y-101572500D03*
D13*
X284321250Y-101282500D03*
%TD*%
D10*
%TO.C,V*%
X136207500Y-106362500D03*
D11*
X141287500Y-106362500D03*
D10*
X146367500Y-106362500D03*
D15*
X138132501Y-103092500D03*
D13*
X138787500Y-102362500D03*
D16*
X143807500Y-101572500D03*
D13*
X143827500Y-101282500D03*
%TD*%
%TO.C,X*%
X105727500Y-101282500D03*
D16*
X105707500Y-101572500D03*
D13*
X100687500Y-102362500D03*
D15*
X100032501Y-103092500D03*
D10*
X108267500Y-106362500D03*
D11*
X103187500Y-106362500D03*
D10*
X98107500Y-106362500D03*
%TD*%
%TO.C,1u*%
X274320000Y-125412500D03*
D11*
X279400000Y-125412500D03*
D10*
X284480000Y-125412500D03*
D15*
X276245001Y-122142500D03*
D13*
X276900000Y-121412500D03*
D16*
X281920000Y-120622500D03*
D13*
X281940000Y-120332500D03*
%TD*%
D10*
%TO.C,5*%
X131445000Y-49212500D03*
D11*
X136525000Y-49212500D03*
D10*
X141605000Y-49212500D03*
D15*
X133370001Y-45942500D03*
D13*
X134025000Y-45212500D03*
D16*
X139045000Y-44422500D03*
D13*
X139065000Y-44132500D03*
%TD*%
D21*
%TO.C,H1*%
X55036250Y-68031250D03*
X55709904Y-66404904D03*
X55709904Y-69657596D03*
X57336250Y-65731250D03*
D22*
X57336250Y-68031250D03*
D21*
X57336250Y-70331250D03*
X58962596Y-66404904D03*
X58962596Y-69657596D03*
X59636250Y-68031250D03*
X292186250Y-65731250D03*
X292186250Y-70331250D03*
D23*
X160336250Y-87131250D03*
X222636250Y-125331250D03*
D21*
X293635250Y-70413250D03*
X290714250Y-70413250D03*
D23*
X292186250Y-68031250D03*
D21*
X290841250Y-65714250D03*
X293635250Y-65714250D03*
%TD*%
D10*
%TO.C,G*%
X145732500Y-87312500D03*
D11*
X150812500Y-87312500D03*
D10*
X155892500Y-87312500D03*
D15*
X147657501Y-84042500D03*
D13*
X148312500Y-83312500D03*
D16*
X153332500Y-82522500D03*
D13*
X153352500Y-82232500D03*
%TD*%
D10*
%TO.C,:*%
X240982500Y-87312500D03*
D11*
X246062500Y-87312500D03*
D10*
X251142500Y-87312500D03*
D15*
X242907501Y-84042500D03*
D13*
X243562500Y-83312500D03*
D16*
X248582500Y-82522500D03*
D13*
X248602500Y-82232500D03*
%TD*%
D10*
%TO.C,8*%
X188595000Y-49212500D03*
D11*
X193675000Y-49212500D03*
D10*
X198755000Y-49212500D03*
D15*
X190520001Y-45942500D03*
D13*
X191175000Y-45212500D03*
D16*
X196195000Y-44422500D03*
D13*
X196215000Y-44132500D03*
%TD*%
D10*
%TO.C,P*%
X236220000Y-68262500D03*
D11*
X241300000Y-68262500D03*
D10*
X246380000Y-68262500D03*
D15*
X238145001Y-64992500D03*
D13*
X238800000Y-64262500D03*
D16*
X243820000Y-63472500D03*
D13*
X243840000Y-63182500D03*
%TD*%
D10*
%TO.C,Q*%
X64770000Y-68262500D03*
D11*
X69850000Y-68262500D03*
D10*
X74930000Y-68262500D03*
D15*
X66695001Y-64992500D03*
D13*
X67350000Y-64262500D03*
D16*
X72370000Y-63472500D03*
D13*
X72390000Y-63182500D03*
%TD*%
D10*
%TO.C,Y*%
X160020000Y-68262500D03*
D11*
X165100000Y-68262500D03*
D10*
X170180000Y-68262500D03*
D15*
X161945001Y-64992500D03*
D13*
X162600000Y-64262500D03*
D16*
X167620000Y-63472500D03*
D13*
X167640000Y-63182500D03*
%TD*%
D10*
%TO.C,]*%
X274320000Y-68262500D03*
D11*
X279400000Y-68262500D03*
D10*
X284480000Y-68262500D03*
D15*
X276245001Y-64992500D03*
D13*
X276900000Y-64262500D03*
D16*
X281920000Y-63472500D03*
D13*
X281940000Y-63182500D03*
%TD*%
D10*
%TO.C,1u/7u/10u*%
X169545000Y-125412500D03*
D11*
X174625000Y-125412500D03*
D10*
X179705000Y-125412500D03*
D15*
X171470001Y-122142500D03*
D13*
X172125000Y-121412500D03*
D16*
X177145000Y-120622500D03*
D13*
X177165000Y-120332500D03*
%TD*%
D10*
%TO.C,9*%
X207645000Y-49212500D03*
D11*
X212725000Y-49212500D03*
D10*
X217805000Y-49212500D03*
D15*
X209570001Y-45942500D03*
D13*
X210225000Y-45212500D03*
D16*
X215245000Y-44422500D03*
D13*
X215265000Y-44132500D03*
%TD*%
D10*
%TO.C,ISO*%
X60007500Y-106362500D03*
D11*
X65087500Y-106362500D03*
D10*
X70167500Y-106362500D03*
D15*
X61932501Y-103092500D03*
D13*
X62587500Y-102362500D03*
D16*
X67607500Y-101572500D03*
D13*
X67627500Y-101282500D03*
%TD*%
D10*
%TO.C,>*%
X231457500Y-106362500D03*
D11*
X236537500Y-106362500D03*
D10*
X241617500Y-106362500D03*
D15*
X233382501Y-103092500D03*
D13*
X234037500Y-102362500D03*
D16*
X239057500Y-101572500D03*
D13*
X239077500Y-101282500D03*
%TD*%
D24*
%TO.C,Full*%
X279368250Y-99377500D03*
D11*
X279368250Y-114617500D03*
D10*
X286226250Y-106362500D03*
D11*
X291306250Y-106362500D03*
D10*
X296386250Y-106362500D03*
D24*
X303244250Y-99377500D03*
D11*
X303244250Y-114617500D03*
D15*
X288151251Y-103092500D03*
D13*
X288806250Y-102362500D03*
D16*
X293826250Y-101572500D03*
D13*
X293846250Y-101282500D03*
%TD*%
D10*
%TO.C,C*%
X117157500Y-106362500D03*
D11*
X122237500Y-106362500D03*
D10*
X127317500Y-106362500D03*
D15*
X119082501Y-103092500D03*
D13*
X119737500Y-102362500D03*
D16*
X124757500Y-101572500D03*
D13*
X124777500Y-101282500D03*
%TD*%
D10*
%TO.C,E*%
X102870000Y-68262500D03*
D11*
X107950000Y-68262500D03*
D10*
X113030000Y-68262500D03*
D15*
X104795001Y-64992500D03*
D13*
X105450000Y-64262500D03*
D16*
X110470000Y-63472500D03*
D13*
X110490000Y-63182500D03*
%TD*%
D24*
%TO.C,ANSI*%
X284130750Y-80327500D03*
D11*
X284130750Y-95567500D03*
D10*
X290988750Y-87312500D03*
D11*
X296068750Y-87312500D03*
D10*
X301148750Y-87312500D03*
D24*
X308006750Y-80327500D03*
D11*
X308006750Y-95567500D03*
D15*
X292913751Y-84042500D03*
D13*
X293568750Y-83312500D03*
D16*
X298588750Y-82522500D03*
D13*
X298608750Y-82232500D03*
%TD*%
D10*
%TO.C,A*%
X69532500Y-87312500D03*
X79692500Y-87312500D03*
D15*
X71457501Y-84042500D03*
D13*
X72112500Y-83312500D03*
D16*
X77132500Y-82522500D03*
D13*
X77152500Y-82232500D03*
%TD*%
D10*
%TO.C,Split*%
X302895000Y-49212500D03*
D11*
X307975000Y-49212500D03*
D10*
X313055000Y-49212500D03*
D15*
X304820001Y-45942500D03*
D13*
X305475000Y-45212500D03*
D16*
X310495000Y-44422500D03*
D13*
X310515000Y-44132500D03*
%TD*%
D10*
%TO.C,0*%
X226695000Y-49212500D03*
D11*
X231775000Y-49212500D03*
D10*
X236855000Y-49212500D03*
D15*
X228620001Y-45942500D03*
D13*
X229275000Y-45212500D03*
D16*
X234295000Y-44422500D03*
D13*
X234315000Y-44132500D03*
%TD*%
D10*
%TO.C,L*%
X221932500Y-87312500D03*
D11*
X227012500Y-87312500D03*
D10*
X232092500Y-87312500D03*
D15*
X223857501Y-84042500D03*
D13*
X224512500Y-83312500D03*
D16*
X229532500Y-82522500D03*
D13*
X229552500Y-82232500D03*
%TD*%
D10*
%TO.C,I*%
X198120000Y-68262500D03*
D11*
X203200000Y-68262500D03*
D10*
X208280000Y-68262500D03*
D15*
X200045001Y-64992500D03*
D13*
X200700000Y-64262500D03*
D16*
X205720000Y-63472500D03*
D13*
X205740000Y-63182500D03*
%TD*%
D10*
%TO.C,M*%
X193357500Y-106362500D03*
D11*
X198437500Y-106362500D03*
D10*
X203517500Y-106362500D03*
D15*
X195282501Y-103092500D03*
D13*
X195937500Y-102362500D03*
D16*
X200957500Y-101572500D03*
D13*
X200977500Y-101282500D03*
%TD*%
D24*
%TO.C,Full*%
X286512000Y-42227500D03*
D11*
X286512000Y-57467500D03*
D10*
X293370000Y-49212500D03*
D11*
X298450000Y-49212500D03*
D10*
X303530000Y-49212500D03*
D24*
X310388000Y-42227500D03*
D11*
X310388000Y-57467500D03*
D15*
X295295001Y-45942500D03*
D13*
X295950000Y-45212500D03*
D16*
X300970000Y-44422500D03*
D13*
X300990000Y-44132500D03*
%TD*%
D10*
%TO.C,?*%
X250507500Y-106362500D03*
D11*
X255587500Y-106362500D03*
D10*
X260667500Y-106362500D03*
D15*
X252432501Y-103092500D03*
D13*
X253087500Y-102362500D03*
D16*
X258107500Y-101572500D03*
D13*
X258127500Y-101282500D03*
%TD*%
D10*
%TO.C,F*%
X126682500Y-87312500D03*
D11*
X131762500Y-87312500D03*
D10*
X136842500Y-87312500D03*
D15*
X128607501Y-84042500D03*
D13*
X129262500Y-83312500D03*
D16*
X134282500Y-82522500D03*
D13*
X134302500Y-82232500D03*
%TD*%
D10*
%TO.C,1u*%
X64770000Y-125412500D03*
D11*
X69850000Y-125412500D03*
D10*
X74930000Y-125412500D03*
D15*
X66695001Y-122142500D03*
D13*
X67350000Y-121412500D03*
D16*
X72370000Y-120622500D03*
D13*
X72390000Y-120332500D03*
%TD*%
D10*
%TO.C,3*%
X93345000Y-49212500D03*
D11*
X98425000Y-49212500D03*
D10*
X103505000Y-49212500D03*
D15*
X95270001Y-45942500D03*
D13*
X95925000Y-45212500D03*
D16*
X100945000Y-44422500D03*
D13*
X100965000Y-44132500D03*
%TD*%
D10*
%TO.C,6*%
X150495000Y-49212500D03*
D11*
X155575000Y-49212500D03*
D10*
X160655000Y-49212500D03*
D15*
X152420001Y-45942500D03*
D13*
X153075000Y-45212500D03*
D16*
X158095000Y-44422500D03*
D13*
X158115000Y-44132500D03*
%TD*%
D10*
%TO.C,"*%
X260032500Y-87312500D03*
D11*
X265112500Y-87312500D03*
D10*
X270192500Y-87312500D03*
D15*
X261957501Y-84042500D03*
D13*
X262612500Y-83312500D03*
D16*
X267632500Y-82522500D03*
D13*
X267652500Y-82232500D03*
%TD*%
D10*
%TO.C,Esc*%
X36195000Y-49212500D03*
D11*
X41275000Y-49212500D03*
D10*
X46355000Y-49212500D03*
D15*
X38120001Y-45942500D03*
D13*
X38775000Y-45212500D03*
D16*
X43795000Y-44422500D03*
D13*
X43815000Y-44132500D03*
D25*
X40005000Y-54292500D03*
D26*
X42545000Y-54292500D03*
%TD*%
D10*
%TO.C,1.50u*%
X88582500Y-125412500D03*
D11*
X93662500Y-125412500D03*
D10*
X98742500Y-125412500D03*
D15*
X90507501Y-122142500D03*
D13*
X91162500Y-121412500D03*
D16*
X96182500Y-120622500D03*
D13*
X96202500Y-120332500D03*
%TD*%
D10*
%TO.C,=*%
X264795000Y-49212500D03*
D11*
X269875000Y-49212500D03*
D10*
X274955000Y-49212500D03*
D15*
X266720001Y-45942500D03*
D13*
X267375000Y-45212500D03*
D16*
X272395000Y-44422500D03*
D13*
X272415000Y-44132500D03*
%TD*%
D10*
%TO.C,Split*%
X283845000Y-49212500D03*
D11*
X288925000Y-49212500D03*
D10*
X294005000Y-49212500D03*
D15*
X285770001Y-45942500D03*
D13*
X286425000Y-45212500D03*
D16*
X291445000Y-44422500D03*
D13*
X291465000Y-44132500D03*
%TD*%
D10*
%TO.C,K*%
X202882500Y-87312500D03*
D11*
X207962500Y-87312500D03*
D10*
X213042500Y-87312500D03*
D15*
X204807501Y-84042500D03*
D13*
X205462500Y-83312500D03*
D16*
X210482500Y-82522500D03*
D13*
X210502500Y-82232500D03*
%TD*%
D10*
%TO.C,ISO*%
X38576250Y-106362500D03*
D11*
X43656250Y-106362500D03*
D10*
X48736250Y-106362500D03*
D15*
X40501251Y-103092500D03*
D13*
X41156250Y-102362500D03*
D16*
X46176250Y-101572500D03*
D13*
X46196250Y-101282500D03*
%TD*%
D10*
%TO.C,2*%
X74295000Y-49212500D03*
D11*
X79375000Y-49212500D03*
D10*
X84455000Y-49212500D03*
D15*
X76220001Y-45942500D03*
D13*
X76875000Y-45212500D03*
D16*
X81895000Y-44422500D03*
D13*
X81915000Y-44132500D03*
%TD*%
D10*
%TO.C,ANSI*%
X298132500Y-68262500D03*
D11*
X303212500Y-68262500D03*
D10*
X308292500Y-68262500D03*
D15*
X300057501Y-64992500D03*
D13*
X300712500Y-64262500D03*
D16*
X305732500Y-63472500D03*
D13*
X305752500Y-63182500D03*
%TD*%
D10*
%TO.C,Full*%
X43338750Y-87312500D03*
D11*
X48418750Y-87312500D03*
D10*
X53498750Y-87312500D03*
D12*
X45263758Y-84042507D03*
D13*
X45918750Y-83312500D03*
D14*
X50938754Y-82522500D03*
D13*
X50958750Y-82232500D03*
%TD*%
D10*
%TO.C,7*%
X169545000Y-49212500D03*
D11*
X174625000Y-49212500D03*
D10*
X179705000Y-49212500D03*
D15*
X171470001Y-45942500D03*
D13*
X172125000Y-45212500D03*
D16*
X177145000Y-44422500D03*
D13*
X177165000Y-44132500D03*
%TD*%
D10*
%TO.C,O*%
X217170000Y-68262500D03*
D11*
X222250000Y-68262500D03*
D10*
X227330000Y-68262500D03*
D15*
X219095001Y-64992500D03*
D13*
X219750000Y-64262500D03*
D16*
X224770000Y-63472500D03*
D13*
X224790000Y-63182500D03*
%TD*%
D10*
%TO.C,1.50u*%
X298132500Y-125412500D03*
D11*
X303212500Y-125412500D03*
D10*
X308292500Y-125412500D03*
D15*
X300057501Y-122142500D03*
D13*
X300712500Y-121412500D03*
D16*
X305732500Y-120622500D03*
D13*
X305752500Y-120332500D03*
%TD*%
D24*
%TO.C,ANSI*%
X41243250Y-99377500D03*
D11*
X41243250Y-114617500D03*
D10*
X48101250Y-106362500D03*
D11*
X53181250Y-106362500D03*
D10*
X58261250Y-106362500D03*
D24*
X65119250Y-99377500D03*
D11*
X65119250Y-114617500D03*
D15*
X50026251Y-103092500D03*
D13*
X50681250Y-102362500D03*
D16*
X55701250Y-101572500D03*
D13*
X55721250Y-101282500D03*
%TD*%
D11*
%TO.C,MX42*%
X117475000Y-117157500D03*
D24*
X117475000Y-132397500D03*
D10*
X169545000Y-125412500D03*
D11*
X174625000Y-125412500D03*
D10*
X179705000Y-125412500D03*
D11*
X231775000Y-117157500D03*
D24*
X231775000Y-132397500D03*
D15*
X171470001Y-122142500D03*
D13*
X172125000Y-121412500D03*
D16*
X177145000Y-120622500D03*
D13*
X177165000Y-120332500D03*
%TD*%
D10*
%TO.C,4*%
X112395000Y-49212500D03*
D11*
X117475000Y-49212500D03*
D10*
X122555000Y-49212500D03*
D15*
X114320001Y-45942500D03*
D13*
X114975000Y-45212500D03*
D16*
X119995000Y-44422500D03*
D13*
X120015000Y-44132500D03*
%TD*%
D10*
%TO.C,U*%
X179070000Y-68262500D03*
D11*
X184150000Y-68262500D03*
D10*
X189230000Y-68262500D03*
D15*
X180995001Y-64992500D03*
D13*
X181650000Y-64262500D03*
D16*
X186670000Y-63472500D03*
D13*
X186690000Y-63182500D03*
%TD*%
D27*
%TO.C,U4*%
X51425000Y-51025000D03*
D28*
X51425000Y-52725000D03*
X49425000Y-52725000D03*
X49425000Y-50825000D03*
%TD*%
D29*
%TO.C,SW2*%
X34430000Y-70350000D03*
X34430000Y-76650000D03*
X38230000Y-70350000D03*
X38230000Y-76650000D03*
%TD*%
D30*
%TO.C,D19*%
X106275000Y-108900000D03*
X106275000Y-105600000D03*
%TD*%
D31*
%TO.C,C_3V-Decoup8*%
X57900000Y-90170000D03*
X57900000Y-91130000D03*
%TD*%
D30*
%TO.C,D46*%
X220575000Y-108900000D03*
X220575000Y-105600000D03*
%TD*%
D32*
%TO.C,D74*%
X104735000Y-125975000D03*
D33*
X104735000Y-124875000D03*
X106565000Y-124875000D03*
X106565000Y-125975000D03*
%TD*%
D34*
%TO.C,D15*%
X102810000Y-122330000D03*
X99510000Y-122330000D03*
%TD*%
D35*
%TO.C,D71*%
X70765000Y-48675000D03*
D33*
X70765000Y-49775000D03*
X68935000Y-49775000D03*
X68935000Y-48675000D03*
%TD*%
D30*
%TO.C,D63*%
X291725000Y-53300000D03*
X291725000Y-50000000D03*
%TD*%
%TO.C,D35*%
X187250000Y-70800000D03*
X187250000Y-67500000D03*
%TD*%
D36*
%TO.C,C_1V-Decoup2*%
X61430000Y-73990000D03*
X61430000Y-73030000D03*
%TD*%
D30*
%TO.C,D26*%
X149150000Y-70800000D03*
X149150000Y-67500000D03*
%TD*%
D37*
%TO.C,C_LDO2*%
X46930000Y-59650000D03*
X45970000Y-59650000D03*
%TD*%
D30*
%TO.C,D54*%
X263450000Y-70800000D03*
X263450000Y-67500000D03*
%TD*%
D36*
%TO.C,C_3V-Decoup2*%
X54700000Y-77455000D03*
X54700000Y-76495000D03*
%TD*%
D30*
%TO.C,D34*%
X177725000Y-52700000D03*
X177725000Y-49400000D03*
%TD*%
%TO.C,D50*%
X249175000Y-89875000D03*
X249175000Y-86575000D03*
%TD*%
D36*
%TO.C,C_Flash1*%
X75300000Y-75105000D03*
X75300000Y-74145000D03*
%TD*%
D38*
%TO.C,A*%
X75640000Y-88097500D03*
X74690000Y-86222500D03*
X73740000Y-88097500D03*
%TD*%
D39*
%TO.C,D84*%
X299000000Y-102890000D03*
D33*
X297900000Y-102890000D03*
X297900000Y-101060000D03*
X299000000Y-101060000D03*
%TD*%
D36*
%TO.C,C_3V-Decoup6*%
X63750000Y-80155000D03*
X63750000Y-79195000D03*
%TD*%
D30*
%TO.C,D48*%
X234875000Y-52700000D03*
X234875000Y-49400000D03*
%TD*%
%TO.C,D22*%
X134875000Y-89850000D03*
X134875000Y-86550000D03*
%TD*%
D36*
%TO.C,C_Crystal2*%
X57300000Y-93905000D03*
X57300000Y-92945000D03*
%TD*%
D30*
%TO.C,D40*%
X206300000Y-70800000D03*
X206300000Y-67500000D03*
%TD*%
D40*
%TO.C,R_Crystal1*%
X59075000Y-91135000D03*
X59075000Y-90115000D03*
%TD*%
D30*
%TO.C,D14*%
X96775000Y-89850000D03*
X96775000Y-86550000D03*
%TD*%
D41*
%TO.C,R_LED1*%
X41040000Y-56770000D03*
X40020000Y-56770000D03*
%TD*%
D38*
%TO.C,W*%
X88690000Y-67082500D03*
X87740000Y-68957500D03*
X89640000Y-68957500D03*
%TD*%
D32*
%TO.C,D78*%
X191060000Y-124370000D03*
D33*
X191060000Y-123270000D03*
X192890000Y-123270000D03*
X192890000Y-124370000D03*
%TD*%
D30*
%TO.C,D10*%
X77560000Y-128780000D03*
X77560000Y-125480000D03*
%TD*%
D35*
%TO.C,D77*%
X204115000Y-48650000D03*
D33*
X204115000Y-49750000D03*
X202285000Y-49750000D03*
X202285000Y-48650000D03*
%TD*%
D30*
%TO.C,D61*%
X294400000Y-108900000D03*
X294400000Y-105600000D03*
%TD*%
D42*
%TO.C,USB1*%
X47560000Y-44637500D03*
X53340000Y-44637500D03*
D43*
X47225000Y-46082500D03*
X48000000Y-46082500D03*
D44*
X48700000Y-46082500D03*
X49200000Y-46082500D03*
X49700000Y-46082500D03*
X50200000Y-46082500D03*
X50700000Y-46082500D03*
X51200000Y-46082500D03*
X51700000Y-46082500D03*
X52200000Y-46082500D03*
D43*
X52900000Y-46082500D03*
X53675000Y-46082500D03*
D45*
X46130000Y-40987500D03*
D46*
X46130000Y-45167500D03*
D45*
X54770000Y-40987500D03*
D46*
X54770000Y-45167500D03*
%TD*%
D30*
%TO.C,D9*%
X68200000Y-108900000D03*
X68200000Y-105600000D03*
%TD*%
%TO.C,D37*%
X182500000Y-108900000D03*
X182500000Y-105600000D03*
%TD*%
D36*
%TO.C,C_1V-Decoup1*%
X55850000Y-76455000D03*
X55850000Y-75495000D03*
%TD*%
D47*
%TO.C,U1*%
X62537500Y-80650000D03*
X62537500Y-81050000D03*
X62537500Y-81450000D03*
X62537500Y-81850000D03*
X62537500Y-82250000D03*
X62537500Y-82650000D03*
X62537500Y-83050000D03*
X62537500Y-83450000D03*
X62537500Y-83850000D03*
X62537500Y-84250000D03*
X62537500Y-84650000D03*
X62537500Y-85050000D03*
X62537500Y-85450000D03*
X62537500Y-85850000D03*
D48*
X61700000Y-86687500D03*
X61300000Y-86687500D03*
X60900000Y-86687500D03*
X60500000Y-86687500D03*
X60100000Y-86687500D03*
X59700000Y-86687500D03*
X59300000Y-86687500D03*
X58900000Y-86687500D03*
X58500000Y-86687500D03*
X58100000Y-86687500D03*
X57700000Y-86687500D03*
X57300000Y-86687500D03*
X56900000Y-86687500D03*
X56500000Y-86687500D03*
D47*
X55662500Y-85850000D03*
X55662500Y-85450000D03*
X55662500Y-85050000D03*
X55662500Y-84650000D03*
X55662500Y-84250000D03*
X55662500Y-83850000D03*
X55662500Y-83450000D03*
X55662500Y-83050000D03*
X55662500Y-82650000D03*
X55662500Y-82250000D03*
X55662500Y-81850000D03*
X55662500Y-81450000D03*
X55662500Y-81050000D03*
X55662500Y-80650000D03*
D48*
X56500000Y-79812500D03*
X56900000Y-79812500D03*
X57300000Y-79812500D03*
X57700000Y-79812500D03*
X58100000Y-79812500D03*
X58500000Y-79812500D03*
X58900000Y-79812500D03*
X59300000Y-79812500D03*
X59700000Y-79812500D03*
X60100000Y-79812500D03*
X60500000Y-79812500D03*
X60900000Y-79812500D03*
X61300000Y-79812500D03*
X61700000Y-79812500D03*
D49*
X59100000Y-83250000D03*
%TD*%
D30*
%TO.C,D39*%
X196775000Y-52700000D03*
X196775000Y-49400000D03*
%TD*%
%TO.C,D2*%
X49125000Y-70800000D03*
X49125000Y-67500000D03*
%TD*%
%TO.C,D6*%
X63425000Y-51750000D03*
X63425000Y-48450000D03*
%TD*%
D37*
%TO.C,C_3V-Decoup7*%
X53030000Y-78700000D03*
X52070000Y-78700000D03*
%TD*%
D32*
%TO.C,D72*%
X59410000Y-125975000D03*
D33*
X59410000Y-124875000D03*
X61240000Y-124875000D03*
X61240000Y-125975000D03*
%TD*%
D35*
%TO.C,D75*%
X146965000Y-48675000D03*
D33*
X146965000Y-49775000D03*
X145135000Y-49775000D03*
X145135000Y-48675000D03*
%TD*%
D37*
%TO.C,C_LDO1*%
X47930000Y-54625000D03*
X46970000Y-54625000D03*
%TD*%
D50*
%TO.C,J2*%
X34550000Y-81925000D03*
D51*
X34550000Y-84465000D03*
X34550000Y-87005000D03*
X34550000Y-89545000D03*
X34550000Y-92085000D03*
%TD*%
D30*
%TO.C,D1*%
X44375000Y-51750000D03*
X44375000Y-48450000D03*
%TD*%
%TO.C,D67*%
X311075000Y-108900000D03*
X311075000Y-105600000D03*
%TD*%
%TO.C,D13*%
X92000000Y-70800000D03*
X92000000Y-67500000D03*
%TD*%
D52*
%TO.C,R_DATA2*%
X56925000Y-75240000D03*
X56925000Y-76260000D03*
%TD*%
D41*
%TO.C,R_USB1*%
X49460000Y-48900000D03*
X48440000Y-48900000D03*
%TD*%
D37*
%TO.C,C_3V-Decoup4*%
X53310000Y-84440000D03*
X52350000Y-84440000D03*
%TD*%
D30*
%TO.C,D21*%
X130100000Y-70800000D03*
X130100000Y-67500000D03*
%TD*%
%TO.C,D52*%
X216210000Y-125450000D03*
X216210000Y-128750000D03*
%TD*%
D52*
%TO.C,R_DATA1*%
X58075000Y-75240000D03*
X58075000Y-76260000D03*
%TD*%
D33*
%TO.C,D76*%
X153705000Y-120330000D03*
X153705000Y-119230000D03*
X151875000Y-119230000D03*
D32*
X151875000Y-120330000D03*
%TD*%
D35*
%TO.C,D79*%
X242215000Y-48675000D03*
D33*
X242215000Y-49775000D03*
X240385000Y-49775000D03*
X240385000Y-48675000D03*
%TD*%
D30*
%TO.C,D4*%
X56275000Y-108900000D03*
X56275000Y-105600000D03*
%TD*%
D38*
%TO.C,S*%
X93540000Y-86312500D03*
X94490000Y-88187500D03*
X92590000Y-88187500D03*
%TD*%
D30*
%TO.C,D3*%
X51525000Y-89850000D03*
X51525000Y-86550000D03*
%TD*%
%TO.C,D36*%
X192025000Y-89850000D03*
X192025000Y-86550000D03*
%TD*%
%TO.C,D12*%
X82475000Y-52700000D03*
X82475000Y-49400000D03*
%TD*%
%TO.C,D25*%
X139625000Y-52700000D03*
X139625000Y-49400000D03*
%TD*%
D53*
%TO.C,SW1*%
X83050000Y-60060000D03*
X76750000Y-60060000D03*
X83050000Y-63860000D03*
X76750000Y-63860000D03*
%TD*%
D30*
%TO.C,D30*%
X158675000Y-52700000D03*
X158675000Y-49400000D03*
%TD*%
%TO.C,D51*%
X239650000Y-108900000D03*
X239650000Y-105600000D03*
%TD*%
D54*
%TO.C,J1*%
X56050000Y-58750000D03*
X56050000Y-59750000D03*
X56050000Y-60750000D03*
X56050000Y-61750000D03*
D55*
X59925000Y-57450000D03*
X59925000Y-63050000D03*
%TD*%
D56*
%TO.C,R_USB2*%
X52265000Y-48600000D03*
X53285000Y-48600000D03*
%TD*%
D30*
%TO.C,D28*%
X144400000Y-108900000D03*
X144400000Y-105600000D03*
%TD*%
%TO.C,D38*%
X183110000Y-128790000D03*
X183110000Y-125490000D03*
%TD*%
D31*
%TO.C,C_Crystal1*%
X63400000Y-92945000D03*
X63400000Y-93905000D03*
%TD*%
D30*
%TO.C,D45*%
X230100000Y-89850000D03*
X230100000Y-86550000D03*
%TD*%
D37*
%TO.C,C_3V-Decoup5*%
X53030000Y-79750000D03*
X52070000Y-79750000D03*
%TD*%
D52*
%TO.C,R_Shield1*%
X58275000Y-41415000D03*
X58275000Y-42435000D03*
%TD*%
D30*
%TO.C,D32*%
X172950000Y-89850000D03*
X172950000Y-86550000D03*
%TD*%
%TO.C,D55*%
X268200000Y-89850000D03*
X268200000Y-86550000D03*
%TD*%
%TO.C,D49*%
X244400000Y-70800000D03*
X244400000Y-67500000D03*
%TD*%
D57*
%TO.C,D70*%
X51225000Y-97310000D03*
D33*
X52325000Y-97310000D03*
X52325000Y-99140000D03*
X51225000Y-99140000D03*
%TD*%
D30*
%TO.C,D5*%
X53530000Y-129280000D03*
X53530000Y-125980000D03*
%TD*%
D58*
%TO.C,Y1*%
X59075000Y-92575000D03*
X61275000Y-92575000D03*
X61275000Y-94275000D03*
X59075000Y-94275000D03*
%TD*%
D30*
%TO.C,D23*%
X125350000Y-108900000D03*
X125350000Y-105600000D03*
%TD*%
D59*
%TO.C,U5*%
X65542500Y-54740000D03*
X65542500Y-53790000D03*
X65542500Y-52840000D03*
X67817500Y-52840000D03*
X67817500Y-54740000D03*
%TD*%
D30*
%TO.C,D20*%
X120575000Y-52700000D03*
X120575000Y-49400000D03*
%TD*%
%TO.C,D42*%
X201550000Y-108900000D03*
X201550000Y-105600000D03*
%TD*%
%TO.C,D64*%
X303125000Y-89875000D03*
X303125000Y-86575000D03*
%TD*%
%TO.C,D65*%
X311075000Y-51750000D03*
X311075000Y-48450000D03*
%TD*%
%TO.C,D16*%
X101525000Y-52700000D03*
X101525000Y-49400000D03*
%TD*%
%TO.C,D56*%
X258700000Y-108900000D03*
X258700000Y-105600000D03*
%TD*%
%TO.C,D27*%
X153900000Y-89850000D03*
X153900000Y-86550000D03*
%TD*%
D38*
%TO.C,U3*%
X48850000Y-58162500D03*
X46950000Y-58162500D03*
X47900000Y-56287500D03*
%TD*%
D30*
%TO.C,D59*%
X282500000Y-70800000D03*
X282500000Y-67500000D03*
%TD*%
D32*
%TO.C,D82*%
X288010000Y-125975000D03*
D33*
X288010000Y-124875000D03*
X289840000Y-124875000D03*
X289840000Y-125975000D03*
%TD*%
D35*
%TO.C,D81*%
X280315000Y-48675000D03*
D33*
X280315000Y-49775000D03*
X278485000Y-49775000D03*
X278485000Y-48675000D03*
%TD*%
D30*
%TO.C,D58*%
X272975000Y-52700000D03*
X272975000Y-49400000D03*
%TD*%
D36*
%TO.C,C_3V-Decoup3*%
X59510000Y-74000000D03*
X59510000Y-73040000D03*
%TD*%
D30*
%TO.C,D57*%
X265590000Y-128770000D03*
X265590000Y-125470000D03*
%TD*%
D35*
%TO.C,D73*%
X108865000Y-48675000D03*
D33*
X108865000Y-49775000D03*
X107035000Y-49775000D03*
X107035000Y-48675000D03*
%TD*%
D30*
%TO.C,D43*%
X215825000Y-52700000D03*
X215825000Y-49400000D03*
%TD*%
%TO.C,D68*%
X308300000Y-130780000D03*
X308300000Y-127480000D03*
%TD*%
D31*
%TO.C,C_1V-Decoup3*%
X56550000Y-90170000D03*
X56550000Y-91130000D03*
%TD*%
D39*
%TO.C,D83*%
X301775000Y-73965000D03*
D33*
X300675000Y-73965000D03*
X300675000Y-72135000D03*
X301775000Y-72135000D03*
%TD*%
D30*
%TO.C,D66*%
X306325000Y-70800000D03*
X306325000Y-67500000D03*
%TD*%
%TO.C,D62*%
X294100000Y-130200000D03*
X294100000Y-126900000D03*
%TD*%
%TO.C,D18*%
X115800000Y-89850000D03*
X115800000Y-86550000D03*
%TD*%
D32*
%TO.C,D80*%
X242680000Y-125975000D03*
D33*
X242680000Y-124875000D03*
X244510000Y-124875000D03*
X244510000Y-125975000D03*
%TD*%
D36*
%TO.C,C_Shield1*%
X59400000Y-42405000D03*
X59400000Y-41445000D03*
%TD*%
D30*
%TO.C,D33*%
X163450000Y-108900000D03*
X163450000Y-105600000D03*
%TD*%
%TO.C,D8*%
X77725000Y-89850000D03*
X77725000Y-86550000D03*
%TD*%
D60*
%TO.C,U2*%
X76920000Y-67925000D03*
X78190000Y-67925000D03*
X79460000Y-67925000D03*
X80730000Y-67925000D03*
X80730000Y-75125000D03*
X79460000Y-75125000D03*
X78190000Y-75125000D03*
X76920000Y-75125000D03*
%TD*%
D30*
%TO.C,D44*%
X225350000Y-70800000D03*
X225350000Y-67500000D03*
%TD*%
D40*
%TO.C,R_RST1*%
X37300000Y-83585000D03*
X37300000Y-82565000D03*
%TD*%
D30*
%TO.C,D53*%
X253925000Y-52700000D03*
X253925000Y-49400000D03*
%TD*%
%TO.C,D7*%
X72950000Y-70800000D03*
X72950000Y-67500000D03*
%TD*%
D61*
%TO.C,F1*%
X47850000Y-51337500D03*
X47850000Y-53212500D03*
%TD*%
D62*
%TO.C,C_3V-Decoup9*%
X65410589Y-85560589D03*
X66089411Y-86239411D03*
%TD*%
D30*
%TO.C,D31*%
X168200000Y-70800000D03*
X168200000Y-67500000D03*
%TD*%
%TO.C,D11*%
X87225000Y-108900000D03*
X87225000Y-105600000D03*
%TD*%
D37*
%TO.C,C_3V-Decoup1*%
X46930000Y-60750000D03*
X45970000Y-60750000D03*
%TD*%
D30*
%TO.C,D41*%
X211075000Y-89850000D03*
X211075000Y-86550000D03*
%TD*%
D57*
%TO.C,D69*%
X45475000Y-74585000D03*
D33*
X46575000Y-74585000D03*
X46575000Y-76415000D03*
X45475000Y-76415000D03*
%TD*%
D38*
%TO.C,D*%
X113930000Y-88207500D03*
X112980000Y-86332500D03*
X112030000Y-88207500D03*
%TD*%
D52*
%TO.C,R_Flash1*%
X76900000Y-65090000D03*
X76900000Y-66110000D03*
%TD*%
D30*
%TO.C,D17*%
X111050000Y-70800000D03*
X111050000Y-67500000D03*
%TD*%
M02*
